<svg width="16" height="16" version="1.1" viewBox="0 0 4.2333 4.2333" xmlns="http://www.w3.org/2000/svg">
 <defs>
  <linearGradient id="linearGradient20" x1="-1.8048" x2=".85498" y1="11.531" y2="11.503" gradientTransform="matrix(.88889 0 0 .88889 3.24 -8.2348)" gradientUnits="userSpaceOnUse">
   <stop stop-color="#adadad" offset="0"/>
   <stop stop-color="#969696" offset=".64124"/>
   <stop stop-color="#808080" offset="1"/>
  </linearGradient>
  <linearGradient id="linearGradient18" x1="-3.645" x2="-.19775" y1="11.514" y2="11.514" gradientTransform="matrix(.88889 0 0 .88889 3.24 -8.2348)" gradientUnits="userSpaceOnUse">
   <stop stop-color="#808080" offset="0"/>
   <stop stop-color="#969696" offset=".18503"/>
   <stop stop-color="#adadad" offset="1"/>
  </linearGradient>
 </defs>
 <g transform="matrix(-1.0583 0 0 1.0583 4.2333 1.0568e-7)" fill="none">
  <g stroke-width="0">
   <path d="m3.4961 0.67318-1.3859 0.46875-0.017795 1.7075 1.4206 0.45833a2 2 0 0 0 0.48698-1.3077 2 2 0 0 0-0.50391-1.3268z" fill="url(#linearGradient20)"/>
   <path d="m3.0642 0.30773-1.546 0.523 0.00868 2.4119 1.5091 0.46484a2 2 0 0 0 0.477-0.39974l-1.4206-0.45833 0.017795-1.7075 1.3859-0.46875a2 2 0 0 0-0.43186-0.36545z" fill="#fff"/>
   <path d="m2-5.2473e-8a2 2 0 0 0-2 2 2 2 0 0 0 2 2 2 2 0 0 0 1.036-0.29253l-1.5091-0.46484-0.00868-2.4119 1.546-0.523a2 2 0 0 0-1.0642-0.30773z" fill="url(#linearGradient18)"/>
  </g>
 </g>
</svg>
