<svg width="950" height="205" version="1.1" viewBox="0 0 251.35 54.24" xml:space="preserve" xmlns="http://www.w3.org/2000/svg"><g transform="matrix(.26398 0 0 .26398 24.941 -11.329)"><g transform="translate(-.47177)"><path d="m783.98 196.79q-14.877 12.724-37.976 12.724t-37.976-12.724q-14.877-12.724-14.877-34.256v-92.786h31.32v90.045q0 19.184 21.533 19.184t21.533-19.184v-90.045h31.32v92.786q0 21.533-14.877 34.256zm37.388-127.04h31.32v137.03h-31.32z" stroke="#383838" stroke-linecap="round" stroke-linejoin="round" stroke-miterlimit="50" stroke-width=".1632" aria-label="UI"/><g transform="matrix(.90115 0 0 .90115 76.148 -57.35)"><path d="m644.83 191.06h-32.808v63.5q0 8.2021 3.7042 11.906 3.7042 3.4396 10.848 3.9687 7.4083 0.26459 18.256-0.26458v25.665q-32.808 3.9688-47.096-5.5562-14.287-9.7896-14.287-35.719v-63.5h-24.342v-27.517h24.342v-28.575l28.575-8.4666v37.042h32.808zm-193.3 48.528q3.175 15.081 14.552 23.283 11.377 7.9375 27.781 7.9375 22.754 0 34.131-16.404l23.548 13.758q-19.579 28.84-57.944 28.84-32.279 0-52.123-19.579-19.844-19.844-19.844-50.006 0-29.633 19.579-49.477 19.579-20.108 50.271-20.108 29.104 0 47.625 20.373 18.785 20.373 18.785 49.477 0 4.4979-1.0583 11.906zm-0.26458-23.283h77.787q-2.9104-16.14-13.494-24.342-10.319-8.2021-24.342-8.2021-15.875 0-26.458 8.7312t-13.494 23.812zm-23.771 80.698h-34.131l-54.24-61.119v61.119h-28.575v-185.21h28.575v111.39l51.329-58.473h34.925l-58.208 64.823zm-183.85 0q-29.898 0-50.006-20.108-19.844-20.108-19.844-49.477 0-29.633 19.844-49.477 20.108-20.108 50.006-20.108 19.315 0 35.19 9.2604 15.875 9.2604 23.812 24.871l-24.606 14.287q-4.4979-9.525-13.758-14.817-8.9958-5.5562-20.902-5.5562-17.462 0-29.369 11.906-11.642 11.906-11.642 29.633t11.642 29.633q11.906 11.906 29.369 11.906 11.642 0 20.902-5.5562 9.525-5.5562 14.287-14.817l24.606 14.023q-8.4666 15.875-24.342 25.135-15.875 9.2604-35.19 9.2604zm-107.12-132.29h28.575v132.29h-28.575v-19.05q-16.14 22.49-46.302 22.49-27.252 0-46.567-20.108-19.315-20.373-19.315-49.477 0-29.369 19.315-49.477 19.315-20.108 46.567-20.108 30.162 0 46.302 22.225zm-71.702 96.573q11.906 11.906 29.898 11.906 17.992 0 29.898-11.906 11.906-12.171 11.906-30.427t-11.906-30.162q-11.906-12.171-29.898-12.171-17.992 0-29.898 12.171-11.906 11.906-11.906 30.162t11.906 30.427zm-83.873-74.348q10.848-24.606 40.746-24.606v30.956q-16.404-1.0583-28.575 7.9375-12.171 8.7312-12.171 29.104v66.675h-28.575v-132.29h28.575z" stroke-miterlimit="50" stroke-width="0"/></g><g transform="translate(-94.498 -.050621)" stroke-miterlimit="50"><path d="m0.042375 78.14v139.7l65.61-21.169-1.0061-96.701z" fill="#fff" stroke="#969696" stroke-linecap="round" stroke-linejoin="round" stroke-width=".05"/><path d="m0.042375 78.14 64.604 21.829 1.0061 96.701-65.61 21.169v30.121h3.4277l94.206-29.034 0.50023-136.58-98.134-33.201z" stroke-width="0"/></g></g></g></svg>
