<svg version="1.1" viewBox="0 0 180.74 18" xml:space="preserve" xmlns="http://www.w3.org/2000/svg" xmlns:xlink="http://www.w3.org/1999/xlink"><defs><linearGradient id="linearGradient10" x1="1.5696" x2="4.7596" y1="2.4056" y2="2.4056" gradientTransform="matrix(3.7795 0 0 3.7795 -206.57 .4858)" gradientUnits="userSpaceOnUse"><stop stop-color="#fff" offset=".77106"/><stop stop-color="#fff" stop-opacity="0" offset="1"/></linearGradient></defs><path d="m401.46-42.82c-0.147-1.4087-0.793-2.5084-1.918-3.29-1.135-0.7907-2.601-1.1815-4.4-1.1815-1.263 0-2.351 0.1909-3.255 0.5635-0.904 0.3817-1.605 0.8906-2.085 1.5359-0.479 0.6453-0.719 1.3815-0.738 2.2086 0 0.6907 0.166 1.2905 0.489 1.7904 0.323 0.5089 0.756 0.9361 1.319 1.2815 0.553 0.3544 1.171 0.6452 1.845 0.8815 0.682 0.2363 1.365 0.4363 2.047 0.5999l3.145 0.7725c1.264 0.2908 2.491 0.6817 3.662 1.1815 1.171 0.4908 2.232 1.1179 3.163 1.8722 0.932 0.7544 1.67 1.6632 2.214 2.7266 0.544 1.0633 0.821 2.3084 0.821 3.7444 0 1.9358-0.498 3.6354-1.504 5.1077-1.005 1.4632-2.453 2.6084-4.353 3.4355-1.891 0.818-4.178 1.236-6.871 1.236-2.601 0-4.87-0.3998-6.779-1.1996-1.918-0.7907-3.413-1.9541-4.492-3.481-1.079-1.5268-1.66-3.39-1.743-5.5803h5.977c0.083 1.1451 0.452 2.0995 1.079 2.872 0.636 0.7634 1.466 1.3269 2.481 1.7086 1.024 0.3726 2.167 0.5635 3.431 0.5635 1.319 0 2.481-0.2 3.486-0.5908 0.996-0.3908 1.78-0.936 2.343-1.6449 0.572-0.6999 0.858-1.5269 0.867-2.4721-9e-3 -0.8634-0.268-1.5815-0.766-2.145-0.507-0.5634-1.208-1.036-2.103-1.4177-0.903-0.3817-1.955-0.7271-3.154-1.027l-3.818-0.9634c-2.758-0.6998-4.944-1.7631-6.54-3.19-1.604-1.4269-2.398-3.3173-2.398-5.6894 0-1.9449 0.535-3.6535 1.615-5.1168 1.069-1.4632 2.536-2.5993 4.39-3.4082 1.863-0.8179 3.966-1.2179 6.308-1.2179 2.38 0 4.464 0.4 6.263 1.2179 1.798 0.8089 3.21 1.9359 4.233 3.3718 1.024 1.436 1.559 3.081 1.587 4.9441zm-30.851-9.0885h6.032v23.239c-9e-3 2.1358-0.471 3.9626-1.374 5.4986-0.913 1.5359-2.177 2.7082-3.8 3.5353-1.614 0.8179-3.505 1.2361-5.654 1.2361-1.965 0-3.726-0.3545-5.294-1.0452s-2.813-1.7268-3.726-3.0901c-0.923-1.3633-1.375-3.0628-1.375-5.0986h6.042c9e-3 0.8907 0.212 1.6631 0.599 2.3084s0.922 1.136 1.605 1.4814c0.691 0.3454 1.485 0.5181 2.379 0.5181 0.969 0 1.799-0.2 2.472-0.609 0.673-0.3999 1.19-0.9997 1.55-1.7995 0.35-0.7906 0.535-1.7722 0.544-2.9355zm-23.233 33.409c-0.997 0-1.845-0.3453-2.555-1.036s-1.061-1.5269-1.052-2.5175c-9e-3 -0.9634 0.342-1.7905 1.052-2.4812s1.558-1.0361 2.555-1.0361c0.959 0 1.798 0.3454 2.508 1.0361 0.72 0.6907 1.079 1.5178 1.089 2.4812-0.01 0.6543-0.176 1.2541-0.508 1.7903-0.341 0.5454-0.774 0.9726-1.319 1.2816-0.535 0.3181-1.125 0.4816-1.77 0.4816zm-252.7 0.4844-63.892-79.339h-17.015v79.306h13.612v-62.354l50.195 62.387zm120.69-22.624-8.921-11.092-27.224 33.81h17.865zm-18.28-56.649h-17.814l63.806 79.306h17.866l-31.907-39.626 31.856-39.62-17.815 0.02753-22.96 28.516zm-34.268-0.03308v12.667h-55.01v20.377h44.239v12.667h-44.239v20.928h55.01v12.667h-68.622v-66.639h-0.0057v-12.667zm112.87 0h68.628v12.667h-27.224v66.639h-13.613v-66.639h-27.791z" display="none"/><path d="m-113.52 10.367h-3.185l-0.0107-2.1162h2.7682q0.6413 0 1.0688-0.23514 0.4382-0.24582 0.65196-0.70541 0.22445-0.45959 0.22445-1.1222 0-0.74816-0.20307-1.1971-0.19239-0.45959-0.61991-0.67335-0.42752-0.21376-1.1116-0.21376h-1.849v13.168h-2.8644v-15.562h4.7134q1.1222 0 2.0094 0.25651 0.8978 0.24582 1.5177 0.76954 0.6199 0.52371 0.94055 1.3253 0.33133 0.79091 0.33133 1.8811 0 0.96192-0.39546 1.7635-0.39546 0.8016-1.2077 1.3146-0.80161 0.51303-2.0414 0.58784zm-0.10688 6.9045h-3.9439l1.2184-2.3834h2.7254q0.66266 0 1.0688-0.27789 0.41683-0.27789 0.61991-0.76954 0.20306-0.50234 0.20306-1.1543 0-0.70541-0.18169-1.2291-0.17101-0.52372-0.56647-0.8016-0.38477-0.28858-1.0367-0.28858h-2.6506l0.0213-2.1162h3.3026l0.67334 0.82298q1.1757-0.010689 1.9025 0.51303 0.72679 0.52371 1.0581 1.3574 0.33133 0.82298 0.33133 1.7742 0 1.4856-0.55579 2.501-0.55577 1.0154-1.6139 1.5391-1.0581 0.51303-2.5758 0.51303zm8.8818-15.562h4.8417q1.5498 0 2.6399 0.5344 1.0902 0.5344 1.6566 1.5818 0.57716 1.0474 0.57716 2.5758 0 1.2184-0.35271 2.1162-0.34202 0.88711-0.9833 1.4856-0.63059 0.59853-1.5284 0.92986l-0.86574 0.49165h-4.008l-0.0107-2.3834h2.811q0.69472 0 1.1543-0.30995 0.47027-0.30995 0.69472-0.85504 0.23513-0.55578 0.23513-1.2719 0-0.78023-0.21375-1.336-0.20308-0.56647-0.65198-0.86573-0.43821-0.29927-1.1543-0.29927h-1.9773v13.168h-2.8644zm7.161 15.562-2.9178-6.9686h3.0033l2.9713 6.819v0.14963zm12.238-13.104-3.5591 13.104h-3.014l4.9058-15.562h1.8811zm2.811 13.104-3.5591-13.104-0.24583-2.4582h1.9025l4.9272 15.562zm0.0962-5.7929v2.3834h-7.1396v-2.3834zm13.529 0.66266h2.8537q-0.0748 1.7208-0.70541 2.9178-0.6199 1.1864-1.7849 1.8063-1.1543 0.61991-2.811 0.61991-1.2612 0-2.2552-0.43821-0.99399-0.4489-1.6887-1.2933-0.68403-0.84436-1.0474-2.0735-0.3527-1.2398-0.3527-2.8323v-2.7041q0-1.5925 0.37408-2.8323t1.0688-2.0949q0.7054-0.85504 1.7101-1.2933t2.2659-0.43821q1.6673 0 2.7896 0.63059 1.1222 0.6306 1.7315 1.849 0.60921 1.2077 0.7161 2.9499h-2.8537q-0.0428-1.1329-0.27789-1.7956-0.23514-0.67335-0.73748-0.96192-0.50233-0.28858-1.3681-0.28858-0.67334 0-1.165 0.24583-0.49165 0.24582-0.80161 0.76954-0.30995 0.51303-0.45958 1.3146-0.14963 0.8016-0.14963 1.9238v2.7254q0 1.0795 0.12826 1.8811 0.12825 0.8016 0.40614 1.336 0.28858 0.52372 0.76954 0.79092 0.48096 0.25651 1.1971 0.25651 0.86573 0 1.3788-0.25651 0.51302-0.2672 0.75885-0.90848 0.25651-0.65197 0.30995-1.8063zm9.6727-10.432v15.562h-2.8644v-15.562zm7.7488 0-5.1196 7.6206-3.0995 3.837-0.53441-2.9285 2.0628-3.2599 3.2171-5.2692zm-3.2385 15.562-3.666-7.2465 2.0414-1.9452 5.0127 9.1917zm15.295-2.3834v2.3834h-6.7548v-2.3834zm-5.9319-13.178v15.562h-2.8644v-15.562zm5.0234 6.3914v2.3193h-5.8464v-2.3193zm0.86573-6.3914v2.3941h-6.7121v-2.3941zm9.7261 0v15.562h-2.843v-15.562zm3.9225 0v2.3941h-10.624v-2.3941zm-151.21-0.00534v15.562h-2.0307v-15.562zm5.002 0v1.6887h-12.024v-1.6887zm12.473 6.6907v1.678h-8.4222v-1.678zm-8.1015-6.6907v15.562h-2.0628v-15.562zm9.8971 0v15.562h-2.0521v-15.562zm5.8677 0v15.562h-2.0628v-15.562zm3.7408 0h5.1516q1.7528 0 2.9606 0.5344 1.2184 0.5344 1.849 1.5818 0.64128 1.0367 0.64128 2.5544 0 1.0688-0.43821 1.9559-0.42752 0.87642-1.2398 1.4963-0.80161 0.60922-1.9238 0.90848l-0.57715 0.22445h-4.8417l-0.0214-1.678h3.6553q1.1116 0 1.849-0.38477 0.73748-0.39546 1.1116-1.0581 0.37408-0.66266 0.37408-1.4643 0-0.8978-0.3527-1.5711-0.35271-0.67335-1.1116-1.0367-0.74816-0.37408-1.9345-0.37408h-3.0888v13.873h-2.0628zm9.0955 15.562-3.7836-7.0541 2.1483-0.01069 3.837 6.9365v0.12826zm8.6039 0h-3.2492l0.0214-1.678h3.2278q1.6673 0 2.7789-0.69472 1.1116-0.70541 1.6673-1.9666 0.56647-1.2719 0.56647-2.9713v-0.95124q0-1.336-0.32065-2.3727-0.32064-1.0474-0.94055-1.7635-0.6199-0.72679-1.5177-1.1009-0.88711-0.37408-2.0414-0.37408h-3.5057v-1.6887h3.5057q1.5284 0 2.7896 0.51303 1.2612 0.50234 2.1697 1.4643 0.91917 0.95124 1.4108 2.3086 0.49165 1.3467 0.49165 3.0354v0.92986q0 1.6887-0.49165 3.0461-0.49165 1.3467-1.4215 2.2979-0.91917 0.95124-2.2231 1.4643-1.2933 0.50234-2.9178 0.50234zm-2.1483-15.562v15.562h-2.0628v-15.562z" display="none" stroke-miterlimit="50" stroke-width="0" style="font-variation-settings:'wght' 600"/><g transform="translate(206.57 -.48573)"><path d="m-188.61 2.7267-9.5097 3.2129-0.0762 7.3497 9.5584 3.084a2.34 2.34 0 0 0 0.0312-0.23633v-13.32a2.34 2.34 0 0 0-4e-3 -0.089843z" fill="#1f2937" stroke-width="0" style="font-variation-settings:'wght' 700"/><path d="m-189.97 18.265-10.629-3.2754-0.0371-10.381 11.02-3.7285a2.34 2.34 0 0 0-1.2988-0.39454h-13.32a2.34 2.34 0 0 0-2.3398 2.3398v13.32a2.34 2.34 0 0 0 2.3398 2.3398h13.32a2.34 2.34 0 0 0 0.9453-0.22072z" fill="#1f2937" stroke-width="0" style="font-variation-settings:'wght' 700"/><path d="m-189.62 0.88545a2.34 2.34 0 0 0-2e-3 0l-11.02 3.7285 0.0371 10.381 10.629 3.2754a2.34 2.34 0 0 0 1.3633-1.8828l-9.5584-3.084 0.0762-7.3497 9.5097-3.2129a2.34 2.34 0 0 0-1.0352-1.8555z" fill="url(#linearGradient10)" stroke-width="3.7795" style="font-variation-settings:'wght' 700"/></g><path d="m30.779 1.4167v15.167h-1.9792v-15.167zm4.875 0v1.6458h-11.719v-1.6458zm12.156 6.5208v1.6354h-8.2083v-1.6354zm-7.8958-6.5208v15.167h-2.0104v-15.167zm9.6458 0v15.167h-2v-15.167zm5.7187 0v15.167h-2.0104v-15.167zm3.6458 0h5.0208q1.7083 0 2.8854 0.52083 1.1875 0.52083 1.8021 1.5417 0.625 1.0104 0.625 2.4896 0 1.0417-0.42708 1.9062-0.41667 0.85417-1.2083 1.4583-0.78125 0.59375-1.875 0.88542l-0.5625 0.21875h-4.7187l-0.02083-1.6354h3.5625q1.0833 0 1.8021-0.375 0.71875-0.38542 1.0833-1.0312 0.36458-0.64583 0.36458-1.4271 0-0.875-0.34375-1.5312-0.34375-0.65625-1.0833-1.0104-0.72916-0.36458-1.8854-0.36458h-3.0104v13.521h-2.0104zm8.8646 15.167-3.6875-6.875 2.0937-0.010417 3.7396 6.7604v0.125zm8.3854 0h-3.1667l0.02083-1.6354h3.1458q1.625 0 2.7083-0.67708 1.0833-0.6875 1.625-1.9167 0.55208-1.2396 0.55208-2.8958v-0.92708q0-1.3021-0.3125-2.3125-0.3125-1.0208-0.91666-1.7187-0.60416-0.70833-1.4792-1.0729-0.86458-0.36458-1.9896-0.36458h-3.4167v-1.6458h3.4167q1.4896 0 2.7187 0.5 1.2292 0.48958 2.1146 1.4271 0.89583 0.92708 1.375 2.25 0.47917 1.3125 0.47917 2.9583v0.90625q0 1.6458-0.47917 2.9687-0.47917 1.3125-1.3854 2.2396-0.89583 0.92708-2.1667 1.4271-1.2604 0.48958-2.8437 0.48958zm-2.0937-15.167v15.167h-2.0104v-15.167z" fill="#1f2937" stroke-miterlimit="50" stroke-width="0" aria-label="THIRD"/><path d="m93.686 9.75h-3.0937l-0.01042-1.9375h2.7396q0.63542 0 1.0833-0.25t0.67708-0.72917q0.23958-0.47917 0.23958-1.1562 0-0.75-0.21875-1.2187-0.20833-0.47917-0.64583-0.69792-0.4375-0.21875-1.125-0.21875h-1.9896v13.042h-2.5312v-15.167h4.5208q1.0625 0 1.8958 0.23958 0.83333 0.23958 1.4167 0.75 0.59375 0.51042 0.89583 1.2812 0.3125 0.77083 0.3125 1.8333 0 0.92708-0.39583 1.7083-0.39583 0.77083-1.1771 1.2708-0.77083 0.48958-1.9167 0.58333zm-0.09375 6.8333h-3.8333l1.1667-2.1146h2.6667q0.67708 0 1.1146-0.29167 0.4375-0.29167 0.65625-0.8125 0.21875-0.52083 0.21875-1.2187 0-0.72917-0.1875-1.2708-0.1875-0.54167-0.60417-0.83333-0.41667-0.29167-1.1042-0.29167h-2.5521l0.02083-1.9375h3.2604l0.58333 0.73958q1.0937 0.020833 1.7812 0.54167 0.6875 0.51042 1.0104 1.3229 0.32292 0.8125 0.32292 1.7396 0 1.4479-0.54166 2.4375-0.53125 0.97917-1.5417 1.4896-1.0104 0.5-2.4375 0.5zm8.6979-15.167h4.5833q1.5 0 2.5417 0.52083 1.0417 0.52083 1.5833 1.5417 0.55209 1.0104 0.55209 2.5104 0 1.1354-0.34375 2-0.33334 0.86458-0.96875 1.4583-0.63542 0.58333-1.5312 0.90625l-0.73958 0.40625h-3.875l-0.0104-2.125h2.7292q0.73958 0 1.2292-0.32292 0.48958-0.32292 0.72916-0.89583 0.25-0.57292 0.25-1.3021 0-0.78125-0.21875-1.3542-0.21875-0.58333-0.6875-0.89583-0.46875-0.32292-1.2396-0.32292h-2.0521v13.042h-2.5312zm7.0625 15.167-2.8854-6.8125 2.6354-0.010417 2.9583 6.6875v0.13542zm11.583-13.083-3.6667 13.083h-2.6458l4.8125-15.167h1.6458zm2.9271 13.083-3.6771-13.083-0.17708-2.0833h1.6771l4.8333 15.167zm0.0625-5.6354v2.125h-7.0625v-2.125zm13.17 0.6875h2.5208q-0.0729 1.6458-0.66666 2.8021-0.59375 1.1458-1.7083 1.75-1.1042 0.60417-2.6979 0.60417-1.2083 0-2.1667-0.4375-0.94792-0.4375-1.6146-1.2604-0.66667-0.83333-1.0208-2.0312-0.34375-1.1979-0.34375-2.7187v-2.6875q0-1.5208 0.35416-2.7187 0.36459-1.1979 1.0417-2.0312t1.6458-1.2604q0.97916-0.4375 2.2083-0.4375 1.5729 0 2.6458 0.60417 1.0729 0.60417 1.6562 1.7708 0.58333 1.1667 0.67708 2.8437h-2.5208q-0.0521-1.1354-0.3125-1.8125-0.25-0.6875-0.77083-0.98958-0.51042-0.30208-1.375-0.30208-0.71875 0-1.2396 0.27083-0.51042 0.27083-0.84375 0.8125-0.32292 0.53125-0.48958 1.3437-0.15625 0.80208-0.15625 1.8854v2.7083q0 1.0417 0.13541 1.8437 0.13542 0.80208 0.4375 1.3646 0.30208 0.55208 0.80208 0.84375 0.5 0.28125 1.25 0.28125 0.89583 0 1.4271-0.28125 0.54167-0.28125 0.80209-0.94792 0.26041-0.66667 0.32291-1.8125zm9.0625-10.219v15.167h-2.5312v-15.167zm7.5729 0-5.0521 7.3229-3.0312 3.7187-0.47917-2.6458 2.0938-3.1042 3.4062-5.2917zm-2.7812 15.167-3.8437-7.1667 1.7396-1.8021 5.0937 8.9687zm14.604-2.1146v2.1146h-6.5833v-2.1146zm-5.9167-13.052v15.167h-2.5312v-15.167zm5.0312 6.3125v2.0833h-5.6979v-2.0833zm0.82292-6.3125v2.125h-6.5208v-2.125zm9.3854 0v15.167h-2.5208v-15.167zm3.8646 0v2.125h-10.208v-2.125z" fill="#1f2937" stroke-miterlimit="50" stroke-width="0" style="font-variation-settings:'wght' 500" aria-label="BRACKET"/></svg>
