<svg width="200" height="25" version="1.1" viewBox="0 0 52.917 6.6146" xml:space="preserve" xmlns="http://www.w3.org/2000/svg"><path d="m3.1508-14.397c0.29748-0.1489 0.64385-0.13302 0.92672 0.04159 0.28287 0.17493 0.45177 0.47781 0.45177 0.81052v4.4428c0 0.33272-0.1689 0.63559-0.45177 0.81053-0.28288 0.17461-0.62924 0.19049-0.92672 0.041592l-2.4313-1.2156v-3.7155l2.4313-1.2156zm-5.2886-0.10128h4.0714l-1.849 0.94545v4.459l1.849 0.94514h-4.0714c-0.52511 0-0.95244-0.42733-0.95244-0.95244v-4.4447c0-0.52511 0.42733-0.95244 0.95244-0.95244zm30.658 3.552h-1.0404l-0.0069-0.79237h0.8406q0.21015 0 0.33073-0.06201 0.12058-0.06546 0.17226-0.18948 0.05512-0.12402 0.05512-0.31006 0-0.2136-0.05512-0.34451-0.05512-0.13091-0.1757-0.18948-0.11713-0.06201-0.30661-0.06201h-0.4134v4.0824h-1.1782v-5.0161h1.5916q0.40308 0 0.72002 0.08613 0.31695 0.08268 0.53744 0.25494 0.22393 0.17226 0.34106 0.43408 0.11713 0.25838 0.11713 0.60978 0 0.30661-0.11369 0.57533-0.11024 0.26872-0.3824 0.43753-0.27216 0.16536-0.74759 0.17226zm-0.04134 2.1325h-1.2919l0.40652-0.93018h0.88539q0.17914 0 0.27905-0.075792 0.09991-0.079237 0.14125-0.20671 0.04134-0.13091 0.04134-0.28939 0-0.19293-0.04134-0.33418-0.0379-0.14125-0.12747-0.21704-0.08957-0.07924-0.25149-0.07924h-0.88539l0.0069-0.79237h1.0232l0.2825 0.31695q0.45131-0.02067 0.70624 0.14125 0.25494 0.16192 0.35829 0.42719 0.10335 0.26527 0.10335 0.55466 0 0.49265-0.18259 0.82338-0.17914 0.33073-0.54432 0.49609t-0.90951 0.16536zm2.8215-5.0161h1.7157q0.50298 0 0.87161 0.17226 0.36863 0.17226 0.565 0.50988 0.19982 0.33762 0.19982 0.83371 0 0.43064-0.11024 0.72003-0.1068 0.28939-0.30317 0.47887-0.19637 0.18604-0.46164 0.30661l-0.38241 0.22393h-1.347l-0.0069-0.93362h0.9474q0.16192 0 0.26872-0.08268 0.1068-0.08268 0.15848-0.23427 0.05512-0.15503 0.05512-0.36862 0-0.21704-0.05168-0.37207-0.05168-0.15503-0.15158-0.23771-0.09646-0.08268-0.25149-0.08268h-0.53742v4.0824h-1.1782zm2.2221 5.0161-0.88884-2.2186 1.2471-0.0069 0.90606 2.1739v0.051677zm4.2719-3.9619-0.93362 3.9619h-1.2678l1.5468-5.0161h0.79237zm0.73036 3.9619-0.93362-3.9619-0.15503-1.0542h0.80615l1.5503 5.0161zm0.0379-1.8707v0.93362h-2.1739v-0.93362zm4.4063 0.17226h1.1782q0.0034 0.565-0.22049 0.96463-0.22049 0.39619-0.62356 0.59945-0.40308 0.20326-0.94396 0.20326-0.43753 0-0.77515-0.15158-0.33762-0.15158-0.56844-0.44097-0.23082-0.28939-0.34796-0.69935-0.11713-0.41341-0.11713-0.93707v-0.69936q0-0.52021 0.12402-0.93362 0.12747-0.41341 0.35829-0.7028 0.23427-0.28939 0.565-0.44097 0.33417-0.15158 0.74414-0.15158 0.57533 0 0.97152 0.21704 0.39963 0.2136 0.61323 0.62012 0.2136 0.40308 0.22738 0.96807h-1.1782q0.01723-0.32728-0.04134-0.51332-0.05857-0.18948-0.20671-0.26527-0.14469-0.07924-0.38585-0.07924-0.16536 0-0.27905 0.06546t-0.18259 0.21704q-0.0689 0.14814-0.09991 0.39274-0.03101 0.2446-0.03101 0.59945v0.70624q0 0.36174 0.02412 0.60634t0.08957 0.39619q0.0689 0.14814 0.18604 0.2136 0.12058 0.065457 0.31006 0.065457 0.19982 0 0.34106-0.065457 0.14125-0.068902 0.2136-0.2446 0.07235-0.17914 0.05512-0.50987zm3.4727-3.3176v5.0161h-1.1782v-5.0161zm2.4874 0-1.5847 2.5425-0.97496 1.2437-0.22393-1.1093 0.58567-1.1024 0.74759-1.5744zm-1.4194 5.0161-0.9164-2.26 0.91984-0.69246 1.3884 2.9524zm5.2297-0.93018v0.93018h-2.1945v-0.93018zm-1.7846-4.0859v5.0161h-1.1782v-5.0161zm1.4986 1.9913v0.89917h-1.9086v-0.89917zm0.29628-1.9913v0.93362h-2.2049v-0.93362zm3.2315 0v5.0161h-1.1817v-5.0161zm1.2161 0v0.93362h-3.5795v-0.93362zm-49.13-0.0017v5.0161h-0.65457v-5.0161zm1.6123 0v0.54433h-3.8757v-0.54433zm4.0204 2.1566v0.54088h-2.7147v-0.54088zm-2.6114-2.1566v5.0161h-0.6649v-5.0161zm3.1902 0v5.0161h-0.66146v-5.0161zm1.8914 0v5.0161h-0.6649v-5.0161zm1.2058 0h1.6605q0.565 0 0.95429 0.17226 0.39274 0.17226 0.596 0.50988 0.2067 0.33417 0.2067 0.82338 0 0.34451-0.14125 0.63045-0.1378 0.2825-0.39963 0.48231-0.25838 0.19637-0.62012 0.29283l-0.18604 0.07235h-1.5606l-0.0069-0.54088h1.1782q0.35829 0 0.596-0.12402 0.23771-0.12747 0.35829-0.34106 0.12058-0.2136 0.12058-0.47198 0-0.28939-0.11369-0.50643-0.11368-0.21704-0.35828-0.33418-0.24116-0.12058-0.62356-0.12058h-0.99563v4.4717h-0.6649zm2.9318 5.0161-1.2196-2.2738 0.69246-0.0035 1.2368 2.2359v0.041341zm2.7733 0h-1.0473l0.0069-0.54088h1.0404q0.53744 0 0.89573-0.22393 0.35829-0.22738 0.53744-0.6339 0.18259-0.40997 0.18259-0.95774v-0.30661q0-0.43064-0.10335-0.76481-0.10336-0.33762-0.30318-0.56844-0.19982-0.23427-0.4892-0.35484-0.28594-0.12058-0.65801-0.12058h-1.13v-0.54433h1.13q0.49265 0 0.89917 0.16536 0.40652 0.16192 0.69936 0.47198 0.29628 0.30661 0.45475 0.74414 0.15848 0.43408 0.15848 0.97841v0.29972q0 0.54432-0.15848 0.98185-0.15847 0.43408-0.4582 0.7407-0.29628 0.30661-0.71658 0.47198-0.41686 0.16192-0.94051 0.16192zm-0.69246-5.0161v5.0161h-0.6649v-5.0161z" display="none" stroke-width=".31748"/><path d="m2.5685-22.763c0.29748-0.1489 0.64385-0.13302 0.92672 0.04159 0.28287 0.17493 0.45177 0.47781 0.45177 0.81052v4.4428c0 0.33272-0.1689 0.63559-0.45177 0.81052-0.28288 0.17462-0.62924 0.19049-0.92672 0.04159l-2.4313-1.2156v-3.7155l2.4313-1.2156zm-5.2886-0.10128h4.0714l-1.849 0.94545v4.459l1.849 0.94514h-4.0714c-0.52511 0-0.95244-0.42733-0.95244-0.95244v-4.4447c0-0.52511 0.42733-0.95244 0.95244-0.95244zm30.658 3.552h-1.0404l-0.0069-0.79237h0.8406q0.21015 0 0.33073-0.06201 0.12058-0.06546 0.17226-0.18948 0.05512-0.12402 0.05512-0.31006 0-0.2136-0.05512-0.34451-0.05512-0.13091-0.1757-0.18948-0.11713-0.06201-0.30661-0.06201h-0.4134v4.0824h-1.1782v-5.0161h1.5916q0.40308 0 0.72002 0.08613 0.31695 0.08268 0.53744 0.25494 0.22393 0.17226 0.34106 0.43408 0.11713 0.25838 0.11713 0.60978 0 0.30661-0.11369 0.57533-0.11024 0.26872-0.3824 0.43753-0.27216 0.16536-0.74759 0.17226zm-0.04134 2.1325h-1.2919l0.40652-0.93018h0.88539q0.17914 0 0.27905-0.07579 0.09991-0.07924 0.14125-0.2067 0.04134-0.13091 0.04134-0.28939 0-0.19292-0.04134-0.33417-0.0379-0.14125-0.12747-0.21704-0.08957-0.07924-0.25149-0.07924h-0.88539l0.0069-0.79237h1.0232l0.2825 0.31695q0.45131-0.02067 0.70624 0.14125 0.25494 0.16192 0.35829 0.42719 0.10335 0.26527 0.10335 0.55466 0 0.49265-0.18259 0.82338-0.17914 0.33073-0.54432 0.4961-0.36518 0.16536-0.90951 0.16536zm2.8215-5.0161h1.7157q0.50298 0 0.87161 0.17226 0.36863 0.17226 0.565 0.50987 0.19982 0.33762 0.19982 0.83371 0 0.43064-0.11024 0.72002-0.1068 0.28939-0.30317 0.47887-0.19637 0.18604-0.46164 0.30661l-0.38241 0.22393h-1.347l-0.0069-0.93362h0.9474q0.16192 0 0.26872-0.08268 0.1068-0.08268 0.15848-0.23427 0.05512-0.15503 0.05512-0.36863 0-0.21704-0.05168-0.37207t-0.15158-0.23771q-0.09646-0.08268-0.25149-0.08268h-0.53742v4.0824h-1.1782zm2.2221 5.0161-0.88884-2.2186 1.2471-0.0069 0.90606 2.1739v0.05168zm4.2719-3.9619-0.93362 3.9619h-1.2678l1.5468-5.0161h0.79237zm0.73036 3.9619-0.93362-3.9619-0.15503-1.0542h0.80615l1.5503 5.0161zm0.0379-1.8707v0.93362h-2.1739v-0.93362zm4.4063 0.17226h1.1782q0.0034 0.565-0.22049 0.96463-0.22049 0.39619-0.62356 0.59945-0.40308 0.20326-0.94396 0.20326-0.43753 0-0.77515-0.15158-0.33762-0.15158-0.56844-0.44097-0.23082-0.28939-0.34796-0.69936-0.11713-0.41341-0.11713-0.93707v-0.69936q0-0.52021 0.12402-0.93362 0.12747-0.41341 0.35829-0.7028 0.23427-0.28939 0.565-0.44097 0.33417-0.15158 0.74414-0.15158 0.57533 0 0.97152 0.21704 0.39963 0.2136 0.61323 0.62012 0.2136 0.40308 0.22738 0.96807h-1.1782q0.01723-0.32728-0.04134-0.51332-0.05857-0.18948-0.20671-0.26527-0.14469-0.07924-0.38585-0.07924-0.16536 0-0.27905 0.06546t-0.18259 0.21704q-0.0689 0.14814-0.09991 0.39274t-0.03101 0.59945v0.70624q0 0.36174 0.02412 0.60634t0.08957 0.39619q0.0689 0.14814 0.18604 0.2136 0.12058 0.06546 0.31006 0.06546 0.19982 0 0.34106-0.06546 0.14125-0.0689 0.2136-0.2446 0.07235-0.17914 0.05512-0.50988zm3.4727-3.3176v5.0161h-1.1782v-5.0161zm2.4874 0-1.5847 2.5425-0.97496 1.2437-0.22393-1.1093 0.58567-1.1024 0.74759-1.5744zm-1.4194 5.0161-0.9164-2.26 0.91984-0.69246 1.3884 2.9524zm5.2297-0.93018v0.93018h-2.1945v-0.93018zm-1.7846-4.0859v5.0161h-1.1782v-5.0161zm1.4986 1.9913v0.89917h-1.9086v-0.89917zm0.29628-1.9913v0.93362h-2.2049v-0.93362zm3.2315 0v5.0161h-1.1817v-5.0161zm1.2161 0v0.93362h-3.5795v-0.93362zm-49.13-0.0017v5.0161h-0.65457v-5.0161zm1.6123 0v0.54433h-3.8757v-0.54433zm4.0204 2.1566v0.54088h-2.7147v-0.54088zm-2.6114-2.1566v5.0161h-0.6649v-5.0161zm3.1902 0v5.0161h-0.66146v-5.0161zm1.8914 0v5.0161h-0.6649v-5.0161zm1.2058 0h1.6605q0.565 0 0.95429 0.17226 0.39274 0.17226 0.596 0.50988 0.2067 0.33417 0.2067 0.82338 0 0.34451-0.14125 0.63045-0.1378 0.2825-0.39963 0.48231-0.25838 0.19637-0.62012 0.29283l-0.18604 0.07235h-1.5606l-0.0069-0.54088h1.1782q0.35829 0 0.596-0.12402 0.23771-0.12747 0.35829-0.34106 0.12058-0.2136 0.12058-0.47198 0-0.28939-0.11369-0.50643-0.11368-0.21704-0.35828-0.33418-0.24116-0.12058-0.62356-0.12058h-0.99563v4.4717h-0.6649zm2.9318 5.0161-1.2196-2.2738 0.69246-0.0035 1.2368 2.2359v0.04134zm2.7733 0h-1.0473l0.0069-0.54088h1.0404q0.53744 0 0.89573-0.22393 0.35829-0.22738 0.53744-0.6339 0.18259-0.40997 0.18259-0.95774v-0.30661q0-0.43064-0.10335-0.76481-0.10336-0.33764-0.30318-0.56846-0.19982-0.23427-0.4892-0.35484-0.28594-0.12058-0.65801-0.12058h-1.13v-0.54433h1.13q0.49265 0 0.89917 0.16536 0.40652 0.16192 0.69936 0.47198 0.29628 0.30661 0.45475 0.74414 0.15848 0.43408 0.15848 0.97841v0.29972q0 0.54433-0.15848 0.98185-0.15847 0.43408-0.4582 0.7407-0.29628 0.30661-0.71658 0.47198-0.41686 0.16192-0.94051 0.16192zm-0.69246-5.0161v5.0161h-0.6649v-5.0161z" display="none" stroke-width=".31748"/><path d="m11.392 3.4559h-1.6172l-0.0085-0.52209h1.422q0.399 0 0.68763-0.12734 0.29288-0.12734 0.44569-0.37353 0.15705-0.24619 0.15705-0.5985 0-0.37777-0.14856-0.61548-0.14432-0.24194-0.44144-0.35655-0.29712-0.11885-0.74281-0.11885h-1.2225v5.6539h-0.61971v-6.1802h1.8422q0.45842 0 0.81922 0.09763 0.3608 0.09338 0.61123 0.29288 0.25468 0.1995 0.38626 0.50511 0.13583 0.30562 0.13583 0.73008 0 0.38202-0.17403 0.69188-0.17403 0.30562-0.48814 0.50087-0.30986 0.19101-0.74282 0.24194zm-0.0382 2.9415h-1.7997l0.33108-0.52634h1.4686q0.41598 0 0.70886-0.14856 0.29713-0.14856 0.45418-0.42022 0.15705-0.2759 0.15705-0.65368 0-0.34806-0.13583-0.61548-0.13583-0.27166-0.42022-0.42446t-0.72584-0.15281h-1.0824l0.0085-0.52209h1.5069l0.1231 0.18676q0.41598 0.04245 0.7131 0.25892 0.30137 0.21223 0.46691 0.54332 0.16554 0.32684 0.16554 0.71735 0 0.56878-0.24195 0.95929-0.24195 0.39051-0.67914 0.59425-0.43296 0.20374-1.0187 0.20374zm3.1665-6.1802h1.961q0.64094 0 1.0994 0.21223 0.45842 0.20799 0.70461 0.61972 0.25044 0.40749 0.25044 1.0017 0 0.42871-0.17403 0.78526t-0.48814 0.5985q-0.30986 0.2377-0.73008 0.33533l-0.19101 0.0764h-1.9907l-0.0085-0.52209h1.6045q0.45418 0 0.75555-0.17403 0.30137-0.17828 0.44993-0.47116 0.15281-0.29288 0.15281-0.62821 0-0.399-0.1613-0.69188-0.15704-0.29713-0.47964-0.45418-0.31835-0.1613-0.79375-0.1613h-1.3413v5.6539h-0.61972zm3.6164 6.1802-1.5111-2.776 0.65368-0.0042 1.5153 2.7251v0.05518zm3.7692-5.7473-2.0374 5.7473h-0.6367l2.2709-6.1802h0.42871zm1.7955 5.7473-2.0374-5.7473-0.02547-0.43296h0.42871l2.2709 6.1802zm-0.26317-2.22v0.53058h-3.2514v-0.53058zm5.4204 0.28015h0.61972q-0.05943 0.62396-0.32684 1.0781-0.26741 0.45418-0.74281 0.70037-0.4754 0.24619-1.1588 0.24619-0.51785 0-0.93807-0.19525-0.41598-0.19525-0.71735-0.56029-0.29712-0.36504-0.45842-0.8744-0.1613-0.50936-0.1613-1.1333v-0.82771q0-0.62396 0.1613-1.1291 0.1613-0.50936 0.46267-0.8744 0.30562-0.36504 0.73432-0.56029t0.96354-0.19525q0.65792 0 1.1248 0.24194 0.46691 0.24194 0.73008 0.70037 0.26741 0.45418 0.32684 1.0951h-0.61972q-0.05518-0.49238-0.2377-0.82771-0.17828-0.33533-0.50511-0.50936-0.32259-0.17403-0.81922-0.17403-0.40748 0-0.72584 0.1613-0.31835 0.15705-0.53483 0.44993-0.21648 0.29288-0.33108 0.70461-0.11461 0.40749-0.11461 0.90836v0.8362q0 0.47965 0.10612 0.89138 0.10612 0.40749 0.3141 0.70886 0.20799 0.30137 0.51785 0.47116 0.30986 0.16554 0.72159 0.16554 0.52209 0 0.85318-0.16554 0.33533-0.16554 0.5136-0.49662 0.18252-0.33533 0.24194-0.8362zm2.4449-4.2404v6.1802h-0.61972v-6.1802zm3.6631 0-2.5425 2.8482-1.3371 1.3838-0.08065-0.68763 1.0442-1.1461 2.1563-2.3982zm-0.55605 6.1802-2.3982-3.1156 0.36928-0.50511 2.776 3.6207zm5.3568-0.52634v0.52634h-3.2896v-0.52634zm-3.1326-5.6539v6.1802h-0.61972v-6.1802zm2.7123 2.7293v0.52634h-2.8694v-0.52634zm0.39051-2.7293v0.52634h-3.2599v-0.52634zm3.2641 0v6.1802h-0.61123v-6.1802zm2.0035 0v0.52634h-4.6097v-0.52634zm-42.41-0.08469h4.0714c0.52511 0 0.95244 0.42733 0.95244 0.95244v4.4447c0 0.52511-0.42733 0.95244-0.95244 0.95244h-4.0714l1.2699-0.63496h2.8014c0.17493 0 0.31748-0.14223 0.31748-0.31748v-4.4447c0-0.17525-0.14255-0.31748-0.31748-0.31748h-2.8014zm-2.1439 6.2067c0.28288 0.17461 0.62924 0.19049 0.92672 0.04159l2.4313-1.2156v-3.7158l-2.4313-1.2156c-0.29748-0.1489-0.64385-0.13302-0.92672 0.04159-0.28287 0.17493-0.45177 0.47781-0.45177 0.81053v4.4428c0 0.33272 0.1689 0.6356 0.45177 0.81052zm2.723-1.5668-2.0804 1.0401c-0.14287 0.07175-0.26382 0.01429-0.30891-0.01397-0.0454-0.02794-0.15049-0.11016-0.15049-0.27017v-4.4425c0-0.16001 0.10541-0.24224 0.15049-0.27018 0.0454-0.02826 0.16604-0.08572 0.30891-0.01397l2.0804 1.0401v2.9303zm46.412-4.4695h0.77442v3.973q0 0.66149-0.29444 1.1011-0.29444 0.43965-0.78249 0.66149-0.48401 0.21781-1.0527 0.21781-0.59695 0-1.081-0.21781-0.47998-0.22184-0.76232-0.66149-0.27831-0.43965-0.27831-1.1011v-3.973h0.77039v3.973q0 0.45981 0.1694 0.75829 0.1694 0.29848 0.47191 0.44368 0.30654 0.1452 0.70989 0.1452 0.40738 0 0.70989-0.1452 0.30654-0.1452 0.47595-0.44368 0.1694-0.29848 0.1694-0.75829zm2.8315 0v5.8727h-0.77846v-5.8727z" stroke-miterlimit="50" stroke-width="0" style="font-variation-settings:'wdth' 95, 'wght' 335"/></svg>
