<svg width="258" height="30" version="1.1" viewBox="0 0 68.262 7.9375" xml:space="preserve" xmlns="http://www.w3.org/2000/svg"><path d="m50.148 0.17682c-0.31357-0.01966-0.6568 0.02761-1.0294 0.14159-0.37578 0.11496-0.6935 0.28325-0.95291 0.5054-0.25941 0.22214-0.45531 0.49277-0.58756 0.81184-0.13223 0.31906-0.19739 0.68066-0.19585 1.0842 0.0015 0.40351 0.07499 0.84221 0.22014 1.3167l0.36794 1.2041c0.14613 0.47769 0.32864 0.88488 0.54674 1.2221 0.22031 0.33311 0.47264 0.59559 0.75758 0.78703 0.28396 0.18826 0.59407 0.30213 0.93018 0.3421 0.33611 0.03997 0.69185 0.0028 1.0676-0.11214 0.49361-0.151 0.88459-0.37154 1.172-0.66146 0.29062-0.29089 0.47378-0.64162 0.55036-1.0516 0.07878-0.41415 0.05084-0.88089-0.08372-1.4004l-1.28 0.39171c0.0915 0.34465 0.12863 0.62572 0.11162 0.84336-0.01479 0.21348-0.08793 0.38425-0.21962 0.5116-0.12948 0.12319-0.32142 0.22334-0.57619 0.30127-0.21337 0.06527-0.4033 0.08169-0.56999 0.04909-0.16448-0.03675-0.3138-0.11986-0.44752-0.2496-0.13151-0.1339-0.25246-0.31295-0.36277-0.53692-0.11128-0.22715-0.21637-0.50303-0.31574-0.82786l-0.37155-1.2134c-0.10132-0.3312-0.16582-0.62292-0.1943-0.8754-0.02848-0.25248-0.02027-0.46949 0.02532-0.65061 0.04462-0.1843 0.12766-0.33508 0.24856-0.45217 0.12408-0.11806 0.28616-0.20734 0.48679-0.26872 0.25477-0.07793 0.47049-0.09704 0.64647-0.05684s0.32894 0.14852 0.4594 0.32453c0.13365 0.17504 0.25724 0.43112 0.37104 0.76895l1.2852-0.39274c-0.19162-0.51253-0.43488-0.92086-0.72967-1.2242-0.29258-0.30752-0.63495-0.50403-1.0268-0.58963-0.09797-0.0214-0.19882-0.03531-0.30334-0.04186zm-17.471 0.23254v7.2729h2.3528c0.4729 0 0.87436-0.07993 1.2041-0.23978 0.3297-0.16318 0.58078-0.40296 0.75396-0.71934 0.17317-0.31638 0.25993-0.70734 0.25993-1.1736 0-0.29306-0.05179-0.56781-0.15503-0.82424-0.09991-0.25976-0.26292-0.4714-0.48938-0.63459-0.11003-0.07929-0.23753-0.13831-0.38137-0.17828 0.05606-0.02669 0.11137-0.05406 0.16175-0.0863 0.2531-0.15985 0.44109-0.36466 0.5643-0.61443 0.12322-0.24977 0.185-0.52452 0.185-0.82424 0-0.33969-0.05179-0.63309-0.15503-0.87953-0.09991-0.24644-0.24793-0.45125-0.44442-0.61443-0.19316-0.16651-0.42794-0.28772-0.70435-0.36432-0.27641-0.07993-0.59112-0.11989-0.94413-0.11989zm5.0767 0v7.2729h1.3488v-2.7275h0.86041l1.1379 2.7275h2.3394l0.43046-1.5885h2.1099l0.43202 1.5885h1.4185l-2.3027-7.2729h-1.2139l-2.0609 6.55-1.0299-2.3554c0.16899-0.08776 0.32194-0.19292 0.4563-0.31833 0.19982-0.1865 0.35335-0.41812 0.45992-0.69453 0.10657-0.27974 0.15968-0.60944 0.15968-0.98909 0-0.47623-0.08992-0.87718-0.26975-1.2035-0.1765-0.32637-0.43442-0.57298-0.77411-0.73949-0.33636-0.16651-0.74598-0.2496-1.2289-0.2496zm15.898 0v7.2729h1.3488v-2.19l0.61133-0.75706 1.4867 2.9471h5.549v-1.1188h-2.7673v-2.0779h2.3425v-1.094h-2.3425v-1.8583h2.7471v-1.124h-5.6389l-1.4934 2.4624-0.49454 0.77773v-3.2401zm9.525 0v1.124h1.8035v6.149h1.3338v-6.149h1.8283v-1.124h-3.1621zm-4.6452 0.13436v6.8528l-2.0603-3.7858zm-24.506 0.9896h0.85938c0.21314 0 0.3843 0.03313 0.51418 0.09974 0.13321 0.06661 0.2318 0.17151 0.29507 0.31471 0.06327 0.13987 0.09457 0.32654 0.09457 0.55966 0 0.20315-0.03497 0.37615-0.1049 0.51935-0.0666 0.1432-0.16783 0.2531-0.30437 0.3297-0.13321 0.07327-0.2999 0.11007-0.49971 0.11007h-0.85421zm5.0767 0h0.92449c0.2198 0 0.39779 0.04628 0.53434 0.13953 0.13987 0.09325 0.24162 0.22812 0.30489 0.40463 0.06327 0.17317 0.09457 0.37982 0.09457 0.6196 0 0.22313-0.03629 0.4211-0.10955 0.59428-0.06994 0.16984-0.17668 0.3034-0.31988 0.39998-0.1432 0.09658-0.32303 0.14469-0.5395 0.14469h-0.88935zm5.8219 0.67334 0.75241 2.7683h-1.5028zm-10.899 2.2536h1.0542c0.20315 0 0.36432 0.04364 0.48421 0.13022 0.11989 0.08659 0.20664 0.21147 0.25993 0.37465 0.05661 0.16318 0.08475 0.35433 0.08475 0.57412 0 0.19982-0.03129 0.37833-0.09457 0.53485-0.05995 0.15319-0.15486 0.27308-0.28474 0.35967-0.12655 0.08659-0.29323 0.12971-0.49971 0.12971h-1.0041zm-21.203-4.0619v7.2733h-0.94912v-7.2733zm1.7557-0.0074v0.78928h-5.0377v-0.78928zm1.5034 0.0074v7.2733h-0.96414v-7.2733zm3.0058 3.5494v0.78925h-2.5135v-0.78925zm9.335 3.7238-1.9717-0.0036 4e-3 -0.77136 1.9683-0.0093c0.51952-0.0024 0.95246-0.10823 1.2988-0.3247 0.34635-0.2198 0.60611-0.52618 0.77928-0.91915 0.17651-0.3963 0.26476-0.85921 0.26476-1.3887v-0.44459c0-0.41628-0.05-0.78594-0.14987-1.109-0.0999-0.32637-0.24644-0.60112-0.43959-0.82424-0.19316-0.22646-0.42961-0.39797-0.70935-0.51453-0.27641-0.11656-0.59445-0.17484-0.95412-0.17484l-1.1156 4e-3 0.0202-0.7916 1.0954-0.0016c0.47623-7.11e-4 0.91083 0.07993 1.3038 0.23978 0.39298 0.15652 0.731 0.38465 1.0141 0.68437 0.28641 0.2964 0.5062 0.65606 0.6594 1.079 0.15319 0.41962 0.22979 0.89251 0.22979 1.4187v0.4346c0 0.52618-0.0766 1.0007-0.22979 1.4237-0.1532 0.41962-0.37466 0.77762-0.66439 1.074-0.28641 0.2964-0.63276 0.52452-1.039 0.68437-0.40296 0.15652-0.85754 0.23478-1.3638 0.23478zm-1.0041-7.2733 0.0286 5.0681-1.0032 0.0067 0.0105-5.0747zm-5.7176 0.0051 1.6407-5e-3c0.54756-0.0017 1.01 0.08347 1.3873 0.25041 0.38063 0.16694 0.66943 0.41401 0.86642 0.74121 0.20033 0.32386 0.3005 0.72285 0.3005 1.197 0 0.33388-0.0684 0.63938-0.20534 0.9165-0.13355 0.27378-0.3272 0.5075-0.58095 0.70115-0.25041 0.19031-0.55091 0.33221-0.90148 0.4257l-0.27044 0.10517-2.2405 0.0096 2e-3 -0.78573 1.6724-0.01021c0.34723-0.0033 0.63605-0.06009 0.86643-0.1803 0.23037-0.12354 0.40399-0.28881 0.52085-0.49581s0.17529-0.43571 0.17529-0.68612c0-0.28046-0.0551-0.52586-0.16528-0.7362-0.11023-0.2103-0.28385-0.37223-0.5209-0.48575-0.23372-0.11686-0.53588-0.17529-0.90649-0.17529l-1.643-0.0031zm3.1283 7.2684-1.7729-3.3054 1.0066-5e-3 1.798 3.2503 0.0335 0.05914zm-5.2447-7.2627v7.2733h-0.96412v-7.2733zm1.5518-0.01062v7.2733h-0.96412v-7.2733zm-13.755 0.14921c0.35183-0.17608 0.76145-0.15732 1.096 0.04917 0.33446 0.20687 0.53428 0.56509 0.53428 0.95858v5.2544c0 0.3935-0.19992 0.7517-0.53428 0.95858-0.33446 0.2065-0.74418 0.2253-1.096 0.04919l-2.8754-1.4377v-4.3942l2.8754-1.4377zm-6.2546-0.11978h4.8151l-2.1868 1.1182v5.2735l2.1868 1.1178h-4.8151c-0.62103 0-1.1264-0.50539-1.1264-1.1264v-5.2566c0-0.62103 0.5054-1.1264 1.1264-1.1264z" stroke-miterlimit="50" stroke-width="0" style="font-variation-settings:'wght' 605"/></svg>
