<svg width="228" height="25" version="1.1" viewBox="0 0 60.325 6.6146" xml:space="preserve" xmlns="http://www.w3.org/2000/svg"><path d="m125.79-39.579h-72.384c-9.3359 0-16.933-7.5974-16.933-16.933v-79.022c0-9.3359 7.5974-16.933 16.933-16.933h72.384l-22.578 11.289h-49.807c-3.1101 0-5.6444 2.5287-5.6444 5.6444v79.022c0 3.1157 2.5344 5.6444 5.6444 5.6444h49.807zm38.117-110.35c-5.0292-3.1044-11.187-3.3867-16.476-0.73942l-43.225 21.613v66.063l43.225 21.613c5.2888 2.6472 11.447 2.365 16.476-0.73942 5.0292-3.1101 8.032-8.4949 8.032-14.41v-78.988c0-5.9154-3.0028-11.3-8.032-14.41zm-48.412 27.855 36.988-18.491c2.54-1.2756 4.6905-0.254 5.492 0.24836 0.80715 0.49671 2.6755 1.9586 2.6755 4.8034v78.983c0 2.8448-1.874 4.3067-2.6755 4.8034-0.80716 0.50235-2.952 1.524-5.492 0.24835l-36.988-18.491v-52.098z" stroke-width="5.6444"/><path d="m6.241 0.23377c0.29748-0.1489 0.64385-0.13302 0.92672 0.041592 0.28287 0.17493 0.45177 0.47781 0.45177 0.81053v4.4428c0 0.33272-0.1689 0.63559-0.45177 0.81053-0.28288 0.17461-0.62924 0.19049-0.92672 0.041592l-2.4313-1.2156v-3.7155l2.4313-1.2156zm-5.2886-0.10128h4.0714l-1.849 0.94545v4.459l1.849 0.94514h-4.0714c-0.52511 0-0.95244-0.42733-0.95244-0.95244v-4.4447c0-0.52511 0.42733-0.95244 0.95244-0.95244zm30.658 3.552h-1.0404l-0.0069-0.79237h0.8406q0.21015 0 0.33073-0.062012 0.12058-0.065457 0.17226-0.18948 0.05512-0.12402 0.05512-0.31006 0-0.2136-0.05512-0.34451t-0.1757-0.18948q-0.11713-0.062012-0.30661-0.062012h-0.4134v4.0824h-1.1782v-5.0161h1.5916q0.40308 0 0.72002 0.086127 0.31695 0.082682 0.53744 0.25494 0.22393 0.17225 0.34106 0.43408 0.11713 0.25838 0.11713 0.60978 0 0.30661-0.11369 0.57533-0.11024 0.26872-0.3824 0.43753-0.27216 0.16536-0.74759 0.17225zm-0.04134 2.1325h-1.2919l0.40652-0.93018h0.88539q0.17914 0 0.27905-0.075792 0.09991-0.079237 0.14125-0.20671 0.04134-0.13091 0.04134-0.28939 0-0.19293-0.04134-0.33417-0.0379-0.14125-0.12747-0.21704-0.08957-0.079237-0.25149-0.079237h-0.88539l0.0069-0.79237h1.0232l0.2825 0.31695q0.45131-0.020671 0.70624 0.14125 0.25494 0.16192 0.35829 0.42719 0.10335 0.26527 0.10335 0.55466 0 0.49265-0.18259 0.82338-0.17914 0.33073-0.54432 0.49609t-0.90951 0.16536zm2.8215-5.0161h1.7157q0.50298 0 0.87161 0.17225 0.36863 0.17225 0.565 0.50987 0.19982 0.33762 0.19982 0.83371 0 0.43064-0.11024 0.72003-0.1068 0.28939-0.30317 0.47887-0.19637 0.18604-0.46164 0.30661l-0.38241 0.22393h-1.347l-0.0069-0.93362h0.9474q0.16192 0 0.26872-0.082682 0.1068-0.082682 0.15848-0.23427 0.05512-0.15503 0.05512-0.36863 0-0.21704-0.05168-0.37207t-0.15158-0.23771q-0.09646-0.082682-0.25149-0.082682h-0.53742v4.0824h-1.1782zm2.2221 5.0161-0.88884-2.2186 1.2471-0.00689 0.90606 2.1739v0.051677zm4.2719-3.9619-0.93362 3.9619h-1.2678l1.5468-5.0161h0.79237zm0.73036 3.9619-0.93362-3.9619-0.15503-1.0542h0.80615l1.5503 5.0161zm0.0379-1.8707v0.93362h-2.1739v-0.93362zm4.4063 0.17225h1.1782q0.0034 0.565-0.22049 0.96463-0.22049 0.39619-0.62356 0.59945-0.40308 0.20326-0.94396 0.20326-0.43753 0-0.77515-0.15158-0.33762-0.15158-0.56844-0.44097-0.23082-0.28939-0.34796-0.69935-0.11713-0.41341-0.11713-0.93707v-0.69935q0-0.52021 0.12402-0.93362 0.12747-0.41341 0.35829-0.7028 0.23427-0.28939 0.565-0.44097 0.33417-0.15158 0.74414-0.15158 0.57533 0 0.97152 0.21704 0.39963 0.2136 0.61323 0.62012 0.2136 0.40308 0.22738 0.96807h-1.1782q0.01723-0.32728-0.04134-0.51332-0.05857-0.18948-0.20671-0.26527-0.14469-0.079237-0.38585-0.079237-0.16536 0-0.27905 0.065457t-0.18259 0.21704q-0.0689 0.14814-0.09991 0.39274t-0.03101 0.59945v0.70624q0 0.36174 0.02412 0.60634 0.02412 0.2446 0.08957 0.39619 0.0689 0.14814 0.18604 0.2136 0.12058 0.065457 0.31006 0.065457 0.19982 0 0.34106-0.065457 0.14125-0.068902 0.2136-0.2446 0.07235-0.17915 0.05512-0.50987zm3.4727-3.3176v5.0161h-1.1782v-5.0161zm2.4874 0-1.5847 2.5425-0.97496 1.2437-0.22393-1.1093 0.58567-1.1024 0.74759-1.5744zm-1.4194 5.0161-0.9164-2.26 0.91984-0.69246 1.3884 2.9524zm5.2297-0.93018v0.93018h-2.1945v-0.93018zm-1.7846-4.0859v5.0161h-1.1782v-5.0161zm1.4986 1.9913v0.89917h-1.9086v-0.89917zm0.29628-1.9913v0.93362h-2.2049v-0.93362zm3.2315 0v5.0161h-1.1817v-5.0161zm1.2161 0v0.93362h-3.5795v-0.93362zm-49.13-0.0017228v5.0161h-0.65457v-5.0161zm1.6123 0v0.54433h-3.8757v-0.54433zm4.0204 2.1566v0.54088h-2.7147v-0.54088zm-2.6114-2.1566v5.0161h-0.6649v-5.0161zm3.1902 0v5.0161h-0.66146v-5.0161zm1.8914 0v5.0161h-0.6649v-5.0161zm1.2058 0h1.6605q0.565 0 0.95429 0.17225 0.39274 0.17225 0.596 0.50987 0.2067 0.33417 0.2067 0.82338 0 0.34451-0.14125 0.63045-0.1378 0.2825-0.39963 0.48231-0.25838 0.19637-0.62012 0.29283l-0.18604 0.072347h-1.5606l-0.0069-0.54088h1.1782q0.35829 0 0.596-0.12402 0.23771-0.12747 0.35829-0.34106 0.12058-0.2136 0.12058-0.47198 0-0.28939-0.11369-0.50643-0.11368-0.21704-0.35828-0.33417-0.24116-0.12058-0.62356-0.12058h-0.99563v4.4717h-0.6649zm2.9318 5.0161-1.2196-2.2738 0.69246-0.00345 1.2368 2.2359v0.041341zm2.7733 0h-1.0473l0.0069-0.54088h1.0404q0.53744 0 0.89573-0.22393 0.35829-0.22738 0.53744-0.6339 0.18259-0.40997 0.18259-0.95774v-0.30661q0-0.43064-0.10335-0.76481-0.10336-0.33762-0.30318-0.56844-0.19982-0.23427-0.4892-0.35484-0.28594-0.12058-0.65801-0.12058h-1.13v-0.54433h1.13q0.49265 0 0.89917 0.16536 0.40652 0.16192 0.69936 0.47198 0.29628 0.30661 0.45475 0.74414 0.15848 0.43408 0.15848 0.97841v0.29972q0 0.54433-0.15848 0.98185-0.15847 0.43408-0.4582 0.7407-0.29628 0.30661-0.71658 0.47198-0.41686 0.16192-0.94051 0.16192zm-0.69246-5.0161v5.0161h-0.6649v-5.0161z" stroke-width=".31748"/></svg>
