<?xml version="1.0" encoding="UTF-8" standalone="no"?>
<svg
   width="418"
   height="93"
   fill="#000000"
   version="1.1"
   viewBox="0 0 417.86 92.968"
   xml:space="preserve"
   id="svg1"
   sodipodi:docname="logo.svg"
   inkscape:version="1.3 (1:1.3+202307231459+0e150ed6c4)"
   xmlns:inkscape="http://www.inkscape.org/namespaces/inkscape"
   xmlns:sodipodi="http://sodipodi.sourceforge.net/DTD/sodipodi-0.dtd"
   xmlns="http://www.w3.org/2000/svg"
   xmlns:svg="http://www.w3.org/2000/svg"><defs
   id="defs1"><inkscape:path-effect
     effect="fill_between_many"
     method="originald"
     linkedpaths="#path1-6,0,1|"
     id="path-effect1" /></defs><sodipodi:namedview
   id="namedview1"
   pagecolor="#ffffff"
   bordercolor="#000000"
   borderopacity="0.25"
   inkscape:showpageshadow="2"
   inkscape:pageopacity="0.0"
   inkscape:pagecheckerboard="0"
   inkscape:deskcolor="#d1d1d1"
   inkscape:zoom="1.596911"
   inkscape:cx="208.84069"
   inkscape:cy="146.5329"
   inkscape:window-width="1280"
   inkscape:window-height="656"
   inkscape:window-x="0"
   inkscape:window-y="27"
   inkscape:window-maximized="1"
   inkscape:current-layer="svg1" />&#10;&#10;<path
   d="m 375.87407,49.908819 h 8.7861 v -25.122 h 13.732 v 25.122 h 20.761 v 13.732 h -20.761 v 34.559 q 0,2.212801 1.6921,3.839801 1.7572,1.562 4.1652,1.562 h 14.904 v 13.732 h -15.099 q -5.3367,0 -9.7623,-2.5382 -4.3605,-2.6033 -7.0289,-6.8987 -2.6033,-4.3605 -2.6033,-9.632101 v -34.624 h -8.7861 z m -66.967,13.928 q 0,-5.7923 4.2303,-9.8274 4.2303,-4.1002 10.153,-4.1002 h 28.115 q 5.4018,0 9.7623,2.6684 4.4256,2.6033 7.0289,7.0939 2.6684,4.4256 2.6684,9.8274 v 1.8874 q 0,5.3367 -2.6684,9.7623 -2.6033,4.3605 -7.0289,7.0289 -4.3605,2.6033 -9.7623,2.6033 h -20.956 v -13.667 h 21.087 q 2.343,0 3.97,-1.6921 1.6921,-1.6921 1.6921,-4.1002 v -1.8223 q 0,-2.4731 -1.6921,-4.1652 -1.627,-1.6921 -3.97,-1.6921 h -28.896 v 34.624 q 0,2.212801 1.4969,3.774801 1.4969,1.562 3.6446,1.562 h 38.333 v 13.732 h -38.333 q -5.2066,0 -9.502,-2.5382 -4.2954,-2.6033 -6.8336,-6.8987 -2.5382,-4.3605 -2.5382,-9.567101 z m -201.36,10.283 q 0,-6.7034 3.2541,-12.17 3.3192,-5.4669 8.8512,-8.721 5.532,-3.3192 12.235,-3.3192 h 37.617 v 67.425001 h -13.732 V 63.641619 h -23.885 q -4.3605,0 -7.4844,3.1239 -3.1239,3.0589 -3.1239,7.4844 v 18.613 q 0,4.4256 3.1239,7.614601 3.1239,3.1239 7.4844,3.1239 h 16.075 v 13.732 h -16.075 q -6.7034,0 -12.235,-3.2541 -5.532,-3.3192 -8.8512,-8.8512 -3.2541,-5.532001 -3.2541,-12.235001 z m 136.87,-49.332 h 13.732 v 50.959 h 4.6208 l 24.406,-25.838 h 17.832 l -30.784,32.671 33.517,34.754001 h -19.199 l -27.009,-27.855001 h -3.3843 v 27.855001 h -13.732 z m -69.874,49.462 q 0,-6.7034 3.3843,-12.235 3.3843,-5.532 9.0464,-8.7861 5.6621,-3.3192 12.561,-3.3192 h 37.943 v 13.732 h -37.943 q -4.6208,0 -7.94,3.189 -3.3192,3.1239 -3.3192,7.6146 v 18.288 q 0,4.4907 3.2541,7.679701 3.3192,3.189 8.0051,3.189 h 37.943 v 13.732 h -37.943 q -6.8987,0 -12.561,-3.3192 -5.6621,-3.3192 -9.0464,-8.8512 -3.3843,-5.597001 -3.3843,-12.301001 z m -105.749998,-5.4669 q 0,-5.2066 2.6033,-9.502 2.6684,-4.2954 7.0289,-6.8336 4.4256,-2.5382 9.7623,-2.5382 h 15.033998 v 13.667 H 88.187572 q -2.343,0 -4.0351,1.627 -1.627,1.562 -1.627,3.8398 v 48.291001 h -13.732 z M 2.2560721,24.787919 H 15.988072 v 78.814001 h 23.885 q 4.4256,0 7.4844,-3.1239 3.1239,-3.123901 3.1239,-7.484401 v -18.613 q 0,-4.4256 -3.1239,-7.5495 -3.0589,-3.189 -7.4844,-3.189 h -16.075 v -13.732 h 16.075 q 6.7034,0 12.235,3.3192 5.532,3.2541 8.7861,8.7861 3.3192,5.532 3.3192,12.235 v 18.874 q 0,6.6384 -3.3192,12.170001 -3.2541,5.4669 -8.7861,8.7861 -5.532,3.2541 -12.235,3.2541 h -23.885 q -5.6621,0 -9.6971999,-4.0351 -4.0351,-4.0351 -4.0351,-9.6972 z"
   stroke-width="0.99966"
   id="path1" /><path
   d="m 155.68976,138.09636 h 2.52815 v -7.2287 h 3.9513 v 7.2287 h 5.97385 v 3.95131 h -5.97385 v 9.94414 q 0,0.63672 0.48689,1.10488 0.50562,0.44946 1.19851,0.44946 h 4.28854 v 3.9513 h -4.34465 q -1.5356,0 -2.80904,-0.73036 -1.25471,-0.74908 -2.02252,-1.98506 -0.74909,-1.2547 -0.74909,-2.77157 v -9.96285 h -2.52815 z m -19.26935,4.0077 q 0,-1.6667 1.21724,-2.82777 1.21725,-1.17981 2.92147,-1.17981 h 8.08992 q 1.55434,0 2.80904,0.76782 1.27344,0.74908 2.02253,2.04122 0.76781,1.27344 0.76781,2.82778 v 0.54309 q 0,1.5356 -0.76781,2.80904 -0.74909,1.25471 -2.02253,2.02252 -1.2547,0.74909 -2.80904,0.74909 h -6.02996 v -3.9326 h 6.06765 q 0.67419,0 1.14235,-0.48689 0.48689,-0.48689 0.48689,-1.17981 v -0.52436 q 0,-0.71162 -0.48689,-1.19851 -0.46816,-0.48689 -1.14235,-0.48689 h -8.31465 v 9.96285 q 0,0.63672 0.43073,1.08618 0.43072,0.44945 1.04871,0.44945 h 11.03009 v 3.9513 h -11.03009 q -1.49817,0 -2.73414,-0.73035 -1.23598,-0.74908 -1.96633,-1.98506 -0.73035,-1.25471 -0.73035,-2.75287 z m -57.940131,2.95887 q 0,-1.92886 0.936348,-3.50184 0.95508,-1.57307 2.546879,-2.50942 1.5918,-0.95508 3.520548,-0.95508 H 96.30812 v 19.40114 H 92.356819 V 142.0479 h -6.872765 q -1.254708,0 -2.153591,0.89888 -0.898883,0.88018 -0.898883,2.15359 v 5.35578 q 0,1.27344 0.898883,2.19105 0.898883,0.89889 2.153591,0.89889 h 4.625485 v 3.9513 h -4.625485 q -1.928863,0 -3.520548,-0.93635 -1.591799,-0.95508 -2.546879,-2.54688 -0.936348,-1.5918 -0.936348,-3.52055 z M 117.8638,130.86795 h 3.9513 v 14.66314 h 1.32961 l 7.02268,-7.43473 h 5.13105 l -8.85791,9.40089 9.64431,10.00025 h -5.52439 l -7.77168,-8.01511 h -0.97381 v 8.01511 h -3.9513 z m -20.105824,14.23239 q 0,-1.92886 0.973812,-3.52055 0.973812,-1.5918 2.603042,-2.52814 1.62924,-0.95508 3.61436,-0.95508 h 10.91787 v 3.9513 h -10.91787 q -1.32961,0 -2.28469,0.91761 -0.95508,0.89889 -0.95508,2.19106 v 5.26226 q 0,1.29217 0.93635,2.20979 0.95508,0.91761 2.30342,0.91761 h 10.91787 v 3.9513 h -10.91787 q -1.98506,0 -3.61436,-0.95508 -1.62923,-0.95508 -2.603042,-2.54688 -0.973812,-1.6105 -0.973812,-3.53954 z m -30.428928,-1.57307 q 0,-1.49816 0.749084,-2.73414 0.767816,-1.23598 2.022524,-1.96633 1.27344,-0.73035 2.809043,-0.73035 h 4.325943 v 3.9326 h -4.325943 q -0.674184,0 -1.161076,0.46816 -0.468159,0.44945 -0.468159,1.10488 v 13.89544 H 67.329163 Z M 48.183426,130.86798 h 3.951301 v 22.67825 h 6.872765 q 1.27344,0 2.153591,-0.89888 0.898883,-0.89889 0.898883,-2.15359 v -5.35578 q 0,-1.27344 -0.898883,-2.17233 -0.88018,-0.91761 -2.153591,-0.91761 h -4.625485 v -3.9513 h 4.625485 q 1.928863,0 3.520547,0.95508 1.591801,0.93635 2.528148,2.52815 0.95508,1.5918 0.95508,3.52054 v 5.43088 q 0,1.91016 -0.95508,3.50185 -0.936347,1.57307 -2.528148,2.52815 -1.591799,0.93634 -3.520547,0.93634 h -6.872765 q -1.629235,0 -2.790311,-1.16107 -1.161076,-1.16108 -1.161076,-2.79031 z"
   stroke-width="0.287646"
   id="path1-0"
   inkscape:export-filename="path.svg"
   inkscape:export-xdpi="27.623425"
   inkscape:export-ydpi="27.623425" /><path
   inkscape:original-d="M 0,0"
   inkscape:path-effect="#path-effect1"
   d="M 0,0"
   id="path2" /></svg>
