<svg xmlns="http://www.w3.org/2000/svg" xml:space="preserve" width="205" height="25" viewBox="0 0 54.24 6.615">
  <path d="M29.543 1.91c0 .703-.5.974-.957.974h-.652V.954h.635c.491 0 .974.237.974.956zm.16 2.693c0 .736-.465 1.058-1.032 1.058h-.737V3.485h.703c.491 0 1.067.296 1.067 1.118zm-.27-1.465c.423-.16.821-.567.821-1.346 0-1.185-.914-1.482-1.6-1.482h-1.44v5.995h1.618c.72 0 1.625-.415 1.625-1.651 0-.966-.584-1.414-1.024-1.5zm5.283 3.167L33.6 3.485c.457-.101 1.007-.567 1.007-1.54C34.607.759 33.87.31 32.998.31h-1.55v5.995h.746V3.629h.694l1.016 2.676zm-.863-4.327c0 .677-.381 1.058-.957 1.058h-.703V.954h.686c.482 0 .974.22.974 1.024zm5.156 4.327L37.536.31h-1.008l-1.507 5.995h.77l.348-1.406h1.735l.339 1.406zm-1.236-2.007H36.24l.762-3.277h.034zm5.224 1.363-.458-.5c-.194.33-.525.585-.94.585-.922 0-1.371-1.118-1.371-2.439 0-1.337.44-2.438 1.355-2.438.372 0 .71.17.956.533l.475-.516c-.33-.483-.856-.72-1.465-.72-1.312 0-2.125 1.33-2.125 3.141 0 1.795.787 3.141 2.125 3.141.669 0 1.143-.313 1.448-.787zm4.3.644-2.04-3.218L47.171.31h-.88l-1.728 2.667h-.017V.31h-.745v5.994h.745V3.3h.017l1.829 3.005zm3.337 0v-.686h-1.871V3.51h1.667v-.635h-1.667V.987h1.786V.31h-2.523v5.995zM54.012.962V.31h-3.04v.652h1.143v5.343h.754V.962zM11.247.818V.31H8.35v.508h1.152v5.487h.584V.818zm4.165 5.487V.31h-.592v2.625h-2.295V.31h-.592v5.995h.592V3.46h2.295v2.845zm1.965 0V.31h-.593v5.995zm4.445 0-1.169-2.88c.491-.075 1.076-.516 1.076-1.532 0-1.185-.754-1.583-1.541-1.583h-1.44v5.994h.585V3.527h.77l1.084 2.777zm-.67-4.386c0 .72-.397 1.143-1.032 1.143h-.787V.81h.762c.533 0 1.058.245 1.058 1.109zm5.09 1.397c0-1.973-.847-3.006-2.168-3.006h-1.296v5.994h1.287c1.321 0 2.176-1.024 2.176-2.988zm-.585 0c0 1.668-.694 2.472-1.6 2.472h-.694V.827h.694c.906 0 1.6.795 1.6 2.489zM6.241.234a.947.947 0 0 1 .927.041.947.947 0 0 1 .452.81V5.53a.947.947 0 0 1-.452.81.946.946 0 0 1-.927.042L3.81 5.165V1.45L6.24.234zM.953.132h4.071l-1.849.946v4.459l1.849.945H.953A.954.954 0 0 1 0 5.53V1.085C0 .56.427.132.953.132z"/>
</svg>
