<svg width="418" height="93" fill="#000000" version="1.1" viewBox="0 0 417.86 92.968" xml:space="preserve" xmlns="http://www.w3.org/2000/svg">

<path d="m374.1 25.333h8.7861v-25.122h13.732v25.122h20.761v13.732h-20.761v34.559q0 2.2128 1.6921 3.8398 1.7572 1.562 4.1652 1.562h14.904v13.732h-15.099q-5.3367 0-9.7623-2.5382-4.3605-2.6033-7.0289-6.8987-2.6033-4.3605-2.6033-9.6321v-34.624h-8.7861zm-66.967 13.928q0-5.7923 4.2303-9.8274 4.2303-4.1002 10.153-4.1002h28.115q5.4018 0 9.7623 2.6684 4.4256 2.6033 7.0289 7.0939 2.6684 4.4256 2.6684 9.8274v1.8874q0 5.3367-2.6684 9.7623-2.6033 4.3605-7.0289 7.0289-4.3605 2.6033-9.7623 2.6033h-20.956v-13.667h21.087q2.343 0 3.97-1.6921 1.6921-1.6921 1.6921-4.1002v-1.8223q0-2.4731-1.6921-4.1652-1.627-1.6921-3.97-1.6921h-28.896v34.624q0 2.2128 1.4969 3.7748 1.4969 1.562 3.6446 1.562h38.333v13.732h-38.333q-5.2066 0-9.502-2.5382-4.2954-2.6033-6.8336-6.8987-2.5382-4.3605-2.5382-9.5671zm-201.36 10.283q0-6.7034 3.2541-12.17 3.3192-5.4669 8.8512-8.721 5.532-3.3192 12.235-3.3192h37.617v67.425h-13.732v-53.693h-23.885q-4.3605 0-7.4844 3.1239-3.1239 3.0589-3.1239 7.4844v18.613q0 4.4256 3.1239 7.6146 3.1239 3.1239 7.4844 3.1239h16.075v13.732h-16.075q-6.7034 0-12.235-3.2541-5.532-3.3192-8.8512-8.8512-3.2541-5.532-3.2541-12.235zm136.87-49.332h13.732v50.959h4.6208l24.406-25.838h17.832l-30.784 32.671 33.517 34.754h-19.199l-27.009-27.855h-3.3843v27.855h-13.732zm-69.874 49.462q0-6.7034 3.3843-12.235 3.3843-5.532 9.0464-8.7861 5.6621-3.3192 12.561-3.3192h37.943v13.732h-37.943q-4.6208 0-7.94 3.189-3.3192 3.1239-3.3192 7.6146v18.288q0 4.4907 3.2541 7.6797 3.3192 3.189 8.0051 3.189h37.943v13.732h-37.943q-6.8987 0-12.561-3.3192-5.6621-3.3192-9.0464-8.8512-3.3843-5.597-3.3843-12.301zm-105.75-5.4669q0-5.2066 2.6033-9.502 2.6684-4.2954 7.0289-6.8336 4.4256-2.5382 9.7623-2.5382h15.034v13.667h-15.034q-2.343 0-4.0351 1.627-1.627 1.562-1.627 3.8398v48.291h-13.732zm-66.537-43.995h13.732v78.814h23.885q4.4256 0 7.4844-3.1239 3.1239-3.1239 3.1239-7.4844v-18.613q0-4.4256-3.1239-7.5495-3.0589-3.189-7.4844-3.189h-16.075v-13.732h16.075q6.7034 0 12.235 3.3192 5.532 3.2541 8.7861 8.7861 3.3192 5.532 3.3192 12.235v18.874q0 6.6384-3.3192 12.17-3.2541 5.4669-8.7861 8.7861-5.532 3.2541-12.235 3.2541h-23.885q-5.6621 0-9.6972-4.0351-4.0351-4.0351-4.0351-9.6972z" stroke-width=".99966"/></svg>
