<svg version="1.1" viewBox="0 0 228 25" xml:space="preserve" xmlns="http://www.w3.org/2000/svg">
  <path d="m60.619-79.215a3.726 3.726 0 0 1 3.648 0.163 3.728 3.728 0 0 1 1.781 3.191v17.491c0 1.31-0.666 2.503-1.78 3.191a3.726 3.726 0 0 1-3.648 0.164l-9.572-4.786v-14.628zm-20.821-0.4h16.029l-7.28 3.723v17.555l7.281 3.722h-16.03a3.754 3.754 0 0 1-3.75-3.75v-17.5a3.754 3.754 0 0 1 3.75-3.75zm115.26 13.93h-4.594l-12.41-3.408 16.297 0.15c0.615 6e-3 1.117-0.102 1.506-0.307 0.4-0.215 0.691-0.527 0.876-0.937 0.194-0.42 0.291-0.927 0.291-1.52 0-0.687-0.092-1.235-0.276-1.645a1.735 1.735 0 0 0-0.845-0.922c-0.38-0.194-0.881-0.292-1.506-0.292h-2.397v18.637h-4.501v-22.371h6.898c1.106 0 2.1 0.123 2.98 0.37s1.63 0.624 2.244 1.136a4.894 4.894 0 0 1 1.413 1.905c0.328 0.758 0.492 1.66 0.492 2.704 0 0.922-0.184 1.772-0.553 2.55-0.369 0.78-0.947 1.42-1.736 1.921-0.789 0.492-1.808 0.763-3.057 0.814zm-0.169 9.756h-5.7l1.797-3.718h3.903c0.604 0 1.086-0.128 1.444-0.384 0.359-0.256 0.62-0.6 0.784-1.03 0.174-0.44 0.26-0.942 0.26-1.505 1e-3 -0.635-0.076-1.188-0.23-1.66-0.143-0.47-0.384-0.83-0.722-1.075-0.338-0.256-0.793-0.384-1.367-0.384h-3.872l0.031-3.257h4.701l1.06 1.29c1.199-0.04 2.157 0.19 2.874 0.692a4.073 4.073 0 0 1 1.536 1.935c0.317 0.79 0.476 1.63 0.476 2.52 0 1.434-0.271 2.643-0.814 3.626-0.533 0.973-1.316 1.71-2.35 2.212-1.035 0.492-2.305 0.738-3.811 0.738zm9.683-22.432h7.175q2.243 0 3.825 0.768 1.583 0.768 2.428 2.274t0.845 3.718q0 1.813-0.492 3.104-0.492 1.275-1.398 2.135-0.907 0.845-2.166 1.352l-1.368 0.815h-5.823l-0.015-3.734h4.04q0.923 0 1.522-0.4 0.614-0.414 0.906-1.152 0.308-0.753 0.308-1.751 0-1.06-0.277-1.813-0.261-0.768-0.845-1.168-0.569-0.415-1.49-0.415h-2.674v18.637h-4.501zm14.227 22.37-7.631-8.502 4.523-1.34 9.27 9.91-1.16 0.055zm9.98-18.354-4.81 18.375h-4.747l6.99-22.37h2.966zm6.646 18.454-4.84-18.375-0.445-3.995h3.01l7.053 22.37zm1.562-7.82v3.734h-10.094l0.73-3.748zm14.339 0.283 4.167 0.054c-0.061 1.68-0.399 3.098-1.014 4.255a6.158 6.158 0 0 1-2.627 2.612c-1.127 0.594-2.489 0.891-4.087 0.891-1.239 0-2.34-0.204-3.303-0.614a6.6 6.6 0 0 1-2.458-1.844c-0.676-0.809-1.188-1.808-1.537-2.996-0.338-1.198-0.507-2.576-0.507-4.133v-3.795c0-1.556 0.18-2.934 0.538-4.132 0.369-1.199 0.891-2.203 1.567-3.012a6.518 6.518 0 0 1 2.474-1.844c0.973-0.42 2.069-0.63 3.288-0.63 1.628 0 2.99 0.308 4.087 0.922 1.096 0.615 1.94 1.511 2.535 2.689 0.604 1.168 0.968 2.597 1.09 4.287l-3.972 0.072c-0.02-1.065-0.308-2.021-0.523-2.625-0.205-0.615-0.892-0.996-1.343-1.242-0.45-0.256-1.075-0.384-1.874-0.384-0.594 0-1.106 0.107-1.537 0.322-0.43 0.205-0.783 0.538-1.06 0.999-0.276 0.46-0.481 1.065-0.614 1.813-0.123 0.748-0.185 1.66-0.185 2.735v3.825c0 1.055 0.057 1.957 0.17 2.705 0.112 0.737 0.291 1.341 0.537 1.813 0.246 0.47 0.579 0.814 0.999 1.029 0.43 0.215 0.973 0.323 1.628 0.323 0.758 0 1.368-0.113 1.829-0.338 0.47-0.226 0.828-0.614 1.054-1.197 0.225-0.584 0.647-1.484 0.678-2.56zm11.04-14.997v22.37h-4.5v-22.37zm11.302 0.19-7.252 11.108-4.44 5.531-0.86-4.501 2.872-4.794 4.21-7.344zm-5.456 22.428-4.886-10.279 3.303-2.919 6.883 13.198zm23.793-3.879v3.718h-9.726v-3.718zm-11.331-18.616v22.37h-4.502v-22.37zm5.657 8.886v3.61h-8.42v-3.609zm5.831-8.886v3.733h-9.695v-3.733zm6.672 0.026v22.37h-4.47v-22.369zm4.08-0.032 2.902 3.754-11.324 0.058v-3.734zm-181.05 0.136v22.37h-2.92v-22.37zm-0.117 0.03-0.068 2.436-10.903-0.055-2.993-2.414zm16.732 9.969 0.052 2.27-9.706-0.022v-2.413zm-10.386-10.058v22.37h-2.965v-22.37zm10.674 0.023v22.37h-2.95v-22.37zm6.895-3e-3v22.37h-2.966v-22.37zm3.87 2e-3h7.405q2.52 0 4.256 0.768 1.751 0.768 2.658 2.274 0.921 1.49 0.921 3.672 0 1.537-0.63 2.812-0.614 1.26-1.782 2.15-1.152 0.877-2.765 1.307l-0.83 0.322h-6.96l-0.03-2.412h5.254q1.598 0 2.658-0.553 1.06-0.569 1.598-1.521 0.538-0.953 0.538-2.105 0-1.29-0.507-2.258t-1.598-1.49q-1.076-0.538-2.781-0.538h-4.44v19.943h-2.966zm14.466 22.353-8.41-10.039 3.088-0.015 8.684 10.022-0.686 0.025zm10.275-1.005-1.134 0.382-2.226-2.03 0.08-0.085c1.598 2e-3 1.945-0.232 3.01-0.898 1.065-0.676 1.864-1.618 2.397-2.827 0.543-1.219 0.814-2.642 0.814-4.271v-1.367c0-1.28-0.154-2.418-0.461-3.411-0.307-1.004-0.758-1.85-1.352-2.535a5.712 5.712 0 0 0-2.182-1.583c-0.85-0.358-1.828-0.538-2.934-0.538l-2.963 0.448-1.468-2.857 0.32 5e-3c2.39 0.037 6.379 0.25 7.587 0.741 1.209 0.482 2.782 1.156 3.653 2.078 0.88 0.912 1.557 2.018 2.028 3.319 0.471 1.29 0.707 2.745 0.707 4.363v1.337c0 1.618-0.236 3.078-0.707 4.379-0.471 1.29-1.153 2.391-2.044 3.303-0.88 0.912-1.946 1.613-3.195 2.105-1.24 0.481 0.49 0.311-1.067 0.311zm-3.984-21.354v22.37h-2.966v-22.37z" display="none"/>
<path d="m24.571 0.39952c1.1712-0.58621 2.5348-0.52371 3.6485 0.16374 1.1137 0.68871 1.7786 1.8811 1.7786 3.1911v17.491c0 1.3099-0.66496 2.5023-1.7786 3.191-1.1137 0.68746-2.4773 0.74996-3.6485 0.16374l-9.5719-4.7859v-14.628l9.5719-4.7859zm-20.821-0.39872h16.029l-7.2795 3.7223v17.555l7.2795 3.721h-16.029c-2.0674 0-3.7498-1.6824-3.7498-3.7498v-17.499c0-2.0674 1.6824-3.7498 3.7498-3.7498zm114 13.989h-4.834l-0.0162-3.0273h4.2806q0.99284 0 1.6927-0.39062t1.0579-1.1393q0.37435-0.7487 0.37435-1.8066 0-1.1719-0.3418-1.9043-0.32555-0.7487-1.0091-1.0905-0.6836-0.3418-1.7578-0.3418h-3.1087v20.378h-3.9551v-23.698h7.0638q1.6602 0 2.9622 0.37435 1.3021 0.37434 2.2135 1.1719 0.92774 0.79752 1.3997 2.0019 0.48829 1.2044 0.48829 2.8646 0 1.4486-0.61849 2.6693-0.61849 1.2044-1.8392 1.9857-1.2044 0.76498-2.9948 0.91146zm-0.14648 10.677h-5.9896l1.8229-3.304h4.1667q1.0579 0 1.7415-0.45573t1.0254-1.2695q0.34179-0.8138 0.34179-1.9043 0-1.1393-0.29297-1.9857-0.29297-0.84635-0.94401-1.3021t-1.7253-0.45573h-3.9876l0.0325-3.0273h5.0944l0.91146 1.1556q1.709 0.0325 2.7832 0.84635 1.0742 0.79752 1.5788 2.0671 0.50456 1.2695 0.50456 2.7181 0 2.2624-0.84635 3.8086-0.83009 1.5299-2.4089 2.3275-1.5787 0.78125-3.8085 0.78125zm8.8715-23.698h7.1615q2.3438 0 3.9714 0.8138 1.6276 0.8138 2.474 2.4089 0.86263 1.5788 0.86263 3.9225 0 1.7741-0.53711 3.125-0.52083 1.3509-1.5137 2.2786-0.99284 0.91146-2.3926 1.416l-1.1556 0.63477h-6.0547l-0.0162-3.3203h4.2643q1.1556 0 1.9206-0.50456 0.76498-0.50455 1.1393-1.3997 0.39062-0.89518 0.39062-2.0345 0-1.2207-0.34179-2.1159-0.3418-0.91146-1.0742-1.3997-0.73242-0.50455-1.9368-0.50455h-3.2064v20.378h-3.9551zm15.461 24.031-9.8748-10.64 4.1178-0.01625 7.0403 7.5139 0.91629 1.6282zm10.042-20.776-5.7292 20.443h-4.1341l7.5195-23.698h2.5716zm6.6569 20.443-5.7454-20.443-0.2767-3.2552h2.6204l7.5521 23.698zm0.97834-6.8257 0.51721 3.5036h-11.035l0.79014-3.3079zm14.812-1.231h3.9388q-0.11394 2.5716-1.0417 4.3782-0.92774 1.7904-2.6693 2.7344-1.7253 0.94401-4.2155 0.94401-1.888 0-3.3854-0.68359-1.4811-0.68359-2.5228-1.9694-1.0417-1.3021-1.595-3.1738-0.53712-1.8717-0.53712-4.248v-4.1992q0-2.3763 0.55339-4.2481 0.56967-1.8718 1.6276-3.1738 1.058-1.3021 2.5716-1.9694 1.53-0.68359 3.4505-0.68359 2.4577 0 4.1341 0.94401 1.6764 0.94401 2.5879 2.7669 0.91146 1.8229 1.0579 4.4434h-3.9388q-0.0814-1.7741-0.48829-2.832-0.39062-1.0742-1.2044-1.5462-0.79752-0.47201-2.1484-0.47201-1.123 0-1.9368 0.42318-0.79754 0.42318-1.3184 1.2695-0.50455 0.83008-0.76497 2.0996-0.24414 1.2532-0.24414 2.946v4.2318q0 1.6276 0.21159 2.8809 0.21158 1.2532 0.68359 2.1322 0.472 0.86264 1.2532 1.3184 0.78125 0.43945 1.9531 0.43945 1.3997 0 2.2298-0.43945 0.84636-0.43946 1.2532-1.4811 0.40691-1.0417 0.50456-2.832zm9.6539-15.641v23.698h-3.9551v-23.698zm13.717 0-7.8939 11.442-4.7363 5.8105 0.0399-5.402 3.508-4.7276 5.0554-7.1918zm-4.6712 23.698-6.0059-11.198 2.7181-2.8158 7.959 14.014zm9.9252-23.698v23.698h-3.9551v-23.698zm11.666 20.378v3.3203h-10.189v-3.3203zm-0.0123-20.378v3.3203h-10.189v-3.3203zm-3.7925 10.221v3.2552h-8.903v-3.2552zm9.4076-10.221v23.698h-3.9388v-23.698zm6.7681 0v3.3203h-10.43v-3.3203zm-132.98 0.33332v1.7415h3.7109c0.1275 0 0.25211 0.00101 0.37638 0.00625 0.12428 0.00521 0.2472 0.014271 0.36825 0.024375 0.12105 0.010417 0.24024 0.021354 0.35807 0.036667s0.23532 0.034583 0.34994 0.054896c0.1146 0.020313 0.22633 0.041667 0.33772 0.067083 0.1114 0.025417 0.22143 0.054896 0.32959 0.085417 0.10816 0.030521 0.21447 0.062083 0.31941 0.097604 0.10495 0.035625 0.20956 0.075312 0.31128 0.11597 0.10178 0.040729 0.20125 0.082396 0.29908 0.12817 0.0978 0.045729 0.19294 0.095625 0.28686 0.14649 0.094 0.050833 0.18667 0.10271 0.27669 0.15869 0.09 0.055938 0.17836 0.11597 0.26449 0.177 0.0862 0.061042 0.17005 0.12309 0.25228 0.18921 0.0822 0.066146 0.16174 0.13631 0.24007 0.20752 0.0783 0.07125 0.15547 0.14344 0.2299 0.21973 0.0744 0.07625 0.14717 0.15666 0.21769 0.23804 0.0719 0.08 0.14005 0.16106 0.20752 0.24617 0.0675 0.085104 0.13428 0.17429 0.19735 0.26449 0.063 0.090208 0.12241 0.18141 0.18106 0.27669 0.0587 0.095313 0.11665 0.19464 0.17091 0.29501 0.0543 0.10042 0.10477 0.20175 0.15462 0.30721 0.0499 0.10546 0.0991 0.21498 0.14445 0.32552 0.0454 0.11054 0.0872 0.2221 0.12817 0.33773 0.041 0.11562 0.0814 0.23532 0.118 0.35604 0.038 0.11935 0.0726 0.24006 0.1058 0.36417 0.0332 0.12411 0.0651 0.2516 0.0935 0.38046 0.0284 0.12885 0.0536 0.25907 0.0773 0.39267 0.0238 0.1336 0.0461 0.27059 0.0651 0.40894 0.019 0.13834 0.0346 0.27805 0.0489 0.42115 0.0143 0.14309 0.0271 0.28957 0.0367 0.43742 9e-3 0.14784 0.0156 0.29704 0.0203 0.44962 5e-3 0.15258 8e-3 0.30856 8e-3 0.46591v4.8177c0 0.20616-4e-3 0.40792-0.0122 0.60628-8e-3 0.19836-0.0221 0.39333-0.0386 0.5839-0.0167 0.19057-0.0361 0.37673-0.061 0.55949-0.0249 0.18277-0.0543 0.36215-0.0875 0.53712s-0.0703 0.34552-0.11189 0.5127c-0.0416 0.16717-0.0886 0.33094-0.13836 0.49031-0.0498 0.15936-0.1026 0.31433-0.16072 0.4659-0.0581 0.15157-0.12072 0.29975-0.18717 0.44353-0.0651 0.14377-0.13496 0.28195-0.20752 0.41707-0.0726 0.13513-0.14785 0.26618-0.22787 0.39266-0.08 0.12648-0.16479 0.24838-0.25228 0.36621-0.0875 0.11783-0.17768 0.2326-0.27263 0.34179-0.0949 0.10919-0.19462 0.21278-0.29703 0.31331-0.10239 0.10052-0.20752 0.19701-0.31738 0.2889-0.10987 0.09187-0.22447 0.17921-0.34179 0.26245-0.11733 0.08323-0.23737 0.16345-0.36215 0.23804-0.12478 0.07458-0.25313 0.14428-0.38452 0.20955-0.1314 0.06531-0.26687 0.12512-0.40487 0.18107-0.13801 0.05594-0.27856 0.108-0.42317 0.15462-0.14463 0.04667-0.29229 0.08885-0.44352 0.12614-0.15124 0.03729-0.30603 0.06969-0.46388 0.0976-0.15784 0.02792-0.31975 0.05052-0.48421 0.06917-0.16446 0.01865-0.33146 0.03344-0.50252 0.04271-0.17107 0.0094-0.34519 0.01427-0.52288 0.01427h-3.5807v1.7416h3.5807c0.16141 0 0.32044-0.0042 0.47812-0.01042 0.15768-0.0063 0.31399-0.01563 0.46794-0.02844 0.15394-0.01292 0.30551-0.02948 0.45573-0.04885 0.15021-0.01938 0.29907-0.04135 0.44555-0.06719 0.14649-0.02573 0.29059-0.05531 0.43335-0.0875 0.14274-0.03219 0.28414-0.06719 0.42318-0.1058 0.13902-0.03864 0.27568-0.08104 0.41097-0.12614 0.13529-0.0451 0.26923-0.09292 0.40079-0.14445 0.13158-0.05156 0.25974-0.10732 0.38657-0.1648 0.12681-0.0575 0.25228-0.11766 0.37434-0.18106 0.12207-0.06344 0.24075-0.13004 0.35807-0.19938 0.11732-0.06938 0.23329-0.14038 0.34587-0.21566 0.11258-0.07531 0.22177-0.15479 0.32959-0.236 0.10783-0.08125 0.2143-0.16514 0.31739-0.25228 0.10312-0.08719 0.20277-0.17751 0.3011-0.27059 0.0983-0.09312 0.19531-0.18784 0.2889-0.28686 0.0935-0.10042 0.18446-0.20497 0.27262-0.31128 0.0881-0.1063 0.17362-0.21531 0.25635-0.32755 0.0827-0.11224 0.16277-0.2277 0.24008-0.34586 0.0773-0.11817 0.1519-0.23804 0.22379-0.36215 0.0719-0.1241 0.14106-0.25245 0.20752-0.38248 0.0665-0.13004 0.13021-0.26279 0.19124-0.39877 0.061-0.13597 0.11936-0.27517 0.17497-0.41707 0.0556-0.14191 0.10851-0.2855 0.15869-0.43334 0.0502-0.14784 0.0965-0.29856 0.14038-0.45167 0.044-0.15309 0.0845-0.30958 0.12207-0.46793 0.0376-0.15835 0.0724-0.31857 0.10375-0.48219 0.0314-0.1636 0.0603-0.32958 0.0854-0.49845 0.0251-0.16886 0.0463-0.34061 0.0651-0.51473 0.0189-0.17412 0.0343-0.35164 0.0468-0.53101s0.0222-0.36062 0.0284-0.54524c6e-3 -0.18463 0.0104-0.37164 0.0104-0.56153v-4.7852c0-0.19124-4e-3 -0.37994-0.0104-0.56559-6e-3 -0.18565-0.0159-0.36926-0.0284-0.54931-0.0125-0.18005-0.028-0.35654-0.0468-0.53101-0.0189-0.17446-0.04-0.34586-0.0651-0.51473-0.0251-0.16885-0.0541-0.33518-0.0854-0.49845-0.0313-0.16327-0.0661-0.3245-0.10375-0.48218-0.0376-0.15768-0.0781-0.31179-0.12207-0.46386-0.0438-0.15208-0.0902-0.30111-0.14038-0.44759-0.0502-0.14649-0.10313-0.29059-0.15869-0.43131-0.0556-0.14073-0.11393-0.27805-0.17497-0.41301-0.061-0.13496-0.12478-0.26753-0.19124-0.39673-0.0665-0.12919-0.13564-0.25499-0.20752-0.37842-0.0719-0.12343-0.14649-0.24448-0.22379-0.36215-0.0773-0.11766-0.15735-0.23193-0.24008-0.34382-0.0827-0.11191-0.16818-0.22143-0.25635-0.32756-0.0881-0.10612-0.17903-0.20888-0.27262-0.30924-0.0922-0.10042-0.18803-0.19871-0.28483-0.29297-0.0968-0.094271-0.19565-0.18447-0.29704-0.27263-0.10135-0.088125-0.20531-0.17429-0.31128-0.25634-0.10596-0.082083-0.21294-0.16005-0.32348-0.23601-0.11054-0.075937-0.22465-0.14988-0.33977-0.21972-0.11511-0.069896-0.23227-0.13564-0.35197-0.19939s-0.24194-0.12546-0.36621-0.1831c-0.12427-0.057604-0.24956-0.11122-0.37841-0.16276-0.12886-0.051563-0.26025-0.10135-0.39266-0.14649-0.13242-0.045104-0.26687-0.085417-0.40283-0.1241-0.13598-0.038646-0.27347-0.075625-0.41301-0.10782-0.13954-0.032188-0.28009-0.059687-0.42318-0.085417-0.14309-0.025729-0.28873-0.049792-0.43539-0.069167-0.14665-0.019375-0.29533-0.033958-0.44555-0.046771-0.15021-0.012917-0.30196-0.024062-0.45573-0.030521-0.15377-0.00625-0.30856-0.00833-0.46591-0.00833zm-20.463-5.2e-5h6.4941q2.0833 0 3.597 0.8138 1.5299 0.79752 2.36 2.36 0.83007 1.5462 0.83007 3.8086 0 1.6764-0.60221 3.0436-0.58594 1.3672-1.6113 2.2786-1.0254 0.91146-2.4251 1.2532l-0.60222 0.2767h-6.7708l-0.0325-1.7415h5.5664q1.5462 0 2.5716-0.71615 1.0254-0.71615 1.5299-1.888 0.52083-1.1719 0.52083-2.5065 0-1.6113-0.56966-2.7832-0.55338-1.1882-1.6602-1.8229-1.0905-0.63477-2.7018-0.63477h-4.6387v21.956h-1.8555zm15.205 23.671-7.8206-10.147 1.942-0.41432 7.0614 9.1702 1.0218 1.4178zm3.9853-23.671v23.698h-1.8555v-23.698zm-23.015 0v23.698h-1.8718v-23.698zm-22.852 0v23.698h-1.8392v-23.698zm-3.1359 0v1.7415h-10.417v-1.7415zm20.137 10.978v1.7415h-9.4365v-1.7415zm-10.817-10.978v23.698h-1.8555v-23.698zm10.905 0v23.698h-1.8718v-23.698z" stroke-width="1.2499"/></svg>
