<svg width="248" height="25" version="1.1" viewBox="0 0 65.617 6.6146" xml:space="preserve" xmlns="http://www.w3.org/2000/svg"><path d="m33.771 3.5371h-1.4223l-4e-3 -0.66559h1.2678q0.31299 0 0.53882-0.10301 0.22979-0.10697 0.35261-0.3011 0.12678-0.19809 0.12678-0.47146 0-0.30506-0.11093-0.49523-0.1109-0.19413-0.34068-0.28129-0.22979-0.08716-0.5824-0.08716h-1.0142v5.0593h-0.87161v-5.7685h1.8858q0.44769 0 0.8003 0.09112 0.35261 0.09112 0.59824 0.28129 0.2496 0.19017 0.37638 0.48335 0.13074 0.28922 0.13074 0.69333 0 0.35261-0.17432 0.64578-0.17432 0.28922-0.49523 0.47542-0.32091 0.18225-0.77653 0.22583zm-0.03566 2.6545h-1.6917l0.43977-0.70521h1.252q0.33676 0 0.56655-0.11886 0.23375-0.11886 0.35261-0.33676 0.12282-0.2179 0.12282-0.50712 0-0.30506-0.10301-0.52297-0.10301-0.22186-0.32487-0.34072-0.22186-0.12282-0.57843-0.12282h-1.0776l0.0079-0.66559h1.4382l0.19017 0.24564q0.43581 0.02377 0.72502 0.22186 0.29318 0.19809 0.43977 0.50712 0.15055 0.30903 0.15055 0.67352 0 0.54278-0.23375 0.91519-0.22979 0.37242-0.65767 0.56655-0.42788 0.19017-1.0182 0.19017zm2.9674-5.7685h1.9294q0.63786 0 1.0856 0.19809t0.68144 0.58636q0.23771 0.3843 0.23771 0.95085 0 0.41203-0.15847 0.74087-0.15451 0.32884-0.44373 0.55466-0.28526 0.22583-0.68144 0.34072l-0.25356 0.11489h-1.763l-4e-3 -0.70521h1.3114q0.37638 0 0.62201-0.1347 0.2496-0.1347 0.37242-0.36845 0.12678-0.23375 0.12678-0.52297 0-0.31695-0.11886-0.5507-0.11882-0.23771-0.36841-0.36449-0.2496-0.13074-0.64578-0.13074h-1.0578v5.0593h-0.87161zm3.2408 5.7685-1.3391-2.6029 0.91123-4e-3 1.3589 2.5554v0.0515zm3.8589-5.1306-1.771 5.1306h-0.90331l2.1354-5.7685h0.57447zm1.4699 5.1306-1.771-5.1306-0.03962-0.63786h0.57843l2.1394 5.7685zm-0.07528-2.1394v0.70917h-3.118v-0.70917zm5.0002 0.28525h0.86765q-0.0515 0.56259-0.30506 0.99839-0.25356 0.43581-0.72106 0.6854-0.46354 0.2496-1.145 0.2496-0.51108 0-0.92312-0.18621-0.40807-0.19017-0.70125-0.53485-0.29318-0.34864-0.45165-0.83992-0.15451-0.49127-0.15451-1.0974v-0.60617q0-0.60617 0.15848-1.0974 0.15847-0.49127 0.45562-0.83992 0.29714-0.35261 0.7171-0.53881 0.42392-0.18621 0.95085-0.18621 0.65767 0 1.1093 0.24564 0.45562 0.24564 0.70521 0.6854 0.25356 0.43977 0.30506 1.0261h-0.86765q-0.04358-0.40015-0.18225-0.67748-0.1347-0.27733-0.39222-0.42392-0.25752-0.14659-0.67748-0.14659-0.35261 0-0.61805 0.1347-0.26148 0.1347-0.43977 0.38826-0.17432 0.2496-0.26544 0.61013-0.08716 0.36053-0.08716 0.81218v0.61409q0 0.42392 0.07924 0.78049 0.07924 0.35657 0.24167 0.61805 0.1664 0.26148 0.42392 0.40807 0.25752 0.14659 0.61409 0.14659 0.44373 0 0.70917-0.14263 0.26941-0.14263 0.40411-0.416 0.13867-0.27337 0.19017-0.66956zm2.702-3.9143v5.7685h-0.87161v-5.7685zm3.3874 0-2.3058 2.7337-1.3114 1.4025-0.15055-0.89934 0.95877-1.145 1.7511-2.0919zm-0.89934 5.7685-1.9532-2.7733 0.56259-0.64182 2.4286 3.4151zm5.2812-0.70521v0.70521h-2.9754v-0.70521zm-2.7614-5.0633v5.7685h-0.87161v-5.7685zm2.3692 2.4445v0.69729h-2.5831v-0.69729zm0.36053-2.4445v0.70918h-2.9437v-0.70918zm3.1972 0v5.7685h-0.86369v-5.7685zm1.7828 0v0.70918h-4.4175v-0.70918zm-54.689-1e-6v5.7685h-0.57447v-5.7685zm1.866 0v0.49523h-4.3026v-0.49523zm4.6116 2.5475v0.49127h-3.2408v-0.49127zm-3.1299-2.5475v5.7685h-0.57843v-5.7685zm3.6172 0v5.7685h-0.57843v-5.7685zm2.076 0v5.7685h-0.57844v-5.7685zm1.4738 0h1.8264q0.6022 0 1.0301 0.19809 0.43184 0.19413 0.66163 0.57843 0.22979 0.38034 0.22979 0.935 0 0.40411-0.16244 0.73691-0.16244 0.32884-0.45562 0.55466-0.28922 0.22186-0.67748 0.31299l-0.18225 0.07528h-1.8581l-0.0079-0.49523h1.4976q0.41996 0 0.70125-0.16244 0.28129-0.1664 0.42392-0.43581 0.14263-0.27337 0.14263-0.58636 0-0.37242-0.15055-0.64578-0.14661-0.27337-0.44772-0.41996-0.29714-0.15055-0.74483-0.15055h-1.244v5.2732h-0.5824zm3.3716 5.7685-1.4104-2.5911 0.61409-0.0079 1.4183 2.5475v0.0515zm3.118 0h-1.2242l4e-3 -0.49127h1.2203q0.59824 0 1.0182-0.25752 0.41996-0.26148 0.63786-0.73295 0.22183-0.47146 0.22183-1.1093v-0.59428q0-0.49127-0.12678-0.87557-0.12678-0.38826-0.36449-0.65767-0.23771-0.26941-0.57843-0.41203-0.33676-0.14263-0.76068-0.14263h-1.2955v-0.49523h1.2955q0.53089 0 0.97066 0.18225 0.44373 0.17828 0.76464 0.51504 0.32487 0.33676 0.4992 0.81614 0.17432 0.47939 0.17432 1.0776v0.58636q0 0.59824-0.17432 1.0776-0.17432 0.47939-0.4992 0.81614-0.32487 0.33676-0.77653 0.519-0.45165 0.17828-1.0063 0.17828zm-0.94292-5.7685v5.7685h-0.57843v-5.7685zm-20.748-0.18929c0.29748-0.1489 0.64385-0.13302 0.92673 0.04159 0.28288 0.17493 0.45178 0.47781 0.45178 0.81053v4.4428c0 0.33272-0.1689 0.6356-0.45178 0.81053-0.28288 0.17461-0.62925 0.19049-0.92673 0.04159l-2.4313-1.2156v-3.7155l2.4313-1.2156zm-5.2886-0.10128h4.0714l-1.849 0.94546v4.459l1.849 0.94514h-4.0714c-0.52511 0-0.95244-0.42733-0.95244-0.95244v-4.4447c0-0.52511 0.42733-0.95244 0.95244-0.95244z" stroke-miterlimit="50" stroke-width="0" style="font-variation-settings:'wdth' 96.2, 'wght' 449"/></svg>
