<svg xmlns="http://www.w3.org/2000/svg" xml:space="preserve" viewBox="0 0 180.74 18">
  <defs>
    <linearGradient id="a" x1="1.57" x2="4.76" y1="2.41" y2="2.41" gradientTransform="matrix(3.8 0 0 3.8 -206.57 .49)" gradientUnits="userSpaceOnUse">
      <stop offset=".77" stop-color="#fff"/>
      <stop offset="1" stop-color="#fff" stop-opacity="0"/>
    </linearGradient>
  </defs>
  <path fill="#1f2937" d="m-188.61 2.73-9.51 3.21-.08 7.35 9.56 3.08a2.34 2.34 0 0 0 .03-.23V2.82a2.34 2.34 0 0 0 0-.1z" style="font-variation-settings:&quot;wght&quot;700" transform="translate(206.57 -.49)"/>
  <path fill="#1f2937" d="m-189.97 18.27-10.63-3.28-.04-10.38 11.02-3.73a2.34 2.34 0 0 0-1.3-.4h-13.31a2.34 2.34 0 0 0-2.34 2.35v13.32a2.34 2.34 0 0 0 2.34 2.34h13.32a2.34 2.34 0 0 0 .94-.23z" style="font-variation-settings:&quot;wght&quot;700" transform="translate(206.57 -.49)"/>
  <path fill="url(#a)" d="m-189.62.89-11.02 3.72.04 10.38 10.62 3.28a2.34 2.34 0 0 0 1.37-1.88l-9.56-3.09.08-7.35 9.5-3.2a2.34 2.34 0 0 0-1.03-1.86z" style="font-variation-settings:&quot;wght&quot;700" transform="translate(206.57 -.49)"/>
  <path fill="#1f2937" d="M30.78 1.42v15.16H28.8V1.42zm4.87 0v1.64H23.93V1.42zm12.16 6.52v1.63h-8.2V7.94zm-7.9-6.52v15.16h-2V1.42zm9.65 0v15.16h-2V1.42zm5.72 0v15.16h-2.01V1.42zm3.64 0h5.03q1.7 0 2.88.52 1.19.52 1.8 1.54.63 1.01.63 2.49 0 1.04-.43 1.9-.42.86-1.2 1.46-.79.6-1.88.89l-.57.22h-4.71l-.02-1.64H64q1.08 0 1.8-.37.72-.39 1.08-1.03.37-.65.37-1.43 0-.88-.35-1.53-.34-.66-1.08-1.01-.73-.37-1.88-.37h-3.01v13.52h-2.02zm8.87 15.16L64.1 9.71l2.1-.01 3.73 6.76v.12zm8.38 0h-3.16l.02-1.63h3.14q1.63 0 2.71-.68 1.09-.69 1.63-1.92.55-1.24.55-2.9v-.92q0-1.3-.31-2.31-.32-1.02-.92-1.72-.6-.7-1.48-1.07-.86-.37-1.99-.37h-3.41V1.42h3.41q1.5 0 2.72.5 1.23.49 2.12 1.42.9.93 1.37 2.25.48 1.32.48 2.96v.9q0 1.65-.48 2.98-.48 1.31-1.39 2.24-.9.92-2.16 1.42-1.26.5-2.85.5zM74.08 1.42v15.16h-2.01V1.42z" aria-label="THIRD"/>
  <path fill="#1f2937" d="M93.69 9.75h-3.1V7.81h2.73q.64 0 1.08-.25t.68-.73q.24-.48.24-1.15 0-.75-.22-1.22-.2-.48-.64-.7-.44-.22-1.13-.22h-1.99v13.04h-2.53V1.42h4.52q1.06 0 1.9.24.83.24 1.41.75.6.5.9 1.28.31.77.31 1.83 0 .93-.4 1.7-.39.78-1.17 1.28-.77.49-1.92.58zm-.1 6.83h-3.83l1.17-2.11h2.66q.68 0 1.12-.3.43-.28.65-.8.22-.53.22-1.22 0-.73-.19-1.27-.18-.55-.6-.84-.42-.29-1.1-.29h-2.56l.02-1.94h3.27l.58.74q1.1.02 1.78.54.69.51 1.01 1.33.32.8.32 1.74 0 1.44-.54 2.43-.53.98-1.54 1.5-1.01.5-2.44.5zm8.7-15.16h4.58q1.5 0 2.55.52 1.04.52 1.58 1.54.55 1 .55 2.5 0 1.14-.34 2-.34.87-.97 1.47-.64.58-1.53.9l-.74.41h-3.88V8.64h2.72q.74 0 1.23-.33.49-.32.73-.9.25-.57.25-1.3 0-.78-.22-1.35-.22-.58-.69-.9-.47-.32-1.24-.32h-2.05v13.04h-2.53zm7.06 15.16-2.88-6.8 2.63-.02 2.96 6.69v.13zM120.94 3.5l-3.67 13.08h-2.65l4.82-15.16h1.64zm2.92 13.08L120.2 3.5l-.2-2.08h1.68l4.83 15.16zm.07-5.63v2.12h-7.07v-2.12zm13.17.69h2.52q-.08 1.64-.67 2.8-.6 1.14-1.7 1.75-1.11.6-2.7.6-1.22 0-2.17-.44-.95-.43-1.62-1.26-.66-.83-1.02-2.03-.34-1.2-.34-2.72V7.66q0-1.52.35-2.72.37-1.2 1.04-2.03t1.65-1.26q.98-.44 2.2-.44 1.58 0 2.65.6 1.08.6 1.66 1.77.58 1.17.68 2.85h-2.52q-.06-1.14-.32-1.82-.25-.68-.77-.98-.5-.3-1.37-.3-.72 0-1.24.26-.51.27-.85.82-.32.53-.49 1.34-.15.8-.15 1.89v2.7q0 1.05.13 1.85.14.8.44 1.36.3.55.8.85.5.28 1.25.28.9 0 1.43-.28.54-.29.8-.95.26-.67.33-1.81zm9.06-10.22v15.16h-2.53V1.42zm7.57 0-5.05 7.32-3.03 3.72-.48-2.65 2.1-3.1 3.4-5.3zm-2.78 15.16-3.84-7.16 1.74-1.8 5.09 8.96zm14.6-2.11v2.11h-6.58v-2.11zm-5.91-13.05v15.16h-2.53V1.42zm5.03 6.3v2.1h-5.7v-2.1zm.82-6.3v2.12h-6.52V1.42zm9.39 0v15.16h-2.52V1.42zm3.86 0v2.12h-10.2V1.42z" aria-label="BRACKET" style="font-variation-settings:&quot;wght&quot;500"/>
</svg>
