<svg xmlns="http://www.w3.org/2000/svg" xml:space="preserve" viewBox="0 0 230 25">
  <path d="M24.571.4a3.726 3.726 0 0 1 3.648.163A3.728 3.728 0 0 1 30 3.754v17.491c0 1.31-.666 2.503-1.78 3.191a3.726 3.726 0 0 1-3.648.164L15 19.814V5.186L24.571.4zM3.75 0h16.029l-7.28 3.723v17.555L19.78 25H3.75A3.754 3.754 0 0 1 0 21.25V3.75A3.754 3.754 0 0 1 3.75 0zm115.26 13.93h-4.594l-12.41-3.408 16.297.15c.615.006 1.117-.102 1.506-.307.4-.215.691-.527.876-.937.194-.42.291-.927.291-1.52 0-.687-.092-1.235-.276-1.645a1.735 1.735 0 0 0-.845-.922c-.38-.194-.881-.292-1.506-.292h-2.397v18.637h-4.501V1.315h6.898c1.106 0 2.1.123 2.98.37s1.63.624 2.244 1.136a4.894 4.894 0 0 1 1.413 1.905c.328.758.492 1.66.492 2.704 0 .922-.184 1.772-.553 2.55-.369.78-.947 1.42-1.736 1.921-.789.492-1.808.763-3.057.814zm-.169 9.756h-5.7l1.797-3.718h3.903c.604 0 1.086-.128 1.444-.384.359-.256.62-.6.784-1.03.174-.44.26-.942.26-1.505.001-.635-.076-1.188-.23-1.66-.143-.47-.384-.83-.722-1.075-.338-.256-.793-.384-1.367-.384h-3.872l.031-3.257h4.701l1.06 1.29c1.199-.04 2.157.19 2.874.692a4.073 4.073 0 0 1 1.536 1.935c.317.79.476 1.63.476 2.52 0 1.434-.271 2.643-.814 3.626-.533.973-1.316 1.71-2.35 2.212-1.035.492-2.305.738-3.811.738zm9.683-22.432h7.175q2.243 0 3.825.768 1.583.768 2.428 2.274t.845 3.718q0 1.813-.492 3.104-.492 1.275-1.398 2.135-.907.845-2.166 1.352l-1.368.815h-5.823l-.015-3.734h4.04q.923 0 1.522-.4.614-.414.906-1.152.308-.753.308-1.751 0-1.06-.277-1.813-.261-.768-.845-1.168-.569-.415-1.49-.415h-2.674v18.637h-4.501zm14.227 22.37-7.631-8.502 4.523-1.34 9.27 9.91-1.16.055zm9.98-18.354-4.81 18.375h-4.747l6.99-22.37h2.966zm6.646 18.454-4.84-18.375-.445-3.995h3.01l7.053 22.37zm1.562-7.82v3.734h-10.094l.73-3.748zm14.339.283 4.167.054c-.061 1.68-.399 3.098-1.014 4.255a6.158 6.158 0 0 1-2.627 2.612c-1.127.594-2.489.891-4.087.891-1.239 0-2.34-.204-3.303-.614a6.6 6.6 0 0 1-2.458-1.844c-.676-.809-1.188-1.808-1.537-2.996-.338-1.198-.507-2.576-.507-4.133v-3.795c0-1.556.18-2.934.538-4.132.369-1.199.891-2.203 1.567-3.012a6.518 6.518 0 0 1 2.474-1.844c.973-.42 2.069-.63 3.288-.63 1.628 0 2.99.308 4.087.922 1.096.615 1.94 1.511 2.535 2.689.604 1.168.968 2.597 1.09 4.287l-3.972.072c-.02-1.065-.308-2.021-.523-2.625-.205-.615-.892-.996-1.343-1.242-.45-.256-1.075-.384-1.874-.384-.594 0-1.106.107-1.537.322-.43.205-.783.538-1.06.999-.276.46-.481 1.065-.614 1.813-.123.748-.185 1.66-.185 2.735v3.825c0 1.055.057 1.957.17 2.705.112.737.291 1.341.537 1.813.246.47.579.814.999 1.029.43.215.973.323 1.628.323.758 0 1.368-.113 1.829-.338.47-.226.828-.614 1.054-1.197.225-.584.647-1.484.678-2.56zm11.04-14.997v22.37h-4.5V1.19zm11.302.19-7.252 11.108-4.44 5.531-.86-4.501 2.872-4.794 4.21-7.344zm-5.456 22.428-4.886-10.279 3.303-2.919 6.883 13.198zm23.793-3.879v3.718h-9.726v-3.718zM204.626 1.313v22.37h-4.502V1.313zm5.657 8.886v3.61h-8.42V10.2zm5.831-8.886v3.733h-9.695V1.313zm6.672.026v22.37h-4.47V1.34zm4.08-.032 2.902 3.754-11.324.058V1.385zm-181.05.136v22.37h-2.92V1.443zm-.117.03-.068 2.436-10.903-.055-2.993-2.414zm16.732 9.969.052 2.27-9.706-.022v-2.413zM52.045 1.384v22.37H49.08V1.384zm10.674.023v22.37h-2.95V1.407zm6.895-.003v22.37h-2.966V1.404zm3.87.002h7.405q2.52 0 4.256.768 1.751.768 2.658 2.274.921 1.49.921 3.672 0 1.537-.63 2.812-.614 1.26-1.782 2.15-1.152.877-2.765 1.307l-.83.322h-6.96l-.03-2.412h5.254q1.598 0 2.658-.553 1.06-.569 1.598-1.521.538-.953.538-2.105 0-1.29-.507-2.258t-1.598-1.49q-1.076-.538-2.781-.538h-4.44v19.943h-2.966zM87.95 23.759 79.54 13.72l3.088-.015 8.684 10.022-.686.025zm10.275-1.005-1.134.382-2.226-2.03.08-.085c1.598.002 1.945-.232 3.01-.898 1.065-.676 1.864-1.618 2.397-2.827.543-1.219.814-2.642.814-4.271v-1.367c0-1.28-.154-2.418-.461-3.411-.307-1.004-.758-1.85-1.352-2.535a5.712 5.712 0 0 0-2.182-1.583c-.85-.358-1.828-.538-2.934-.538l-2.963.448-1.468-2.857.32.005c2.39.037 6.379.25 7.587.741 1.209.482 2.782 1.156 3.653 2.078.88.912 1.557 2.018 2.028 3.319.471 1.29.707 2.745.707 4.363v1.337c0 1.618-.236 3.078-.707 4.379-.471 1.29-1.153 2.391-2.044 3.303-.88.912-1.946 1.613-3.195 2.105-1.24.481.49.311-1.067.311zM94.241 1.4v22.37h-2.966V1.4z"/>
</svg>
