<svg width="196" height="64" fill="#000000" role="img" version="1.1" viewBox="0 0 73.5 24" xml:space="preserve" xmlns="http://www.w3.org/2000/svg"><path d="m18.227 22.501c-0.08901 0.047-0.08401 0.066 5e-3 0.021a0.22801 0.22801 0 0 0 0.07-0.047c0-0.016-2e-3 -0.014-0.075 0.026zm0.17801-0.09401c-0.042 0.033-0.042 0.035 9e-3 9e-3 0.028-0.014 0.052-0.03 0.052-0.035 0-0.019-0.012-0.014-0.061 0.026zm0.11701-0.071c-0.042 0.033-0.042 0.035 9e-3 9e-3 0.028-0.014 0.052-0.03 0.052-0.035 0-0.019-0.012-0.014-0.061 0.026zm0.11701-0.07c-0.042 0.033-0.042 0.035 9e-3 9e-3 0.028-0.014 0.052-0.03 0.052-0.035 0-0.019-0.012-0.014-0.061 0.026zm0.16201-0.10501c-0.08201 0.052-0.10801 0.08701-0.035 0.047 0.052-0.03 0.13601-0.094 0.12201-0.096a0.46603 0.46603 0 0 0-0.087 0.049zm-7.1734-22.157c-0.052 0.0050003-0.21601 0.021001-0.36402 0.033002-3.4082 0.30702-6.6014 2.1461-8.6235 4.9733a11.877 11.877 0 0 0-2.1181 5.2433c-0.096006 0.65904-0.10801 0.85405-0.10801 1.7481 0 0.89405 0.012001 1.0881 0.10801 1.7481 0.65204 4.5063 3.8592 8.2925 8.2085 9.6956 0.77905 0.25102 1.6001 0.42202 2.5332 0.52503 0.36402 0.04 1.9351 0.04 2.2991 0 1.6111-0.17801 2.9772-0.57704 4.3233-1.2641 0.20601-0.10601 0.24601-0.13401 0.21801-0.15701a231.74 231.74 0 0 1-1.9541-2.6202l-1.9191-2.5922-2.4041-3.5582a332.03 332.03 0 0 0-2.4211-3.5562c-9e-3 -2e-3 -0.019001 1.5791-0.023001 3.5092-7e-3 3.3802-9e-3 3.5162-0.052003 3.5962a0.42403 0.42403 0 0 1-0.20601 0.21301c-0.075004 0.038-0.14101 0.045-0.49503 0.045h-0.40602l-0.10801-0.068a0.44203 0.44203 0 0 1-0.15701-0.17101l-0.049003-0.10601 5e-3 -4.7033 7e-3 -4.7053 0.073004-0.091006a0.63704 0.63704 0 0 1 0.17401-0.14301c0.096006-0.047003 0.13401-0.052003 0.54003-0.052003 0.47903 0 0.55803 0.019001 0.68304 0.15501a466.86 466.86 0 0 1 2.8952 4.3613c1.5581 2.3621 3.6872 5.5873 4.7343 7.1714l1.9001 2.8782 0.09601-0.063a12.341 12.341 0 0 0 2.4651-2.1631 11.941 11.941 0 0 0 2.8242-6.1344c0.09601-0.65904 0.10801-0.85405 0.10801-1.7481 0-0.89405-0.012-1.0881-0.10801-1.7481-0.65204-4.5063-3.8592-8.2925-8.2085-9.6956a12.553 12.553 0 0 0-2.4981-0.52303c-0.22501-0.023001-1.7761-0.049003-1.9701-0.030002zm4.9123 7.2584a0.47103 0.47103 0 0 1 0.23701 0.27702c0.019 0.061004 0.023 1.3651 0.019 4.3043l-7e-3 4.2183-0.74404-1.1401-0.74604-1.1401v-3.0662c0-1.9821 9e-3 -3.0962 0.023-3.1502a0.48403 0.48403 0 0 1 0.23201-0.29602c0.09601-0.049003 0.13101-0.054003 0.50003-0.054003 0.34702 0 0.40802 5e-3 0.48603 0.047003zm55.891 6.277c-0.01527-0.14631-0.08236-0.26053-0.19921-0.3417-0.11788-0.08213-0.27014-0.12271-0.45699-0.12271-0.13118 0-0.24418 0.01983-0.33807 0.05852-0.0939 0.03964-0.1667 0.09249-0.21655 0.15952-0.04975 0.06702-0.07467 0.14349-0.07665 0.22939 0 0.07173 0.01724 0.13403 0.05079 0.18595 0.03355 0.05285 0.07852 0.09723 0.13699 0.1331 0.05743 0.03681 0.12162 0.06701 0.19162 0.09156 0.07084 0.02454 0.14177 0.04531 0.2126 0.0623l0.32665 0.08024c0.13128 0.0302 0.25872 0.0708 0.38034 0.12271 0.12162 0.05097 0.23182 0.11611 0.32852 0.19445 0.0968 0.07836 0.17345 0.17274 0.22995 0.28319 0.0565 0.11044 0.08527 0.23975 0.08527 0.3889 0 0.20106-0.05172 0.37758-0.15621 0.53049-0.10438 0.15197-0.25477 0.27091-0.45211 0.35682-0.1964 0.08496-0.43393 0.12837-0.71363 0.12837-0.27014 0-0.50581-0.04152-0.70408-0.12459-0.19921-0.08213-0.35448-0.20296-0.46655-0.36154-0.11207-0.15858-0.17241-0.35209-0.18103-0.57958h0.62078c0.0086 0.11893 0.04694 0.21806 0.11207 0.29829 0.06605 0.07929 0.15226 0.13781 0.25768 0.17746 0.10636 0.0387 0.22507 0.05852 0.35635 0.05852 0.13699 0 0.25768-0.02077 0.36206-0.06136 0.10345-0.04059 0.18487-0.09722 0.24335-0.17084 0.05941-0.07269 0.08912-0.15859 0.09005-0.25676-9.35e-4 -0.08968-0.02783-0.16426-0.07955-0.22278-0.05266-0.05851-0.12546-0.1076-0.21842-0.14724-0.09378-0.03964-0.20305-0.07552-0.32758-0.10667l-0.39654-0.10006c-0.28645-0.07268-0.51349-0.18312-0.67926-0.33132-0.16659-0.1482-0.24906-0.34454-0.24906-0.59091 0-0.202 0.05556-0.37946 0.16774-0.53144 0.11103-0.15197 0.26339-0.26997 0.45595-0.35398 0.19349-0.08494 0.41191-0.12649 0.65516-0.12649 0.24719 0 0.46364 0.04154 0.65048 0.12649 0.18674 0.08402 0.3334 0.20107 0.43965 0.3502 0.10635 0.14915 0.16192 0.32 0.16483 0.5135zm-3.2042-0.94395h0.62649v2.4137c-9.34e-4 0.22183-0.04892 0.41156-0.14271 0.57109-0.09483 0.15952-0.22611 0.28128-0.39467 0.36718-0.16763 0.08494-0.36404 0.12838-0.58723 0.12838-0.20409 0-0.38699-0.03682-0.54984-0.10856-0.16286-0.07173-0.29216-0.17935-0.38699-0.32094-0.09587-0.1416-0.14281-0.31811-0.14281-0.52955h0.62753c9.35e-4 0.09251 0.02202 0.17273 0.06221 0.23975 0.04019 0.06702 0.09576 0.11799 0.1667 0.15386 0.07176 0.03587 0.15424 0.05381 0.24709 0.05381 0.10064 0 0.18685-0.02077 0.25675-0.06325 0.06991-0.04153 0.1236-0.10383 0.16099-0.1869 0.03635-0.08211 0.05556-0.18406 0.0565-0.30488zm-2.413 3.4699c-0.10355 0-0.19162-0.03586-0.26537-0.1076-0.07374-0.07173-0.1102-0.15859-0.10926-0.26147-9.34e-4 -0.10006 0.03552-0.18596 0.10926-0.2577 0.07375-0.07173 0.16182-0.10761 0.26537-0.10761 0.09961 0 0.18674 0.03587 0.26048 0.10761 0.07478 0.07174 0.11207 0.15764 0.11311 0.2577-1e-3 0.06795-0.01828 0.13025-0.05276 0.18594-0.03541 0.05664-0.08038 0.10102-0.13699 0.13311-0.05556 0.03304-0.11684 0.05002-0.18384 0.05002zm-26.246 0.05031-6.6359-8.2403h-1.7672v8.2368h1.4138v-6.4762l5.2133 6.4797zm12.535-2.3498-0.92655-1.152-2.8275 3.5115h1.8555zm-1.8986-5.8836h-1.8502l6.627 8.2368h1.8556l-3.3139-4.1156 3.3086-4.115-1.8503 0.00286-2.3847 2.9617zm-3.5591-0.00344v1.3156h-5.7134v2.1164h4.5947v1.3156h-4.5947v2.1736h5.7134v1.3156h-7.1272v-6.9212h-5.92e-4v-1.3156zm11.723 0h7.1278v1.3156h-2.8275v6.9212h-1.4139v-6.9212h-2.8864z" stroke-width="1.0001"/></svg>
