<svg version="1.1" viewBox="0 0 800 600" xml:space="preserve" xmlns="http://www.w3.org/2000/svg">





<g transform="matrix(1.3464 0 0 1.3464 53.681 -46.949)">
	
		<path d="m459.25 165.04c-6.983-14.532-15.478-28.502-25.157-41.768-28.148-38.582-68.79-69.424-116.48-83.02-48.664-13.874-103.75-0.276-142.7 33.113-20.194 17.312-35.677 39.118-45.596 63.081-7.035 16.995-14.561 34.156-26.416 48.799-10.348 12.782-23.847 23.011-34.927 35.237-22.965 25.342-39.107 55.276-38.93 88.82 0.227 42.876 17.497 99.07 61.863 117.53 36.69 15.267 77.69-4.697 115.56-7.224 35.361-2.359 66.091 15.89 100.42 16.278 81.899 0.927 149.94-64.353 168.2-138.62 11.409-46.404 3.715-91.52-15.845-132.23z" fill="#92e3a9"/>
		<path d="m459.25 165.04c-6.983-14.532-15.478-28.502-25.157-41.768-28.148-38.582-68.79-69.424-116.48-83.02-48.664-13.874-103.75-0.276-142.7 33.113-20.194 17.312-35.677 39.118-45.596 63.081-7.035 16.995-14.561 34.156-26.416 48.799-10.348 12.782-23.847 23.011-34.927 35.237-22.965 25.342-39.107 55.276-38.93 88.82 0.227 42.876 17.497 99.07 61.863 117.53 36.69 15.267 77.69-4.697 115.56-7.224 35.361-2.359 66.091 15.89 100.42 16.278 81.899 0.927 149.94-64.353 168.2-138.62 11.409-46.404 3.715-91.52-15.845-132.23z" fill="#fff" opacity=".7"/>
	
<g id="Plants">
	<g fill="#263238">
		<path d="m39.032 363.66c2.88 1.258 9.925 1.099 9.931 1.099 0.073-2e-3 -1.514-4.612-1.648-4.891-1.545-3.234-6.434-8.573-10.411-8.035-2.865 0.387-4.459 3.255-3.812 5.953 0.66 2.756 3.486 4.802 5.94 5.874z"/>
		<path d="m41.463 384.07c2.988 0.436 9.275-1.388 9.775-1.535 0.993 3.52 2.297 7.051 3.813 10.551 0.864 2.002 1.798 3.992 2.759 5.975-0.573-0.84-1.092-1.587-1.176-1.684-2.346-2.711-8.47-6.569-12.163-5-2.662 1.13-3.441 4.316-2.105 6.748 1.364 2.483 4.632 3.711 7.281 4.097 2.688 0.392 8.079-1.055 9.501-1.457 0.377 0.757 0.744 1.517 1.124 2.272 1.82 3.625 3.653 7.235 5.342 10.831 0.596 1.267 1.136 2.536 1.681 3.805-0.51-0.746-0.946-1.37-1.023-1.458-2.345-2.71-8.469-6.569-12.163-5-2.662 1.13-3.441 4.317-2.105 6.748 1.366 2.483 4.632 3.711 7.281 4.097 2.565 0.374 7.553-0.917 9.245-1.386 0.519 1.316 1.041 2.633 1.485 3.931 0.283 0.893 0.618 1.734 0.851 2.647 0.251 0.899 0.499 1.789 0.745 2.671 0.412 1.715 0.847 3.482 1.206 5.165 0.259 1.169 0.484 2.287 0.714 3.413-0.578-1.268-1.763-3.727-1.885-3.921-1.906-3.034-7.376-7.776-11.266-6.785-2.802 0.714-4.055 3.746-3.102 6.351 0.973 2.661 4.016 4.37 6.575 5.153 2.819 0.861 9.059 0.074 9.838-0.029 0.374 1.864 0.72 3.681 1.019 5.402 0.669 3.796 1.174 7.198 1.558 10.077h2.631c-0.459-2.979-1.058-6.529-1.851-10.514-0.372-1.895-0.807-3.912-1.274-5.979 0.469-0.186 3.131-1.263 5.489-2.581 2.054 2.225 7.318 4.828 7.999 5.159-0.716 1.762-1.43 3.468-2.13 5.068-1.455 3.35-2.838 6.321-4.058 8.848h2.845c1.049-2.329 2.203-4.983 3.405-7.922 0.735-1.786 1.485-3.709 2.236-5.69 0.755 0.158 6.932 1.412 9.811 0.762 2.61-0.59 5.773-2.068 6.942-4.649 1.144-2.527 0.12-5.644-2.622-6.564-3.804-1.278-9.612 3.043-11.739 5.927-0.126 0.17-1.282 2.168-1.99 3.44 0.303-0.811 0.605-1.596 0.907-2.435 0.608-1.655 1.165-3.324 1.77-5.118 0.262-0.877 0.527-1.762 0.795-2.656 0.284-0.882 0.472-1.848 0.715-2.78 0.518-2.173 0.936-4.399 1.308-6.651 1.451 0.528 6.629 2.329 9.311 2.14 2.671-0.188 6.02-1.168 7.566-3.543 1.514-2.324 0.974-5.561-1.596-6.886-3.567-1.84-9.963 1.552-12.503 4.08-0.159 0.157-1.777 2.177-2.645 3.303 0.213-1.356 0.432-2.708 0.603-4.086 0.494-3.979 0.87-8.023 1.263-12.055 0.119-1.235 0.254-2.464 0.383-3.696 0.514 0.194 6.622 2.468 9.627 2.257 2.67-0.187 6.02-1.168 7.566-3.543 1.514-2.324 0.974-5.561-1.596-6.885-3.567-1.84-9.962 1.551-12.502 4.08-0.191 0.19-2.517 3.099-3.072 3.868 0.287-2.712 0.597-5.41 1.012-8.059 0.566-3.655 1.325-7.21 2.313-10.599 0.239 0.091 6.604 2.493 9.681 2.277 2.671-0.188 6.021-1.169 7.566-3.543 1.514-2.324 0.974-5.56-1.596-6.886-3.567-1.84-9.962 1.552-12.503 4.08-0.199 0.199-2.699 3.329-3.112 3.929 0.06-0.201 0.099-0.417 0.16-0.617 1.102-3.605 2.622-6.959 4.199-10.03 0.913-1.786 1.885-3.442 2.867-5.032 1.14 0.569 6.377 3.112 9.167 3.223 2.675 0.107 6.112-0.5 7.909-2.691 1.76-2.144 1.579-5.42-0.83-7.02-3.344-2.22-10.072 0.448-12.875 2.682-0.152 0.121-1.565 1.528-2.579 2.567 0.454-0.711 0.909-1.453 1.358-2.125 1.679-2.529 3.372-4.741 4.888-6.688 0.871-1.1 1.679-2.077 2.447-2.984 1.409-0.025 7.088-0.197 9.571-1.363 2.422-1.138 5.194-3.26 5.78-6.033 0.573-2.715-1.097-5.538-3.971-5.848-3.991-0.43-8.733 5.039-10.191 8.313-0.126 0.283-1.588 4.935-1.514 4.934 0 0 0.069-1e-3 0.085-1e-3 -0.756 0.857-1.555 1.786-2.409 2.817-1.561 1.918-3.307 4.099-5.047 6.6-1.746 2.496-3.573 5.256-5.234 8.337-1.67 3.087-3.268 6.419-4.471 10.065-0.014 0.041-0.022 0.086-0.036 0.127 0.021-1.176-0.031-4.465-0.064-4.717-0.461-3.554-3.439-10.152-7.387-10.882-2.843-0.525-5.251 1.702-5.478 4.467-0.231 2.824 1.816 5.65 3.813 7.434 2.251 2.011 8.501 3.959 8.999 4.113-1.114 3.483-1.974 7.147-2.64 10.903-0.383 2.148-0.702 4.322-0.995 6.507-0.015-1.017-0.035-1.927-0.052-2.053-0.461-3.555-3.44-10.151-7.387-10.881-2.844-0.526-5.252 1.702-5.478 4.467-0.232 2.824 1.816 5.65 3.812 7.434 2.026 1.809 7.321 3.577 8.728 4.026-0.103 0.839-0.216 1.676-0.316 2.516-0.481 4.028-0.944 8.049-1.519 11.98-0.201 1.385-0.451 2.742-0.697 4.1-0.014-0.903-0.034-1.664-0.049-1.779-0.461-3.555-3.44-10.151-7.386-10.881-2.844-0.525-5.252 1.702-5.479 4.468-0.231 2.823 1.817 5.65 3.814 7.433 1.932 1.727 6.806 3.402 8.476 3.944-0.293 1.384-0.584 2.77-0.93 4.098-0.257 0.901-0.442 1.786-0.75 2.677-0.287 0.888-0.57 1.768-0.851 2.638-0.603 1.657-1.215 3.371-1.843 4.973-0.429 1.118-0.859 2.174-1.288 3.24 0.217-1.376 0.585-4.08 0.59-4.309 0.055-2.381-0.79-6.251-2.473-8.972 0.01-0.352-0.01-0.702-0.065-1.05-0.44-2.739-3.014-4.774-5.808-4.029-3.878 1.033-6.338 7.841-6.522 11.419-0.011 0.211 0.127 2.515 0.238 3.968-0.196-0.844-0.375-1.665-0.587-2.531-0.407-1.715-0.864-3.415-1.347-5.247-0.265-0.876-0.533-1.76-0.803-2.654-0.249-0.891-0.626-1.801-0.937-2.713-0.767-2.097-1.646-4.186-2.579-6.269 1.502-0.36 6.814-1.714 8.947-3.351 2.124-1.629 4.376-4.296 4.356-7.129-0.02-2.775-2.255-5.176-5.13-4.863-3.99 0.433-7.453 6.79-8.178 10.3-0.045 0.219-0.281 2.796-0.384 4.214-0.57-1.248-1.133-2.497-1.752-3.741-1.783-3.592-3.7-7.172-5.597-10.752-0.582-1.096-1.148-2.195-1.719-3.294 0.536-0.123 6.885-1.596 9.275-3.429 2.124-1.629 4.376-4.296 4.356-7.129-0.02-2.774-2.255-5.175-5.13-4.862-3.991 0.433-7.453 6.789-8.178 10.3-0.054 0.265-0.389 3.973-0.428 4.92-1.257-2.419-2.487-4.842-3.602-7.279-1.544-3.361-2.873-6.744-3.918-10.116 0.25-0.057 6.884-1.565 9.331-3.442 2.124-1.629 4.376-4.295 4.356-7.129-0.019-2.774-2.255-5.175-5.13-4.862-3.99 0.433-7.453 6.79-8.177 10.3-0.057 0.276-0.415 4.266-0.428 4.993-0.062-0.201-0.148-0.401-0.208-0.602-1.069-3.616-1.652-7.251-2.031-10.683-0.224-1.993-0.326-3.911-0.384-5.779 1.264-0.154 7.035-0.922 9.424-2.369 2.29-1.387 4.822-3.789 5.113-6.607 0.285-2.76-1.674-5.392-4.565-5.397-4.014-8e-3 -8.154 5.93-9.259 9.339-0.06 0.186-0.463 2.138-0.735 3.564-0.013-0.844-0.043-1.714-0.039-2.522 6e-3 -3.035 0.197-5.814 0.387-8.274 0.119-1.398 0.255-2.66 0.395-3.839 1.161-0.799 5.803-4.076 7.231-6.417 1.393-2.286 2.533-5.584 1.493-8.22-1.019-2.581-3.97-4.014-6.538-2.687-3.566 1.843-4.504 9.021-3.914 12.556 0.052 0.305 1.398 4.991 1.459 4.951 0 0 0.057-0.039 0.07-0.048-0.157 1.132-0.312 2.348-0.454 3.679-0.245 2.461-0.498 5.243-0.569 8.29-0.079 3.044-0.08 6.355 0.234 9.842 0.311 3.495 0.815 7.156 1.823 10.86 0.011 0.042 0.029 0.084 0.041 0.126-0.632-0.992-2.49-3.706-2.657-3.899-2.345-2.711-8.469-6.569-12.163-5.001-2.661 1.131-3.441 4.317-2.105 6.749 1.372 2.477 4.639 3.704 7.287 4.091z"/>
		<path d="m110.29 365.21c0.062 0.039 1.281-4.682 1.324-4.989 0.494-3.55-0.638-10.699-4.252-12.445-2.603-1.258-5.514 0.255-6.462 2.863-0.969 2.662 0.259 5.929 1.714 8.176 1.708 2.638 7.672 6.392 7.676 6.395z"/>
	</g>
</g>
	<path d="m74.793 247.25c-9.215 0-16.713 7.498-16.713 16.713 0 5.286 2.474 9.998 6.317 13.063l-4.42 7.78c-1.368 0.014-2.694 0.712-3.426 1.983l-12.025 20.813c-1.105 1.913-0.451 4.359 1.462 5.465 0.63 0.363 1.318 0.537 1.997 0.537 1.382 0 2.726-0.717 3.467-2l12.025-20.813c0.744-1.288 0.675-2.809-0.023-4.008l4.351-7.658c2.129 0.986 4.491 1.551 6.988 1.551 9.215 0 16.713-7.497 16.713-16.712-1e-3 -9.216-7.498-16.714-16.713-16.714zm0 30.426c-7.562 0-13.713-6.151-13.713-13.712 0-7.562 6.151-13.713 13.713-13.713 7.561 0 13.713 6.152 13.713 13.713-1e-3 7.561-6.152 13.712-13.713 13.712z" opacity=".2"/>
	<path d="m388.44 70.478c-2.252 8.936 3.185 18.038 12.122 20.291 5.126 1.292 10.299 0.045 14.21-2.933l6.464 6.187c-0.321 1.33 0.032 2.786 1.086 3.807l17.242 16.747c1.585 1.539 4.117 1.502 5.657-0.082 0.506-0.522 0.843-1.147 1.009-1.805 0.338-1.34-0.029-2.819-1.092-3.851l-17.242-16.747c-1.067-1.036-2.559-1.341-3.892-0.957l-6.363-6.09c1.476-1.824 2.602-3.976 3.212-6.397 2.252-8.936-3.185-18.038-12.121-20.291-8.937-2.252-18.039 3.185-20.292 12.121zm29.503 7.437c-1.848 7.332-9.316 11.794-16.648 9.946s-11.794-9.317-9.946-16.649 9.317-11.793 16.649-9.945c7.332 1.847 11.794 9.315 9.945 16.648z" opacity=".2"/>
	<g opacity=".2"><g fill="none" stroke="#000" stroke-linecap="round" stroke-linejoin="round" stroke-miterlimit="10">
		
			<circle transform="matrix(.9878 -.1557 .1557 .9878 -33.875 68.367)" cx="419.38" cy="250.37" r="17.618"/>
		<path d="m425.12 265.66 2.817-2.254-0.282-1.408-0.845-2.535-1.69-1.972-6.197-1.972s-0.845 0.282-2.535 1.127-1.69 0.282-2.817 0.282-2.535-0.845-2.535-0.845l-1.972-3.38 1.409-3.381 1.69-1.972 0.563-3.099 2.254-5.916 0.563-3.944c-0.089-0.49-0.279-0.832-0.535-1.071-5.635 1.442-10.171 5.59-12.152 10.988-0.231 1.14-0.271 1.914-0.271 1.914l0.282 3.099 1.127 1.69 2.254 1.972 1.408 1.972 2.535 3.944 2.817 1.127 1.972 2.535v4.849c0.326 0.084 0.648 0.173 0.981 0.239 1.022 0.029 2.586 0.11 3.42 0.338 0.277 0 0.548-0.029 0.822-0.042 1.769-0.385 4.917-2.285 4.917-2.285z"/>
		<path d="m426.48 234.25-0.509 0.705-0.845 3.099s-1.972 2.817-0.845 4.507 3.662 3.099 3.662 3.099h2.535l2.254-0.845s0.845-0.282 0.845 1.69 1.972 5.07 1.972 5.07l1.035 2.587c0.269-1.223 0.42-2.49 0.42-3.793-1e-3 -7.204-4.33-13.388-10.524-16.119z"/>
	
	
		
			<circle cx="110.84" cy="96.929" r="17.618"/>
		<path d="m116.58 112.22 2.817-2.254-0.282-1.409-0.845-2.535-1.69-1.972-6.197-1.972s-0.845 0.282-2.535 1.127-1.69 0.282-2.817 0.282-2.535-0.845-2.535-0.845l-1.972-3.38 1.409-3.38 1.69-1.972 0.563-3.099 2.254-5.916 0.563-3.944c-0.089-0.49-0.278-0.832-0.535-1.071-5.635 1.442-10.171 5.59-12.152 10.988-0.231 1.14-0.271 1.914-0.271 1.914l0.282 3.099 1.127 1.69 2.254 1.972 1.409 1.972 2.535 3.944 2.817 1.127 1.972 2.535v4.849c0.326 0.084 0.649 0.173 0.981 0.239 1.022 0.029 2.586 0.111 3.42 0.338 0.278 0 0.548-0.029 0.822-0.041 1.769-0.386 4.916-2.286 4.916-2.286z"/>
		<path d="m117.93 80.81-0.509 0.705-0.845 3.099s-1.972 2.817-0.845 4.507 3.662 3.099 3.662 3.099h2.535l2.254-0.845s0.845-0.282 0.845 1.69 1.971 5.07 1.971 5.07l1.035 2.587c0.269-1.223 0.42-2.49 0.42-3.793 0-7.204-4.329-13.389-10.523-16.119z"/>
	
	
		
			<circle transform="matrix(.9707 -.2404 .2404 .9707 -66.088 39.744)" cx="129.88" cy="290.78" r="24.876"/>
		<path d="m137.98 312.37 3.977-3.182-0.398-1.989-1.193-3.58-2.386-2.784-8.75-2.784s-1.193 0.398-3.58 1.591-2.387 0.398-3.978 0.398-3.58-1.193-3.58-1.193l-2.784-4.773 1.989-4.773 2.386-2.784 0.796-4.375 3.182-8.353 0.796-5.568c-0.126-0.691-0.393-1.175-0.755-1.512-7.957 2.036-14.362 7.893-17.159 15.515-0.326 1.61-0.382 2.703-0.382 2.703l0.398 4.375 1.591 2.387 3.182 2.784 1.989 2.784 3.58 5.568 3.978 1.591 2.784 3.58v6.847c0.46 0.118 0.916 0.245 1.385 0.337 1.443 0.042 3.651 0.156 4.829 0.477 0.392 0 0.773-0.041 1.16-0.059 2.499-0.546 6.943-3.228 6.943-3.228z"/>
		<path d="m139.89 268.02-0.719 0.996-1.193 4.375s-2.784 3.977-1.193 6.364 5.171 4.375 5.171 4.375h3.58l3.182-1.193s1.193-0.398 1.193 2.387c0 2.784 2.784 7.159 2.784 7.159l1.461 3.653c0.379-1.727 0.594-3.515 0.594-5.356-1e-3 -10.171-6.114-18.904-14.86-22.76z"/>
	
	
		</g><path d="m121.13 335.81v7.323h-1.813v-16.274h1.813v7.324h3.999v-7.324h1.813v16.274h-1.813v-7.323z"/>
		<path d="m131.15 343.14v-14.623h-2.999v-1.651h7.788v1.651h-2.999v14.623z"/>
		<path d="m139.52 343.14v-14.623h-2.999v-1.651h7.788v1.651h-2.999v14.623z"/>
		<path d="m149.09 326.86c2.557 0 3.65 1.511 3.65 3.976v1.953c0 2.581-1.209 3.929-3.789 3.929h-1.604v6.417h-1.814v-16.274h3.557zm-0.14 8.23c1.348 0 2-0.628 2-2.185v-2.162c0-1.488-0.535-2.232-1.86-2.232h-1.744v6.579z"/>
		<path d="m155.9 332.02v2.255h-1.744v-2.255zm0 8.858v2.255h-1.744v-2.255z"/>
		<path d="m165.2 326.86-6.416 16.274h-1.581l6.416-16.274z"/>
		<path d="m169.76 326.86-6.416 16.274h-1.581l6.416-16.274z"/>
		<path d="m175.38 343.14h-2.488l-2.232-16.274h1.767l1.906 13.856 1.814-13.833h1.79l1.79 13.856 1.837-13.88h1.581l-2.209 16.274h-2.394l-1.558-11.043z"/>
		<path d="m188.94 343.14h-2.488l-2.232-16.274h1.768l1.906 13.856 1.813-13.833h1.79l1.79 13.856 1.837-13.88h1.58l-2.209 16.274h-2.394l-1.558-11.043z"/>
		<path d="m202.49 343.14h-2.488l-2.232-16.274h1.768l1.906 13.856 1.813-13.833h1.79l1.79 13.856 1.837-13.88h1.58l-2.209 16.274h-2.394l-1.558-11.043z"/>
		<path d="m212.53 340.88v2.255h-1.743v-2.255z"/>
		<path d="m216.13 340.88v2.255h-1.743v-2.255z"/>
		<path d="m219.74 340.88v2.255h-1.743v-2.255z"/>
	
	
		<path d="m386.79 130.23v7.323h-1.814v-16.274h1.814v7.324h3.999v-7.324h1.813v16.274h-1.813v-7.323z"/>
		<path d="m396.81 137.55v-14.623h-2.999v-1.651h7.788v1.651h-2.999v14.623z"/>
		<path d="m405.18 137.55v-14.623h-2.999v-1.651h7.788v1.651h-2.999v14.623z"/>
		<path d="m414.76 121.28c2.557 0 3.65 1.511 3.65 3.976v1.953c0 2.581-1.209 3.929-3.789 3.929h-1.604v6.417h-1.813v-16.274h3.556zm-0.14 8.23c1.348 0 2-0.628 2-2.185v-2.162c0-1.488-0.535-2.232-1.86-2.232h-1.744v6.579z"/>
		<path d="m421.57 126.44v2.255h-1.744v-2.255zm0 8.858v2.255h-1.744v-2.255z"/>
		<path d="m430.86 121.28-6.416 16.274h-1.581l6.416-16.274z"/>
		<path d="m435.42 121.28-6.416 16.274h-1.581l6.416-16.274z"/>
		<path d="m441.05 137.55h-2.488l-2.232-16.274h1.767l1.906 13.856 1.814-13.833h1.79l1.79 13.856 1.837-13.88h1.581l-2.209 16.274h-2.395l-1.558-11.043z"/>
		<path d="m454.6 137.55h-2.488l-2.232-16.274h1.768l1.906 13.856 1.813-13.833h1.79l1.79 13.856 1.837-13.88h1.58l-2.209 16.274h-2.395l-1.558-11.043z"/>
		<path d="m468.15 137.55h-2.488l-2.232-16.274h1.768l1.906 13.856 1.813-13.833h1.79l1.79 13.856 1.837-13.88h1.58l-2.209 16.274h-2.395l-1.558-11.043z"/>
		<path d="m478.19 135.3v2.255h-1.743v-2.255z"/>
		<path d="m481.79 135.3v2.255h-1.743v-2.255z"/>
		<path d="m485.4 135.3v2.255h-1.743v-2.255z"/>
	
	
		<path d="m67.793 59.23v7.323h-1.813v-16.274h1.813v7.324h3.999v-7.324h1.813v16.274h-1.813v-7.323z"/>
		<path d="m77.811 66.553v-14.623h-2.999v-1.651h7.788v1.651h-2.999v14.623z"/>
		<path d="m86.179 66.553v-14.623h-2.999v-1.651h7.788v1.651h-2.998v14.623z"/>
		<path d="m95.757 50.279c2.557 0 3.65 1.511 3.65 3.976v1.953c0 2.581-1.209 3.929-3.789 3.929h-1.604v6.417h-1.813v-16.275zm-0.14 8.23c1.348 0 2-0.628 2-2.185v-2.162c0-1.488-0.535-2.232-1.86-2.232h-1.744v6.579z"/>
		<path d="m102.57 55.44v2.255h-1.744v-2.255zm0 8.858v2.255h-1.744v-2.255z"/>
		<path d="m111.86 50.279-6.416 16.274h-1.581l6.416-16.274z"/>
		<path d="m116.42 50.279-6.416 16.274h-1.581l6.416-16.274z"/>
		<path d="m122.05 66.553h-2.488l-2.232-16.274h1.767l1.906 13.856 1.814-13.833h1.79l1.79 13.856 1.837-13.88h1.581l-2.209 16.274h-2.395l-1.558-11.043z"/>
		<path d="m135.6 66.553h-2.488l-2.232-16.274h1.768l1.906 13.856 1.813-13.833h1.79l1.79 13.856 1.837-13.88h1.58l-2.209 16.274h-2.395l-1.558-11.043z"/>
		<path d="m149.15 66.553h-2.488l-2.232-16.274h1.768l1.906 13.856 1.813-13.833h1.79l1.79 13.856 1.837-13.88h1.58l-2.209 16.274h-2.395l-1.558-11.043z"/>
		<path d="m159.19 64.298v2.255h-1.743v-2.255z"/>
		<path d="m162.79 64.298v2.255h-1.743v-2.255z"/>
		<path d="m166.4 64.298v2.255h-1.743v-2.255z"/>
	</g>

	<path d="m250.6 41.522c-71.971 0-130.52 58.553-130.52 130.52s58.553 130.52 130.52 130.52 130.52-58.553 130.52-130.52-58.553-130.52-130.52-130.52zm123.47 127.02h-56.987c-0.299-22.675-3.487-44.383-9.233-63.402 10.834-5.294 20.968-12.113 30.103-20.35 21.569 21.594 35.204 51.11 36.117 83.752zm-123.47 127.02c-15.436 0-30.149-12.522-41.432-35.26-2.702-5.446-5.11-11.327-7.235-17.541 15.211-6.521 31.715-9.954 48.667-9.954 16.95 0 33.455 3.434 48.666 9.955-2.125 6.213-4.533 12.095-7.235 17.54-11.281 22.737-25.996 35.26-41.431 35.26zm0-69.755c-17.687 0-34.915 3.536-50.819 10.259-5.387-18.151-8.373-38.864-8.666-60.529h118.97c-0.293 21.665-3.279 42.377-8.666 60.528-15.906-6.722-33.134-10.258-50.819-10.258zm-59.485-57.27c0.292-21.644 3.274-42.336 8.651-60.475 15.909 6.727 33.142 10.265 50.834 10.265 17.691 0 34.924-3.538 50.834-10.265 5.377 18.138 8.358 38.831 8.651 60.475zm59.485-120.02c15.435 0 30.15 12.522 41.431 35.26 2.71 5.461 5.123 11.36 7.253 17.592-15.216 6.526-31.727 9.963-48.684 9.963-16.958 0-33.469-3.436-48.685-9.962 2.13-6.233 4.543-12.131 7.253-17.592 11.283-22.739 25.996-35.261 41.432-35.261zm82.246 31.448c-8.286 7.403-17.429 13.581-27.185 18.445-2.171-6.27-4.618-12.22-7.359-17.745-6.418-12.936-13.998-22.885-22.314-29.52 21.537 4.517 41.026 14.663 56.858 28.82zm-129.95 0.701c-2.741 5.525-5.188 11.475-7.359 17.745-9.756-4.864-18.899-11.042-27.185-18.445 15.833-14.158 35.322-24.303 56.86-28.82-8.318 6.634-15.898 16.584-22.316 29.52zm-39.653 4.124c9.135 8.237 19.269 15.056 30.103 20.35-5.745 19.019-8.933 40.727-9.232 63.402h-56.987c0.912-32.643 14.547-62.159 36.116-83.752zm-36.117 90.751h56.987c0.3 22.695 3.493 44.421 9.249 63.453-10.828 5.289-20.957 12.101-30.089 20.33-21.586-21.596-35.234-51.125-36.147-83.783zm41.259 88.606c8.282-7.395 17.42-13.566 27.169-18.424 2.167 6.251 4.608 12.185 7.341 17.694 6.419 12.936 13.998 22.885 22.315 29.521-21.522-4.515-40.998-14.649-56.825-28.791zm129.92-0.73c2.734-5.509 5.175-11.443 7.341-17.694 9.749 4.859 18.887 11.03 27.169 18.424-15.826 14.142-35.303 24.276-56.825 28.79 8.317-6.635 15.897-16.584 22.315-29.52zm39.622-4.093c-9.132-8.228-19.26-15.041-30.089-20.329 5.756-19.032 8.949-40.758 9.249-63.454h56.987c-0.913 32.658-14.561 62.187-36.147 83.783z" fill="#263238"/>
<g id="Url">
	
		<rect x="170.75" y="156.86" width="257.88" height="42.711" opacity=".2"/>
		<path d="m153.6 199.57h-76.044c-4.038 0-7.311-3.273-7.311-7.311v-28.088c0-4.038 3.273-7.311 7.311-7.311h76.044c4.038 0 7.311 3.273 7.311 7.311v28.089c0 4.037-3.273 7.31-7.311 7.31z" opacity=".2"/>
		
			<rect x="173.75" y="149.86" width="257.88" height="42.711" fill="#fff" stroke="#263238" stroke-linecap="round" stroke-linejoin="round" stroke-miterlimit="10"/>
		
			<g fill="#263238">
				<path d="m214.26 173.15v10.05h-2.489v-22.335h2.489v10.051h5.488v-10.051h2.489v22.335h-2.489v-10.05z"/>
				<path d="m228.01 183.2v-20.069h-4.116v-2.266h10.688v2.266h-4.116v20.069z"/>
				<path d="m239.5 183.2v-20.069h-4.116v-2.266h10.689v2.266h-4.116v20.069z"/>
				<path d="m252.64 160.87c3.51 0 5.009 2.074 5.009 5.456v2.68c0 3.541-1.659 5.392-5.2 5.392h-2.202v8.806h-2.489v-22.335h4.882zm-0.192 11.295c1.851 0 2.744-0.861 2.744-2.999v-2.967c0-2.042-0.734-3.063-2.553-3.063h-2.393v9.029z"/>
				<path d="m261.99 167.95v3.095h-2.394v-3.095zm0 12.156v3.095h-2.394v-3.095z"/>
				<path d="m274.75 160.87-8.806 22.335h-2.17l8.806-22.335z"/>
				<path d="m281 160.87-8.806 22.335h-2.17l8.806-22.335z"/>
				<path d="m288.72 183.2h-3.414l-3.063-22.335h2.425l2.616 19.016 2.489-18.984h2.457l2.456 19.016 2.521-19.048h2.17l-3.031 22.335h-3.286l-2.138-15.155z"/>
				<path d="m307.32 183.2h-3.414l-3.064-22.335h2.426l2.616 19.016 2.488-18.984h2.457l2.456 19.016 2.522-19.048h2.169l-3.031 22.335h-3.286l-2.138-15.155z"/>
				<path d="m325.92 183.2h-3.414l-3.063-22.335h2.426l2.616 19.016 2.488-18.984h2.457l2.456 19.016 2.522-19.048h2.169l-3.031 22.335h-3.286l-2.138-15.155z"/>
				<path d="m339.7 180.11v3.095h-2.393v-3.095z"/>
				<path d="m344.64 180.11v3.095h-2.393v-3.095z"/>
				<path d="m349.59 180.11v3.095h-2.393v-3.095z"/>
			</g>
			<g stroke="#263238" stroke-linecap="round" stroke-linejoin="round" stroke-miterlimit="10">
				
					<circle transform="matrix(.9751 -.2218 .2218 .9751 -33.232 46.547)" cx="190.6" cy="171.21" r="12.123" fill="#92e3a9"/>
				<path d="m194.55 181.74 1.938-1.551-0.194-0.969-0.582-1.745-1.163-1.357-4.265-1.357s-0.581 0.194-1.744 0.775c-1.163 0.582-1.163 0.194-1.938 0.194s-1.745-0.582-1.745-0.582l-1.357-2.326 0.969-2.326 1.163-1.357 0.388-2.132 1.551-4.071 0.388-2.714c-0.061-0.337-0.192-0.573-0.368-0.737-3.878 0.992-6.999 3.847-8.362 7.561-0.159 0.785-0.186 1.317-0.186 1.317l0.194 2.132 0.775 1.163 1.551 1.357 0.969 1.357 1.745 2.714 1.938 0.775 1.357 1.745v3.337c0.224 0.058 0.446 0.119 0.675 0.164 0.703 0.02 1.779 0.076 2.354 0.232 0.191 0 0.377-0.02 0.565-0.029 1.218-0.263 3.384-1.57 3.384-1.57z" fill="#fff"/>
				<path d="m195.48 160.12-0.351 0.485-0.582 2.132s-1.357 1.938-0.581 3.102c0.775 1.163 2.52 2.132 2.52 2.132h1.745l1.551-0.581s0.582-0.194 0.582 1.163 1.357 3.489 1.357 3.489l0.712 1.78c0.185-0.842 0.289-1.713 0.289-2.61-1e-3 -4.957-2.98-9.213-7.242-11.092z" fill="#fff"/>
			</g>
		
		<g stroke="#263238" stroke-linecap="round" stroke-linejoin="round" stroke-miterlimit="10">
			<path d="m156.6 192.57h-76.044c-4.038 0-7.311-3.273-7.311-7.311v-28.088c0-4.038 3.273-7.311 7.311-7.311h76.044c4.038 0 7.311 3.273 7.311 7.311v28.089c0 4.037-3.273 7.31-7.311 7.31z" fill="#fff"/>
			<path d="m80.802 173.29 21.271 11.135c1.138 0.596 2.503-0.23 2.503-1.515v-22.271c0-1.285-1.364-2.111-2.503-1.515l-21.271 11.137c-1.223 0.64-1.223 2.389 0 3.029z" fill="#263238"/>
			<path d="m154.32 173.29-21.271 11.135c-1.138 0.596-2.503-0.23-2.503-1.515v-22.271c0-1.285 1.364-2.111 2.503-1.515l21.271 11.135c1.222 0.642 1.222 2.391 0 3.031z" fill="#263238"/>
		</g>
	
</g>
	<path d="m415.27 322.14h-112.9c-4.988 0-9.207 3.69-9.871 8.633l-16.84 125.37h133l16.484-122.72c0.803-5.974-3.843-11.285-9.87-11.285z" fill="#263238"/>
	
		<g stroke="#263238" stroke-linecap="round" stroke-linejoin="round" stroke-miterlimit="10">
			<path d="m199.05 411.75c7.279 4.16 21.837 5.199 23.917 3.12 2.08-2.08 20.104-33.622 20.104-33.622s2.08 26.69 2.08 37.088c0 7.049-3.821 26.194-6.284 37.802h116.82l4.199-39.189s5.892 8.665 14.211 15.598c8.319 6.932 16.984 5.199 25.65 0.347 8.665-4.853 12.825-15.251 10.399-25.65s-22.53-55.113-25.65-61.005c-3.12-5.893-4.159-20.104-8.319-20.451s-45.061-15.251-45.061-15.251-24.957-6.932-28.77-5.893c-3.813 1.04-33.622 2.773-35.355 2.773s-22.184 1.733-27.036 4.159c-4.853 2.426-12.825 16.984-14.558 22.877-1.733 5.892-38.128 52.34-39.168 59.965-1.04 7.626 5.546 13.172 12.825 17.332z" fill="#92e3a9"/><g fill="none">
			<path d="m307.94 418.25c-10.019 7.536-25.548 18.776-37.114 25.118"/>
			<path d="m317.98 410.54s-1.392 1.102-3.76 2.929"/>
			<path d="m300.08 430.83s-18.502 13.13-28.648 17.905"/>
			<path d="m359.91 354.75c0.559-1.252 1.156-2.552 1.794-3.897"/>
			<path d="m352.12 376.99s1.174-6.458 5.932-17.928"/>
			<path d="m348.63 375.25s-0.436-7.405 2.178-12.196"/>
			
				<line x1="243.07" x2="236.69" y1="381.24" y2="360.44"/>
		</g></g>
		<g fill="#fff" stroke="#263238" stroke-linecap="round" stroke-linejoin="round" stroke-miterlimit="10">
			<path d="m266.18 329.85s0.63 5.354 1.26 7.874 1.575 10.078 1.575 10.078 5.039-7.559 6.299-9.133c1.26-1.575-2.834-10.078-2.834-10.078z"/>
			<path d="m272.79 318.52-6.614 11.338s5.984 7.559 11.968 11.968 15.117 11.653 15.117 11.653-4.409-14.487-5.354-18.581-8.818-17.952-8.818-17.952-4.094-1.575-6.299 1.574z"/>
			<path d="m332.63 286.39s1.26 2.52-0.63 3.464c-1.89 0.945-5.984 2.205-5.984 2.205l0.315 14.487s-13.228 23.62-17.322 29.289-15.747 17.637-15.747 17.637-10.883-14.957-12.143-18.736-6.098-17.859-6.098-17.859 19.815-2.143 23.91-4.977c4.094-2.835 11.338-11.023 13.227-18.582 1.89-7.559-2.519-11.968 3.464-16.377 5.984-4.409 9.763-6.299 12.283-5.039 2.52 1.261 4.725 14.488 4.725 14.488z"/>
			</g><path d="m321.49 286.92 4.525 5.136s4.308 1.417 6.614-5.669c2.305-7.086-4.724-14.487-4.724-14.487z" fill="#263238" stroke="#263238" stroke-linecap="round" stroke-linejoin="round" stroke-miterlimit="10"/><g fill="#fff" stroke="#263238" stroke-linecap="round" stroke-linejoin="round" stroke-miterlimit="10">
			<polygon points="312.47 340.25 302.71 332.69 293.26 353.47"/>
			<path d="m326.61 299.1s-7.526 12.805-11.306 18.159c-3.779 5.354-12.598 15.432-12.598 15.432l11.338 17.637s10.571-19.526 13.857-25.825c3.779-7.244 4.409-12.598 4.409-12.598z"/>
			<path d="m327.59 281.04s-1.89 4.409-2.52 5.354-5.669 3.464-5.669 3.464l-2.204-2.835 0.315-18.267v-14.487s9.763 2.834 11.338 8.503c1.574 5.67-1.26 18.268-1.26 18.268z"/>
			</g><g stroke-linecap="round" stroke-linejoin="round" stroke-miterlimit="10">
				<path d="m261.77 260.25s-4.409-3.779-5.984-8.503-3.779-11.023 1.26-18.267 19.841-25.195 36.218-25.195 35.903 10.708 44.407 17.322c8.503 6.614 15.117 19.526 17.952 25.195 2.833 5.667-0.628 9.76-1.888 12.28-2.764 5.524-1.329 12.449-3.892 18.088-3.296 7.251-11.177 7.019-17.84 8.685-1.26 0.315-3.779-0.945-5.669-5.984s-1.575-14.487-7.244-24.88c-5.669-10.394-37.794-21.102-57.32 1.259z" fill="#575757" stroke="#263238"/>
				<path d="m352.25 264.31s-1.095-21.085-12.049-35.05" fill="none" stroke="#263238"/>
				<g fill="none" stroke="#787878">
					<path d="m280.22 217.45c4.491-3.106 8.086-5.281 14.016-6.379"/>
					<path d="m261.46 240.62s5.91-14.775 15.19-20.672"/>
					<path d="m295.53 217.04c5.197-1.651 8.382-2.477 8.382-2.477"/>
					<path d="m267.64 237.4s8.059-13.432 18.535-17.192c1.544-0.554 3.018-1.068 4.409-1.54"/>
					<path d="m278.93 237.93s3.761-7.253 12.626-11.283c8.865-4.029 16.118-5.91 21.759-5.91"/>
					<path d="m307.7 227.28c2.282-0.761 3.731-1.164 3.731-1.164"/>
					<path d="m287.25 237.66s7.522-5.372 13.432-7.79c0.961-0.393 1.893-0.758 2.781-1.093"/>
					<path d="m315.46 251.63s10.208-4.567 19.341-4.835"/>
				</g>
			</g>
			
				<path d="m271.53 240.41s-11.338 1.89-11.968 9.763 0.63 21.416 1.89 25.195 0 15.747-1.26 24.25 5.039 17.322 10.078 20.471 12.598 4.724 21.731 1.89c9.133-2.835 17.952-8.189 21.731-13.543s3.464-6.299 4.094-7.244 1.575-5.984 1.575-11.338v-18.896c0-4.724-0.315-11.968-0.315-11.968s-17.636-25.509-47.556-18.58z" fill="#fff" stroke="#263238" stroke-linecap="round" stroke-linejoin="round" stroke-miterlimit="10"/>
				<g fill="#263238" stroke="#263238" stroke-linecap="round" stroke-linejoin="round" stroke-miterlimit="10">
					<path d="m306.69 247.22c0.543 4.144 2.007 11.776 5.778 13.662 4.409 2.204 4.409 5.354 3.464 10.708s-1.89 17.952-5.984 21.416-6.299 5.669-11.023 3.779-6.614-4.724-13.857-5.039c-7.244-0.315-11.338-1.26-14.487 0.315s-5.039 3.149-5.039 3.149-2.09-3.138-3.939-7.465c-0.342 3.986-0.878 8.245-1.415 11.874-1.26 8.503 5.039 17.322 10.078 20.471s12.598 4.724 21.731 1.89c9.133-2.835 17.952-8.189 21.731-13.543s3.464-6.299 4.094-7.244 1.575-5.984 1.575-11.338v-18.897c0-4.724 3.218-4.697 3.218-4.697s-1.339-8.557-15.925-19.041z"/>
					<path d="m267.74 241.49c1.423 2.282 5.359 7.425 11.981 7.425 6.705 0 12.42-4.885 15.623-7.419-6.693-2.283-14.676-3.2-23.811-1.084-1e-3 0-1.687 0.283-3.793 1.078z"/>
				</g><g fill="none" stroke-linecap="round" stroke-linejoin="round" stroke-miterlimit="10"><g stroke="#263238">
				<path d="m276.25 263.72 1.575 5.669s-1.575 10.078-1.89 14.172-2.834 8.188 4.409 8.188 8.503-3.149 8.503-5.354"/>
				<path d="m286.33 261.83s0.945-1.89 7.244-1.89 10.393 4.094 10.393 4.094" stroke-width="2"/>
				<path d="m272.16 262.46s-4.724-2.835-9.763 0" stroke-width="2"/>
				</g><path d="m272.84 296.92c3.218 1.268 9.561 2.811 16.955-0.451" stroke="#fff" stroke-width="2"/>
				</g><ellipse cx="295.31" cy="270.8" rx="2.047" ry="2.677" fill="#263238"/>
				<ellipse cx="270.9" cy="270.8" rx="2.047" ry="2.677" fill="#263238"/>
				<path d="m275.94 273.79s-2.205 2.205-4.409 3.149" fill="none" stroke="#263238" stroke-linecap="round" stroke-linejoin="round" stroke-miterlimit="10"/>
				<path d="m290.74 274.11s2.52 4.094 5.984 3.779" fill="none" stroke="#263238" stroke-linecap="round" stroke-linejoin="round" stroke-miterlimit="10"/>
			
			<path d="m286.15 338.02s-4.331-2.454-6.785-4.908-3.032-5.919-5.197-2.887-1.155 5.63 1.732 7.651 11.116 3.32 11.116 3.32 2.166-1.588-0.866-3.176z" fill="#fff" stroke="#263238" stroke-linecap="round" stroke-linejoin="round" stroke-miterlimit="10"/>
		
		<g stroke="#263238" stroke-linecap="round" stroke-miterlimit="10">
			<g stroke-linejoin="round">
				<path d="m287.16 338.88s-10.972-4.042-12.848-3.753c-1.877 0.289-3.898 1.877-4.331 4.331s1.732 4.187 1.732 4.187-1.877 3.32-1.877 4.475 0.433 2.743 0.433 2.743-2.31 2.31-2.31 4.042 1.877 3.609 1.877 3.609-0.722 2.454 0.433 4.764 8.229 8.806 12.415 10.683 11.549 3.609 11.549 3.609l17.901 11.549 10.25-17.757s-11.982-8.517-13.715-10.683c-1.732-2.165-5.775-8.951-7.074-13.137s-13.715-8.662-13.715-8.662z" fill="#fff"/><g fill="none">
				
					<line x1="271.72" x2="278.5" y1="343.65" y2="347.39"/>
				
					<line x1="270.27" x2="277" y1="350.87" y2="355.64"/>
				
					<line x1="269.84" x2="274.5" y1="358.52" y2="362.14"/>
			</g></g>
			
				<path d="m264.08 373.88h-20.156c-1.34 0-2.468-1-2.629-2.33l-4.684-38.704c-0.191-1.577 1.04-2.966 2.629-2.966h29.524c1.589 0 2.82 1.389 2.629 2.966l-4.684 38.704c-0.161 1.33-1.29 2.33-2.629 2.33z" fill="#fff" stroke-linejoin="round"/>
				<g fill="none">
					<path d="m240.85 327.42s3.036-2.226 2.631-6.476-5.06-4.048-5.06-8.703 2.429-4.655 3.643-9.512"/>
					<path d="m252.39 327.22s1.619-1.214 1.619-4.857-2.833-3.036-3.441-7.084"/>
				</g>
			
			<polygon points="319.67 367.73 306.15 388.18 319.32 398.23 333.19 375" fill="#92e3a9" stroke-linejoin="round"/>
			<path d="m406.33 397.54s6.239 16.984 6.932 22.877c0.693 5.892-4.506 18.717-7.972 23.57s-24.264 0-39.515-7.279-44.021-26.69-46.447-29.463 0-9.012 0-9.012l13.865-23.224s2.426-2.773 5.546-2.426 48.873 20.797 48.873 20.797" fill="#92e3a9" stroke-linejoin="round"/>
		</g><g stroke="#263238" stroke-linecap="round" stroke-linejoin="round" stroke-miterlimit="10">
		<path d="m189.34 388.18s-8.666 9.012-10.745 19.757c-2.08 10.745 2.426 18.371 4.853 23.57 2.426 5.199 4.159 7.279 7.972 7.626s24.957-2.773 26.343-6.239 5.893-11.438 5.199-20.451c-0.693-9.012-11.438-19.411-20.797-18.717" fill="#92e3a9"/>
		<path d="m191.42 439.13s-1.733-8.666 11.092-12.825 17.331-0.347 16.638 4.506c-0.694 4.853-20.104 12.825-27.73 8.319z" fill="#92e3a9"/>
		<path d="m220.27 431.69s3.744 4.119 7.488 4.119 9.735 6.74 12.356 8.612 8.612 2.247 6.74 7.114c-1.872 4.868-9.361 1.872-12.731 0s-5.242-5.616-7.863-5.616-5.242 0.749-12.356 2.621-15.726-1.123-10.858-6.74 17.224-10.11 17.224-10.11z" fill="#fff"/>
		</g><g fill="#fff" stroke="#263238" stroke-linecap="round" stroke-linejoin="round" stroke-miterlimit="10">
			<path d="m193.69 438.81s-5.242 0-6.365 4.668 0 11.132 4.493 12.927 2.247-3.232 2.247-6.464v-8.977z"/>
			<path d="m201.17 432.82s-8.612 2.621-8.612 7.489 2.621 14.977 6.365 15.726 4.119-2.247 3.37-7.863-1.123-15.352-1.123-15.352z"/>
			<path d="m210.16 429.45s-5.991-3.744-8.237 1.123-1.123 16.849 1.123 20.219c2.247 3.37 7.114 2.621 7.488-2.621 0.375-5.242-0.374-18.721-0.374-18.721z"/>
			<path d="m221.38 430.36c0.018-2.401-1.37-4.682-3.624-5.51-0.86-0.316-1.89-0.456-3.107-0.269-4.867 0.749-5.616 4.119-4.867 7.114s-0.374 17.224 2.246 19.845c2.621 2.621 7.114 1.123 8.237-1.498 0.898-2.093 1.078-14.691 1.115-19.682z"/>
		</g>
	
	
		<line x1="468" x2="45.333" y1="456.14" y2="456.14" fill="none" stroke="#263238" stroke-linecap="round" stroke-linejoin="round" stroke-miterlimit="10"/>
<g id="Device">
	<g stroke="#263238" stroke-linecap="round" stroke-linejoin="round" stroke-miterlimit="10">
		<polygon points="285.55 467.89 181.46 453.89 112.74 455.25 192.3 480.01" fill="#d1d1d1"/>
		<polygon points="204.75 458.08 191.18 459.16 220.22 463.5 237.59 462.96" fill="none"/>
		<polyline points="189 460.25 232.43 467.3 190.36 469.75" fill="none"/>
		<polygon points="93.247 369.89 112.74 455.25 192.3 480.01 170.7 373.58" fill="#d1d1d1"/>
		<path d="m175.12 395.37c-11.023 10.473-23.635 27.952-38.119 45.433-8.447 10.195-17.276 13.135-24.54 13.214l0.281 1.23 79.557 24.763z" fill="#a6a6a6"/>
		<path d="m142.54 414.69c1.089 4.708-0.457 9.087-3.453 9.78s-6.308-2.562-7.397-7.27 0.457-9.087 3.453-9.78 6.308 2.562 7.397 7.27z" fill="#fff"/>
		<polygon points="192.3 480.01 285.55 472.11 285.55 467.89 190.72 473.16" fill="#a6a6a6"/>
	</g>
</g></g></svg>
