<svg version="1.1" viewBox="0 0 800 800" xml:space="preserve" xmlns="http://www.w3.org/2000/svg" xmlns:xlink="http://www.w3.org/1999/xlink">




<g transform="matrix(1.8435 0 0 1.8435 -63.292 -61.985)"><g id="Background_Simple">
	
		<path d="m67.931 167.09s-27.877 71.988 11.297 144.5c39.174 72.516 119.88 110.8 184.47 143.55s131.66 16.799 163.53-36.838-11.845-91.928-11.897-168.42c-0.051-76.49 11.447-96.742-29.963-161.36-41.41-64.623-143.06-78.925-219.9-30.996-76.84 47.929-97.54 109.56-97.54 109.56z" fill="#fff" opacity=".7"/>
	
	
		<path d="m112.6 91.449c4.193-2.901 8.607-5.483 13.229-7.695 33.323-15.94 74.225-10.692 106.25 7.715s55.991 48.498 73.432 81.06c7.969 14.877 15.094 30.863 27.895 41.862 16.506 14.183 38.798 17.384 58.467 25.108 71.52 28.086 72.336 131.06 9.649 169.51-24.711 15.157-55.229 19.73-83.625 21.847-39.334 2.933-79.386 1.43-117.37-9.19s-73.927-30.825-99.341-60.99c-33.284-39.507-46.112-93.22-44.434-144.85 0.849-26.129 5.242-52.477 16.294-76.169 8.886-19.047 22.358-36.311 39.555-48.209z" fill="#92e3a9"/>
		<path d="m112.6 91.449c4.193-2.901 8.607-5.483 13.229-7.695 33.323-15.94 74.225-10.692 106.25 7.715s55.991 48.498 73.432 81.06c7.969 14.877 15.094 30.863 27.895 41.862 16.506 14.183 38.798 17.384 58.467 25.108 71.52 28.086 72.336 131.06 9.649 169.51-24.711 15.157-55.229 19.73-83.625 21.847-39.334 2.933-79.386 1.43-117.37-9.19s-73.927-30.825-99.341-60.99c-33.284-39.507-46.112-93.22-44.434-144.85 0.849-26.129 5.242-52.477 16.294-76.169 8.886-19.047 22.358-36.311 39.555-48.209z" fill="#fff" opacity=".7"/>
	
</g><g id="Clouds" fill="none" stroke="#263238" stroke-miterlimit="10">
	<g stroke-linecap="round" stroke-linejoin="round">
		
			<path d="m135.36 134.92c0.342-1.486 0.528-3.03 0.528-4.619 0-11.339-9.192-20.532-20.532-20.532-1.854 0-3.65 0.25-5.358 0.711-3.381-5.983-9.796-10.025-17.158-10.025-10.463 0-19.017 8.159-19.656 18.461-0.966-0.181-1.96-0.286-2.979-0.286-8.277 0-15.087 6.247-15.992 14.282-4.86 0.105-8.769 4.07-8.769 8.955 0 4.951 4.014 8.965 8.965 8.965h75.287c4.951 0 8.965-4.014 8.965-8.965 0-2.802-1.287-5.303-3.301-6.947z"/>
			
				
					<line x1="80.595" x2="80.595" y1="166.06" y2="186.81"/>
				
					<line x1="80.595" x2="80.595" y1="153.61" y2="161.91"/>
				
					<line x1="80.595" x2="80.595" y1="145.86" y2="150.3"/>
				<polyline points="76.677 184.38 80.595 189.23 84.513 184.38"/>
			
			
				
					<line x1="93.967" x2="93.967" y1="174.95" y2="195.7"/>
				
					<line x1="93.967" x2="93.967" y1="162.5" y2="170.8"/>
				
					<line x1="93.967" x2="93.967" y1="154.75" y2="159.19"/>
				<polyline points="90.049 193.27 93.967 198.12 97.885 193.27"/>
			
			
				
					<line x1="106.46" x2="106.46" y1="157.51" y2="178.26"/>
				
					<line x1="106.46" x2="106.46" y1="145.06" y2="153.36"/>
				
					<line x1="106.46" x2="106.46" y1="137.31" y2="141.75"/>
				<polyline points="102.54 175.83 106.46 180.68 110.38 175.83"/>
			
		
		
			<path d="m305.12 275.09c-0.342-1.486-0.528-3.03-0.528-4.62 0-11.339 9.192-20.532 20.531-20.532 1.855 0 3.65 0.25 5.359 0.711 3.381-5.983 9.796-10.025 17.158-10.025 10.463 0 19.017 8.159 19.656 18.461 0.966-0.181 1.96-0.286 2.979-0.286 8.277 0 15.087 6.247 15.992 14.282 4.86 0.105 8.769 4.07 8.769 8.955 0 4.951-4.014 8.965-8.965 8.965h-75.287c-4.951 0-8.965-4.014-8.965-8.965-1e-3 -2.801 1.287-5.302 3.301-6.946z"/>
			
				
					<line x1="356.69" x2="356.69" y1="298.63" y2="277.88"/>
				
					<line x1="356.69" x2="356.69" y1="311.08" y2="302.78"/>
				
					<line x1="356.69" x2="356.69" y1="318.83" y2="314.39"/>
				<polyline points="360.61 280.31 356.69 275.46 352.77 280.31"/>
			
			
				
					<line x1="343.32" x2="343.32" y1="289.74" y2="269"/>
				
					<line x1="343.32" x2="343.32" y1="302.19" y2="293.89"/>
				
					<line x1="343.32" x2="343.32" y1="309.95" y2="305.51"/>
				<polyline points="347.24 271.42 343.32 266.57 339.4 271.42"/>
			
			
				
					<line x1="330.82" x2="330.82" y1="307.18" y2="286.43"/>
				
					<line x1="330.82" x2="330.82" y1="319.63" y2="311.33"/>
				
					<line x1="330.82" x2="330.82" y1="327.38" y2="322.95"/>
				<polyline points="334.74 288.86 330.82 284.01 326.91 288.86"/>
			
		
	</g>
	<line x1="34.333" x2="468.3" y1="445.48" y2="445.48"/>
</g><g id="Plant">
	
		<g stroke="#263238" stroke-linecap="round" stroke-linejoin="round" stroke-miterlimit="10"><g fill="#92e3a9">
			<path d="m362.79 384s17.238 1.36 17.957 14.079c0 0-17.456 8.037-17.957-14.079z"/>
			<path d="m396.89 387.15s9.63-13.02 25.191-6.343c0 0-9.502 15.741-25.191 6.343z"/>
			<path d="m420.76 346.05s2.769 25.049-20.031 18.151c0 0 7.24-18.415 20.031-18.151z"/>
			<path d="m392.77 332.1s18.032 9.724 4.774 24.479c-1e-3 0-12.647-10.538-4.774-24.479z"/>
			<path d="m370.58 354.48s19.606-1.978 19.606 16.171c0 0-19.606 0.772-19.606-16.171z"/></g><g fill="none">
			<path d="m389.07 423.98s-8.939-18.758-0.359-37.862c8.58-19.105 11.481-35.192 6.998-46.533"/>
			<path d="m377.02 359.36s11.752 4.669 15.746 16.774"/>
			<path d="m414.56 356.07s-6.791 9.251-18.297 8.252"/>
			<path d="m414.56 383.47s-18.809 5.419-26.284 3.645"/>
			<path d="m368.41 389.72s8.407 9.228 16.863 9.083"/>
		</g></g>
		<polygon id="XMLID_117_" points="402.8 445.2 371.6 445.2 367.46 409.12 406.93 409.12" fill="#263238"/>
		<path d="m407.64 413.41h-40.873c-0.549 0-0.995-0.445-0.995-0.995v-3.099c0-0.549 0.445-0.995 0.995-0.995h40.873c0.549 0 0.995 0.445 0.995 0.995v3.099c-1e-3 0.55-0.446 0.995-0.995 0.995z" fill="#263238"/>
		
			<line x1="370.58" x2="394.35" y1="413.41" y2="413.41" fill="none" stroke="#fff" stroke-linecap="round" stroke-linejoin="round" stroke-miterlimit="10"/>
		
			<line x1="398.83" x2="402.41" y1="413.41" y2="413.41" fill="none" stroke="#fff" stroke-linecap="round" stroke-linejoin="round" stroke-miterlimit="10"/>
	
</g><g id="Interface">
	
		
			<defs>
				<path id="XMLID_114_" d="m460.43 106.79v146.03c0 3.7-3 6.7-6.7 6.7h-282.75c-3.7 0-6.71-3-6.71-6.7v-146.03c0-3.7 3.01-6.7 6.71-6.7h282.75c3.7 0 6.7 3 6.7 6.7z"/>
			</defs>
			<use fill="#ffffff" xlink:href="#XMLID_114_"/>
			<clipPath id="XMLID_00000020394118571226582000000007828785846595631544_">
				<use xlink:href="#XMLID_114_"/>
			</clipPath>
			<path d="m460.43 114.55v138.27c0 3.7-3 6.7-6.7 6.7h-177.89v-144.97z" clip-path="url(#XMLID_00000020394118571226582000000007828785846595631544_)" fill="#92e3a9" opacity=".2"/>
			
				<use fill="none" stroke="#263238" stroke-linecap="round" stroke-linejoin="round" stroke-miterlimit="10" xlink:href="#XMLID_114_"/>
		<g stroke="#263238" stroke-miterlimit="10"><g stroke-linecap="round" stroke-linejoin="round">
		<path d="m435.66 173.63h-36.794c-4.103 0-7.429 3.326-7.429 7.429s3.326 7.429 7.429 7.429h36.794c4.103 0 7.429-3.326 7.429-7.429-1e-3 -4.103-3.327-7.429-7.429-7.429z" fill="#92e3a9"/>
		<path d="m460.43 106.79v13.68h-296.16v-13.68c0-3.7 3.01-6.7 6.71-6.7h282.75c3.7 0 6.7 3 6.7 6.7z" fill="#999"/>
		
			<circle cx="176.8" cy="109.93" r="4.615" fill="#92e3a9"/>
		
			<circle cx="189.3" cy="109.93" r="4.615" fill="#757575"/>
		
			<circle cx="201.8" cy="109.93" r="4.615" fill="#fff"/>
		
			<line x1="275.83" x2="275.83" y1="120.47" y2="259.65" fill="none"/>
		<path d="m450.35 114.55h-64.747c-2.549 0-4.615-2.066-4.615-4.615s2.066-4.615 4.615-4.615h64.747c2.549 0 4.615 2.066 4.615 4.615s-2.066 4.615-4.615 4.615z" fill="#fff"/>
		</g><path d="m438.54 163.34h-140.12c-2.513 0-4.549-2.037-4.549-4.549 0-2.513 2.037-4.549 4.549-4.549h140.12c2.513 0 4.549 2.037 4.549 4.549s-2.036 4.549-4.549 4.549z" fill="#bfbfbf"/>
		<path d="m373.54 163.34h-75.119c-2.513 0-4.549-2.037-4.549-4.549v0c0-2.513 2.037-4.549 4.549-4.549h75.119c2.513 0 4.549 2.037 4.549 4.549v0c0 2.512-2.036 4.549-4.549 4.549z" fill="#92e3a9" stroke-linecap="round" stroke-linejoin="round"/>
		</g><g fill="none" stroke="#263238" stroke-linecap="round" stroke-linejoin="round" stroke-miterlimit="10">
			
				<rect x="298.01" y="227.96" width="6.174" height="6.174"/>
			<polyline points="299.89 230.62 300.8 231.86 302.31 229.71"/>
		</g>
		<path d="m357.69 232.84h-42.022c-0.992 0-1.797-0.805-1.797-1.797s0.805-1.797 1.797-1.797h42.022c0.992 0 1.797 0.805 1.797 1.797s-0.804 1.797-1.797 1.797z" opacity=".3"/>
		
			<g fill="#263238">
				<path d="m206.82 234.73h0.024l0.996-6.849h1.211l-1.295 8.396h-1.967l-1.295-8.396h1.332z"/>
				<path d="m210.98 231.42h1.811v1.199h-1.811v2.459h2.279v1.199h-3.598v-8.396h3.598v1.199h-2.279z"/>
				<path d="m216.84 236.28c-0.072-0.216-0.12-0.348-0.12-1.031v-1.319c0-0.779-0.264-1.067-0.863-1.067h-0.456v3.418h-1.319v-8.396h1.991c1.367 0 1.955 0.636 1.955 1.931v0.66c0 0.863-0.276 1.415-0.864 1.691v0.023c0.66 0.276 0.876 0.899 0.876 1.775v1.295c0 0.408 0.012 0.708 0.144 1.02zm-1.439-7.196v2.579h0.516c0.492 0 0.792-0.216 0.792-0.888v-0.827c0-0.601-0.204-0.864-0.672-0.864z"/>
				<path d="m220.18 235v1.271h-1.271v-1.271z"/>
				<path d="m224.93 228.98c-0.42 0-0.684 0.228-0.684 0.827v0.9h-1.247v-0.816c0-1.343 0.671-2.11 1.967-2.11 1.295 0 1.967 0.768 1.967 2.11 0 1.116-0.408 2.016-1.631 3.322-0.78 0.84-0.996 1.235-0.996 1.68 0 0.06 0 0.119 0.012 0.18h2.495v1.199h-3.814v-1.031c0-0.936 0.335-1.644 1.319-2.675 1.008-1.067 1.296-1.727 1.296-2.626-1e-3 -0.756-0.264-0.96-0.684-0.96z"/>
				<path d="m229.02 235v1.271h-1.271v-1.271z"/>
				<path d="m229.87 229.89c0-1.343 0.708-2.11 2.003-2.11s2.003 0.768 2.003 2.11v4.366c0 1.343-0.708 2.11-2.003 2.11s-2.003-0.768-2.003-2.11zm1.319 4.45c0 0.6 0.264 0.827 0.684 0.827s0.684-0.228 0.684-0.827v-4.534c0-0.6-0.264-0.827-0.684-0.827-0.419 0-0.684 0.228-0.684 0.827z"/>
				<path d="m235.92 233.56v0.78c0 0.6 0.264 0.816 0.684 0.816s0.684-0.216 0.684-0.816v-1.848c0-0.6-0.264-0.827-0.684-0.827-0.419 0-0.684 0.228-0.684 0.827v0.252h-1.247l0.24-4.869h3.478v1.199h-2.303l-0.108 2.003h0.024c0.24-0.395 0.612-0.611 1.14-0.611 0.971 0 1.463 0.684 1.463 1.919v1.871c0 1.343-0.671 2.11-1.967 2.11-1.295 0-1.967-0.768-1.967-2.11v-0.696z"/>
			</g>
		
		<g stroke="#263238" stroke-linecap="round" stroke-linejoin="round" stroke-miterlimit="10">
			<path d="m200.01 202.8c-3.109-2.957-5.614-6.543-7.311-10.554" fill="none"/>
			<path d="m228.81 149.36c10.194 2.362 18.488 9.68 22.209 19.277" fill="none"/>
			<path d="m231.46 172.02v-8.961l-6.713-0.578c-0.4-1.416-0.955-2.765-1.66-4.023l4.333-5.151-6.337-6.337-5.151 4.333c-1.257-0.705-2.606-1.26-4.023-1.66l-0.578-6.713h-8.961l-0.579 6.713c-1.416 0.4-2.765 0.955-4.022 1.66l-5.151-4.333-6.336 6.337 4.333 5.151c-0.705 1.257-1.26 2.606-1.66 4.023l-6.713 0.578v8.961l6.713 0.578c0.4 1.416 0.955 2.765 1.66 4.023l-4.333 5.151 6.336 6.337 5.151-4.333c1.258 0.705 2.606 1.26 4.023 1.66l0.579 6.713h8.961l0.578-6.713c1.416-0.4 2.765-0.955 4.023-1.66l5.15 4.333 6.337-6.337-4.333-5.151c0.705-1.257 1.26-2.606 1.66-4.023zm-24.608 5.932c-5.751 0-10.413-4.662-10.413-10.413s4.662-10.413 10.413-10.413 10.413 4.662 10.413 10.413-4.662 10.413-10.413 10.413z" fill="#92e3a9"/>
			</g>
				<defs>
					<path id="XMLID_116_" d="m261.12 192.02v-6.377l-4.777-0.412c-0.284-1.008-0.679-1.968-1.181-2.862l3.084-3.665-4.509-4.509-3.665 3.084c-0.895-0.502-1.855-0.897-2.862-1.181l-0.412-4.777h-6.377l-0.412 4.777c-1.008 0.285-1.968 0.679-2.862 1.181l-3.665-3.084-4.509 4.509 3.083 3.665c-0.502 0.895-0.897 1.855-1.181 2.863l-4.777 0.412v6.377l4.777 0.412c0.285 1.008 0.679 1.968 1.181 2.862l-3.083 3.665 4.509 4.509 3.665-3.083c0.895 0.502 1.855 0.897 2.862 1.181l0.412 4.777h6.377l0.412-4.777c1.008-0.285 1.968-0.679 2.863-1.181l3.665 3.083 4.509-4.509-3.084-3.665c0.502-0.895 0.897-1.855 1.181-2.862zm-17.511 4.221c-4.092 0-7.41-3.318-7.41-7.41s3.318-7.41 7.41-7.41 7.41 3.318 7.41 7.41-3.318 7.41-7.41 7.41z"/>
				</defs>
				<use fill="#92e3a9" xlink:href="#XMLID_116_"/>
				<clipPath id="XMLID_00000085215377749235855430000000669277336660819086_">
					<use xlink:href="#XMLID_116_"/>
				</clipPath>
				<path d="m261.12 192.02v-6.377l-4.777-0.412c-0.284-1.008-0.679-1.968-1.181-2.862l3.084-3.665-4.509-4.509-3.665 3.084c-0.895-0.502-1.855-0.897-2.862-1.181l-0.412-4.777h-6.377l-0.412 4.777c-1.008 0.285-1.968 0.679-2.862 1.181l-3.665-3.084-4.509 4.509 3.083 3.665c-0.502 0.895-0.897 1.855-1.181 2.863l-4.777 0.412v6.377l4.777 0.412c0.285 1.008 0.679 1.968 1.181 2.862l-3.083 3.665 4.509 4.509 3.665-3.083c0.895 0.502 1.855 0.897 2.862 1.181l0.412 4.777h6.377l0.412-4.777c1.008-0.285 1.968-0.679 2.863-1.181l3.665 3.083 4.509-4.509-3.084-3.665c0.502-0.895 0.897-1.855 1.181-2.862zm-17.511 4.221c-4.092 0-7.41-3.318-7.41-7.41s3.318-7.41 7.41-7.41 7.41 3.318 7.41 7.41-3.318 7.41-7.41 7.41z" clip-path="url(#XMLID_00000085215377749235855430000000669277336660819086_)" fill="#fff" opacity=".3"/>
				
					<use fill="none" stroke="#263238" stroke-linecap="round" stroke-linejoin="round" stroke-miterlimit="10" xlink:href="#XMLID_116_"/>
			
			
				<defs>
					<path id="XMLID_115_" d="m229.92 206.88v-4.538l-3.399-0.293c-0.202-0.717-0.484-1.4-0.841-2.037l2.194-2.608-3.209-3.208-2.608 2.194c-0.637-0.357-1.32-0.638-2.037-0.84l-0.293-3.399h-4.538l-0.293 3.399c-0.717 0.202-1.4 0.484-2.037 0.84l-2.608-2.194-3.208 3.208 2.194 2.608c-0.357 0.637-0.638 1.32-0.84 2.037l-3.399 0.293v4.538l3.399 0.293c0.202 0.717 0.484 1.4 0.84 2.037l-2.194 2.608 3.208 3.208 2.608-2.194c0.637 0.357 1.32 0.638 2.037 0.84l0.293 3.399h4.538l0.293-3.399c0.717-0.202 1.4-0.484 2.037-0.84l2.608 2.194 3.209-3.208-2.194-2.608c0.357-0.637 0.638-1.32 0.841-2.037zm-12.46 3.004c-2.912 0-5.273-2.361-5.273-5.273s2.361-5.273 5.273-5.273 5.273 2.361 5.273 5.273c-1e-3 2.913-2.361 5.273-5.273 5.273z"/>
				</defs>
				<use fill="#92e3a9" xlink:href="#XMLID_115_"/>
				<clipPath id="XMLID_00000098197139265934158420000015842164783264916141_">
					<use xlink:href="#XMLID_115_"/>
				</clipPath>
				<path d="m229.92 206.88v-4.538l-3.399-0.293c-0.202-0.717-0.484-1.4-0.841-2.037l2.194-2.608-3.209-3.208-2.608 2.194c-0.637-0.357-1.32-0.638-2.037-0.84l-0.293-3.399h-4.538l-0.293 3.399c-0.717 0.202-1.4 0.484-2.037 0.84l-2.608-2.194-3.208 3.208 2.194 2.608c-0.357 0.637-0.638 1.32-0.84 2.037l-3.399 0.293v4.538l3.399 0.293c0.202 0.717 0.484 1.4 0.84 2.037l-2.194 2.608 3.208 3.208 2.608-2.194c0.637 0.357 1.32 0.638 2.037 0.84l0.293 3.399h4.538l0.293-3.399c0.717-0.202 1.4-0.484 2.037-0.84l2.608 2.194 3.209-3.208-2.194-2.608c0.357-0.637 0.638-1.32 0.841-2.037zm-12.46 3.004c-2.912 0-5.273-2.361-5.273-5.273s2.361-5.273 5.273-5.273 5.273 2.361 5.273 5.273c-1e-3 2.913-2.361 5.273-5.273 5.273z" clip-path="url(#XMLID_00000098197139265934158420000015842164783264916141_)" fill="#fff" opacity=".5"/>
				
					<use fill="none" stroke="#263238" stroke-linecap="round" stroke-linejoin="round" stroke-miterlimit="10" xlink:href="#XMLID_115_"/>
			
			<polyline points="248.61 167.54 251.02 168.63 251.97 166.46" fill="none" stroke="#263238" stroke-linecap="round" stroke-linejoin="round" stroke-miterlimit="10"/>
			<polyline points="195.06 193.24 192.64 192.15 191.69 194.33" fill="none" stroke="#263238" stroke-linecap="round" stroke-linejoin="round" stroke-miterlimit="10"/>
		
		
			<g fill="#263238">
				<path d="m295.19 142.99v4.911c0 0.454 0.199 0.618 0.518 0.618 0.318 0 0.519-0.164 0.519-0.618v-4.911h0.946v4.848c0 1.019-0.51 1.601-1.492 1.601s-1.491-0.582-1.491-1.601v-4.848z"/>
				<path d="m300.82 144.56v0.828c0 1.018-0.491 1.573-1.492 1.573h-0.473v2.392h-1v-6.366h1.473c1.001 0 1.492 0.555 1.492 1.573zm-1.965-0.664v2.155h0.473c0.318 0 0.491-0.145 0.491-0.6v-0.955c0-0.455-0.173-0.6-0.491-0.6z"/>
				<path d="m304.4 149.36h-1.01l-0.173-1.155h-1.228l-0.173 1.155h-0.917l1.018-6.366h1.464zm-2.282-2.019h0.964l-0.474-3.219h-0.018z"/>
				<path d="m304.86 142.99h1.582c1 0 1.491 0.555 1.491 1.574v3.219c0 1.018-0.491 1.573-1.491 1.573h-1.582zm1 0.909v4.547h0.564c0.318 0 0.51-0.164 0.51-0.619v-3.31c0-0.455-0.191-0.619-0.51-0.619h-0.564z"/>
				<path d="m311.8 149.36h-1.01l-0.173-1.155h-1.228l-0.173 1.155h-0.918l1.019-6.366h1.464zm-2.282-2.019h0.964l-0.474-3.219h-0.018z"/>
				<path d="m311.62 142.99h3.092v0.91h-1.045v5.456h-1.001v-5.457h-1.046z"/>
				<path d="m315.15 142.99h1.001v6.366h-1.001z"/>
				<path d="m317.79 144.75h-0.019v4.611h-0.9v-6.366h1.256l1.009 3.811h0.018v-3.811h0.891v6.366h-1.027z"/>
				<path d="m322.26 145.81h1.4v2.019c0 1.019-0.509 1.601-1.491 1.601s-1.491-0.582-1.491-1.601v-3.31c0-1.018 0.509-1.6 1.491-1.6 0.983 0 1.491 0.582 1.491 1.6v0.618h-0.945v-0.682c0-0.455-0.2-0.627-0.518-0.627s-0.519 0.173-0.519 0.627v3.438c0 0.455 0.2 0.619 0.519 0.619 0.318 0 0.518-0.163 0.518-0.619v-1.173h-0.455z"/>
			</g>
		
		<polygon points="443.61 195.51 446.75 200.18 449.26 198.49 446.12 193.82 452.09 192.57 435.47 180.72 440.2 200.57" fill="#263238"/>
	
</g><g id="Character">
	
		
			<defs>
				<path id="XMLID_107_" d="m254.01 281.64c2.051-2.887 15.554 5.151 13.893 10.862-1.662 5.711-7.063 5.094-10.228 2.061-3.166-3.033-5.863-9.83-3.665-12.923z"/>
			</defs>
			<use fill="#92e3a9" xlink:href="#XMLID_107_"/>
			<clipPath id="XMLID_00000176004675218877822740000009930278642644101048_">
				<use xlink:href="#XMLID_107_"/>
			</clipPath>
			<path d="m254.01 281.64c2.051-2.887 15.554 5.151 13.893 10.862-1.662 5.711-7.063 5.094-10.228 2.061-3.166-3.033-5.863-9.83-3.665-12.923z" clip-path="url(#XMLID_00000176004675218877822740000009930278642644101048_)" fill-opacity=".7" opacity=".3"/>
			
				<use fill="none" stroke="#263238" stroke-linecap="round" stroke-linejoin="round" stroke-miterlimit="10" xlink:href="#XMLID_107_"/>
		
		
			<path d="m260.41 259.47s1.956 0 5.317 7.714c2.344 5.379 1.036 10.644 1.036 10.644l-4.872 23.462-11.932-7.121 6.886-17.226c1e-3 0-3.566-11.126 3.565-17.473z" fill="#fff" stroke="#263238" stroke-linecap="round" stroke-linejoin="round" stroke-miterlimit="10"/>
			
				
					<defs>
						<path id="XMLID_106_" d="m255.61 274.57-7.606 2.523c-0.804 0.207-2.392-1.136-2.322-1.963l2.256-26.583c0.091-1.073 0.851-1.971 1.894-2.24l8.426-1.83c0.804-0.207 2.828 0.755 2.758 1.582l-3.513 26.27c-0.09 1.074-0.85 1.972-1.893 2.241z"/>
					</defs>
					<use fill="#92e3a9" xlink:href="#XMLID_106_"/>
					<clipPath id="XMLID_00000075843568691648505660000014226738683024325291_">
						<use xlink:href="#XMLID_106_"/>
					</clipPath>
					<path d="m255.61 274.57-7.606 2.523c-0.804 0.207-2.392-1.136-2.322-1.963l2.256-26.583c0.091-1.073 0.851-1.971 1.894-2.24l8.426-1.83c0.804-0.207 2.828 0.755 2.758 1.582l-3.513 26.27c-0.09 1.074-0.85 1.972-1.893 2.241z" clip-path="url(#XMLID_00000075843568691648505660000014226738683024325291_)" fill-opacity=".7" opacity=".3"/>
					
						<use fill="none" stroke="#263238" stroke-linecap="round" stroke-linejoin="round" stroke-miterlimit="10" xlink:href="#XMLID_106_"/>
				
				<path d="m256.86 275.23-8.426 1.83c-0.804 0.207-1.572-0.442-1.501-1.269l2.257-26.583c0.091-1.073 0.851-1.971 1.894-2.24l8.426-1.83c0.804-0.207 1.572 0.442 1.501 1.269l-2.256 26.583c-0.092 1.073-0.852 1.971-1.895 2.24z" fill="#92e3a9" stroke="#263238" stroke-linecap="round" stroke-linejoin="round" stroke-miterlimit="10"/>
				<path d="m252.19 254.12-1.359 0.295c-0.13 0.033-0.253-0.071-0.242-0.205l0.364-4.287c0.015-0.173 0.137-0.318 0.305-0.361l1.359-0.295c0.13-0.033 0.253 0.071 0.242 0.205l-0.364 4.287c-0.014 0.173-0.137 0.318-0.305 0.361z" fill-opacity=".7" opacity=".3"/>
			
			<g fill="#fff" stroke="#263238" stroke-linecap="round" stroke-linejoin="round" stroke-miterlimit="10">
				<path d="m264.04 267.45c0.327-3.727-3.066-9.321-5.321-9.321s-9.128 5.291-9.128 5.291c-2.659 1.927-1.342 3.762-1.342 3.762-1.565 1.034-1.992 2.432-1.278 3.081 0.799 0.725 2.989 0 2.989 0s-2.279 1.666-1.712 2.484c1.342 1.934 5.759-0.618 5.759-0.618s-2.563 1.691-2.416 2.011c0.967 2.111 5.152-0.35 5.152-0.35l2.942 1.507s-0.033 2.491 2.681 2.529"/>
				<path d="m248.25 267.18s6.432-4.156 7.243-4.269c0.811-0.112 3.791-0.759 3.791-0.759"/>
				<path d="m249.96 270.26s5.225-2.698 6.181-2.698c1.004 0 4.269-0.737 4.269-0.737"/>
				<path d="m254.01 272.13s1.389-0.964 1.933-1.139 3.745 0 3.745 0"/>
			</g>
		
		
			<defs>
				<path id="XMLID_108_" d="m202.55 271.99c10.022 0.151 32.967 35.975 32.967 35.975l14.442-17.987 4.047-8.342s1.966 14.999 13.893 10.862c0 0-10.478 39.38-22.221 44.127s-44.347-28.66-44.347-28.66z"/>
			</defs>
			<use fill="#92e3a9" xlink:href="#XMLID_108_"/>
			<clipPath id="XMLID_00000010292251507996821680000014387580917798677919_">
				<use xlink:href="#XMLID_108_"/>
			</clipPath>
			<path d="m203.37 309.99c4.13 4.05 13.91 13.31 23.44 19.88-2.8-9.37-10.47-19.35-10.47-19.35-2.38-0.79-5.74-7.92-5.74-7.92-1.58 0.6-3.82-4.35-3.82-4.35-1.84 1.57-2.87 6.18-3.41 11.74z" clip-path="url(#XMLID_00000010292251507996821680000014387580917798677919_)" fill-opacity=".7" opacity=".2"/>
			<path d="m234.86 317.15s-0.72-4.5 0.83-9.4l-0.17 0.22s-1.56-2.43-4.04-6.03c-0.65 4.67-0.98 12.45 3.38 15.21z" clip-path="url(#XMLID_00000010292251507996821680000014387580917798677919_)" fill-opacity=".7" opacity=".2"/>
			
				<use fill="none" stroke="#263238" stroke-linecap="round" stroke-linejoin="round" stroke-miterlimit="10" xlink:href="#XMLID_108_"/>
		
		<g stroke="#263238" stroke-linecap="round" stroke-linejoin="round" stroke-miterlimit="10">
			<path d="m98.906 426.25s-6.33 12.709-6.33 15.739-1.055 4.343-6.593 4.343-19.253 0.124-21.363-0.859h-12.824c-3.042 0-4.22-2.877-2.374-2.484 1.846 0.392 15.451-3.375 19.143-4.892 3.692-1.518 9.788-3.321 13.066-6.492s7.253-14.996 7.253-14.996z" fill="#fff"/>
			<path d="m64.62 445.48c0-3.719 3.956-1.938 10.022-3.484 3.87-0.987 4.273-2.353 4.273-2.353" fill="none"/>
		</g>
		
			<defs>
				<path id="XMLID_109_" d="m206.62 294.97c0.4 7.276 0.572 14.833 0.866 20.474 0.71 13.635 9.839 53.473 9.839 53.473s9.97 5.989 10.498 16.973c0.527 10.983-60.608 41.985-77.013 33.152s-14.189-34.513-14.189-34.513-24.264-98.016-14.328-105.89 13.273-6.9 38.702-10.414 41.56 3.758 41.56 3.758 2.308 2.085 2.901 5.124"/>
			</defs>
			<use fill="#92e3a9" xlink:href="#XMLID_109_"/>
			<clipPath id="XMLID_00000121280977479863823710000013042388805532826295_">
				<use xlink:href="#XMLID_109_"/>
			</clipPath>
			<path d="m136.62 384.53s-2.21 25.68 14.19 34.52c16.41 8.83 77.54-22.17 77.01-33.16-0.52-10.98-10.49-16.97-10.49-16.97s-0.9-3.95-2.17-9.78c-8.67 5.62-28.43 17.28-41.29 15.98 0 0 21.41 7.59 35.1 1.07 13.7-6.53-5.69 8.58-9.64 8.34-3.96-0.23-33.43-5.57-38.77-2.8-5.34 2.76-17.21 23.14-17.21 23.14s-7.2-16.18-5.6-26.11c0 0 0.21-30.92-3.23-48.99 0 0 8.23-14.2-0.87-25.23-3.36-4.07-7.03 4.31-10.32 16.5 4.89 29.54 13.29 63.49 13.29 63.49z" clip-path="url(#XMLID_00000121280977479863823710000013042388805532826295_)" fill-opacity=".7" opacity=".2"/>
			
				<use fill="none" stroke="#263238" stroke-linecap="round" stroke-linejoin="round" stroke-miterlimit="10" xlink:href="#XMLID_109_"/>
		
		<path d="m218.91 378.3c1.54-0.194 5.71 2.444 5.71 2.444s67.439-17.315 77.587-11.819c20.352 11.024 9.495 32.767 5.275 39.005s-66.461 35.717-88.088 36.275c-21.626 0.557-61.246-5.412-69.053-18.137s0.186-26.85 11.037-37.218c11.041-10.549 32.572-1.319 39.961-3.429 9.531-2.722 12.869-6.528 17.571-7.121z" fill="#263238"/>
		
			<path d="m162.5 437.55-0.997 4.349s2.652 7.53 14.318 8.758 18.569 3.814 24.174 4.15 8.869-0.141 8.869-0.141l1.145-1.712z" fill="#fff" stroke="#263238" stroke-linecap="round" stroke-linejoin="round" stroke-miterlimit="10"/>
			
				<defs>
					<path id="XMLID_110_" d="m230.21 437.09-20.206 15.86s-15.667-1.241-28.975-4.331l-1e-3 -0.01c-9.576-2.216-17.936-5.396-18.396-9.752-0.7-6.623 6.379-8.437 14.793-8.179 1.572 0.035 3.184 0.156 4.811 0.327 13.466 1.444 30.579-5.995 30.579-5.995z"/>
				</defs>
				<use fill="#92e3a9" xlink:href="#XMLID_110_"/>
				<clipPath id="XMLID_00000116213327316624383560000006599080157911051452_">
					<use xlink:href="#XMLID_110_"/>
				</clipPath>
				<path d="m162.63 438.71c3.63 1.43 8.14 3.42 11.24 5.53 0 0 18.77 9.66 47.61-0.29l8.74-6.86-17.4-12.08s-17.11 7.44-30.58 5.99c-1.63-0.17-3.24-0.29-4.81-0.32-8.35-0.26-15.38 1.52-14.8 8.03z" clip-path="url(#XMLID_00000116213327316624383560000006599080157911051452_)" fill-opacity=".7" opacity=".2"/>
				
					<use fill="none" stroke="#263238" stroke-linecap="round" stroke-linejoin="round" stroke-miterlimit="10" xlink:href="#XMLID_110_"/>
			
			
				<defs>
					<path id="XMLID_112_" d="m211.38 443.34c3.643 0.594-0.36 8.045-5.298 5.782s1.655-6.376 5.298-5.782z"/>
				</defs>
				<use fill="#ffffff" xlink:href="#XMLID_112_"/>
				<clipPath id="XMLID_00000085932450096677816200000016860873993288986265_">
					<use xlink:href="#XMLID_112_"/>
				</clipPath>
				<path d="m204.54 447.92c2.49-0.3 5.11-0.75 7.85-1.37 0.7-1.46 0.54-2.96-1.01-3.21-3.06-0.5-8.2 2.32-6.84 4.58z" clip-path="url(#XMLID_00000085932450096677816200000016860873993288986265_)" fill-opacity=".7" opacity=".2"/>
				
					<use fill="none" stroke="#263238" stroke-linecap="round" stroke-linejoin="round" stroke-miterlimit="10" xlink:href="#XMLID_112_"/>
			
			
				<defs>
					<path id="XMLID_111_" d="m181.03 448.61c-9.576-2.216-17.936-5.396-18.396-9.752-0.7-6.623 6.379-8.437 14.793-8.179 0.369 0.354 8.523 8.241 3.603 17.931z"/>
				</defs>
				<use fill="#ffffff" xlink:href="#XMLID_111_"/>
				<clipPath id="XMLID_00000061437252853263618100000016548812767778553487_">
					<use xlink:href="#XMLID_111_"/>
				</clipPath>
				<path d="m162.63 438.71c3.63 1.43 8.14 3.42 11.24 5.53 0 0 2.8 1.44 7.9 2.64 3.23-8.88-3.99-15.87-4.34-16.2-8.35-0.26-15.38 1.52-14.8 8.03z" clip-path="url(#XMLID_00000061437252853263618100000016548812767778553487_)" fill-opacity=".7" opacity=".2"/>
				
					<use fill="none" stroke="#263238" stroke-linecap="round" stroke-linejoin="round" stroke-miterlimit="10" xlink:href="#XMLID_111_"/>
			
			
				<path d="m187.86 440.38c-0.019 2e-3 -0.039 3e-3 -0.057 4e-3 -0.552 0.027-1.021-0.399-1.047-0.95-0.201-4.172-3.412-7.57-3.445-7.604-0.381-0.399-0.369-1.031 0.029-1.413s1.029-0.369 1.412 0.027c0.153 0.16 3.763 3.958 4 8.894 0.026 0.531-0.369 0.986-0.892 1.042z" fill="#fff" stroke="#263238" stroke-linecap="round" stroke-linejoin="round" stroke-miterlimit="10"/>
			
			
				<path d="m191.86 440.62c-0.028 3e-3 -0.057 5e-3 -0.086 5e-3 -0.553 0.011-1.009-0.428-1.02-0.979-0.084-4.215-3.031-7.87-3.061-7.907-0.348-0.427-0.286-1.057 0.14-1.406 0.428-0.35 1.054-0.289 1.406 0.138 0.14 0.169 3.417 4.213 3.514 9.134 0.012 0.523-0.382 0.961-0.893 1.015z" fill="#fff" stroke="#263238" stroke-linecap="round" stroke-linejoin="round" stroke-miterlimit="10"/>
			
			
				<path d="m196.65 440.12c-6e-3 1e-3 -0.012 1e-3 -0.017 2e-3 -0.55 0.048-1.036-0.359-1.084-0.909-0.307-3.505-3.288-7.985-3.319-8.03-0.307-0.459-0.185-1.079 0.274-1.387 0.457-0.31 1.08-0.185 1.387 0.272 0.135 0.201 3.298 4.95 3.651 8.97 0.047 0.544-0.351 1.025-0.892 1.082z" fill="#fff" stroke="#263238" stroke-linecap="round" stroke-linejoin="round" stroke-miterlimit="10"/>
			
			
				<path d="m201.18 439.64c-0.088 9e-3 -0.179 7e-3 -0.271-8e-3 -0.545-0.092-0.912-0.607-0.822-1.151 0.711-4.248-3.235-7.885-3.275-7.922-0.408-0.37-0.44-1.002-0.071-1.411s1.001-0.442 1.411-0.073c0.197 0.178 4.801 4.398 3.908 9.736-0.076 0.453-0.445 0.783-0.88 0.829z" fill="#fff" stroke="#263238" stroke-linecap="round" stroke-linejoin="round" stroke-miterlimit="10"/>
			
			
				<path d="m206.09 438.46c-0.107 0.011-0.218 5e-3 -0.329-0.02-0.538-0.124-0.874-0.66-0.75-1.198 0.87-3.786-2.863-8.065-2.901-8.107-0.365-0.414-0.326-1.046 0.087-1.411 0.412-0.366 1.044-0.328 1.41 0.084 0.183 0.206 4.455 5.087 3.352 9.883-0.098 0.425-0.456 0.725-0.869 0.769z" fill="#fff" stroke="#263238" stroke-linecap="round" stroke-linejoin="round" stroke-miterlimit="10"/>
			
		
		
			<path d="m310.03 431.04 1.448 4.22s-1.846 7.767-13.319 10.213-18.066 5.743-23.604 6.666c-5.539 0.923-8.835 0.791-8.835 0.791l-1.319-1.583z" fill="#fff" stroke="#263238" stroke-linecap="round" stroke-linejoin="round" stroke-miterlimit="10"/>
			
				<defs>
					<path id="XMLID_113_" d="m242.64 437.7 21.76 13.65s15.45-2.88 28.36-7.35v-0.01c9.29-3.21 17.27-7.25 17.27-11.63 0-6.66-7.23-7.72-15.57-6.58-1.56 0.2-3.15 0.49-4.75 0.83-13.24 2.85-31.04-2.75-31.04-2.75z"/>
				</defs>
				<use fill="#92e3a9" xlink:href="#XMLID_113_"/>
				<clipPath id="XMLID_00000065765206959352031340000001327388261001366421_">
					<use xlink:href="#XMLID_113_"/>
				</clipPath>
				<path d="m242.64 437.7 12.8 8.03c12.85-3.87 21.21-12.06 25.99-18.31-11.35 0.03-22.76-3.56-22.76-3.56z" clip-path="url(#XMLID_00000065765206959352031340000001327388261001366421_)" fill-opacity=".7" opacity=".2"/>
				
					<use fill="none" stroke="#263238" stroke-linecap="round" stroke-linejoin="round" stroke-miterlimit="10" xlink:href="#XMLID_113_"/>
			
			<path d="m292.76 443.99c9.29-3.21 17.27-7.25 17.27-11.63 0-6.66-7.23-7.72-15.57-6.58-0.33 0.39-7.61 9.09-1.7 18.21z" fill="#fff" stroke="#263238" stroke-linecap="round" stroke-linejoin="round" stroke-miterlimit="10"/>
			
				<path d="m285.1 436.53c0.02 0 0.039-1e-3 0.058-2e-3 0.552-0.031 0.974-0.504 0.941-1.055-0.238-4.17 2.598-7.887 2.627-7.924 0.337-0.436 0.258-1.065-0.178-1.402-0.436-0.338-1.063-0.259-1.401 0.175-0.136 0.175-3.326 4.331-3.044 9.265 0.03 0.532 0.471 0.943 0.997 0.943z" fill="#fff" stroke="#263238" stroke-linecap="round" stroke-linejoin="round" stroke-miterlimit="10"/>
			
			
				<path d="m281.15 437.19c0.028 0 0.058-1e-3 0.086-4e-3 0.551-0.047 0.959-0.531 0.911-1.081-0.359-4.2 2.188-8.145 2.214-8.185 0.302-0.461 0.174-1.081-0.287-1.384-0.463-0.303-1.079-0.177-1.384 0.285-0.121 0.183-2.956 4.549-2.535 9.453 0.044 0.523 0.481 0.916 0.995 0.916z" fill="#fff" stroke="#263238" stroke-linecap="round" stroke-linejoin="round" stroke-miterlimit="10"/>
			
			
				<path d="m276.33 437.19h0.018c0.552-0.01 0.992-0.466 0.982-1.018-0.063-3.518 2.432-8.286 2.457-8.334 0.257-0.488 0.07-1.093-0.418-1.351-0.487-0.26-1.094-0.07-1.351 0.416-0.113 0.214-2.76 5.269-2.689 9.304 0.011 0.547 0.457 0.983 1.001 0.983z" fill="#fff" stroke="#263238" stroke-linecap="round" stroke-linejoin="round" stroke-miterlimit="10"/>
			
			
				<path d="m271.78 437.19c0.089 0 0.179-0.012 0.269-0.036 0.532-0.148 0.844-0.699 0.696-1.231-1.153-4.149 2.389-8.182 2.425-8.222 0.367-0.411 0.332-1.043-0.078-1.411s-1.042-0.334-1.411 0.075c-0.177 0.197-4.313 4.878-2.863 10.093 0.123 0.443 0.525 0.732 0.962 0.732z" fill="#fff" stroke="#263238" stroke-linecap="round" stroke-linejoin="round" stroke-miterlimit="10"/>
			
			
				<path d="m266.78 436.53c0.107 0 0.218-0.018 0.325-0.055 0.523-0.18 0.8-0.748 0.62-1.271-1.263-3.674 2-8.321 2.033-8.367 0.319-0.45 0.215-1.074-0.234-1.395-0.448-0.32-1.072-0.217-1.394 0.232-0.16 0.224-3.897 5.526-2.296 10.181 0.143 0.415 0.531 0.675 0.946 0.675z" fill="#fff" stroke="#263238" stroke-linecap="round" stroke-linejoin="round" stroke-miterlimit="10"/>
			
			<path d="m262.03 441.94c-3.56 0.974 1.203 7.963 5.876 5.193 4.673-2.769-2.316-6.167-5.876-5.193z" fill="#fff" stroke="#263238" stroke-linecap="round" stroke-linejoin="round" stroke-miterlimit="10"/>
		
		<path d="m166.95 383.57c13.185-2.309 48.189 16.109 69.64 28.382 2.847-1.666 5.046-3.074 6.052-3.97 4.939-4.401 23.789-28.632 36.791-34.17l23.736 31.055c-5.349 7.489-21.182 15.757-36.962 22.581-1.697 2.805-5.15 8.049-9.895 12.929-9.714 9.991-13.674 4.394-13.674 4.394s-6.134-0.688-15.196-1.93c-0.602 1.162-1.979 2.986-4.58 2.575-1.179-0.186-3.447-1.871-6.006-4.095-22.871-3.443-53.918-9.185-62.302-15.939-13.714-11.049 0.759-39.773 12.396-41.812z" fill="#263238"/>
		<path d="m131.62 294.97c2.473 8.004 2.68 19.459 0.645 28.396 0 0-8.876 39.28-9.976 47.828-1.1 8.549-16.133 41.785-16.925 52.662l-6.906 9.943s-10.105-0.762-16.83-8.42l4.747-10.529s4.352-16.196 5.934-18.445 6.776-32.792 8.531-37.782 12.263-71.498 21.449-79.98c0 0 2.446-0.194 3.449 1.729" fill="#92e3a9" stroke="#263238" stroke-linecap="round" stroke-linejoin="round" stroke-miterlimit="10"/>
		<g fill="none" stroke="#fff" stroke-linecap="round" stroke-linejoin="round" stroke-miterlimit="10">
			<path d="m265.12 421.45c-4.679-1.948-11.404 0-11.404 0s-22.07-9.612-37.187-18.761-36.791-16.022-36.791-16.022c-8.308-0.593-12.264-0.396-16.22 3.956"/>
			<path d="m153.43 416.61s-0.111 6.702 9.39 11.343"/>
			<path d="m258.27 388.65s-15.009 10.847-18 18c0 0-5.77 2.455-8.523 4.392"/>
			<path d="m239.18 397.66c-1.008 3.116-1.386 6.503-0.527 9.7"/>
			<path d="m242.64 390.63c-0.823 1.184-1.529 2.449-2.148 3.751"/>
			<path d="m221.28 389.64s-5.018 6.706-6.268 12.155"/>
			<path d="m193.33 430.19c-1.866-0.12-3.73-0.326-5.566-0.686"/>
			<path d="m240.4 425.38c-13.696 2.617-28.696 4.617-43.139 4.953"/>
		</g>
		<path d="m235.52 307.97s-2.967 5.121 0 10.66" fill="none" stroke="#263238" stroke-linecap="round" stroke-linejoin="round" stroke-miterlimit="10"/>
		<g fill="none" stroke="#263238" stroke-linecap="round" stroke-linejoin="round" stroke-miterlimit="10">
			<path d="m156.26 278.04c6.902 4.282 16.582 7.902 23.826 2.337"/>
			<path d="m150.81 274.12c0.938 0.795 1.921 1.537 2.925 2.246"/>
			<path d="m210.16 300.8c-0.412 3.811-0.761 8.345-2.811 11.689"/>
			<path d="m210.6 295.29c-0.051 1.039-0.123 2.077-0.21 3.114"/>
			<path d="m214.32 312.49s-2.392 2.534-6.915 1.368"/>
			<path d="m137.41 302.6s-0.301 16.415-5.788 23.636"/>
			<path d="m168.66 373.95c-1.302-0.302-2.603-0.609-3.901-0.924"/>
			<path d="m217.32 368.92c-5.616 0.078-10.616 4.078-15.616 8.078-10 6-20-2-30.396-2.447"/>
			<path d="m139.78 365.76c-0.866 6.282-1.826 12.566-3.156 18.769"/>
			<path d="m140.77 357.99c-0.177 1.518-0.368 3.034-0.565 4.549"/>
			<path d="m195.62 336.11c-6.308 10.723-15.364 22.949-28.138 26.036"/>
			<path d="m202.49 322.38c-1.531 3.789-3.37 7.467-5.345 11.043"/>
			<path d="m120.68 316.28c-4.794 11.758-9.65 25.732-18.284 35.297"/>
			<path d="m123.96 307.97c-0.662 1.757-1.347 3.505-2.041 5.249"/>
			<path d="m108.53 386.43s-11.472 9.437-16.22 9.983"/>
			<path d="m89.229 426.47c-2.167-1.188-4.727-2.694-5.826-5.018"/>
			<path d="m97.134 429.94c-1.725-0.599-3.419-1.289-5.077-2.051"/>
			<path d="m255.09 297.46c1.271 1.215 2.835 2.233 4.6 2.509"/>
			<path d="m249.96 289.98c0.775 1.696 1.728 3.318 2.824 4.826"/>
		</g>
		
			<path d="m152.29 269.81s6.99 10.09 18.99 8.71c6.62-0.77 5.94-5.87 5.94-5.87s-1.25-0.64-2-2.56c-0.71-1.81-0.98-4.76 0.67-9.37 0.04-0.13 0.09-0.27 0.14-0.4 1.88-5.05-20.77-12.07-20.77-12.07s2.77 13.06-2.97 21.56z" fill="#fff" stroke="#263238" stroke-linecap="round" stroke-linejoin="round" stroke-miterlimit="10"/>
			<path d="m163.26 257.24s4.2 10.47 11.96 12.85c-0.71-1.81-0.98-4.76 0.67-9.37z" fill="#263238"/>
		
		
			<path d="m161.19 254.78c-0.531 4.491 10.912 11.279 17.604 11.262 3.066-8e-3 7.309-5.909 9.099-14.625 0.903-4.399-1.78-8.703 0.396-14.835 1.861-5.245-1.777-20.877-17.209-22.154-22.053-1.825-24.619 21.816-14.855 37.762" fill="#fff" stroke="#263238" stroke-linecap="round" stroke-linejoin="round" stroke-miterlimit="10"/><g fill="none" stroke="#263238" stroke-linecap="round" stroke-linejoin="round" stroke-miterlimit="10">
			<path d="m188.74 235.4s-1.83-2.769-5.391-1.978"/>
			<path d="m176.03 233.28s-4.549-0.451-7.319 2.12"/>
			<path d="m182.16 236.38c-0.396 4.549 4.747 12.165 3.462 13.253-1.286 1.088-4.352-0.396-5.538-0.989"/>
			</g><ellipse cx="174.15" cy="240.39" rx=".89" ry="1.236" fill="#263238"/>
			<ellipse cx="184.94" cy="240.39" rx=".89" ry="1.236" fill="#263238"/>
			<path d="m182.06 254.48s-5.242 0.692-7.912-2.077" fill="none" stroke="#263238" stroke-linecap="round" stroke-linejoin="round" stroke-miterlimit="10"/>
			<path d="m175.04 253.14s0.297 2.525 3.066 3.217 2.67-1.802 2.67-1.802" fill="none" stroke="#263238" stroke-linecap="round" stroke-linejoin="round" stroke-miterlimit="10"/>
			<path d="m167.22 224.52s24.527 6.725 27.099-3.659c0 0-4.461 0.534-9.387-4.846-6.042-6.6-15.734-8.308-23.943-5.341s-7.714 7.268-7.714 7.268-4.846 0.645-7.022 6.48 1.257 26.471 9.494 30.857l2.275-2.868s-0.912-5.885 2.967-10.286l2.176 0.56s-2.374-5.097 0.099-7.879c2.472-2.782 4.154-6.428 3.956-10.286z" fill="#263238"/>
			<path d="m160.99 241.63s-2.473-7.121-5.637-5.242c-3.165 1.879 0.297 15.527 5.637 12.462" fill="#fff" stroke="#263238" stroke-linecap="round" stroke-linejoin="round" stroke-miterlimit="10"/><g fill="none" stroke="#fff" stroke-linecap="round" stroke-linejoin="round" stroke-miterlimit="10">
			<path d="m160.99 218.74s15.248 2.571 19.781-3.561" opacity=".3"/>
			<path d="m170.88 222.3s10.599 3.56 17.852 0" opacity=".3"/>
			<path d="m157.57 223.88s-0.153 8.791-8.263 11.516" opacity=".3"/>
		</g>
	
</g></g>
</svg>
