<svg width="265" height="64" fill="#000000" role="img" version="1.1" viewBox="0 0 99.375 24" xml:space="preserve" xmlns="http://www.w3.org/2000/svg"><path d="m37.1 11.508h-1.6272v3.1494c0 0.83984 0.55114 0.82672 1.6272 0.77422v1.2729c-2.1783 0.26246-3.0444-0.34118-3.0444-2.0471v-3.1494h-1.2073v-1.3647h1.2073v-1.7626l1.4172-0.41991v2.1825h1.6272zm6.2028-1.3647h1.4172v6.5612h-1.4172v-0.94482c-0.49865 0.69549-1.2729 1.1154-2.2964 1.1154-1.7847 0-3.2675-1.5091-3.2675-3.4512 0-1.9553 1.4828-3.4512 3.2675-3.4512 1.0236 0 1.7978 0.41992 2.2964 1.1023zm-2.0734 5.3802c1.181 0 2.0734-0.87921 2.0734-2.0996 0-1.2204-0.89233-2.0996-2.0734-2.0996-1.181 0-2.0733 0.87921-2.0733 2.0996 0 1.2204 0.89233 2.0996 2.0733 2.0996zm5.8526-6.3644c-0.49865 0-0.90545-0.41991-0.90545-0.90545 0-0.49864 0.4068-0.90545 0.90545-0.90545s0.90545 0.40681 0.90545 0.90545c0 0.48554-0.4068 0.90545-0.90545 0.90545zm-0.70861 7.5454v-6.5612h1.4172v6.5612zm3.0575 0v-9.5794h1.4172v9.5794zm10.616-6.5612h1.496l-2.0602 6.5612h-1.391l-1.3647-4.4223-1.3778 4.4223h-1.391l-2.0602-6.5612h1.496l1.2729 4.5272 1.3779-4.5272h1.3516l1.3647 4.5272zm3.2544-0.98419c-0.49866 0-0.90545-0.41991-0.90545-0.90545 0-0.49864 0.40679-0.90545 0.90545-0.90545s0.90545 0.40681 0.90545 0.90545c0 0.48554-0.40679 0.90545-0.90545 0.90545zm-0.70862 7.5454v-6.5612h1.4172v6.5612zm6.5087-6.7318c1.4697 0 2.5195 0.99731 2.5195 2.7032v4.0286h-1.4172v-3.8842c0-0.99731-0.57738-1.5222-1.4697-1.5222-0.9317 0-1.6666 0.55114-1.6666 1.8896v3.5168h-1.4172v-6.5612h1.4172v0.83984c0.43304-0.68237 1.1417-1.0104 2.034-1.0104zm9.2382-2.4539h1.4172v9.1857h-1.4172v-0.94482c-0.49864 0.69549-1.2729 1.1154-2.2964 1.1154-1.7847 0-3.2675-1.5091-3.2675-3.4512 0-1.9553 1.4828-3.4512 3.2675-3.4512 1.0235 0 1.7978 0.41992 2.2964 1.1023zm-2.0733 8.0047c1.181 0 2.0733-0.87921 2.0733-2.0996 0-1.2204-0.89233-2.0996-2.0733-2.0996-1.181 0-2.0734 0.87921-2.0734 2.0996 0 1.2204 0.89233 2.0996 2.0734 2.0996zm8.2409 1.3516c-1.9815 0-3.4643-1.5091-3.4643-3.4512 0-1.9553 1.4828-3.4512 3.4643-3.4512 1.286 0 2.4014 0.66924 2.9263 1.6928l-1.2204 0.70861c-0.2887-0.61676-0.9317-1.0104-1.719-1.0104-1.1548 0-2.034 0.87921-2.034 2.0602 0 1.181 0.87921 2.0602 2.034 2.0602 0.78735 0 1.4304-0.40681 1.7453-1.0104l1.2204 0.69549c-0.55113 1.0367-1.6665 1.7059-2.9526 1.7059zm5.2884-4.9209c0 1.1941 3.5299 0.47241 3.5299 2.9001 0 1.3122-1.1416 2.0209-2.5589 2.0209-1.3123 0-2.2571-0.59051-2.677-1.5353l1.2204-0.70862c0.20996 0.59051 0.73486 0.94482 1.4566 0.94482 0.62988 0 1.1154-0.20996 1.1154-0.73485 0-1.1679-3.53-0.51177-3.53-2.8607 0-1.2335 1.0629-2.0077 2.4014-2.0077 1.076 0 1.9684 0.49866 2.4276 1.3647l-1.1942 0.66924c-0.2362-0.51178-0.69549-0.74797-1.2335-0.74797-0.51178 0-0.95795 0.22308-0.95795 0.69549zm6.0495 0c0 1.1941 3.53 0.47241 3.53 2.9001 0 1.3122-1.1417 2.0209-2.5589 2.0209-1.3122 0-2.2571-0.59051-2.677-1.5353l1.2204-0.70862c0.20996 0.59051 0.73487 0.94482 1.4566 0.94482 0.62987 0 1.1154-0.20996 1.1154-0.73485 0-1.1679-3.5299-0.51177-3.5299-2.8607 0-1.2335 1.0629-2.0077 2.4014-2.0077 1.076 0 1.9684 0.49866 2.4277 1.3647l-1.1941 0.66924c-0.23621-0.51178-0.6955-0.74797-1.2335-0.74797-0.51178 0-0.95794 0.22308-0.95794 0.69549zm-81.783-8.3916c-3.75 0-6.0937 1.875-7.0312 5.625 1.4062-1.875 3.0469-2.5781 4.9219-2.1094 1.0698 0.26744 1.8344 1.0435 2.6808 1.9027 1.3788 1.3995 2.9745 3.0192 6.4598 3.0192 3.75 0 6.0937-1.875 7.0312-5.625-1.4062 1.875-3.0469 2.5781-4.9219 2.1094-1.0698-0.26745-1.8344-1.0435-2.6808-1.9027-1.3787-1.3995-2.9745-3.0192-6.4598-3.0192zm-7.0312 8.4375c-3.75 0-6.0937 1.875-7.0312 5.625 1.4062-1.875 3.0469-2.5781 4.9219-2.1094 1.0698 0.26745 1.8344 1.0435 2.6808 1.9027 1.3787 1.3995 2.9745 3.0192 6.4598 3.0192 3.75 0 6.0937-1.875 7.0312-5.625-1.4062 1.875-3.0469 2.5781-4.9219 2.1094-1.0698-0.26746-1.8344-1.0435-2.6808-1.9027-1.3788-1.3995-2.9745-3.0192-6.4598-3.0192z" fill="#000" stroke-width=".17637"/></svg>
