<svg xmlns="http://www.w3.org/2000/svg" xml:space="preserve" viewBox="0 0 68.262 7.938">
  <path d="M50.148.177a2.909 2.909 0 0 0-1.03.141 2.624 2.624 0 0 0-.952.506c-.26.222-.456.493-.588.812-.132.319-.197.68-.196 1.084.002.403.075.842.22 1.317l.368 1.204c.146.477.329.885.547 1.222.22.333.473.595.758.787.284.188.594.302.93.342.336.04.692.003 1.067-.112.494-.151.885-.372 1.172-.662.291-.29.474-.641.55-1.051.08-.414.052-.881-.083-1.4l-1.28.391c.092.345.129.626.112.843a.756.756 0 0 1-.22.512c-.13.123-.321.223-.576.301a1.178 1.178 0 0 1-.57.05.927.927 0 0 1-.448-.25 2.06 2.06 0 0 1-.362-.537 5.674 5.674 0 0 1-.316-.828l-.372-1.213a4.94 4.94 0 0 1-.194-.876c-.028-.252-.02-.47.025-.65a.912.912 0 0 1 .249-.453c.124-.118.286-.207.487-.268.254-.078.47-.097.646-.057s.33.148.46.324c.133.175.257.431.37.77l1.286-.393c-.192-.513-.435-.921-.73-1.225a1.977 1.977 0 0 0-1.33-.631zM32.677.409v7.273h2.353c.473 0 .874-.08 1.204-.24.33-.163.58-.402.754-.719.173-.316.26-.707.26-1.173 0-.294-.052-.568-.155-.825a1.37 1.37 0 0 0-.49-.634 1.192 1.192 0 0 0-.381-.179 1.511 1.511 0 0 0 .726-.7c.123-.25.185-.525.185-.825 0-.34-.052-.633-.155-.88a1.532 1.532 0 0 0-.444-.613 1.795 1.795 0 0 0-.705-.365 3.402 3.402 0 0 0-.944-.12zm5.077 0v7.273h1.349V4.955h.86L41.1 7.682h2.34l.43-1.588h2.11l.432 1.588h1.418L45.528.41h-1.214l-2.06 6.55-1.03-2.355a1.839 1.839 0 0 0 .916-1.013c.106-.28.16-.61.16-.989 0-.476-.09-.877-.27-1.203a1.716 1.716 0 0 0-.774-.74c-.337-.166-.746-.25-1.23-.25zm15.898 0v7.273H55v-2.19l.61-.757 1.49 2.947h5.549V6.563H59.88V4.486h2.343V3.392H59.88V1.533h2.747V.41h-5.639l-1.493 2.463L55 3.65V.41zm9.525 0v1.124h1.803v6.15h1.334v-6.15h1.828V.41H64.98zm-4.645.135v6.853l-2.06-3.786zm-24.506.99h.859c.213 0 .384.032.514.1a.62.62 0 0 1 .295.314c.063.14.095.326.095.56 0 .203-.035.376-.105.519a.713.713 0 0 1-.305.33c-.133.073-.3.11-.5.11h-.853zm5.076 0h.925c.22 0 .397.046.534.139a.79.79 0 0 1 .305.404c.063.174.094.38.094.62 0 .223-.036.421-.11.594a.868.868 0 0 1-.319.4.944.944 0 0 1-.54.145h-.889zm5.822.673.753 2.768h-1.503zM34.025 4.46h1.054c.203 0 .365.044.485.13.12.087.206.212.26.375.056.163.084.354.084.574 0 .2-.031.379-.094.535a.747.747 0 0 1-.285.36.875.875 0 0 1-.5.13h-1.004zM12.822.398v7.274h-.949V.398zm1.756-.007v.79H9.54V.39zm1.503.007v7.274h-.964V.398zm3.006 3.55v.789h-2.513v-.79zm9.335 3.724-1.972-.004.004-.771 1.969-.01c.52-.002.952-.108 1.298-.324.347-.22.607-.527.78-.92.176-.396.264-.859.264-1.388V3.81c0-.416-.05-.786-.15-1.109a2.244 2.244 0 0 0-.439-.824 1.857 1.857 0 0 0-.71-.515 2.438 2.438 0 0 0-.953-.174l-1.116.004.02-.792 1.096-.002c.476 0 .91.08 1.303.24.393.157.731.385 1.014.685a3 3 0 0 1 .66 1.079c.153.42.23.892.23 1.418v.435c0 .526-.077 1-.23 1.424a2.9 2.9 0 0 1-1.703 1.758 3.742 3.742 0 0 1-1.364.235zM27.418.398l.029 5.068-1.004.007.01-5.075zM21.7.403l1.641-.005c.548-.001 1.01.084 1.387.25.38.168.67.415.867.742.2.324.3.723.3 1.197 0 .334-.068.64-.205.916a1.95 1.95 0 0 1-.581.702c-.25.19-.551.332-.902.425l-.27.106-2.24.01.002-.787 1.672-.01c.347-.003.636-.06.866-.18.23-.124.404-.289.521-.496s.175-.436.175-.686c0-.28-.055-.526-.165-.736a1.104 1.104 0 0 0-.52-.486c-.234-.117-.537-.175-.907-.175l-1.643-.003zm3.129 7.269-1.773-3.306 1.006-.005 1.798 3.25.034.06zM19.584.409v7.273h-.964V.41zM21.136.4v7.273h-.964V.398zM7.38.547a1.12 1.12 0 0 1 1.096.049c.334.207.534.565.534.958V6.81c0 .393-.2.752-.534.958a1.12 1.12 0 0 1-1.096.05L4.505 6.38V1.986L7.381.548zM1.126.428h4.815L3.754 1.546V6.82l2.187 1.117H1.126A1.128 1.128 0 0 1 0 6.811V1.554C0 .934.505.428 1.126.428z" style="font-variation-settings:&quot;wght&quot;605"/>
</svg>
