<svg version="1.1" viewBox="0 0 700 700" xml:space="preserve" xmlns="http://www.w3.org/2000/svg" xmlns:xlink="http://www.w3.org/1999/xlink">

<g transform="matrix(.18868 0 0 .18868 -8.75e-6 -8.75e-6)"><g id="Background">
	
		
			<rect width="3710" height="3710" fill="#fff"/>
		
	
</g><g id="Illustration">
	<g id="Responsive_web_design">
		<path d="m1623.9 510.22c-378.33 6.423-963.68 144.69-1132.2 500.02-58.845 124.1-54.861 306.55-46.894 671.44 2.342 107.25 6.225 263.57 33.496 457.53 56.65 402.91 95.215 677.2 241.17 836.92 365.72 400.2 1686.8 388.63 2250.9-331.85 307.74-393.03 355.08-952.12 73.691-1414.2-309.8-508.72-913.73-728.48-1420.2-719.88z" fill="#f4f7fa"/>
		
			
				
					
						
							<linearGradient id="SVGID_1_" x1="2110.8" x2="506.73" y1="2600.1" y2="-173.48" gradientTransform="matrix(.9938 .1108 -.1108 .9938 95.596 -262.38)" gradientUnits="userSpaceOnUse">
							<stop stop-color="#AA80F9" offset="0"/>
							<stop stop-color="#6165D7" offset=".9964"/>
						</linearGradient>
						<path d="m1317.9 2044.2c-10.652 45.144-24.483 81.057-36.941 124.68 193.05-30.245 384.7-24.01 580.48-54.319-147.14-208.76-275.82-294.26-226.52-586.26 23.139-137.04 108.9-400.34 42.654-525.36-75.467-142.44-177.98-94.523-162.49-230.13 24.209-211.95-97.066-421.89-371.3-308.27-270.66 112.14-187.73 868.07-9.118 1059.3 119.37 193.21 238.85 284.61 183.22 520.34z" fill="url(#SVGID_1_)"/>
						
							<defs>
								<path id="SVGID_00000039111363031193617280000014488117332728635788_" d="m1638.2 1505.2c8.876-51.435 110.94-404.9 40.378-507.78-80.384-117.21-177.41-95.781-162.93-226.99 22.632-205.07-97.069-421.12-371.74-306.45-271.09 113.17-187.38 869.61-9.412 1058.3 121.38 213.17 236.74 256.92 183.84 536.21-37.049 195.63 286.49-359.89 319.86-553.28z"/>
							</defs>
							<clipPath id="SVGID_00000110471059338204417860000005977747769568569472_">
								<use xlink:href="#SVGID_00000039111363031193617280000014488117332728635788_"/>
							</clipPath>
							<g clip-path="url(#SVGID_00000110471059338204417860000005977747769568569472_)" fill="#fcfdfe">
								<path d="m1579.4 2117.7c-21.256-68.906-48.186-136.97-74.228-202.79l-9.848-24.92c-20.865-52.919-38.583-100.63-54.216-142.72-8.794-23.681-17.102-46.046-25.332-67.667-25.04-65.775-42.724-111.85-51.584-134.94-3.042-7.929-5.046-13.146-5.948-15.52-68.918-181.2-95.912-452.82-110.41-598.75-1.572-15.81-2.975-29.941-4.253-42.073-21.93-208.42-69.713-422.66-142.02-636.78l2.892-0.977c72.378 214.33 120.21 428.79 142.16 637.43 1.276 12.136 2.681 26.274 4.253 42.089 14.488 145.79 41.455 417.16 110.23 597.97 0.903 2.373 2.904 7.589 5.945 15.513 8.862 23.09 26.546 69.17 51.588 134.95 8.235 21.631 16.545 44.006 25.341 67.692 15.628 42.078 33.341 89.772 54.193 142.66l9.848 24.916c26.063 65.876 53.014 133.99 74.306 203.02z"/>
								<path d="m1449.3 1783.6c-39.832-121.86-37.521-281.07 6.686-460.42 36.829-149.41 102.17-307.78 179.26-434.5l2.609 1.586c-76.941 126.46-142.15 284.52-178.91 433.64-44.071 178.79-46.404 337.42-6.748 458.74z"/>
								<path d="m1253 954.36-3.016-0.464c16.892-109.6 47.742-217.73 77.576-322.29 20.424-71.582 41.544-145.6 58.021-219.5l2.98 0.665c-16.497 73.987-37.629 148.05-58.065 219.67-29.809 104.48-60.633 212.5-77.496 321.92z"/>
								<path d="m1299.2 1310.1c-72.862-136.08-232.14-285.24-340.87-319.21l0.91-2.913c109.36 34.167 269.47 184.02 342.65 320.68z"/>
							</g>
						
					
					
						
							<linearGradient id="SVGID_00000113347363691021652060000004859693204726280348_" x1="539.42" x2="1556.2" y1="1567.1" y2="1567.1" gradientUnits="userSpaceOnUse">
							<stop stop-color="#E38DDD" offset=".0036"/>
							<stop stop-color="#9571F6" offset="1"/>
						</linearGradient>
						<path d="m1156.6 1418.9c53.865 260.85 204.34 204.12 399.6 140.1-32.7 245.9-55.487 486.55-77.765 730.84-131.32 40.909-226.15 67.767-300.51-81.749-84.104-169.1-127.03-269.48-330.95-310.41-203.92-40.939-358.92-190.12-291.54-386.84 70.904-207.02-108.83-475.44 63.795-626.66 300.8-263.5 481.28 263.11 537.37 534.73z" fill="url(#SVGID_00000113347363691021652060000004859693204726280348_)"/>
						
							<defs>
								<path id="SVGID_00000098190919746414840230000004504332139053272496_" d="m1575.1 2242.8c-141.42 72.413-300.8 155.05-398.03-37.011-80.945-159.89-127.16-270.45-330.36-308.66s-358.7-191.2-291.43-386.25c70.797-205.25-108.09-478.16 63.928-626.57 299.73-258.59 482.97 253.79 536.82 538.56s233.7 157.6 416.2 146.8c249.15-14.758 117.13 614.62 2.868 673.13z"/>
							</defs>
							<clipPath id="SVGID_00000072987615342216268940000008207180581895075494_">
								<use xlink:href="#SVGID_00000098190919746414840230000004504332139053272496_"/>
							</clipPath>
							<g clip-path="url(#SVGID_00000072987615342216268940000008207180581895075494_)" fill="#fcfdfe">
								<path d="m1459.8 1976.2c-202.27-97.365-368.11-184.12-507.91-338.55-133.76-147.76-199.44-307.22-219.62-533.17-10.471-117.23-31.226-200.04-61.696-312.99l2.949-0.796c30.511 113.11 51.294 196.04 61.788 313.52 20.118 225.24 85.567 384.16 218.85 531.39 139.42 154.02 305 240.63 506.97 337.85z"/>
								<path d="m1204.4 2301.3-2.372-1.922c46.528-57.345 96.696-104 153.37-142.63 28.973-19.75 58.692-33.172 94.404-47.248l1.119 2.839c-35.521 14.003-65.065 27.343-93.802 46.933-56.425 38.463-106.38 84.922-152.72 142.03z"/>
								<path d="m1042.4 1726.6c-152.82-73.915-342.44-91.311-533.93-48.988l-0.658-2.98c192.15-42.473 382.47-24.996 535.92 49.221z"/>
								<path d="m778.83 1345.5c-2.412-19.826 23.371-185.82 48.305-334.56 25.035-149.34 53.933-309.75 58.961-319.69l2.726 1.377c-4.315 8.531-30.636 151.55-58.676 318.82-24.898 148.53-50.657 314.18-48.285 333.68z"/>
							</g>
						
					
				
			
		
		
			<path d="m2363.3 2408.5c-34.262-11.365-59.871-40.443-67.092-76.183l-49.868-246.81-426.58 15.148-52.5 257.12c-7.352 36.009 22.081 72.136 55.978 85.399l178.47 69.83c33.195 12.988 68.877 18.161 104.34 15.127l377.18-32.267c11.025-0.943 19.87-9.611 21.154-20.73 1.283-11.119 9.008-23.604-1.506-27.092z" fill="#97a6b7"/>
			
				<linearGradient id="SVGID_00000137838177912641869190000017406531910258733211_" x1="2138.3" x2="2144.8" y1="2173.3" y2="2416.4" gradientUnits="userSpaceOnUse">
				<stop stop-color="#444B8C" offset="0"/>
				<stop stop-color="#26264F" offset=".9964"/>
			</linearGradient>
			<path d="m2367.5 2393.5c-34.228-11.222-59.81-39.935-67.024-75.225l-49.818-243.71-416.18 14.974-52.448 253.89c-7.345 35.557 12.089 71.213 45.953 84.31l178.29 68.952c33.162 12.825 68.808 17.933 104.24 14.937l376.8-31.861c11.015-0.931 19.85-9.49 21.132-20.469s-5.345-21.343-15.849-24.787z" fill="url(#SVGID_00000137838177912641869190000017406531910258733211_)"/>
			
				<linearGradient id="SVGID_00000157293150751651098330000013884863447594355373_" x1="2191.3" x2="1476.7" y1="1871" y2="-637.64" gradientUnits="userSpaceOnUse">
				<stop stop-color="#444B8C" offset="0"/>
				<stop stop-color="#26264F" offset=".9964"/>
			</linearGradient>
			<path d="m3048.8 1913.9v-1106.7c0-22.693-18.702-42.012-41.621-42.933l-1901.3-76.43c-28.933-1.163-52.676 18.829-52.676 44.432v1223.1z" fill="url(#SVGID_00000157293150751651098330000013884863447594355373_)"/>
			
				<path d="m1112 902.47v955.38c0 23.846 22.044 42.731 48.91 41.966l1804.5-51.318c21.536-0.613 39.113-18.513 39.113-39.783v-852.09z" fill="#fff"/>
				
					<linearGradient id="SVGID_00000046321399171664065240000016107280025065742226_" x1="1476.6" x2="2778.9" y1="248.7" y2="1646.8" gradientUnits="userSpaceOnUse">
					<stop stop-color="#FF9085" offset="0"/>
					<stop stop-color="#FB6FBB" offset="1"/>
				</linearGradient>
				<path d="m3004.4 956.63v-97.788c0-20.833-17.216-38.521-38.31-39.307l-1806.3-67.386c-26.319-0.982-47.911 17.324-47.911 40.682v109.64z" fill="url(#SVGID_00000046321399171664065240000016107280025065742226_)"/>
				<g fill="#9d3060">
					<path d="m1244 828.09c0 8.21-7.482 14.629-16.724 14.336-9.256-0.293-16.77-7.204-16.77-15.436s7.513-14.65 16.77-14.334c9.242 0.315 16.724 7.225 16.724 15.434z"/>
					<path d="m1316.1 830.46c0 8.162-7.395 14.544-16.529 14.255-9.148-0.289-16.574-7.158-16.574-15.342s7.426-14.565 16.574-14.254c9.134 0.311 16.529 7.179 16.529 15.341z"/>
					<path d="m1387.3 832.8c0 8.114-7.309 14.461-16.337 14.175-9.041-0.286-16.381-7.114-16.381-15.25s7.339-14.482 16.381-14.174c9.029 0.308 16.337 7.135 16.337 15.249z"/>
				</g>
			
			
				<linearGradient id="SVGID_00000041275363823925064180000008128886832196218526_" x1="1053.1" x2="3048.8" y1="2075.4" y2="2075.4" gradientUnits="userSpaceOnUse">
				<stop stop-color="#444B8C" offset="0"/>
				<stop stop-color="#26264F" offset=".9964"/>
			</linearGradient>
			<path d="m1053.1 1955.3v244.26c0 25.602 23.743 45.545 52.676 44.322l1901.3-80.381c22.919-0.969 41.621-20.326 41.621-43.02v-213.72z" fill="url(#SVGID_00000041275363823925064180000008128886832196218526_)"/>
			
				
					
						<linearGradient id="SVGID_00000164493534880766875030000007971203213218663080_" x1="1674.3" x2="2244.7" y1="1016.7" y2="2252.9" gradientUnits="userSpaceOnUse">
						<stop stop-color="#FFC444" offset="0"/>
						<stop stop-color="#F36F56" offset=".9964"/>
					</linearGradient>
					<polygon points="1250.5 1443.6 1250.5 1005.8 2298.9 1024.9 2298.9 1437.9" fill="url(#SVGID_00000164493534880766875030000007971203213218663080_)"/>
					
						<linearGradient id="SVGID_00000020359770788105219310000001137970640527552158_" x1="2397.3" x2="2923.1" y1="741.65" y2="1881.3" gradientUnits="userSpaceOnUse">
						<stop stop-color="#FFC444" offset="0"/>
						<stop stop-color="#F36F56" offset=".9964"/>
					</linearGradient>
					<polygon points="2360.4 1437.6 2360.4 1026 2890.9 1035.7 2890.9 1434.7" fill="url(#SVGID_00000020359770788105219310000001137970640527552158_)"/>
					
						<linearGradient id="SVGID_00000080195629406012599860000003553340184925136770_" x1="1769" x2="2314.9" y1="973.65" y2="2157" gradientUnits="userSpaceOnUse">
						<stop stop-color="#FFC444" offset="0"/>
						<stop stop-color="#F36F56" offset=".9964"/>
					</linearGradient>
					<polygon points="1250.5 1768.5 1250.5 1500.8 2890.9 1486.8 2890.9 1730.9" fill="url(#SVGID_00000080195629406012599860000003553340184925136770_)"/>
				
			
			<g opacity=".48">
				<path d="m2842.8 1771c-156.16-52.744-285.35 54.84-397.6-29.868-126.55-95.499-24.263-278.96-141.32-387.05-162.61-150.15-487.71 82.705-628.9-58.845-97.075-97.319 17.437-253.12-64.765-417.02-41.795-83.333-120.11-140.15-215.18-178.76l-289.24-11.627c-28.932-1.164-52.675 18.829-52.675 44.432v1467.3c0 25.602 23.743 45.545 52.675 44.322l1901.3-80.381c22.919-0.969 41.622-20.326 41.622-43.02v-157.92c-66.958-118.37-140.87-169.6-205.94-191.58z" fill="#fff"/>
			</g>
		
		
			
				
					
						<linearGradient id="SVGID_00000136406163911443959580000009601647715517016976_" x1="1681.6" x2="1015" y1="2915" y2="2346.4" gradientUnits="userSpaceOnUse">
						<stop stop-color="#444B8C" offset="0"/>
						<stop stop-color="#26264F" offset=".9964"/>
					</linearGradient>
					<path d="m1593.6 1757.6v1280.3c0 19.146-20.949 24.763-44.715 27.068l-821.95 91.917-12.563 1.22c-25.79 2.505-46.937-11.81-46.937-31.817v-1337.9c0-20.007 21.147-37.044 46.937-37.859l17.049-0.539 824.86 2.703c23.761-0.757 37.324-14.277 37.324 4.869z" fill="url(#SVGID_00000136406163911443959580000009601647715517016976_)"/>
					
						<linearGradient id="SVGID_00000003068419345656479910000009841781543064643459_" x1="-1355.9" x2="1011.4" y1="2520" y2="2608" gradientTransform="rotate(-90 172.65 1561.7)" gradientUnits="userSpaceOnUse">
						<stop stop-color="#444B8C" offset="0"/>
						<stop stop-color="#26264F" offset=".9964"/>
					</linearGradient>
					<path d="m1619 1756.1v1279.9c0 19.141-19.393 36.685-43.145 38.992l-835.61 81.163c-25.776 2.504-46.911-11.808-46.911-31.809v-1337.5c0-20.001 21.135-37.033 46.911-37.848l835.61-26.394c23.752-0.749 43.145 14.299 43.145 33.44z" fill="url(#SVGID_00000003068419345656479910000009841781543064643459_)"/>
					
						<path d="m758.39 1824.7 796.52-27.799c20.275-0.708 37.103 15.523 37.129 35.81l1.492 1175.2c0.028 22.064-16.717 40.536-38.678 42.667l-794.17 77.061c-20.282 1.968-37.846-13.97-37.851-34.347l-0.306-1231.4c-4e-3 -20.022 15.854-36.448 35.863-37.146z" fill="#fff"/>
						
							<linearGradient id="SVGID_00000014598370680538498120000001750723250505423263_" x1="877.07" x2="1217.9" y1="2031.1" y2="2769.9" gradientUnits="userSpaceOnUse">
							<stop stop-color="#FFC444" offset="0"/>
							<stop stop-color="#F36F56" offset=".9964"/>
						</linearGradient>
						<polygon points="1238.7 2095.9 1239 2520.5 785.55 2551.7 785.41 2117.7" fill="url(#SVGID_00000014598370680538498120000001750723250505423263_)"/>
						
							<linearGradient id="SVGID_00000052794840693971552250000002330819558309340579_" x1="1039.3" x2="1344.2" y1="2449.6" y2="3110.4" gradientUnits="userSpaceOnUse">
							<stop stop-color="#FFC444" offset="0"/>
							<stop stop-color="#F36F56" offset=".9964"/>
						</linearGradient>
						<polygon points="1534.9 2552.8 1535.2 2807.9 785.65 2870.9 785.56 2606.3" fill="url(#SVGID_00000052794840693971552250000002330819558309340579_)"/>
						
							<linearGradient id="SVGID_00000140016827398259017110000018354789978191939245_" x1="1028.2" x2="1346.2" y1="1656.1" y2="2345.4" gradientUnits="userSpaceOnUse">
							<stop stop-color="#FF9085" offset="0"/>
							<stop stop-color="#FB6FBB" offset="1"/>
						</linearGradient>
						<path d="m761.61 1823.9 792.95-27.003c20.587-0.701 37.664 15.786 37.686 36.385l0.193 174.85-869.88 38.798-0.046-182.57c-6e-3 -21.819 17.286-39.713 39.091-40.456z" fill="url(#SVGID_00000140016827398259017110000018354789978191939245_)"/>
						
							<linearGradient id="SVGID_00000075878842736008710770000004831741771070515089_" x1="1073.5" x2="1293.9" y1="2767.9" y2="3245.7" gradientUnits="userSpaceOnUse">
							<stop stop-color="#FFC444" offset="0"/>
							<stop stop-color="#F36F56" offset=".9964"/>
						</linearGradient>
						<polygon points="1535.3 2864.3 1535.4 2979.3 785.7 3048.7 785.67 2929.4" fill="url(#SVGID_00000075878842736008710770000004831741771070515089_)"/>
						
							<linearGradient id="SVGID_00000139295440367089496630000014256535943617465477_" x1="1292.6" x2="1584.2" y1="2050.4" y2="2682.4" gradientUnits="userSpaceOnUse">
							<stop stop-color="#FFC444" offset="0"/>
							<stop stop-color="#F36F56" offset=".9964"/>
						</linearGradient>
						<polygon points="1534.5 2081.7 1534.9 2500.1 1280.8 2517.6 1280.5 2093.9" fill="url(#SVGID_00000139295440367089496630000014256535943617465477_)"/>
					
				
				<path d="m1181.9 1774.6c0 6.776-6.942 12.505-15.512 12.797-8.577 0.292-15.535-4.972-15.535-11.758s6.958-12.516 15.535-12.798c8.57-0.282 15.512 4.983 15.512 11.759z" fill="#de8bdf"/>
			
			<g opacity=".48">
				<path d="m1348.9 2492.6c-76.024-152.56-253.69-116.14-320.44-282.52-39.816-99.254 9.748-146.32-20.1-267.41-20.199-81.944-64.303-147.24-114.27-198.51l-153.82 4.858c-25.774 0.815-46.911 17.847-46.911 37.848v1337.5c0 20.001 21.136 34.313 46.911 31.81l672.45-65.315c-49.793-69.195-71.105-134.27-78.789-190.73-23.829-175.13 82.498-272.02 14.973-407.52z" fill="#fff"/>
			</g>
		
		
			
				
					
						<linearGradient id="SVGID_00000181062345189965532880000003064120304708605602_" x1="2044.3" x2="1629.2" y1="2960" y2="2605.9" gradientUnits="userSpaceOnUse">
						<stop stop-color="#444B8C" offset="0"/>
						<stop stop-color="#26264F" offset=".9964"/>
					</linearGradient>
					<path d="m1950.2 2197.7v883.56c0 13.213-11.291 16.871-24.098 18.213l-441.1 54.614-6.714 0.704c-13.781 1.446-25.078-8.615-25.078-22.359v-919.11c0-13.745 11.297-25.323 25.078-25.73l9.112-0.269 442.68 6.792c12.805-0.38 20.115-9.629 20.115 3.584z" fill="url(#SVGID_00000181062345189965532880000003064120304708605602_)"/>
					
						<linearGradient id="SVGID_00000096779973976534022660000006989417381825031603_" x1="-1372.2" x2="239" y1="3087.4" y2="3147.3" gradientTransform="rotate(-90 172.65 1561.7)" gradientUnits="userSpaceOnUse">
						<stop stop-color="#444B8C" offset="0"/>
						<stop stop-color="#26264F" offset=".9964"/>
					</linearGradient>
					<path d="m1963.9 2196.8v883.43c0 13.211-10.455 25.117-23.258 26.46l-448.51 47.055c-13.777 1.446-25.071-8.614-25.071-22.356v-918.97c0-13.743 11.294-25.32 25.071-25.726l448.51-13.225c12.803-0.377 23.258 10.124 23.258 23.335z" fill="url(#SVGID_00000096779973976534022660000006989417381825031603_)"/>
					
						<path d="m1507 2238.8 392.31-14.341c27.405-1.002 50.167 20.945 50.166 48.368l-0.044 791.57c-1e-3 12.961-9.786 23.83-22.677 25.187l-420.27 44.23c-12.758 1.343-23.87-8.66-23.87-21.489l-0.019-848.22c0-13.628 10.784-24.813 24.403-25.31z" fill="#fff"/>
						
							
								<linearGradient id="SVGID_00000169539844488953266490000008246404465450931091_" x1="1561.3" x2="1777.8" y1="2407.6" y2="2876.8" gradientUnits="userSpaceOnUse">
								<stop stop-color="#FFC444" offset="0"/>
								<stop stop-color="#F36F56" offset=".9964"/>
							</linearGradient>
							<polygon points="1762.6 2437.3 1762.6 2731.6 1531.4 2749.2 1531.4 2449.6" fill="url(#SVGID_00000169539844488953266490000008246404465450931091_)"/>
							
								<linearGradient id="SVGID_00000056406783825155585340000013566793321132715942_" x1="1647" x2="1825" y1="2710.4" y2="3096.3" gradientUnits="userSpaceOnUse">
								<stop stop-color="#FFC444" offset="0"/>
								<stop stop-color="#F36F56" offset=".9964"/>
							</linearGradient>
							<polygon points="1903.7 2757.5 1903.7 2934.8 1531.4 2969.4 1531.4 2786.9" fill="url(#SVGID_00000056406783825155585340000013566793321132715942_)"/>
							
								<linearGradient id="SVGID_00000149373963263705967770000003218816760505498516_" x1="1670" x2="1790.4" y1="2921.9" y2="3182.9" gradientUnits="userSpaceOnUse">
								<stop stop-color="#FFC444" offset="0"/>
								<stop stop-color="#F36F56" offset=".9964"/>
							</linearGradient>
							<polygon points="1903.7 2966.1 1903.7 3046 1531.4 3083.8 1531.4 3001.5" fill="url(#SVGID_00000149373963263705967770000003218816760505498516_)"/>
							
								<linearGradient id="SVGID_00000139258173584679190750000010138792498892967555_" x1="1771.4" x2="1959.9" y1="2418.9" y2="2827.6" gradientUnits="userSpaceOnUse">
								<stop stop-color="#FFC444" offset="0"/>
								<stop stop-color="#F36F56" offset=".9964"/>
							</linearGradient>
							<polygon points="1903.7 2429.9 1903.7 2720.9 1787.4 2729.7 1787.4 2436" fill="url(#SVGID_00000139258173584679190750000010138792498892967555_)"/>
						
						
							<linearGradient id="SVGID_00000163775148267668411740000002154271214168661946_" x1="1638.9" x2="1827.5" y1="2150.6" y2="2559.3" gradientUnits="userSpaceOnUse">
							<stop stop-color="#FF9085" offset="0"/>
							<stop stop-color="#FB6FBB" offset="1"/>
						</linearGradient>
						<path d="m1505.1 2238.8 419.04-15.318c13.833-0.506 25.322 10.572 25.321 24.414l-0.01 122.48-466.87 22.549v-130.77c-1e-3 -12.576 9.951-22.898 22.519-23.358z" fill="url(#SVGID_00000163775148267668411740000002154271214168661946_)"/>
					
				
				<path d="m1728.7 2206.9c0 4.667-3.727 8.571-8.328 8.719-4.604 0.149-8.339-3.519-8.339-8.192s3.735-8.577 8.339-8.719c4.601-0.143 8.328 3.525 8.328 8.192z" fill="#de8bdf"/>
			
			<g opacity=".48">
				<path d="m1818.1 2725.9c-40.929-102.9-151.25-78.589-185.62-182.58-28.052-84.883 34.346-134.62 9.918-232.91-13.706-55.146-47.431-96.118-81.908-125.75l-68.355 2.015c-13.777 0.406-25.071 11.984-25.071 25.726v918.97c0 13.743 11.294 23.801 25.071 22.356l343.86-36.074c-27.597-43.504-38.684-83.256-42.601-116.27-14.254-120.14 62.205-181.22 24.708-275.49z" fill="#fff"/>
			</g>
		
		
			
				<linearGradient id="SVGID_00000038379965497986879520000012574034143797364148_" x1="2748.7" x2="2737.9" y1="2705.8" y2="2919" gradientUnits="userSpaceOnUse">
				<stop stop-color="#FF9085" offset="0"/>
				<stop stop-color="#FB6FBB" offset="1"/>
			</linearGradient>
			<polygon points="2805.1 3078.7 2440 2988.5 2219.7 2772.2 2737.3 2869.4 3241 2743.5 3266.2 2865.8" fill="url(#SVGID_00000038379965497986879520000012574034143797364148_)"/>
			
				<linearGradient id="SVGID_00000025419082216659895050000013547919955774480807_" x1="2748.7" x2="2737.9" y1="2705.8" y2="2919" gradientUnits="userSpaceOnUse">
				<stop stop-color="#444B8C" offset="0"/>
				<stop stop-color="#26264F" offset=".9964"/>
			</linearGradient>
			<polygon points="2805.1 3078.7 2440 2988.5 2219.7 2772.2 2737.3 2869.4 3241 2743.5 3266.2 2865.8" fill="url(#SVGID_00000025419082216659895050000013547919955774480807_)"/>
			
				<linearGradient id="SVGID_00000164476625997654228290000012822208031584836502_" x1="2721.5" x2="3352.6" y1="2897.1" y2="2897.1" gradientUnits="userSpaceOnUse">
				<stop stop-color="#444B8C" offset="0"/>
				<stop stop-color="#26264F" offset=".9964"/>
			</linearGradient>
			<path d="m2721.5 3038.8c100.11-53.67 174.04-108.33 224.23-149.65 98.744-81.299 144.04-142.63 244.01-166.86 17.867-4.33 119.66-29.006 152.5 16.195 36.367 50.045-34.337 154.7-42.925 167.41-127.72 189.04-452.95 180.22-554.97 174.09-7.616-13.727-15.232-27.453-22.849-41.178z" fill="url(#SVGID_00000164476625997654228290000012822208031584836502_)"/>
			
				<linearGradient id="SVGID_00000062875667335027918590000009188988469435069629_" x1="2721.5" x2="3352.6" y1="2898.5" y2="2898.5" gradientUnits="userSpaceOnUse">
				<stop stop-color="#FF9085" offset="0"/>
				<stop stop-color="#FB6FBB" offset="1"/>
			</linearGradient>
			<path d="m3342.2 2738.5c-9.599-13.209-25.151-20.337-42.71-23.864 5.843 20.232 6.375 39.217-0.926 55.804-19.957 45.334-79.054 31.371-120.56 84.573-40.767 52.251-12.547 102.61-48.585 124.16-41.305 24.701-92.511-33.007-136.76-5.398-30.083 18.769-20.724 54.379-55.782 73.776-24.227 13.405-47.976 7.066-75.575 3.599-31.635-3.975-74.973-4.824-129.37 6.539 4.125 7.436 8.252 14.871 12.379 22.308 102.01 6.131 427.25 14.951 554.96-174.09 8.589-12.713 79.294-117.36 42.926-167.41z" fill="url(#SVGID_00000062875667335027918590000009188988469435069629_)" opacity=".3"/>
			
				<linearGradient id="SVGID_00000151510941474739898570000002159435498072189355_" x1="2900.2" x2="2778.7" y1="3142.6" y2="2991.5" gradientUnits="userSpaceOnUse">
				<stop stop-color="#AA80F9" offset="0"/>
				<stop stop-color="#6165D7" offset=".9964"/>
			</linearGradient>
			<path d="m2797.2 3067.1s18.343-13.154 44.962-4.19c26.617 8.963 68.885 16.197 68.82 29.212s-42.354 21.16-71.577 15.811c-27.954-5.117-49.94-29.413-42.205-40.833z" fill="url(#SVGID_00000151510941474739898570000002159435498072189355_)"/>
			
				<linearGradient id="SVGID_00000142145684887137630840000012162108135134143668_" x1="2825.6" x2="2658.3" y1="3106.7" y2="2896.2" gradientUnits="userSpaceOnUse">
				<stop stop-color="#FFC444" offset="0"/>
				<stop stop-color="#F36F56" offset=".9964"/>
			</linearGradient>
			<path d="m2770.3 3044.9 48.988 15.759s7.958 13.255-2.782 21.662c-10.739 8.407-48.059-9.372-48.059-9.372z" fill="url(#SVGID_00000142145684887137630840000012162108135134143668_)"/>
			
				<linearGradient id="SVGID_00000120558603352327632480000016499574803317011360_" x1="2465.3" x2="2326.3" y1="2890" y2="3179.2" gradientUnits="userSpaceOnUse">
				<stop stop-color="#444B8C" offset="0"/>
				<stop stop-color="#26264F" offset=".9964"/>
			</linearGradient>
			<path d="m2089.4 2819c-14.465 84.218 167.29 175.32 208.9 196.18 84.801 42.505 244.36 102.51 481.18 79.585 3.15-18.894 6.299-37.788 9.447-56.682-31.284-10.718-77.646-28.137-131.44-54.599-91.81-45.163-126.67-77.416-254.07-154.44-140.98-85.231-182.04-96.165-224.04-85.617-35.916 9.019-83.25 36.442-89.971 75.576z" fill="url(#SVGID_00000120558603352327632480000016499574803317011360_)"/>
			
				<linearGradient id="SVGID_00000183943827801911147290000001591248833272923020_" x1="2777" x2="2611" y1="2816.8" y2="2285.1" gradientUnits="userSpaceOnUse">
				<stop stop-color="#E38DDD" offset=".0036"/>
				<stop stop-color="#9571F6" offset="1"/>
			</linearGradient>
			<path d="m2278.8 2658.9c-30.724-111.12 19.992-261.05 126.86-333.34 87.229-59.006 189.44-55.177 221.33-53.982 34.912 1.308 31.305 5.841 141.2 26.172 152.57 28.229 166.65 21.385 211.04 42.656 83.453 39.996 123.95 112.66 131.52 126.8 38.781 72.362 70.344 206.88-3.315 272.67-41.872 37.399-100.57 37.245-133.61 33.74-2.249-14.845-4.498-29.691-6.748-44.536 6.723-5.207 46.384-36.998 51.283-93.12 5.633-64.498-39.451-106.13-44.536-110.66-15.991 30.868-35.672 77.742-44.535 137.66-11.444 77.373 0.406 141 10.441 178.41-40.348 22.147-107.07 52.199-193.98 61.814-65.48 7.244-146.55 16.214-198.39-24.292-73.14-57.158-79.323-206.01-7.087-360.94-26.44 17.711-64.745 49.752-80.635 100.47-2.402 7.669-6.471 22.719-8.098 80.974-2.921 104.67-140.9 74.661-172.74-40.487z" fill="url(#SVGID_00000183943827801911147290000001591248833272923020_)"/>
			
				<linearGradient id="SVGID_00000145764118415471130530000003993501606428940201_" x1="2670.6" x2="2693.5" y1="2377.8" y2="2748.9" gradientUnits="userSpaceOnUse">
				<stop stop-color="#FF9085" offset="0"/>
				<stop stop-color="#FB6FBB" offset="1"/>
			</linearGradient>
			<path d="m2774.1 2735.8c-36.805 4.512-46.821 42.724-80.975 40.486-74.311-4.866-133.95-133.51-102.57-203.78 20.466-45.817 73.819-53.807 70.178-83.674-2.912-23.898-39.94-42.288-70.178-43.187-47.077-1.397-78.163 39.599-89.072 53.983-25.493 33.619-30.99 70.533-31.565 94.274 18.707-36.699 48.502-61.341 70.364-75.986-72.235 154.93-66.052 303.78 7.087 360.94 51.833 40.505 132.91 31.536 198.39 24.292 70.54-7.804 127.78-29.069 168.41-48.645-39.482-64.269-89.771-124.87-140.07-118.7z" fill="url(#SVGID_00000145764118415471130530000003993501606428940201_)" opacity=".3"/>
			
				<linearGradient id="SVGID_00000071557734395235744950000005356053221368784317_" x1="2471.7" x2="2903.4" y1="2861.8" y2="2861.8" gradientUnits="userSpaceOnUse">
				<stop stop-color="#AA80F9" offset="0"/>
				<stop stop-color="#6165D7" offset=".9964"/>
			</linearGradient>
			<polygon points="2471.7 2834.2 2586.2 2889.5 2903.4 2868.7 2902.3 2840.6" fill="url(#SVGID_00000071557734395235744950000005356053221368784317_)"/>
			<path d="m2456.5 2845.6c0 8.06 5.042 15.259 12.617 18.013l137.61 53.947 0.628-37.401-135.66-46.006c-7.611-2.188-15.197 3.526-15.197 11.445z" fill="#d8dee8"/>
			
				<linearGradient id="SVGID_00000066499344590077459430000017133536383232016005_" x1="2494.8" x2="2328.8" y1="2904.9" y2="2373.2" gradientUnits="userSpaceOnUse">
				<stop stop-color="#E38DDD" offset=".0036"/>
				<stop stop-color="#9571F6" offset="1"/>
			</linearGradient>
			<path d="m2299.6 2584.8c33.233-31.455 114.76-11.644 145.17 33.554 22.389 33.271 3.86 60.649 20.243 102.57 20.072 51.352 95.782 97.781 142.31 113.23-7.282 15.68-5.14 19.741-12.423 35.421-29.598-3.697-243.55-36.47-295.88-163.5-2.725-6.619-35.057-87.545 0.58-121.28z" fill="url(#SVGID_00000066499344590077459430000017133536383232016005_)"/>
			
				<linearGradient id="SVGID_00000096757556626317965290000008017227280558360214_" x1="2763.7" x2="2705.7" y1="2258.8" y2="2397.8" gradientUnits="userSpaceOnUse">
				<stop stop-color="#FFC444" offset="0"/>
				<stop stop-color="#F36F56" offset=".9964"/>
			</linearGradient>
			<path d="m2785.2 2253.2s-34.828 37.662-63.738 41.582c-28.909 3.92-70.689-3.76-77.888 0-7.198 3.758 36.307 19.237 70.813 28.7 34.506 9.465 97.156 28.373 114.48 24.233 17.321-4.142-18.928-26.35-33.283-32.237-14.355-5.888 6.191-36.133 6.191-36.133z" fill="url(#SVGID_00000096757556626317965290000008017227280558360214_)"/>
			
				
					<linearGradient id="SVGID_00000154416433484330938230000007661310647021300393_" x1="-2432.2" x2="-2495.2" y1="382.73" y2="222.77" gradientTransform="matrix(-.7945 -.6073 -.6073 .7945 992.75 529.08)" gradientUnits="userSpaceOnUse">
					<stop stop-color="#311944" offset="0"/>
					<stop stop-color="#6B3976" offset="1"/>
				</linearGradient>
				<path d="m2836.9 2274.8c12.594-3.472 24.098-17.61 23.955-32.26-0.124-12.604-8.974-21.206-14.271-26.357-15.349-14.927-42.029-24.27-61.369-14.458-11.461 5.816-16.693 32.211-17.852 36.787-1.31 5.177 0.71 8.856 1.269 13.962 0.772 7.081 1.902 18.264 3.547 36.778 3.238-2.596 7.461-5.641 12.637-8.484 1.991-1.092 9.852-5.304 18.349-7.272 17.032-3.943 21.798 4.597 33.735 1.304z" fill="url(#SVGID_00000154416433484330938230000007661310647021300393_)"/>
				
					<linearGradient id="SVGID_00000034771059034662251020000009513339529269659047_" x1="3974.8" x2="3971.9" y1="461.31" y2="694.68" gradientTransform="matrix(.8301 .5575 -.5575 .8301 -235.62 -346.78)" gradientUnits="userSpaceOnUse">
					<stop stop-color="#FFC444" offset="0"/>
					<stop stop-color="#F36F56" offset=".9964"/>
				</linearGradient>
				<path d="m2765 2269.2s-2.921 26.704 20.238 42.259c20.736 13.925 57.738-28.126 52.366-47.24-1.793-6.376-9.217-14.168-17.549-17.527-4.92-1.984-7.586-1.358-15.563-4.755-7.358-3.133-8.567-5.148-11.618-5.016-3.817 0.165-9.193 3.636-15.298 19.559-0.829-6.715-4.222-11.663-8.592-12.619-0.697-0.151-2.763-0.273-4.604 0.536-6.657 2.932-7.014 12.948 0.62 24.803z" fill="url(#SVGID_00000034771059034662251020000009513339529269659047_)"/>
				
					<linearGradient id="SVGID_00000021828791792711052940000017267114557906592428_" x1="-2451.4" x2="-2514.5" y1="390.4" y2="230.26" gradientTransform="matrix(-.7945 -.6073 -.6073 .7945 992.75 529.08)" gradientUnits="userSpaceOnUse">
					<stop stop-color="#311944" offset="0"/>
					<stop stop-color="#6B3976" offset="1"/>
				</linearGradient>
				<path d="m2794 2233.5c0.405 1.444-5.243 2.756-9.333 7.617-7.941 9.436-7.087 28.762 2.226 37.52 5.507 5.178 9.911 2.847 20.563 9.394 6.596 4.054 11.075 8.74 13.732 11.898-5.15 13.09-16.286 21.52-27.254 20.959-11.813-0.604-19.161-11.417-22.234-15.938-2.056-3.027-8.656-12.701-7.033-24.339 1.689-12.128 10.315-13.576 9.197-23.521-0.564-5.016-3.256-9.074-2.521-17.379 0.199-2.255 0.586-4.09 0.885-5.292 9.253-1.472 21.185-3.008 21.772-0.919z" fill="url(#SVGID_00000021828791792711052940000017267114557906592428_)"/>
				
					<linearGradient id="SVGID_00000178178473927883817340000016105742836696297646_" x1="-2513.2" x2="-2509.9" y1="293.91" y2="323.14" gradientTransform="matrix(-.7945 -.6073 -.6073 .7945 992.75 529.08)" gradientUnits="userSpaceOnUse">
					<stop stop-color="#FFC444" offset="0"/>
					<stop stop-color="#F36F56" offset="1"/>
				</linearGradient>
				<path d="m2810.9 2298.4s-5.981-1.059-13.031-7.15c-0.344-0.296-0.819-0.494-1.008-0.344-0.708 0.568 1.606 7.345 6.905 9.475 3.764 1.513 8.425 0.439 8.583-0.626 0.066-0.45-0.667-0.948-1.449-1.355z" fill="url(#SVGID_00000178178473927883817340000016105742836696297646_)"/>
			
			
				<path d="m2618.7 2617.8-30.356 276.4c-1.047 9.537 12.305 23.745 21.888 23.291l445.33-27.34c7.316-0.346 13.409-5.732 14.649-12.952l55.893-266.95c1.668-9.716-15.795-19.75-25.649-19.473l-466.68 13.122c-7.791 0.219-14.228 6.154-15.079 13.903z" fill="#d8dee8"/>
				<path d="m2628.9 2625.8-30.356 276.4c-1.048 9.537 6.673 17.753 16.257 17.3l450.96-21.348c7.317-0.346 13.409-5.733 14.648-12.952l46.073-268.17c1.669-9.716-5.973-18.528-15.827-18.251l-466.68 13.121c-7.792 0.219-14.228 6.154-15.079 13.903z" fill="#fff"/>
			
			
				<linearGradient id="SVGID_00000129904005987459001100000007835602472789422474_" x1="2598.5" x2="3086.8" y1="2765.3" y2="2765.3" gradientUnits="userSpaceOnUse">
				<stop stop-color="#EBEFF2" offset=".494"/>
				<stop stop-color="#fff" offset="1"/>
			</linearGradient>
			<path d="m2893.7 2833.4c-39.376-16.69-25.479-48.514-71.977-88.172-61.341-52.316-123.86-29.628-145.75-70.178-6.817-12.63-10.071-32.282 1.801-64.088l-33.793 0.95c-7.793 0.219-14.229 6.154-15.081 13.903l-30.356 276.4c-1.046 9.536 6.676 17.753 16.258 17.3l450.96-21.348c7.317-0.346 13.409-5.732 14.648-12.952l6.358-37.006c-13.683-7.614-30.034-14.538-49.111-18.408-66.159-13.419-98.621 22.812-143.95 3.599z" fill="url(#SVGID_00000129904005987459001100000007835602472789422474_)"/>
		
	</g>
</g></g>
</svg>
