<svg version="1.1" viewBox="0 0 500 300" xml:space="preserve" xmlns="http://www.w3.org/2000/svg">

<g transform="translate(-28.199 22.019)"><g transform="matrix(.54714 0 0 .54714 -329.57 -16.047)" display="none">
		<g display="inline">
			<path d="m379.03 185.7v127.84c0 1.159-0.219 2.263-0.634 3.269-1.29 3.237-4.45 5.511-8.146 5.511h-248.83c-4.855 0-8.781-3.926-8.781-8.78v-127.84c0-4.855 3.926-8.781 8.781-8.781h248.83c4.855 0 8.781 3.926 8.781 8.781z" fill="#35363b"/>
			<polygon points="125.1 322.32 270.51 176.92 340.56 176.92 195.15 322.32" fill="#42444f"/>
			<path d="m114.82 187.84v-2.143c0-3.635 2.958-6.593 6.593-6.593h248.83c3.636 0 6.594 2.958 6.594 6.593v2.143z" fill="#e6eaf0"/>
			<g id="mouse_cursor_2_">
				<path d="m379.02 309.64-0.612 0.241 0.612 0.776v2.876c0 1.159-0.219 2.263-0.634 3.269l-3.357-4.243-6.736 9.754h-0.601l-12.444-38.205 23.772 14.445z" fill="#292a2e"/>
			</g>
			<path d="m379.02 185.7v41.847h-28.354c-4.855 0-8.78-3.926-8.78-8.781v-41.847h28.354c4.855 0 8.78 3.926 8.78 8.781z" fill="#292a2e"/>
			<path d="m135.64 262.33v59.988h-14.226c-4.855 0-8.781-3.926-8.781-8.781v-59.987h14.226c4.855 0 8.781 3.925 8.781 8.78z" fill="#292a2e"/>
			
				<circle cx="144.37" cy="183.73" r="2.45" fill="#34909d"/>
				<circle cx="134.74" cy="183.73" r="2.45" fill="#ffda58"/>
				<circle cx="125.11" cy="183.73" r="2.45" fill="#ba0034"/>
			
			
				<path d="m127.38 258.04v127.84c0 4.855-3.926 8.78-8.781 8.78h-59.401c-4.855 0-8.78-3.926-8.78-8.78v-127.84c0-4.855 3.925-8.781 8.78-8.781h59.401c4.855 1e-3 8.781 3.926 8.781 8.781z" fill="#e6eaf0"/>
				<path d="m127.38 258.04v4.33h-76.963v-4.33c0-4.855 3.925-8.781 8.78-8.781h59.401c4.856 1e-3 8.782 3.926 8.782 8.781z" fill="#35363b"/>
				
					<circle cx="82.159" cy="256.07" r="2.45" fill="#34909d"/>
					<circle cx="72.528" cy="256.07" r="2.45" fill="#ffda58"/>
					<circle cx="62.896" cy="256.07" r="2.45" fill="#ba0034"/>
				
			
			
				<path d="m473.42 84.791v127.84c0 4.855-3.926 8.781-8.781 8.781h-108.4c-4.855 0-8.78-3.925-8.78-8.781v-127.84c0-4.855 3.926-8.781 8.78-8.781h108.4c4.855 1e-3 8.781 3.926 8.781 8.781z" fill="#e6eaf0"/>
				<path d="m473.42 84.791v4.33h-125.96v-4.33c0-4.855 3.926-8.781 8.78-8.781h108.4c4.855 1e-3 8.781 3.926 8.781 8.781z" fill="#35363b"/>
				
					<circle cx="379.2" cy="82.824" r="2.45" fill="#34909d"/>
					<circle cx="369.57" cy="82.824" r="2.45" fill="#ffda58"/>
					<circle cx="359.94" cy="82.824" r="2.45" fill="#ba0034"/>
				
			
			<g display="inline">
				<path d="m448.92 344.8v62.081c0 4.855-3.926 8.781-8.78 8.781h-123.94c-4.855 0-8.781-3.926-8.781-8.781v-62.081c0-4.855 3.926-8.781 8.781-8.781h123.94c4.854 0 8.78 3.926 8.78 8.781z" fill="#e6eaf0"/>
				<path d="m448.92 344.8v4.33h-141.5v-4.33c0-4.855 3.926-8.781 8.781-8.781h123.94c4.854 0 8.78 3.926 8.78 8.781z" fill="#35363b"/>
				
					<circle cx="339.16" cy="342.83" r="2.45" fill="#34909d"/>
					<circle cx="329.53" cy="342.83" r="2.45" fill="#ffda58"/>
					<circle cx="319.9" cy="342.83" r="2.45" fill="#ba0034"/>
				
			</g>
			
			<g id="cloud_1_" display="none">
				<path d="m147.34 117.48c-0.95 0-1.858 0.171-2.706 0.471-0.876-4.357-3.897-7.933-7.915-9.587 0.155-1.219 0.245-2.459 0.245-3.721 0-16.079-13.035-29.114-29.114-29.114-14.553 0-26.61 10.678-28.769 24.625-1.192-0.264-2.429-0.408-3.7-0.408-9.392 0-17.006 7.614-17.006 17.006s7.614 17.006 17.006 17.006h71.959c4.495 0 8.138-3.644 8.138-8.138 0-4.497-3.644-8.14-8.138-8.14z" fill="#55c0ed"/>
			</g>
			
			
			<g id="chat_2_">
				
					<path d="m81.109 153.65h17.655c5.037 0 9.407 3.796 9.775 8.82 0.305 4.152-2.094 7.813-5.61 9.4-1.464 0.66-1.933 2.501-0.899 3.73l3.443 4.094-7.445-4.685c-2.391-1.504-5.157-2.303-7.982-2.303h-8.68c-5.312 0-9.856-4.346-9.785-9.657 0.07-5.182 4.33-9.399 9.528-9.399z" fill="#6f7082"/>
					<path d="m95.383 163.2c0 1.711 1.387 3.098 3.098 3.098s3.098-1.387 3.098-3.098-1.387-3.098-3.098-3.098-3.098 1.387-3.098 3.098zm-8.408 0c0 1.711 1.387 3.098 3.098 3.098s3.098-1.387 3.098-3.098-1.387-3.098-3.098-3.098-3.098 1.387-3.098 3.098zm-8.408 0c0 1.711 1.387 3.098 3.098 3.098s3.098-1.387 3.098-3.098-1.387-3.098-3.098-3.098-3.098 1.387-3.098 3.098z" fill="#fff"/>
				
			</g>
			<g id="chat_3_">
				
					<path d="m121.85 145.04h14.008c3.997 0 7.464 3.012 7.756 6.998 0.242 3.294-1.662 6.199-4.451 7.458-1.161 0.524-1.534 1.984-0.714 2.96l2.732 3.249-5.907-3.717c-1.897-1.194-4.092-1.827-6.333-1.827h-6.887c-4.215 0-7.82-3.448-7.763-7.662 0.055-4.113 3.435-7.459 7.559-7.459z" fill="#e6eaf0"/>
					<path d="m133.18 152.62c0 1.357 1.101 2.458 2.458 2.458s2.458-1.1 2.458-2.458c0-1.357-1.1-2.458-2.458-2.458s-2.458 1.101-2.458 2.458zm-6.672 0c0 1.357 1.1 2.458 2.458 2.458 1.357 0 2.458-1.1 2.458-2.458 0-1.357-1.1-2.458-2.458-2.458-1.357 0-2.458 1.101-2.458 2.458zm-6.671 0c0 1.357 1.1 2.458 2.458 2.458 1.357 0 2.458-1.1 2.458-2.458 0-1.357-1.1-2.458-2.458-2.458-1.357 0-2.458 1.101-2.458 2.458z" fill="#fff"/>
				
			</g>
			<g id="paragraph_1_">
				
					<g fill="#42444f">
						<rect x="63.055" y="316.81" width="27.733" height="3.939"/>
						<rect x="94.516" y="316.81" width="29.537" height="3.939"/>
						<rect x="125.98" y="316.81" width="24.52" height="3.939"/>
						<rect x="63.055" y="340.53" width="23.652" height="3.939"/>
						<rect x="89.106" y="340.53" width="21.119" height="3.939"/>
						<polygon points="112.15 340.53 148.63 340.45 148.63 344.39 112.15 344.47"/>
						<rect x="63.055" y="324.71" width="14.925" height="3.939"/>
						<rect x="81.709" y="324.71" width="58.135" height="3.939"/>
						<rect x="143.57" y="324.71" width="8.712" height="3.939"/>
						<rect x="63.055" y="332.62" width="27.733" height="3.939"/>
						</g><rect x="93.187" y="332.62" width="24.162" height="3.939" fill="#55c0ed"/>
						<rect x="121.08" y="332.62" width="20.917" height="3.939" fill="#42444f"/>
					
					
						<rect x="63.055" y="348.25" width="27.733" height="3.939" fill="#55c0ed"/>
						<rect x="94.516" y="348.25" width="29.537" height="3.939" fill="#42444f"/>
						<rect x="125.98" y="348.25" width="24.52" height="3.939" fill="#42444f"/>
						<rect x="63.055" y="371.97" width="23.652" height="3.939" fill="#55c0ed"/><g fill="#42444f">
						<rect x="89.106" y="371.97" width="21.119" height="3.939"/>
						<polygon points="112.15 371.97 148.63 371.89 148.63 375.83 112.15 375.91"/>
						<rect x="63.055" y="356.15" width="14.925" height="3.939"/>
						</g><rect x="81.709" y="356.15" width="58.135" height="3.939" fill="#55c0ed"/><g fill="#42444f">
						<rect x="143.57" y="356.15" width="8.712" height="3.939"/>
						<rect x="63.055" y="364.06" width="27.733" height="3.939"/>
						<rect x="93.187" y="364.06" width="24.162" height="3.939"/>
						<rect x="121.08" y="364.06" width="20.917" height="3.939"/>
					</g>
				
			</g>
			<g id="photo_image_1_">
				
					
						<path d="m424.27 162.59h-87.404c-1.286 0-2.329-1.043-2.329-2.329v-53.307c0-1.286 1.043-2.329 2.329-2.329h87.404c1.286 0 2.329 1.043 2.329 2.329v53.307c0 1.287-1.043 2.329-2.329 2.329z" fill="#fff"/>
						<path d="m382.32 151.92h-41.857v-4.451c1.761-3.867 4.235-6.018 6.979-7.335 1.082-0.522 2.201-0.908 3.336-1.218 1.268-0.348 2.553-0.597 3.817-0.825 0.854-0.158 1.463-0.904 1.438-1.77l-0.021-0.609c-0.021-0.531-0.274-1.028-0.7-1.339-8.856-6.382-5.16-21.343 6.071-21.045 12.549 0.323 12.611 17.568 3.096 21.028-0.75 0.269-1.264 0.982-1.202 1.774l4e-3 0.087c0.054 0.858 0.729 1.542 1.583 1.62 0.444 0.042 0.875 0.087 1.297 0.141h4e-3c1.069 0.137 2.08 0.319 3.034 0.551 6.747 1.601 10.842 5.588 13.121 13.391z" fill="#42444f"/>
						<path d="m419.48 151.92h-32.222c0.539-2.698 1.376-4.704 2.412-6.208 2.354-3.419 5.732-4.277 8.968-4.874 0.083-0.013 0.166-0.029 0.249-0.046 0.642-0.116 1.103-0.684 1.082-1.339l-0.012-0.389c-4e-3 -0.066-0.012-0.137-0.021-0.207-0.062-0.323-0.249-0.613-0.518-0.804-2.876-2.093-3.929-5.421-3.481-8.45 0.551-3.759 3.407-7.053 7.949-6.933 6.822 0.174 8.599 7.178 6.212 11.807-0.725 1.409-1.836 2.603-3.315 3.311-0.211 0.1-0.431 0.195-0.655 0.274-0.547 0.199-0.895 0.738-0.854 1.322 0.045 0.643 0.551 1.161 1.193 1.223 0.895 0.083 1.736 0.203 2.532 0.369 4e-3 -4e-3 4e-3 -4e-3 8e-3 0 0.8 0.158 1.554 0.365 2.259 0.617 4e-3 0 8e-3 0 0.012 8e-3 0.327 0.112 0.642 0.236 0.949 0.373v4e-3c2.109 0.932 3.763 2.362 5.031 4.401 0.937 1.497 1.666 3.328 2.222 5.541z" fill="#42444f"/>
					
					<path d="m433.37 170.11h-2.734v-1.093h1.64v-1.307h1.094zm-3.827 0h-2.187v-1.093h2.187zm-3.28 0h-2.187v-1.093h2.187zm-3.281 0h-2.187v-1.093h2.187zm-3.28 0h-2.187v-1.093h2.187zm-3.28 0h-2.187v-1.093h2.187zm-3.281 0h-2.187v-1.093h2.187zm-3.28 0h-2.187v-1.093h2.187zm-3.281 0h-2.187v-1.093h2.187zm-3.28 0h-2.187v-1.093h2.187zm-3.28 0h-2.187v-1.093h2.187zm-3.281 0h-2.187v-1.093h2.187zm-3.28 0h-2.187v-1.093h2.187zm-3.281 0h-2.187v-1.093h2.187zm-3.28 0h-2.187v-1.093h2.187zm-3.28 0h-2.187v-1.093h2.187zm-3.281 0h-2.187v-1.093h2.187zm-3.28 0h-2.187v-1.093h2.187zm-3.281 0h-2.187v-1.093h2.187zm-3.28 0h-2.187v-1.093h2.187zm-3.28 0h-2.187v-1.093h2.187zm-3.281 0h-2.187v-1.093h2.187zm-3.28 0h-2.187v-1.093h2.187zm-3.281 0h-2.187v-1.093h2.187zm-3.28 0h-2.187v-1.093h2.187zm-3.28 0h-2.187v-1.093h2.187zm-3.281 0h-2.187v-1.093h2.187zm-3.28 0h-2.187v-1.093h2.187zm-3.281 0h-2.187v-1.093h2.187zm-3.28 0h-2.187v-1.093h2.187zm-3.28 0h-2.187v-1.093h2.187zm-3.281 0h-2.187v-1.093h2.187zm-2.274-1.006h-1.094v-2.187h1.094zm104.51-2.488h-1.094v-2.187h1.094zm-104.51-0.793h-1.094v-2.187h1.094zm104.51-2.487h-1.094v-2.187h1.094zm-104.51-0.793h-1.094v-2.187h1.094zm104.51-2.487h-1.094v-2.187h1.094zm-104.51-0.793h-1.094v-2.187h1.094zm104.51-2.488h-1.094v-2.187h1.094zm-104.51-0.793h-1.094v-2.187h1.094zm104.51-2.487h-1.094v-2.187h1.094zm-104.51-0.793h-1.094v-2.187h1.094zm104.51-2.488h-1.094v-2.187h1.094zm-104.51-0.792h-1.094v-2.187h1.094zm104.51-2.488h-1.094v-2.187h1.094zm-104.51-0.793h-1.094v-2.187h1.094zm104.51-2.487h-1.094v-2.187h1.094zm-104.51-0.793h-1.094v-2.187h1.094zm104.51-2.488h-1.094v-2.187h1.094zm-104.51-0.793h-1.094v-2.187h1.094zm104.51-2.487h-1.094v-2.187h1.094zm-104.51-0.793h-1.094v-2.187h1.094zm104.51-2.488h-1.094v-2.187h1.094zm-104.51-0.793h-1.094v-2.187h1.094zm104.51-2.487h-1.094v-2.187h1.094zm-104.51-0.793h-1.094v-2.187h1.094zm104.51-2.487h-1.094v-2.187h1.094zm-104.51-0.793h-1.094v-2.187h1.094zm104.51-2.488h-1.094v-2.187h1.094zm-104.51-0.793h-1.094v-2.187h1.094zm104.51-2.487h-1.094v-2.187h1.094zm-104.51-0.793h-1.094v-2.187h1.094zm104.51-2.488h-1.094v-2.187h1.094zm-104.51-0.792h-1.094v-2.187h1.094zm104.51-2.488h-1.094v-2.187h1.094zm-104.51-0.793h-1.094v-2.187h1.094zm104.51-2.487h-1.094v-2.187h1.094zm-104.51-0.793h-1.094v-2.187h1.094zm104.51-2.488h-1.094v-2.187h1.094zm-104.51-0.793h-1.094v-2.187h1.094zm104.51-2.487h-1.094v-2.187h1.094zm-104.51-0.793h-1.094v-2.187h1.094zm104.51-2.488h-1.094v-2.187h1.094zm-104.51-0.792h-1.094v-2.187h1.094zm103.97-2.021h-2.107v-1.093h2.654v0.547l-0.547 0.039zm-3.201 0h-2.187v-1.093h2.187zm-3.281 0h-2.187v-1.093h2.187zm-3.28 0h-2.187v-1.093h2.187zm-3.281 0h-2.187v-1.093h2.187zm-3.28 0h-2.187v-1.093h2.187zm-3.28 0h-2.187v-1.093h2.187zm-3.281 0h-2.187v-1.093h2.187zm-3.28 0h-2.187v-1.093h2.187zm-3.28 0h-2.187v-1.093h2.187zm-3.281 0h-2.187v-1.093h2.187zm-3.28 0h-2.187v-1.093h2.187zm-3.281 0h-2.187v-1.093h2.187zm-3.28 0h-2.187v-1.093h2.187zm-3.28 0h-2.187v-1.093h2.187zm-3.281 0h-2.187v-1.093h2.187zm-3.28 0h-2.187v-1.093h2.187zm-3.281 0h-2.187v-1.093h2.187zm-3.28 0h-2.187v-1.093h2.187zm-3.28 0h-2.187v-1.093h2.187zm-3.281 0h-2.187v-1.093h2.187zm-3.28 0h-2.187v-1.093h2.187zm-3.281 0h-2.187v-1.093h2.187zm-3.28 0h-2.187v-1.093h2.187zm-3.28 0h-2.187v-1.093h2.187zm-3.281 0h-2.187v-1.093h2.187zm-3.28 0h-2.187v-1.093h2.187zm-3.281 0h-2.187v-1.093h2.187zm-3.28 0h-2.187v-1.093h2.187zm-3.28 0h-2.187v-1.093h2.187zm-3.281 0h-2.187v-1.093h2.187zm-3.28 0h-2.187v-1.093h2.187z" fill="#35363b"/>
					<g fill="#35363b">
						
							<rect x="326.48" y="95.807" width="3.55" height="3.55"/>
							<rect x="378.74" y="95.807" width="3.55" height="3.55"/>
							<rect x="430.99" y="95.807" width="3.551" height="3.55"/>
						
						
							<rect x="326.48" y="131.66" width="3.55" height="3.551"/>
							<rect x="430.99" y="131.66" width="3.551" height="3.551"/>
						
						
							<rect x="326.48" y="167.51" width="3.55" height="3.551"/>
							<rect x="378.74" y="167.51" width="3.55" height="3.551"/>
							<rect x="430.99" y="167.51" width="3.551" height="3.551"/>
						
					</g>
				
			</g>
			<g id="gear_1_">
				<path d="m259.16 122.69-5.2-1.64c-1.153-0.364-1.317-1.927-0.265-2.523l4.746-2.685c1.311-0.742 0.659-2.748-0.838-2.578l-5.418 0.617c-1.201 0.137-1.988-1.225-1.268-2.197l3.243-4.383c0.896-1.211-0.516-2.779-1.814-2.014l-4.698 2.767c-1.042 0.614-2.314-0.311-2.052-1.491l1.18-5.323c0.326-1.471-1.601-2.329-2.476-1.103l-3.167 4.439c-0.702 0.984-2.24 0.657-2.481-0.527l-1.087-5.343c-0.3-1.477-2.41-1.477-2.71 0l-1.087 5.343c-0.241 1.185-1.779 1.512-2.481 0.527l-3.167-4.439c-0.875-1.227-2.802-0.368-2.476 1.103l1.18 5.323c0.262 1.18-1.011 2.105-2.052 1.491l-4.698-2.767c-1.298-0.765-2.71 0.803-1.814 2.014l3.243 4.383c0.719 0.972-0.067 2.334-1.268 2.197l-5.418-0.617c-1.497-0.17-2.149 1.836-0.838 2.578l4.746 2.685c1.052 0.595 0.888 2.159-0.265 2.523l-5.201 1.64c-1.437 0.453-1.216 2.551 0.283 2.696l5.428 0.523c1.204 0.116 1.689 1.611 0.784 2.412l-4.084 3.613c-1.128 0.998-0.074 2.826 1.355 2.347l5.171-1.73c1.146-0.383 2.199 0.785 1.697 1.885l-2.261 4.962c-0.625 1.371 1.082 2.611 2.193 1.593l4.02-3.684c0.891-0.817 2.328-0.177 2.317 1.032l-0.048 5.453c-0.013 1.507 2.051 1.945 2.651 0.563l2.174-5c0.482-1.109 2.055-1.109 2.537 0l2.174 5c0.601 1.382 2.664 0.943 2.651-0.563l-0.047-5.453c-0.011-1.209 1.426-1.849 2.317-1.032l4.02 3.684c1.111 1.018 2.818-0.222 2.193-1.593l-2.261-4.962c-0.501-1.1 0.551-2.269 1.697-1.885l5.171 1.73c1.429 0.478 2.484-1.349 1.355-2.347l-4.084-3.613c-0.906-0.801-0.42-2.297 0.784-2.412l5.428-0.523c1.503-0.145 1.723-2.243 0.286-2.696zm-22.951 7.482c-4.908 0-8.887-3.979-8.887-8.887s3.979-8.887 8.887-8.887 8.887 3.979 8.887 8.887-3.979 8.887-8.887 8.887z" fill="#42444f"/>
			</g>
			<g id="gear_2_">
				<path d="m256.66 370.55c0.207-1.081 0.313-2.198 0.313-3.339 0-1.142-0.105-2.258-0.313-3.343h-4.265c-0.878 0-1.67-0.529-2.005-1.341l-0.011-0.027c-0.335-0.812-0.149-1.745 0.472-2.366l3.012-3.011c-1.263-1.857-2.868-3.461-4.724-4.727l-3.059 3.059c-0.594 0.594-1.487 0.772-2.264 0.451l-0.144-0.06c-0.776-0.321-1.283-1.079-1.283-1.919v-4.328c-1.081-0.207-2.198-0.313-3.34-0.313s-2.258 0.105-3.343 0.313v4.329c0 0.84-0.506 1.597-1.282 1.919l-0.085 0.035c-0.812 0.336-1.747 0.15-2.368-0.471l-3.014-3.014c-1.856 1.266-3.461 2.871-4.721 4.727l3.01 3.01c0.622 0.622 0.808 1.556 0.472 2.368l-0.011 0.027c-0.336 0.811-1.128 1.341-2.006 1.341h-4.262c-0.207 1.085-0.313 2.201-0.313 3.343s0.105 2.258 0.313 3.339h4.325c0.863 0 1.614 0.543 1.943 1.341 4e-3 9e-3 7e-3 0.018 0.011 0.026 0.331 0.798 0.185 1.712-0.426 2.323l-3.056 3.056c1.26 1.856 2.864 3.461 4.721 4.727l3.059-3.059c0.611-0.611 1.526-0.758 2.324-0.426 0.01 4e-3 0.019 8e-3 0.029 0.012 0.797 0.329 1.338 1.08 1.338 1.942v4.328c1.084 0.207 2.201 0.313 3.343 0.313s2.258-0.105 3.34-0.313v-4.328c0-0.862 0.541-1.613 1.338-1.942 9e-3 -4e-3 0.019-8e-3 0.028-0.012 0.798-0.332 1.713-0.185 2.324 0.426l3.059 3.059c1.856-1.263 3.461-2.867 4.724-4.724l-3.057-3.06c-0.61-0.61-0.757-1.524-0.426-2.321 4e-3 -9e-3 8e-3 -0.018 0.011-0.028 0.329-0.798 1.08-1.341 1.943-1.341h4.326zm-17.038 0.231c-2.444 0.374-4.518-1.7-4.144-4.144 0.233-1.523 1.477-2.768 3-3.001 2.444-0.375 4.519 1.7 4.145 4.144-0.233 1.524-1.478 2.768-3.001 3.001z" fill="#42444f"/>
			</g>
			<g id="gear_3_">
				<path d="m299.11 342.88c0.143-0.745 0.216-1.515 0.216-2.302s-0.073-1.557-0.216-2.305h-2.94c-0.605 0-1.151-0.365-1.382-0.924l-8e-3 -0.019c-0.231-0.56-0.103-1.203 0.325-1.632l2.076-2.076c-0.871-1.28-1.977-2.386-3.257-3.259l-2.109 2.109c-0.41 0.41-1.026 0.532-1.561 0.311l-0.099-0.041c-0.535-0.221-0.884-0.744-0.884-1.323v-2.984c-0.745-0.143-1.515-0.215-2.302-0.215s-1.557 0.073-2.304 0.215v2.984c0 0.579-0.349 1.101-0.884 1.323l-0.058 0.024c-0.56 0.232-1.204 0.104-1.633-0.325l-2.078-2.078c-1.28 0.873-2.386 1.979-3.254 3.259l2.075 2.075c0.429 0.428 0.557 1.073 0.325 1.633l-8e-3 0.018c-0.232 0.56-0.777 0.924-1.383 0.924h-2.939c-0.143 0.748-0.215 1.517-0.215 2.305 0 0.787 0.072 1.557 0.215 2.302h2.982c0.595 0 1.113 0.374 1.34 0.924 3e-3 6e-3 5e-3 0.012 8e-3 0.018 0.228 0.55 0.127 1.18-0.294 1.602l-2.107 2.107c0.869 1.28 1.975 2.386 3.254 3.259l2.109-2.109c0.421-0.421 1.052-0.522 1.602-0.293 7e-3 3e-3 0.013 5e-3 0.02 8e-3 0.549 0.227 0.922 0.744 0.922 1.339v2.984c0.748 0.143 1.517 0.215 2.304 0.215s1.557-0.073 2.302-0.215v-2.984c0-0.595 0.373-1.112 0.923-1.339 7e-3 -3e-3 0.013-5e-3 0.019-8e-3 0.55-0.229 1.181-0.128 1.602 0.293l2.109 2.109c1.28-0.871 2.386-1.977 3.257-3.257l-2.108-2.109c-0.42-0.421-0.522-1.05-0.294-1.6 3e-3 -6e-3 5e-3 -0.013 8e-3 -0.019 0.227-0.55 0.745-0.924 1.34-0.924zm-11.747 0.16c-1.685 0.258-3.115-1.172-2.857-2.857 0.161-1.05 1.019-1.908 2.068-2.069 1.685-0.259 3.116 1.172 2.858 2.857-0.161 1.05-1.019 1.908-2.069 2.069z" fill="#55c0ed"/>
			</g>
			
				<g id="mouse_cursor_1_">
					<polygon points="395.94 299.66 361.07 278.47 373.71 317.26 380.85 306.91 391.08 319.83 394.46 317.15 384.23 304.24" fill="#42444f"/>
				</g>
				<g fill="#42444f">
					
						<path d="m402.68 285.51h-22.452c-0.645 0-1.172-0.527-1.172-1.172s0.527-1.172 1.172-1.172h22.452c0.644 0 1.172 0.527 1.172 1.172s-0.527 1.172-1.172 1.172z"/>
						<path d="m415.57 285.51h-3.392c-0.645 0-1.172-0.527-1.172-1.172s0.527-1.172 1.172-1.172h3.392c0.644 0 1.172 0.527 1.172 1.172s-0.527 1.172-1.172 1.172z"/>
					
					
						<path d="m418.27 299.52h-17.761c-0.644 0-1.172-0.527-1.172-1.172s0.527-1.172 1.172-1.172h17.761c0.644 0 1.172 0.527 1.172 1.172-1e-3 0.644-0.528 1.172-1.172 1.172z"/>
						<path d="m428.95 299.52h-3.392c-0.645 0-1.172-0.527-1.172-1.172s0.527-1.172 1.172-1.172h3.392c0.645 0 1.172 0.527 1.172 1.172 0 0.644-0.528 1.172-1.172 1.172z"/>
						<path d="m442.07 299.52h-6.426c-0.644 0-1.172-0.527-1.172-1.172s0.527-1.172 1.172-1.172h6.426c0.645 0 1.172 0.527 1.172 1.172 0 0.644-0.527 1.172-1.172 1.172z"/>
						<path d="m452.15 299.52h-3.392c-0.644 0-1.172-0.527-1.172-1.172s0.527-1.172 1.172-1.172h3.392c0.644 0 1.172 0.527 1.172 1.172 0 0.644-0.527 1.172-1.172 1.172z"/>
					
					
						<path d="m429.44 314-24.045-0.476c-0.645 0-1.172-0.527-1.172-1.172s0.527-1.172 1.172-1.172l24.045 0.476c0.644 0 1.172 0.527 1.172 1.172 0 0.644-0.527 1.172-1.172 1.172z"/>
						<path d="m440.95 314h-2.004c-0.644 0-1.172-0.527-1.172-1.172s0.527-1.172 1.172-1.172h2.004c0.644 0 1.172 0.527 1.172 1.172-1e-3 0.644-0.528 1.172-1.172 1.172z"/>
					
				</g>
			
			<path d="m304.21 381.09h-23.902c-5.281 0-9.563-4.281-9.563-9.563v-44.956" fill="none" stroke="#42444f" stroke-dasharray="2.1869, 1.0935" stroke-miterlimit="10" stroke-width="2.1869"/>
			<path d="m381.65 262.28h41.624c7.263 0 13.151-5.888 13.151-13.151v-27.409" fill="none" stroke="#42444f" stroke-dasharray="2.1869, 1.0935" stroke-miterlimit="10" stroke-width="2.1869"/>
			
				<path d="m88.788 281.56v-42.047c0-4.155 3.369-7.524 7.524-7.524h16.24" fill="none" stroke="#42444f" stroke-dasharray="2.1869, 1.0935" stroke-miterlimit="10" stroke-width="2.1869"/>
				<circle cx="88.686" cy="285.65" r="2.599" fill="#42444f"/>
			
			<path d="m273.28 322.18c0 1.391-1.127 2.518-2.518 2.518s-2.518-1.127-2.518-2.518c0-1.39 1.127-2.518 2.518-2.518s2.518 1.128 2.518 2.518z" fill="#42444f"/>
			<path d="m309.47 381.1c0 1.145-0.928 2.073-2.073 2.073s-2.073-0.928-2.073-2.073 0.928-2.073 2.073-2.073c1.144 0 2.073 0.928 2.073 2.073z" fill="#42444f"/>
			
				<text transform="translate(157.15 247.58)" fill="#ffffff" font-family="BebasNeueBold" font-size="30.697px">yourwebsite.com</text>
				<g fill="#6f7082">
					<rect x="159.91" y="260.14" width="34.957" height="3.466"/>
					<rect x="159.91" y="266.74" width="34.957" height="3.466"/>
					<rect x="159.91" y="273.34" width="34.957" height="3.466"/>
					<rect x="159.91" y="279.94" width="23.435" height="3.466"/>
				</g>
				<g fill="#6f7082">
					<rect x="206.71" y="260.14" width="34.957" height="3.466"/>
					<rect x="206.71" y="266.74" width="34.957" height="3.466"/>
					<rect x="206.71" y="273.34" width="34.957" height="3.466"/>
					<rect x="206.71" y="279.94" width="23.435" height="3.466"/>
				</g>
				<g fill="#6f7082">
					<rect x="253.51" y="260.14" width="34.957" height="3.466"/>
					<rect x="253.51" y="266.74" width="34.957" height="3.466"/>
					<rect x="253.51" y="273.34" width="34.957" height="3.466"/>
					<rect x="253.51" y="279.94" width="23.435" height="3.466"/>
				</g>
				<g fill="#6f7082">
					<rect x="300.31" y="260.14" width="34.957" height="3.466"/>
					<rect x="300.31" y="266.74" width="34.957" height="3.466"/>
					<rect x="300.31" y="273.34" width="34.957" height="3.466"/>
					<rect x="300.31" y="279.94" width="23.435" height="3.466"/>
				</g>
			
			<g id="Artwork_2_1_">
				
					<rect x="318.6" y="357.14" width="33.67" height="46.513" fill="#fff"/><g fill="#6f7082">
					<polygon points="327.39 357.14 318.6 357.14 318.6 365.93"/>
					<rect x="325.68" y="362.35" width="19.505" height="1.087"/>
					<rect x="325.68" y="365.48" width="19.505" height="1.087"/>
					<rect x="325.68" y="368.61" width="19.505" height="1.087"/>
					<rect x="325.68" y="371.73" width="19.505" height="1.087"/>
					<rect x="325.68" y="374.86" width="19.505" height="1.087"/>
					<rect x="325.68" y="377.99" width="19.505" height="1.087"/>
					<rect x="325.68" y="381.12" width="19.505" height="1.087"/>
					<rect x="325.68" y="384.24" width="19.505" height="1.087"/>
					<rect x="325.68" y="387.37" width="19.505" height="1.087"/>
					<rect x="325.68" y="390.5" width="19.505" height="1.087"/>
					<rect x="325.68" y="393.63" width="19.505" height="1.087"/>
					<rect x="325.68" y="396.76" width="11.797" height="1.087"/>
				</g>
			</g>
			<g id="Artwork_2_2_">
				
					<rect x="360.8" y="357.14" width="33.669" height="46.513" fill="#fff"/><g fill="#6f7082">
					<polygon points="369.59 357.14 360.8 357.14 360.8 365.93"/>
					<rect x="367.88" y="362.35" width="19.505" height="1.087"/>
					<rect x="367.88" y="365.48" width="19.505" height="1.087"/>
					<rect x="367.88" y="368.61" width="19.505" height="1.087"/>
					<rect x="367.88" y="371.73" width="19.505" height="1.087"/>
					<rect x="367.88" y="374.86" width="19.505" height="1.087"/>
					<rect x="367.88" y="377.99" width="19.505" height="1.087"/>
					<rect x="367.88" y="381.12" width="19.505" height="1.087"/>
					<rect x="367.88" y="384.24" width="19.505" height="1.087"/>
					<rect x="367.88" y="387.37" width="19.505" height="1.087"/>
					<rect x="367.88" y="390.5" width="19.505" height="1.087"/>
					<rect x="367.88" y="393.63" width="19.505" height="1.087"/>
					<rect x="367.88" y="396.76" width="11.797" height="1.087"/>
				</g>
			</g>
			<g id="Artwork_2_3_">
				
					<rect x="403" y="357.14" width="33.669" height="46.513" fill="#fff"/><g fill="#6f7082">
					<polygon points="411.78 357.14 403 357.14 403 365.93"/>
					<rect x="410.08" y="362.35" width="19.505" height="1.087"/>
					<rect x="410.08" y="365.48" width="19.505" height="1.087"/>
					<rect x="410.08" y="368.61" width="19.505" height="1.087"/>
					<rect x="410.08" y="371.73" width="19.505" height="1.087"/>
					<rect x="410.08" y="374.86" width="19.505" height="1.087"/>
					<rect x="410.08" y="377.99" width="19.505" height="1.087"/>
					<rect x="410.08" y="381.12" width="19.505" height="1.087"/>
					<rect x="410.08" y="384.24" width="19.505" height="1.087"/>
					<rect x="410.08" y="387.37" width="19.505" height="1.087"/>
					<rect x="410.08" y="390.5" width="19.505" height="1.087"/>
					<rect x="410.08" y="393.63" width="19.505" height="1.087"/>
					<rect x="410.08" y="396.76" width="11.797" height="1.087"/>
				</g>
			</g>
			<path d="m381.06 262.35c0 1.168-0.947 2.116-2.116 2.116s-2.116-0.947-2.116-2.116 0.947-2.116 2.116-2.116 2.116 0.947 2.116 2.116z" fill="#42444f"/>
			<path d="m438.59 218.41c0 1.169-0.947 2.116-2.116 2.116s-2.116-0.947-2.116-2.116c0-1.168 0.947-2.116 2.116-2.116s2.116 0.948 2.116 2.116z" fill="#42444f"/>
			<path d="m157.26 124.76h23.756c8.252 0 14.941 6.689 14.941 14.941v37.225" fill="none" stroke="#42444f" stroke-dasharray="2.1869, 1.0935" stroke-miterlimit="10" stroke-width="2.1869"/><g fill="#fff">
			<path d="m365 188.1h-8.368c-1.119 0-2.026-0.907-2.026-2.026v-8.368c0-1.119 0.907-2.026 2.026-2.026h8.368c1.119 0 2.026 0.907 2.026 2.026v8.368c0 1.118-0.907 2.026-2.026 2.026z"/>
			<path d="m383.63 188.1h-8.368c-1.119 0-2.026-0.907-2.026-2.026v-8.368c0-1.119 0.907-2.026 2.026-2.026h8.368c1.119 0 2.026 0.907 2.026 2.026v8.368c0 1.118-0.907 2.026-2.026 2.026z"/>
			<path d="m402.26 188.1h-8.368c-1.119 0-2.026-0.907-2.026-2.026v-8.368c0-1.119 0.907-2.026 2.026-2.026h8.368c1.119 0 2.026 0.907 2.026 2.026v8.368c0 1.118-0.907 2.026-2.026 2.026z"/>
			<path d="m420.9 188.1h-8.368c-1.119 0-2.026-0.907-2.026-2.026v-8.368c0-1.119 0.907-2.026 2.026-2.026h8.368c1.119 0 2.026 0.907 2.026 2.026v8.368c0 1.118-0.907 2.026-2.026 2.026z"/>
			<path d="m439.53 188.1h-8.368c-1.119 0-2.026-0.907-2.026-2.026v-8.368c0-1.119 0.907-2.026 2.026-2.026h8.368c1.119 0 2.026 0.907 2.026 2.026v8.368c0 1.118-0.907 2.026-2.026 2.026z"/>
			<path d="m458.16 188.1h-8.368c-1.119 0-2.026-0.907-2.026-2.026v-8.368c0-1.119 0.907-2.026 2.026-2.026h8.368c1.119 0 2.026 0.907 2.026 2.026v8.368c0 1.118-0.907 2.026-2.026 2.026z"/>
			<path d="m458.16 169.14h-8.368c-1.119 0-2.026-0.907-2.026-2.026v-8.368c0-1.119 0.907-2.026 2.026-2.026h8.368c1.119 0 2.026 0.907 2.026 2.026v8.368c0 1.119-0.907 2.026-2.026 2.026z"/>
			<path d="m458.16 150.19h-8.368c-1.119 0-2.026-0.907-2.026-2.026v-8.368c0-1.119 0.907-2.026 2.026-2.026h8.368c1.119 0 2.026 0.907 2.026 2.026v8.368c0 1.119-0.907 2.026-2.026 2.026z"/>
			<path d="m458.16 131.23h-8.368c-1.119 0-2.026-0.907-2.026-2.026v-8.368c0-1.119 0.907-2.026 2.026-2.026h8.368c1.119 0 2.026 0.907 2.026 2.026v8.368c0 1.119-0.907 2.026-2.026 2.026z"/>
			<path d="m458.16 112.27h-8.368c-1.119 0-2.026-0.907-2.026-2.026v-8.368c0-1.119 0.907-2.026 2.026-2.026h8.368c1.119 0 2.026 0.907 2.026 2.026v8.368c0 1.119-0.907 2.026-2.026 2.026z"/>
		</g></g>
		<g id="gear_4_">
			<path d="m276.17 148.63c0.165-0.86 0.249-1.747 0.249-2.655s-0.084-1.795-0.249-2.657h-3.39c-0.698 0-1.327-0.421-1.594-1.066l-9e-3 -0.022c-0.267-0.645-0.118-1.388 0.375-1.881l2.394-2.394c-1.004-1.476-2.28-2.751-3.755-3.758l-2.432 2.432c-0.472 0.472-1.182 0.614-1.8 0.358l-0.114-0.047c-0.617-0.255-1.02-0.858-1.02-1.526v-3.441c-0.86-0.165-1.747-0.249-2.655-0.249s-1.795 0.084-2.657 0.249v3.441c0 0.668-0.402 1.27-1.019 1.526l-0.067 0.028c-0.646 0.267-1.389 0.12-1.883-0.374l-2.396-2.396c-1.476 1.007-2.751 2.282-3.753 3.758l2.393 2.393c0.494 0.494 0.642 1.237 0.375 1.883l-9e-3 0.021c-0.267 0.645-0.896 1.066-1.595 1.066h-3.388c-0.165 0.862-0.249 1.75-0.249 2.657 0 0.908 0.084 1.795 0.249 2.655h3.438c0.686 0 1.283 0.431 1.545 1.066 3e-3 7e-3 6e-3 0.014 9e-3 0.021 0.263 0.634 0.147 1.361-0.339 1.847l-2.429 2.429c1.002 1.476 2.277 2.751 3.753 3.758l2.432-2.432c0.486-0.486 1.213-0.603 1.848-0.338 7e-3 3e-3 0.015 6e-3 0.023 9e-3 0.633 0.262 1.063 0.858 1.063 1.544v3.441c0.862 0.165 1.75 0.248 2.657 0.248 0.908 0 1.795-0.084 2.655-0.248v-3.441c0-0.686 0.43-1.282 1.064-1.544 8e-3 -3e-3 0.015-6e-3 0.022-9e-3 0.634-0.264 1.362-0.147 1.848 0.339l2.432 2.432c1.476-1.004 2.751-2.279 3.755-3.755l-2.431-2.432c-0.485-0.485-0.602-1.211-0.339-1.845 3e-3 -7e-3 6e-3 -0.015 9e-3 -0.022 0.261-0.635 0.858-1.066 1.545-1.066h3.439zm-13.545 0.184c-1.943 0.297-3.592-1.352-3.295-3.294 0.185-1.211 1.175-2.2 2.385-2.386 1.943-0.298 3.593 1.352 3.295 3.295-0.185 1.21-1.174 2.2-2.385 2.385z" fill="#e6eaf0"/>
		</g>
		<g id="_x30__1_">
			<path d="m291.85 107.72h-1.329c-0.736 0-1.333-0.597-1.333-1.333v-1.329c0-0.648-0.434-1.246-1.07-1.372-0.854-0.17-1.61 0.488-1.61 1.313v1.387c0 0.736-0.597 1.333-1.333 1.333h-1.329c-0.648 0-1.246 0.434-1.372 1.07-0.169 0.854 0.488 1.61 1.314 1.61h1.387c0.736 0 1.333 0.597 1.333 1.332v1.329c0 0.648 0.434 1.246 1.07 1.372 0.854 0.17 1.61-0.488 1.61-1.313v-1.388c0-0.736 0.597-1.332 1.333-1.332h1.387c0.826 0 1.483-0.756 1.314-1.61-0.126-0.635-0.724-1.069-1.372-1.069z" fill="#6f7082"/>
		</g>
		<g id="_x30__2_">
			<path d="m39.508 227.71h-1.176c-0.651 0-1.179-0.528-1.179-1.179v-1.176c0-0.574-0.384-1.103-0.947-1.215-0.756-0.15-1.426 0.432-1.426 1.163v1.228c0 0.651-0.528 1.179-1.179 1.179h-1.176c-0.574 0-1.103 0.385-1.215 0.947-0.15 0.756 0.432 1.426 1.163 1.426h1.227c0.651 0 1.179 0.528 1.179 1.179v1.176c0 0.574 0.384 1.103 0.947 1.215 0.756 0.15 1.426-0.432 1.426-1.163v-1.228c0-0.651 0.528-1.179 1.179-1.179h1.228c0.731 0 1.313-0.67 1.163-1.426-0.111-0.563-0.64-0.947-1.214-0.947z" fill="#e6eaf0"/>
		</g>
		<g id="_x30__3_">
			<path d="m197.87 389.43h-2.353c-1.303 0-2.359-1.056-2.359-2.359v-2.353c0-1.148-0.769-2.206-1.895-2.429-1.512-0.3-2.851 0.864-2.851 2.325v2.457c0 1.303-1.056 2.359-2.359 2.359h-2.352c-1.148 0-2.206 0.769-2.429 1.895-0.3 1.512 0.864 2.851 2.325 2.851h2.456c1.303 0 2.359 1.056 2.359 2.359v2.353c0 1.148 0.769 2.206 1.895 2.429 1.512 0.3 2.851-0.864 2.851-2.325v-2.457c0-1.303 1.056-2.359 2.359-2.359h2.457c1.462 0 2.625-1.339 2.325-2.851-0.223-1.127-1.281-1.895-2.429-1.895z" fill="#e6eaf0"/>
		</g>
		<g id="_x30__4_">
			<path d="m464.79 263.2h-1.357c-0.752 0-1.361-0.609-1.361-1.361v-1.357c0-0.662-0.444-1.273-1.093-1.401-0.872-0.173-1.645 0.498-1.645 1.341v1.417c0 0.752-0.609 1.361-1.361 1.361h-1.357c-0.662 0-1.272 0.444-1.401 1.093-0.173 0.872 0.498 1.645 1.342 1.645h1.417c0.752 0 1.361 0.609 1.361 1.361v1.357c0 0.662 0.444 1.273 1.093 1.402 0.872 0.173 1.645-0.498 1.645-1.342v-1.417c0-0.752 0.609-1.361 1.361-1.361h1.417c0.843 0 1.515-0.773 1.341-1.645-0.129-0.65-0.739-1.093-1.402-1.093z" fill="#e6eaf0"/>
		</g><g fill="#e6eaf0">
		<path d="m157.69 408.9c0 1.726-1.399 3.126-3.126 3.126s-3.126-1.4-3.126-3.126 1.399-3.126 3.126-3.126 3.126 1.4 3.126 3.126z"/>
		<path d="m103.26 209.04c0 1.422-1.153 2.574-2.574 2.574-1.422 0-2.574-1.152-2.574-2.574s1.152-2.574 2.574-2.574 2.574 1.153 2.574 2.574z"/>
		<path d="m51.043 145.97c0 1.726-1.399 3.126-3.126 3.126-1.726 0-3.126-1.399-3.126-3.126s1.399-3.126 3.126-3.126c1.726 1e-3 3.126 1.4 3.126 3.126z"/>
		<path d="m223.51 164.17c0 1.625-1.317 2.942-2.942 2.942s-2.942-1.317-2.942-2.942 1.317-2.942 2.942-2.942 2.942 1.318 2.942 2.942z"/>
		<path d="m193.72 106.07c0 1.422-1.153 2.574-2.574 2.574-1.422 0-2.574-1.153-2.574-2.574 0-1.422 1.152-2.574 2.574-2.574 1.421 0 2.574 1.152 2.574 2.574z"/>
		<path d="m418.41 233.31c0 1.422-1.152 2.574-2.574 2.574s-2.574-1.152-2.574-2.574 1.152-2.574 2.574-2.574c1.421 0 2.574 1.152 2.574 2.574z"/>
		<path d="m189.68 335.17c0 1.828-1.482 3.31-3.31 3.31s-3.31-1.482-3.31-3.31 1.482-3.31 3.31-3.31c1.829 0 3.31 1.482 3.31 3.31z"/>
		<circle cx="274.08" cy="412.21" r="2.39"/>
	</g></g><g transform="translate(-59.186 4.3381)"><g id="OBJECTS" transform="matrix(.43151 0 0 .43151 162.88 19.674)">
	
		<path d="m466.55 435.2h-174.72c-9.122 0-16.517-7.395-16.517-16.517v-328.34c0-9.122 7.395-16.517 16.517-16.517h174.72c9.122 0 16.517 7.395 16.517 16.517v328.34c1e-3 9.122-7.394 16.517-16.517 16.517z" fill="#252d3d"/>
		<path d="m464.95 430.69h-179.89c-7.693 0-13.93-6.237-13.93-13.93v-333.52c0-7.693 6.237-13.93 13.93-13.93h179.89c7.693 0 13.93 6.236 13.93 13.93v333.52c0 7.693-6.237 13.93-13.93 13.93z" fill="#3f4459"/>
		
			<line x1="351.16" x2="398.84" y1="88.051" y2="88.051" fill="none" stroke="#fff" stroke-linecap="round" stroke-linejoin="round" stroke-miterlimit="10" stroke-width="2"/>
		<path d="m478.88 288.63-207.75 73.783v54.324c0 7.706 6.247 13.954 13.954 13.954h179.84c7.706 0 13.954-6.247 13.954-13.954v-128.11z" fill="#31384c"/>
		<path d="m462.57 422.71h-175.14c-4.109 0-7.44-3.331-7.44-7.44v-330.54c0-4.109 3.331-7.44 7.44-7.44h175.14c4.109 0 7.44 3.331 7.44 7.44v330.54c0 4.109-3.331 7.44-7.44 7.44z" fill="none" stroke="#fff" stroke-linecap="round" stroke-linejoin="round" stroke-miterlimit="10" stroke-width="2"/>
		<g fill="#fff" opacity=".08">
			<polygon points="373.08 430.69 323.46 430.69 402.73 69.312 452.34 69.312"/>
			<polygon points="312.98 430.69 294.2 430.69 373.46 69.312 392.24 69.312"/>
		</g>
	
	
		<path d="m349.16 254.51h-104.57c-7.049 0-12.763-5.714-12.763-12.763v-104.57c0-7.049 5.714-12.763 12.763-12.763h104.57c7.049 0 12.763 5.714 12.763 12.763v104.57c1e-3 7.049-5.713 12.764-12.762 12.764z" fill="#3f4459"/>
		<path d="m347.99 251.04h-109.19c-5.773 0-10.453-4.68-10.453-10.453v-109.19c0-5.773 4.68-10.453 10.453-10.453h109.19c5.773 0 10.453 4.68 10.453 10.453v109.19c1e-3 5.773-4.679 10.453-10.453 10.453z" fill="#f5f5ff"/>
		<path d="m238.81 251.04h109.19c5.773 0 10.453-4.68 10.453-10.453v-49.424l-130.09 46.203v3.221c1e-3 5.774 4.681 10.453 10.454 10.453z" fill="#ccf"/>
		<text transform="translate(258.61 225.76)" fill="#f29f05" font-family="Antonio-Bold" font-size="91.585px">UI</text>
	
	
		<path d="m508.88 391.49h-104.57c-7.049 0-12.763-5.714-12.763-12.763v-104.57c0-7.049 5.714-12.763 12.763-12.763h104.57c7.049 0 12.763 5.714 12.763 12.763v104.57c0 7.049-5.714 12.763-12.763 12.763z" fill="#3f4459"/>
		<path d="m507.72 388.02h-109.19c-5.773 0-10.453-4.68-10.453-10.453v-109.19c0-5.773 4.68-10.453 10.453-10.453h109.19c5.773 0 10.453 4.68 10.453 10.453v109.19c0 5.773-4.68 10.453-10.453 10.453z" fill="#f5f5ff"/>
		<path d="m398.53 388.02h109.19c5.773 0 10.453-4.68 10.453-10.453v-49.423l-130.09 46.202v3.221c0 5.773 4.68 10.453 10.453 10.453z" fill="#ccf"/>
		<text transform="translate(410.42 362.74)" fill="#f21d93" font-family="Antonio-Bold" font-size="91.585px">UX</text>
	
	
		
			<circle transform="matrix(.2338 -.9723 .9723 .2338 224.99 592.73)" cx="488.56" cy="153.61" r="40.405" fill="#3f4459"/>
		
			<circle transform="matrix(.1993 -.9799 .9799 .1993 240.6 597.23)" cx="485.77" cy="151.38" r="40.405" fill="#f5f5ff"/>
		<path d="m485.77 162.94c-5.682 0-10.288-4.606-10.288-10.288v-14.117h20.577v14.117c-1e-3 5.682-4.607 10.288-10.289 10.288z" fill="#fff"/>
		<path d="m492.39 140.68c-0.557 0.311-1.13 0.571-1.667 0.782-3.601 1.417-7.594 1.852-11.431 1.992-0.506 0.018-1.012 0.031-1.519 0.04-1.496 0.026-3.165 0.193-4.54-0.513-0.21-0.108-0.43-0.266-0.458-0.501-0.024-0.199 0.099-0.382 0.208-0.55 0.887-1.378 1.031-3.052 1.733-4.509 2.762-5.731 10.475-8.126 16.343-6.49 2.092 0.583 3.852 2.525 4.397 4.603 0.622 2.371-1.126 4.064-3.066 5.146z" fill="#3f4459"/>
		<path d="m497.44 137.74c-0.148 1.593-0.748 3.105-1.342 4.59 0.041-0.103-1.416-1.871-1.589-2.103-0.555-0.745-1.069-1.525-1.439-2.38-0.492-1.137-0.715-2.427-0.403-3.626 0.094-0.362 0.239-0.718 0.478-1.006 1.33-1.601 3.172-0.051 3.804 1.31 0.462 0.994 0.592 2.131 0.491 3.215z" fill="#3f4459"/>
		<path d="m494.9 161.55c-2.279 2.45-5.521 3.991-9.13 3.991-3.61 0-6.852-1.541-9.13-3.991-6.482 3.324-10.927 10.058-10.927 17.844v7.06c5.912 3.389 12.755 5.336 20.058 5.336 7.302 0 14.146-1.947 20.057-5.336v-7.06c-1e-3 -7.786-4.445-14.52-10.928-17.844z" fill="#f29f05"/>
	
	
		<path d="m295.11 345.28h-103.55c-3.351 0-6.068-2.717-6.068-6.068v-46.085c0-3.351 2.717-6.068 6.068-6.068h103.55c3.351 0 6.068 2.717 6.068 6.068v46.085c0 3.351-2.717 6.068-6.068 6.068z" fill="#210d34"/>
		<path d="m294.37 342.88h-106.56c-2.519 0-4.561-2.042-4.561-4.561v-49.099c0-2.519 2.042-4.561 4.561-4.561h106.56c2.519 0 4.561 2.042 4.561 4.561v49.099c0 2.519-2.042 4.561-4.561 4.561z" fill="#f21d93"/>
		
			<path d="m258.28 306.6c-1.996-7.2-8.581-12.493-16.417-12.493-6.791 0-12.638 3.98-15.38 9.726-7.119 0.678-12.688 6.67-12.688 13.966 0 7.751 6.283 14.034 14.034 14.034h26.249c7.172 0 12.987-5.814 12.987-12.987v-2.104c0-5.163-3.819-9.424-8.785-10.142z" fill="#fff"/>
			<polygon points="232.62 313.76 236.15 313.76 236.15 325.06 246.04 325.06 246.04 313.76 249.57 313.76 241.09 305.28" fill="#3f4459"/>
		
		<g fill="#fff" opacity=".18">
			<polygon points="274.01 342.88 286.78 284.66 237.17 284.66 224.4 342.88"/>
			<polygon points="213.91 342.88 226.68 284.66 207.9 284.66 195.13 342.88"/>
		</g>
	
	
		
			<circle cx="411.93" cy="184.52" r="7.847" fill="#fff"/>
			<circle cx="411.93" cy="184.52" r="5.945" fill="#f21d93"/>
		
		
			<circle cx="411.93" cy="207.73" r="7.847" fill="#fff"/>
			<circle cx="411.93" cy="207.73" r="5.945" fill="#f29f05"/>
		
		
			
				<circle transform="matrix(.229 -.9734 .9734 .229 92.798 579.04)" cx="411.93" cy="230.94" r="7.847" fill="#fff"/>
			<circle cx="411.93" cy="230.94" r="5.945" fill="#3f4459"/>
		
	
	
		
			<path d="m352.01 393.94h-34.314c-6.402 0-11.591-5.19-11.591-11.591 0-6.402 5.189-11.591 11.591-11.591h34.314c6.402 0 11.591 5.189 11.591 11.591 0 6.401-5.19 11.591-11.591 11.591z" fill="none" stroke="#f29f05" stroke-miterlimit="10"/>
			
				<ellipse transform="matrix(.9247 -.3807 .3807 .9247 -119.12 162.41)" cx="351.01" cy="382.35" rx="8.648" ry="8.649" fill="#f5f5ff"/>
		
		
			<path d="m352.01 426.61h-34.314c-6.402 0-11.591-5.19-11.591-11.591 0-6.402 5.189-11.591 11.591-11.591h34.314c6.402 0 11.591 5.189 11.591 11.591 0 6.401-5.19 11.591-11.591 11.591z" fill="#f29f05"/>
			<circle cx="317.83" cy="415.02" r="8.648" fill="#f5f5ff"/>
		
	
	
		
			<circle transform="matrix(.2277 -.9737 .9737 .2277 38.936 271.05)" cx="190.35" cy="110.98" r="20.597" fill="#3f4459"/>
		
			<circle transform="matrix(.2215 -.9752 .9752 .2215 40.446 269.38)" cx="188.94" cy="109.36" r="20.597" fill="#9b0cda"/>
		<path d="m199.97 106.58h-2.597c-0.138-0.419-0.309-0.823-0.505-1.212l1.839-1.839c0.437-0.437 0.437-1.146 0-1.583l-2.348-2.348c-0.437-0.437-1.146-0.437-1.584 0l-1.839 1.839c-0.389-0.196-0.792-0.367-1.212-0.506v-2.597c0-0.618-0.501-1.12-1.12-1.12h-3.321c-0.618 0-1.12 0.501-1.12 1.12v2.597c-0.419 0.138-0.823 0.309-1.212 0.506l-1.839-1.839c-0.437-0.437-1.146-0.437-1.583 0l-2.348 2.348c-0.437 0.437-0.437 1.146 0 1.583l1.839 1.839c-0.196 0.389-0.367 0.793-0.505 1.212h-2.597c-0.618 0-1.12 0.501-1.12 1.12v3.321c0 0.618 0.501 1.12 1.12 1.12h2.597c0.138 0.419 0.309 0.823 0.505 1.212l-1.839 1.839c-0.437 0.437-0.437 1.146 0 1.584l2.348 2.348c0.437 0.437 1.146 0.437 1.583 0l1.839-1.839c0.389 0.196 0.793 0.367 1.212 0.506v2.597c0 0.618 0.501 1.12 1.12 1.12h3.321c0.618 0 1.12-0.501 1.12-1.12v-2.597c0.419-0.138 0.823-0.309 1.212-0.506l1.839 1.839c0.437 0.437 1.146 0.437 1.584 0l2.348-2.348c0.437-0.437 0.437-1.146 0-1.584l-1.839-1.839c0.196-0.389 0.367-0.793 0.505-1.212h2.597c0.618 0 1.12-0.501 1.12-1.12v-3.321c0-0.618-0.502-1.12-1.12-1.12zm-11.027 7.338c-2.517 0-4.557-2.04-4.557-4.557s2.04-4.557 4.557-4.557 4.557 2.04 4.557 4.557-2.04 4.557-4.557 4.557z" fill="#f5f5ff"/>
	
	
		
			<circle transform="matrix(.8412 -.5408 .5408 .8412 -123.61 371.25)" cx="570.16" cy="396.05" r="20.597" fill="#3f4459"/>
		
			<circle transform="matrix(.2318 -.9728 .9728 .2318 53.24 856.26)" cx="568.76" cy="394.42" r="20.597" fill="#f29f05"/><g fill="none" stroke="#f21d93" stroke-linecap="round" stroke-miterlimit="10" stroke-width="2">
		
			<line x1="558.54" x2="578.97" y1="388.61" y2="388.61"/>
		
			<line x1="558.54" x2="578.97" y1="394.42" y2="394.42"/>
		
			<line x1="558.54" x2="578.97" y1="400.23" y2="400.23"/>
	</g>
	
		
			
				<polyline points="258.73 383.46 210.91 383.46 189.23 405.13 153.45 405.13" fill="none" stroke="#3f4459" stroke-linecap="round" stroke-linejoin="round" stroke-width="2"/>
				
					<rect x="255.26" y="380.16" width="6.602" height="6.602" fill="#3f4459"/>
				
				
					<rect x="150.31" y="401.83" width="6.602" height="6.602" fill="#3f4459"/>
				
			
		
		
			
				<polyline points="605.89 247.72 558.06 247.72 538.48 226.05 500.6 226.05" fill="none" stroke="#3f4459" stroke-linecap="round" stroke-linejoin="round" stroke-width="2"/>
				
					<rect x="602.42" y="244.42" width="6.602" height="6.602" fill="#3f4459"/>
				
				
					<rect x="497.47" y="222.75" width="6.602" height="6.602" fill="#3f4459"/>
				
			
		
		
			
				<path d="m209.9 230.94h-31.015s-20.714-20.295-22.38-20.295h-48.064" fill="none" stroke="#3f4459" stroke-linecap="round" stroke-linejoin="round" stroke-width="2"/>
				
					<rect x="206.43" y="227.64" width="6.602" height="6.602" fill="#3f4459"/>
				
				
					<rect x="105.3" y="207.35" width="6.602" height="6.602" fill="#3f4459"/>
				
			
		
		
			
				<polyline points="505.35 82.429 535.55 82.429 545.38 70.513 586.22 70.513" fill="none" stroke="#3f4459" stroke-linecap="round" stroke-linejoin="round" stroke-width="2"/>
				
					<rect x="502.21" y="79.128" width="6.602" height="6.602" fill="#3f4459"/>
				
				
					<rect x="582.75" y="67.212" width="6.602" height="6.602" fill="#3f4459"/>
				
			
		
	
	
		<path d="m149.58 390.73h-113.8c-4.721 0-8.547-3.827-8.547-8.547v-48.211c0-4.721 3.827-8.547 8.547-8.547h113.8c4.721 0 8.547 3.827 8.547 8.547v48.211c0 4.721-3.826 8.547-8.547 8.547z" fill="#fff" stroke="#3f4459" stroke-miterlimit="10" stroke-width="2"/>
		<rect x="44.096" y="335.65" width="73.704" height="50.857" fill="none"/>
		<text transform="translate(44.096 342.6)" fill="#3f4459" font-family="Antonio-Light" font-size="8px"><tspan x="0" y="0">Lorem ipsum dolor sit </tspan><tspan x="0" y="9.6000004">amet, consectetuer </tspan><tspan x="0" y="19.200001">adipiscing elit, sed diam </tspan><tspan x="0" y="28.799999">nonummy nibh euismod </tspan><tspan x="0" y="38.398998">tincidunt ut laoreet.</tspan></text>
		<g fill="none" stroke="#9b0cda" stroke-linecap="round" stroke-miterlimit="10" stroke-width="2">
			
				<line x1="125.35" x2="142.73" y1="357.49" y2="357.49"/>
			<polyline points="138.35 364.29 144.77 357.49 138.35 350.7"/>
		</g>
	
	
		<path d="m711.92 157.07h-113.8c-4.721 0-8.547-3.827-8.547-8.547v-48.211c0-4.72 3.827-8.547 8.547-8.547h113.8c4.721 0 8.547 3.827 8.547 8.547v48.211c0 4.721-3.827 8.547-8.547 8.547z" fill="#fff" stroke="#3f4459" stroke-miterlimit="10" stroke-width="2"/>
		<rect x="599.62" y="100.53" width="91.703" height="19.124" fill="none"/>
		<text transform="translate(599.62 107.48)" fill="#3f4459" font-size="8px"><tspan x="0" y="0" font-family="Antonio-Bold">Lorem ipsum</tspan><tspan x="39.632999" y="0" font-family="Antonio-Light"> dolor sit amet, </tspan><tspan x="0" y="9.6000004" font-family="Antonio-Light">consectetuer adipiscing elit </tspan></text>
		
			
				<circle transform="matrix(.2308 -.973 .973 .2308 344.72 712.12)" cx="622.77" cy="138.03" r="10.706" fill="#f21d93"/>
			<polygon points="618.81 138.03 624.54 133.34 624.54 142.72" fill="#f5f5ff"/>
		
		
			
				<circle transform="matrix(.1596 -.9872 .9872 .1596 443.17 796.66)" cx="689.52" cy="138.03" r="10.706" fill="#f21d93"/>
			<polygon points="693.48 138.03 687.74 142.72 687.74 133.34" fill="#f5f5ff"/>
		
		
			
				<circle transform="matrix(.2287 -.9735 .9735 .2287 371.71 745.21)" cx="656.14" cy="138.03" r="10.706" fill="#f21d93"/>
			<rect x="653.12" y="133.92" width="2.133" height="8.227" fill="#f5f5ff"/>
			<rect x="657.03" y="133.92" width="2.133" height="8.227" fill="#f5f5ff"/>
		
		<path d="m710.46 117.52h-14.269c-1.219 0-2.207-0.988-2.207-2.207v-14.269c0-1.219 0.988-2.207 2.207-2.207h14.269c1.219 0 2.207 0.988 2.207 2.207v14.269c-1e-3 1.219-0.989 2.207-2.207 2.207z" fill="#f29f05"/>
	
</g></g></g></svg>
