<svg width="165" height="52" fill="#000000" role="img" version="1.1" viewBox="0 0 61.875 19.5" xml:space="preserve" xmlns="http://www.w3.org/2000/svg"><path d="m11.258 0 11.258 19.5h-22.516zm25.905 7.5156c-1.8975 0-3.2656 1.2375-3.2656 3.0938 0 1.8562 1.54 3.0938 3.4375 3.0938 1.1464 0 2.157-0.45375 2.7827-1.2186l-1.3148-0.75969c-0.34719 0.37985-0.87484 0.60157-1.4678 0.60157-0.82328 0-1.5228-0.42969-1.7823-1.1172h4.8159c0.03781-0.1925 0.06016-0.39188 0.06016-0.60156 0-1.8545-1.3681-3.092-3.2656-3.092zm-1.6259 2.4922c0.21484-0.68578 0.80266-1.1172 1.6242-1.1172 0.82328 0 1.4111 0.4314 1.6242 1.1172zm20.133-2.4922c-1.8975 0-3.2656 1.2375-3.2656 3.0938 0 1.8562 1.54 3.0938 3.4375 3.0938 1.1464 0 2.157-0.45375 2.7827-1.2186l-1.3148-0.75969c-0.34719 0.37985-0.87484 0.60157-1.4678 0.60157-0.82328 0-1.5228-0.42969-1.7823-1.1172h4.8159c0.03781-0.1925 0.06016-0.39188 0.06016-0.60156 0-1.8545-1.3681-3.092-3.2656-3.092zm-1.6242 2.4922c0.21484-0.68578 0.80265-1.1172 1.6242-1.1172 0.82328 0 1.4111 0.4314 1.6242 1.1172zm-6.7083 0.60157c0 1.0312 0.67375 1.7188 1.7188 1.7188 0.70812 0 1.2392-0.32141 1.5125-0.84563l1.32 0.76141c-0.54656 0.91093-1.5709 1.4592-2.8325 1.4592-1.8992 0-3.2656-1.2375-3.2656-3.0938 0-1.8562 1.3681-3.0938 3.2656-3.0938 1.2616 0 2.2842 0.54828 2.8325 1.4592l-1.32 0.76141c-0.27328-0.52422-0.80438-0.84562-1.5125-0.84562-1.0433 0-1.7188 0.6875-1.7188 1.7188zm14.176-4.9844v7.9063h-1.5469v-7.9063zm-26.364 0-4.7627 8.25-4.7627-8.25h1.7858l2.9769 5.1562 2.9769-5.1562zm10.125 2.0625v1.6655c-0.17188-0.0498-0.35406-0.0842-0.55-0.0842-0.99859 0-1.7187 0.6875-1.7187 1.7188v2.5438h-1.5469v-5.8437h1.5469v1.5812c0-0.87313 1.0158-1.5812 2.2687-1.5812z" fill="#000" stroke-width=".16824"/></svg>
