<svg version="1.1" viewBox="0 0 700 700" xml:space="preserve" xmlns="http://www.w3.org/2000/svg">

<g transform="matrix(.18868 0 0 .18868 -8.75e-6 -8.75e-6)"><g id="Background">
	
		
			<rect width="3710" height="3710" fill="#fff"/>
		
	
</g><g id="Illustration">
	
		<path d="m1899.8 455.64c-737.28-21.772-1375.9 513.2-1472.4 1215.1-105.5 767.48 475.14 1458 1189.6 1568.6 888.65 137.57 1750.6-658.29 1673.2-1521.7-58.308-650.49-640.91-1240-1390.4-1262.1z" fill="#f4f7fa"/>
		<path d="m2948.5 1316.6-62.683-7.001c-2.614-26.509-7.725-53.005-15.19-79.225l56.583-24.214c15.235-6.521 21.683-23.791 14.397-38.532l-45.165-91.362c-7.156-14.48-25.125-20.885-40.132-14.348l-55.722 24.276c-15.783-21.806-33.17-41.979-52.033-60.279l34.731-47.329c9.358-12.75 6.061-30.371-7.327-39.335l-82.896-55.511c-13.124-8.789-31.227-5.702-40.464 6.874l-34.237 46.615c-23.772-10.808-48.391-19.544-73.545-26.169l5.673-56.075c1.528-15.114-9.908-28.353-25.513-29.588l-96.771-7.654c-15.347-1.214-29.074 9.898-30.693 24.833l-5.945 54.855c-25.261 2.094-50.504 6.466-75.496 12.958l-22.394-49.603c-6.087-13.485-22.264-19.252-36.128-12.915l-86.305 39.453c-13.736 6.28-20.093 22.267-14.201 35.741l21.498 49.165c-21.277 14.297-41.047 30.166-59.113 47.478l-42.948-31.222c-11.836-8.607-28.646-5.74-37.57 6.382l-55.823 75.831c-8.93 12.13-6.685 29.053 5.043 37.822l42.345 31.658c-11.431 22.7-20.888 46.373-28.316 70.735l-52.63-5.878c-14.622-1.633-28.016 9.208-29.946 24.229l-12.127 94.406c-1.951 15.173 8.363 28.954 23.063 30.766l52.519 6.478c1.11 25.575 4.555 51.325 10.197 77.006l-49.324 21.488c-13.806 6.015-20.363 22.501-14.646 36.861l36.052 90.564c5.815 14.606 21.881 21.618 35.885 15.625l50.037-21.414c14.088 22.814 29.903 44.201 47.382 63.848l-32.989 44.914c-9.284 12.64-6.855 30.951 5.457 40.921l77.756 62.963c12.557 10.169 30.393 8.044 39.796-4.775l33.675-45.886c23.692 12.926 48.471 23.795 74.074 32.408l-6.351 58.595c-1.776 16.38 9.7 31.718 25.669 34.242l100.73 15.922c16.249 2.57 30.813-8.813 32.49-25.406l6.034-59.63c26.914-0.788 53.959-4.099 80.864-9.874l24.829 56.777c6.88 15.736 24.767 23.545 39.949 17.397l95.424-38.638c15.337-6.209 21.997-24.06 14.881-39.824l-25.884-57.331c23.135-14.913 44.631-31.656 64.174-50.149l50.885 38.044c13.993 10.463 33.275 8.164 43.027-5.163l60.973-83.303c9.748-13.316 6.167-32.457-7.958-42.727l-51.884-37.719c11.666-24.443 21.117-49.893 28.187-76.068l63.002 7.769c17.098 2.109 32.051-9.581 33.361-26.09l8.149-102.67c1.295-16.33-11.457-31.092-28.445-32.988zm-406.35 292.11c-149.47 62.38-320.64-10.604-382.73-158.96-60.613-144.82 4.723-310.28 146.26-373.38 143.37-63.92 315.3-0.997 383.82 144.48 70.228 149.11 4.14 324.63-147.35 387.86z" fill="#d8dee8"/>
		
			
				<linearGradient id="SVGID_1_" x1="2540.7" x2="2248.1" y1="1912" y2="4177.1" gradientUnits="userSpaceOnUse">
					<stop stop-color="#FF9085" offset="0"/>
					<stop stop-color="#FB6FBB" offset="1"/>
				</linearGradient>
				<path d="m2401.2 2865.8c113.63-14.599 257.7-52.958 315.56-161.12 13.766-25.733 27.578-75.72-7.165-94.543-31.759-17.207-72.829 0.968-96.434 23.359-17.355 16.463-30.899 53.207-50.399 64.827-28.541 17.007-43.907-29.397-43.306-48.547 1.343-42.817 54.011-60.346 89.015-69.643 58.101-15.432 125.75-28.66 122.11-94.136s-67.479-104.75-116.59-76.106c-40.463 23.604-34.766 73.982-62.415 104.21-24.563 26.852-33.11-16.732-31.47-38.1 3.563-46.415 44.373-79.985 74.401-111.09 33.95-35.165 71.458-105.92 35.271-152.41-20.824-26.756-73.726-33.023-104.99-28.509-153.05 22.098-51.562 220.16-79.389 242.26s-54.156-16.585-54.087-75.406c0.069-58.82-8.934-102.2-70.317-83.374-61.384 18.824-73.068 172.46-2.978 231.51 70.091 59.043-4.4 123.46-23.216 81.148-13.584-30.553-25.527-110.56-64.787-119.34-65.417-14.596-64.448 118.98-45.621 150.07 26.392 43.58 86.067 53.048 119.39 90.647 9.682 10.923 31.54 37.975 23.049 53.941-11.842 22.267-44.881-1.554-57.02-11.874-27.29-23.201-65.062-102.05-103.51-49.686-47.472 64.658 31.918 160.51 234.89 171.92z" fill="url(#SVGID_1_)"/>
				<g opacity=".8">
					<path d="m2417.5 2852.8c-2.67 0-4.858-1.367-4.907-4.047-0.045-2.32-3.207-234.86 98.513-511.88 0.937-2.545 3.761-3.657 6.303-2.724 2.546 0.934 3.853 3.852 2.917 6.398-101.09 275.32-97.958 505.68-97.915 507.98 0.051 2.712-2.105 4.281-4.816 4.281h-0.095z" fill="#fff"/>
				</g>
			
			
				<linearGradient id="SVGID_00000148658217084173121400000004373205885225231752_" x1="2365.5" x2="2176.7" y1="2254.7" y2="3716.9" gradientUnits="userSpaceOnUse">
				<stop stop-color="#FFC444" offset="0"/>
				<stop stop-color="#F36F56" offset=".9964"/>
			</linearGradient>
			<path d="m2459.3 2766.2c-18.419-15.672-57.553 8.837-73.796 18.161-9.42 5.408-22.313 13.704-33.648 8.889-11.905-5.056-11.067-17.553-3.868-26.409 12.889-15.855 37.622-20.212 55.595-27.94 19.307-8.301 37.036-19.602 46.556-39.088 7.592-15.537 9.325-38.504 0.779-53.807-23.65-42.348-58.079-9.301-77.33 15.958-9.341 12.257-30.263 33.371-46.122 18.919-16.871-15.375-2.393-42.789 10.696-54.876 17.106-15.797 37.812-26.777 56.439-40.509 16.796-12.382 34.047-30.122 22.865-52.073-8.638-16.958-30.381-26.344-48.946-24.906-42.925 3.323-49.615 65.994-77.883 90.057-9.994 8.508-32.716 15.272-44.637 6.924-12.132-8.515-4.247-27.986 0.119-38.611 12.941-31.493 105.8-137.08 28.841-150.34-19.369-3.337-46.063 2.76-61.283 15.075-28.713 23.232-43.95 69.245-51.513 104.16-11.896 54.925-11.222 115.93 2.057 170.56 29.35 120.72 98.33 159.5 98.33 159.5 29.833 9.82 67.138 14.662 98.065 8.115 36.355-7.695 79.833-34.607 97.812-68.183 5.818-10.861 12.282-29.873 0.872-39.581z" fill="url(#SVGID_00000148658217084173121400000004373205885225231752_)"/>
		
		
			
				
					<linearGradient id="SVGID_00000132791045432965338440000005987180976222655142_" x1="-2563.4" x2="-2294.1" y1="2031.9" y2="2450.8" gradientTransform="matrix(-.8887 -.4585 -.4585 .8887 590.13 -1679)" gradientUnits="userSpaceOnUse">
					<stop stop-color="#fff" offset=".0036"/>
					<stop stop-color="#F4F7FA" offset="1"/>
				</linearGradient>
				<polygon points="2195.2 806.89 1699.9 663.9 1311.8 2008.4 1807.1 2151.4" fill="url(#SVGID_00000132791045432965338440000005987180976222655142_)"/>
				
					<linearGradient id="SVGID_00000051376703236641455350000017302979180955617678_" x1="-1217.1" x2="-990.53" y1="2143.2" y2="3282" gradientTransform="matrix(-.9608 -.2774 -.2774 .9608 1453.4 -1723.5)" gradientUnits="userSpaceOnUse">
					<stop stop-color="#FFC444" offset="0"/>
					<stop stop-color="#F36F56" offset=".9964"/>
				</linearGradient>
				<polygon points="2125.5 850.34 1751.9 742.49 1686.6 968.69 2060.2 1076.5" fill="url(#SVGID_00000051376703236641455350000017302979180955617678_)"/>
				
					<linearGradient id="SVGID_00000135662514448338447660000004076093993256083636_" x1="-1288.3" x2="-1061.7" y1="2060.9" y2="3199.8" gradientTransform="matrix(-.9608 -.2774 -.2774 .9608 1453.4 -1723.5)" gradientUnits="userSpaceOnUse">
					<stop stop-color="#FFC444" offset="0"/>
					<stop stop-color="#F36F56" offset=".9964"/>
				</linearGradient>
				<polygon points="2049 1115.1 1675.4 1007.2 1610.1 1233.4 1983.7 1341.3" fill="url(#SVGID_00000135662514448338447660000004076093993256083636_)"/>
				
					<linearGradient id="SVGID_00000042000456873172928310000012372172918022041528_" x1="-1341.5" x2="-1114.9" y1="2069.3" y2="3208.1" gradientTransform="matrix(-.9608 -.2774 -.2774 .9608 1453.4 -1723.5)" gradientUnits="userSpaceOnUse">
					<stop stop-color="#FFC444" offset="0"/>
					<stop stop-color="#F36F56" offset=".9964"/>
				</linearGradient>
				<polygon points="1972.6 1379.8 1599 1272 1533.7 1498.2 1907.3 1606" fill="url(#SVGID_00000042000456873172928310000012372172918022041528_)"/>
				
					<linearGradient id="SVGID_00000065756245507186750460000013637156221384239252_" x1="-1378.9" x2="-1152.3" y1="2156.8" y2="3295.6" gradientTransform="matrix(-.9608 -.2774 -.2774 .9608 1453.4 -1723.5)" gradientUnits="userSpaceOnUse">
					<stop stop-color="#FFC444" offset="0"/>
					<stop stop-color="#F36F56" offset=".9964"/>
				</linearGradient>
				<polygon points="1896.2 1644.6 1522.6 1536.7 1457.3 1762.9 1830.9 1870.8" fill="url(#SVGID_00000065756245507186750460000013637156221384239252_)"/>
				<g opacity=".3">
					
						<linearGradient id="SVGID_00000119119264795971345740000007618530876945316785_" x1="-2056.7" x2="-2373" y1="1563" y2="2336.7" gradientTransform="matrix(-.8887 -.4585 -.4585 .8887 590.13 -1679)" gradientUnits="userSpaceOnUse">
						<stop stop-color="#FFC444" offset="0"/>
						<stop stop-color="#F36F56" offset=".9964"/>
					</linearGradient>
					<path d="m1699.9 663.9 263.3 76.012c-42.764 36.424-82.671 83.474-107.8 143.9-47.806 114.98-8.256 196.96-18.891 358.19-11.099 168.27-64.933 242.03-116.84 394.22-37.873 111.04-75.037 264.8-81.054 466.56l-326.87-94.364z" fill="url(#SVGID_00000119119264795971345740000007618530876945316785_)"/>
				</g>
			
			
				
					<linearGradient id="SVGID_00000051370038751462585860000002705118480279004076_" x1="-1910.7" x2="-2308.2" y1="1755.1" y2="2475.3" gradientTransform="matrix(-.8887 -.4585 -.4585 .8887 590.13 -1679)" gradientUnits="userSpaceOnUse">
					<stop stop-color="#fff" offset=".0036"/>
					<stop stop-color="#F4F7FA" offset="1"/>
				</linearGradient>
				<polygon points="1599.1 678.55 1096.2 792.26 1404.9 2157.2 1907.7 2043.5" fill="url(#SVGID_00000051370038751462585860000002705118480279004076_)"/>
				
					<linearGradient id="SVGID_00000167398552137308754370000001275566734388977548_" x1="3304.1" x2="3482.7" y1="2526.1" y2="3484.8" gradientTransform="matrix(-.9754 .2206 .2206 .9754 4052.7 -2496.8)" gradientUnits="userSpaceOnUse">
					<stop stop-color="#E38DDD" offset=".0036"/>
					<stop stop-color="#9571F6" offset="1"/>
				</linearGradient>
				<polygon points="1558.9 750.27 1179.6 836.03 1231.6 1065.7 1610.8 979.91" fill="url(#SVGID_00000167398552137308754370000001275566734388977548_)"/>
				
					<linearGradient id="SVGID_00000008864616704954850580000007005924621151281794_" x1="3254.5" x2="3433.1" y1="2535.4" y2="3494" gradientTransform="matrix(-.9754 .2206 .2206 .9754 4052.7 -2496.8)" gradientUnits="userSpaceOnUse">
					<stop stop-color="#E38DDD" offset=".0036"/>
					<stop stop-color="#9571F6" offset="1"/>
				</linearGradient>
				<polygon points="1619.7 1019 1240.4 1104.8 1292.4 1334.4 1671.6 1248.7" fill="url(#SVGID_00000008864616704954850580000007005924621151281794_)"/>
				
					<linearGradient id="SVGID_00000046335750515602219450000017022379560886571929_" x1="3204.9" x2="3383.5" y1="2544.6" y2="3503.3" gradientTransform="matrix(-.9754 .2206 .2206 .9754 4052.7 -2496.8)" gradientUnits="userSpaceOnUse">
					<stop stop-color="#E38DDD" offset=".0036"/>
					<stop stop-color="#9571F6" offset="1"/>
				</linearGradient>
				<polygon points="1680.5 1287.8 1301.2 1373.6 1353.1 1603.2 1732.4 1517.4" fill="url(#SVGID_00000046335750515602219450000017022379560886571929_)"/>
				
					<linearGradient id="SVGID_00000002346146828349367470000009509539696735454386_" x1="3122.6" x2="3301.1" y1="2378.2" y2="3336.9" gradientTransform="matrix(-.9754 .2206 .2206 .9754 4052.7 -2496.8)" gradientUnits="userSpaceOnUse">
					<stop stop-color="#E38DDD" offset=".0036"/>
					<stop stop-color="#9571F6" offset="1"/>
				</linearGradient>
				<polygon points="1741.2 1556.6 1362 1642.3 1413.9 1872 1793.2 1786.2" fill="url(#SVGID_00000002346146828349367470000009509539696735454386_)"/>
				<g opacity=".3">
					
						<linearGradient id="SVGID_00000027604082716891072480000004961241800438561455_" x1="-1825.8" x2="-2223.4" y1="1801.9" y2="2522.1" gradientTransform="matrix(-.8887 -.4585 -.4585 .8887 590.13 -1679)" gradientUnits="userSpaceOnUse">
						<stop stop-color="#E38DDD" offset=".0036"/>
						<stop stop-color="#9571F6" offset="1"/>
					</linearGradient>
					<path d="m1096.2 792.26 331.17-74.891c-37.523 83.457-39.841 148.63-32.888 196.15 19.533 133.52 117.93 167.41 169.3 329.04 48.168 151.56 2.245 249.49-4.739 372.71-6.643 117.23 20.986 274.67 156 471.81l-310.17 70.142z" fill="url(#SVGID_00000027604082716891072480000004961241800438561455_)"/>
				</g>
			
			
				
					<linearGradient id="SVGID_00000096744164318137378860000000096878064604580781_" x1="-2098.9" x2="-1975" y1="2378" y2="2835.4" gradientTransform="matrix(-.8887 -.4585 -.4585 .8887 590.13 -1679)" gradientUnits="userSpaceOnUse">
					<stop stop-color="#fff" offset=".0036"/>
					<stop stop-color="#F4F7FA" offset="1"/>
				</linearGradient>
				<polygon points="966.63 840.9 581.05 1183.1 1509.9 2229.8 1895.5 1887.6" fill="url(#SVGID_00000096744164318137378860000000096878064604580781_)"/>
				
					<linearGradient id="SVGID_00000005241633347695705020000012519597980138272178_" x1="7472" x2="7650.6" y1="769.61" y2="1728.3" gradientTransform="matrix(-.7479 .6638 .6638 .7479 5956.3 -4428.6)" gradientUnits="userSpaceOnUse">
					<stop stop-color="#FF9085" offset="0"/>
					<stop stop-color="#FB6FBB" offset="1"/>
				</linearGradient>
				<polygon points="966.07 923.08 675.24 1181.2 831.52 1357.3 1122.3 1099.2" fill="url(#SVGID_00000005241633347695705020000012519597980138272178_)"/>
				
					<linearGradient id="SVGID_00000018950515427048356590000008830293634392944041_" x1="7411.5" x2="7590.1" y1="720.13" y2="1678.8" gradientTransform="matrix(-.7479 .6638 .6638 .7479 5956.3 -4428.6)" gradientUnits="userSpaceOnUse">
					<stop stop-color="#FF9085" offset="0"/>
					<stop stop-color="#FB6FBB" offset="1"/>
				</linearGradient>
				<polygon points="1149 1129.2 858.14 1387.3 1014.4 1563.4 1305.2 1305.3" fill="url(#SVGID_00000018950515427048356590000008830293634392944041_)"/>
				
					<linearGradient id="SVGID_00000003804256667688558780000006818339473809917580_" x1="7355.5" x2="7534.1" y1="695.06" y2="1653.7" gradientTransform="matrix(-.7479 .6638 .6638 .7479 5956.3 -4428.6)" gradientUnits="userSpaceOnUse">
					<stop stop-color="#FF9085" offset="0"/>
					<stop stop-color="#FB6FBB" offset="1"/>
				</linearGradient>
				<polygon points="1331.9 1335.3 1041 1593.4 1197.3 1769.5 1488.2 1511.4" fill="url(#SVGID_00000003804256667688558780000006818339473809917580_)"/>
				
					<linearGradient id="SVGID_00000123414572628195739910000010808460483212494780_" x1="7295.1" x2="7473.7" y1="646.12" y2="1604.8" gradientTransform="matrix(-.7479 .6638 .6638 .7479 5956.3 -4428.6)" gradientUnits="userSpaceOnUse">
					<stop stop-color="#FF9085" offset="0"/>
					<stop stop-color="#FB6FBB" offset="1"/>
				</linearGradient>
				<polygon points="1514.8 1541.4 1223.9 1799.5 1380.2 1975.6 1671.1 1717.5" fill="url(#SVGID_00000123414572628195739910000010808460483212494780_)"/>
				<g opacity=".3">
					
						<linearGradient id="SVGID_00000126315974726930690570000015716100012680089521_" x1="-1579.5" x2="-1947.1" y1="2023.9" y2="2605.2" gradientTransform="matrix(-.8887 -.4585 -.4585 .8887 590.13 -1679)" gradientUnits="userSpaceOnUse">
						<stop stop-color="#FF9085" offset="0"/>
						<stop stop-color="#FB6FBB" offset="1"/>
					</linearGradient>
					<path d="m581.05 1183.1 247.46-219.61c-4.351 126.26 30.251 201.44 64.598 247.84 80.291 108.45 183.02 91.842 304.65 210.04 114.05 110.83 119.84 218.84 171.89 330.74 46.15 99.208 135.05 215.12 318.6 319.45l-178.3 158.24z" fill="url(#SVGID_00000126315974726930690570000015716100012680089521_)"/>
				</g>
			
			
				<linearGradient id="SVGID_00000116924369665313707560000012668422381894156968_" x1="-1252.9" x2="-1143.3" y1="3507.2" y2="3507.2" gradientTransform="matrix(-.9608 -.2774 -.2774 .9608 1453.4 -1723.5)" gradientUnits="userSpaceOnUse">
				<stop stop-color="#E38DDD" offset=".0036"/>
				<stop stop-color="#9571F6" offset="1"/>
			</linearGradient>
			
				<circle cx="1631.6" cy="1978.5" r="54.823" fill="url(#SVGID_00000116924369665313707560000012668422381894156968_)"/>
		
		
			
				
					
						<path d="m3279 2891.2-2703.1-23.365v69.134c0 18.764 11.79 34.719 27.757 37.563l764.36 136.14c9.071 1.615 18.27 2.044 27.423 1.278l1854.2-155.22c16.554-1.385 29.375-17.391 29.375-36.669z" fill="#bfc8d6"/>
						
							<path d="m2284.3 2780.5-1718 126.47c-30.743 2.263-55.739-21.784-55.739-53.718v-1279.4c0-31.933 24.996-57.821 55.739-57.821l60.78 35.032 1657.3-35.032c25.328 0 45.806 23.401 45.806 52.269v1156.5c0 28.867-20.479 53.776-45.807 55.641z" fill="#bfc8d6"/>
							<path d="m2311.7 2780.5-1718 126.47c-30.744 2.263-55.74-21.784-55.74-53.718v-1279.4c0-31.933 24.996-57.821 55.74-57.821h1718c25.328 0 45.806 23.401 45.806 52.269v1156.5c0 28.867-20.477 53.776-45.805 55.641z" fill="#fff"/>
							<path d="m2258.1 2698.9-1600.2 109.86c-25.018 1.717-45.349-18.02-45.349-44.09v-1120.1c0-26.069 20.331-47.291 45.349-47.399l1600.2-6.898c20.894-0.09 37.794 19.086 37.794 42.831v1020.2c0 23.743-16.9 44.153-37.794 45.587z" fill="#d8dee8"/>
							<path d="m1513.3 1551c0 11.888-8.843 21.552-19.762 21.587-10.933 0.035-19.805-9.596-19.805-21.51s8.872-21.579 19.805-21.588c10.92-0.01 19.762 9.622 19.762 21.511z" fill="#fff"/>
							<path d="m593.62 2906.9 1709.3-125.83 8.698-0.64c11.621-0.856 22.188-6.6 30.259-15.314-123.01-6.732-199.41-50.383-248.69-95.488-98.974-90.58-81.807-179.91-188.54-239.46-133.12-74.283-237.8 19.842-338.82-73.026-61.242-56.303-31.175-98.289-106.54-182.43-83.466-93.19-137.81-61.865-221.69-145.74-106.06-106.05-53.017-188.56-144.38-264.7-110.83-92.37-230.36-6.876-335.86-95.462-45.505-38.207-70.474-93.754-83.512-152.83h-80.271c-30.744 0-55.74 25.888-55.74 57.821v1279.4c0 31.931 24.992 55.977 55.734 53.718z" fill="#fff" opacity=".48"/>
						
						
							<linearGradient id="SVGID_00000117671425721160445960000006397512079384088193_" x1="575.92" x2="3279" y1="2911.2" y2="2911.2" gradientUnits="userSpaceOnUse">
							<stop stop-color="#EBEFF2" offset=".494"/>
							<stop stop-color="#fff" offset="1"/>
						</linearGradient>
						<path d="m2392.6 2773.4-1816.7 133.12 792.11 141.08c9.071 1.615 18.27 2.045 27.423 1.278l1883.6-157.68-857.5-116.9c-9.59-1.308-19.262-1.611-28.899-0.905z" fill="url(#SVGID_00000117671425721160445960000006397512079384088193_)"/>
						<polygon points="2821.5 2858.5 1322.1 2978.8 841 2907.7 2353.5 2795.2" fill="#d8dee8"/>
					
				
				<path d="m1361.3 2385.7v-377.79c0-24.252 20.535-39.391 38.275-28.255l316.37 198.6c19.732 12.387 19.732 47.47 0 58.658l-316.37 179.37c-17.74 10.057-38.275-6.331-38.275-30.582z" fill="#fff"/>
			
			
				
					
						
							<linearGradient id="SVGID_00000026842310795413843920000003520073312421728948_" x1="1722.1" x2="1274.9" y1="1253.3" y2="3134.1" gradientUnits="userSpaceOnUse">
							<stop stop-color="#E38DDD" offset=".0036"/>
							<stop stop-color="#9571F6" offset="1"/>
						</linearGradient>
						<path d="m2402.2 2575.4c0 39.129-28.99 72.508-64.881 74.56l-1568.2 89.686c-42.64 2.439-77.345-30.342-77.345-73.227v-1262c0-42.885 34.704-77.117 77.345-76.461l1568.2 24.126c35.891 0.552 64.881 32.719 64.881 71.848z" fill="url(#SVGID_00000026842310795413843920000003520073312421728948_)"/>
						<path d="m2359.9 2544c0 36.963-26.957 68.439-60.93 70.31l-1478.1 81.396c-39.965 2.201-72.845-28.677-72.845-68.976v-1180.9c0-40.299 33.119-72.543 73.084-72.02l1477.6 19.311c33.973 0.444 61.229 30.772 61.229 67.735z" fill="#fff" opacity=".3"/>
						
							<linearGradient id="SVGID_00000160892516988654531610000016947690448196756920_" x1="1642.1" x2="1512.4" y1="1041.4" y2="1586.9" gradientUnits="userSpaceOnUse">
							<stop stop-color="#E38DDD" offset=".0036"/>
							<stop stop-color="#9571F6" offset="1"/>
						</linearGradient>
						<path d="m2402.2 1426.9v57.779l-1710.4-13.685v-63.326c0-42.885 36.899-80.309 79.53-79.653l1567.9 24.121c35.886 0.553 63.019 35.634 63.019 74.764z" fill="url(#SVGID_00000160892516988654531610000016947690448196756920_)"/>
						<g fill="#fff">
							<path d="m812.14 1402.7c0 16.54-13.335 29.815-29.809 29.65-16.503-0.165-29.901-13.749-29.901-30.34s13.398-29.865 29.901-29.648c16.475 0.215 29.809 13.798 29.809 30.338z"/>
							<path d="m902.58 1403.8c0 16.463-13.211 29.676-29.532 29.513-16.349-0.164-29.622-13.684-29.622-30.197s13.274-29.726 29.622-29.512c16.322 0.214 29.532 13.733 29.532 30.196z"/>
							<path d="m992.17 1404.8c0 16.386-13.089 29.539-29.258 29.377-16.197-0.162-29.348-13.619-29.348-30.055s13.151-29.589 29.348-29.376c16.169 0.212 29.258 13.667 29.258 30.054z"/>
						</g>
					
					<g fill="#fff" opacity=".9">
						<polygon points="804.36 1549.7 1230.2 1551.4 1230.2 2597.2 804.36 2618.9"/>
						<polygon points="1265.4 1551.5 2324.8 1555.8 2324.8 1857.8 1265.4 1871.4"/>
						<polygon points="1265.4 1919.4 1698.3 1912.7 1698.3 2225.3 1265.4 2239.3"/>
						<polygon points="1265.4 2275.3 1698.3 2260.5 1698.3 2573.1 1265.4 2595.2"/>
						<polygon points="1747.6 1912 2324.8 1903.1 2324.8 2541.3 1747.6 2570.6"/>
					</g>
				
				
					
						<linearGradient id="SVGID_00000122681127742075741500000005076832679351244988_" x1="1956.4" x2="2063.5" y1="1741.8" y2="2501.5" gradientUnits="userSpaceOnUse">
						<stop stop-color="#E38DDD" offset=".0036"/>
						<stop stop-color="#9571F6" offset="1"/>
					</linearGradient>
					<path d="m2215.9 2315.3-87.522-128.58c-0.881-1.294-2.364-2.057-3.948-2.031-1.584 0.025-3.059 0.836-3.924 2.158l-49.542 75.777-82.651-121.48c-0.883-1.298-2.375-2.065-3.972-2.042s-3.084 0.834-3.96 2.158l-119.88 181.27c-0.974 1.473-1.06 3.94-0.22 5.456 0.838 1.516 2.465 3.042 4.235 3.005l347.54-7.161c1.731-0.036 3.309-1.61 4.115-3.142s0.703-3.967-0.261-5.385z" fill="url(#SVGID_00000122681127742075741500000005076832679351244988_)"/>
					
						<linearGradient id="SVGID_00000103977902821463199580000003794311607693879449_" x1="2057.1" x2="2168.6" y1="1706.3" y2="2496.9" gradientUnits="userSpaceOnUse">
						<stop stop-color="#E38DDD" offset=".0036"/>
						<stop stop-color="#9571F6" offset="1"/>
					</linearGradient>
					<path d="m2150.7 2105c0.155 21.868-16.402 39.86-37.005 40.167-20.63 0.307-37.468-17.232-37.584-39.152-0.115-21.897 16.503-39.837 37.094-40.091 20.564-0.254 37.34 17.232 37.495 39.076z" fill="url(#SVGID_00000103977902821463199580000003794311607693879449_)"/>
				
				
					<linearGradient id="SVGID_00000168795269315743307700000001302309326093628825_" x1="1075" x2="927.17" y1="1437.7" y2="2013" gradientUnits="userSpaceOnUse">
					<stop stop-color="#E38DDD" offset=".0036"/>
					<stop stop-color="#9571F6" offset="1"/>
				</linearGradient>
				<path d="m1180.9 1655.8c0 22.127-19.047 40.118-40.688 40.196l-243 0.877c-22.246 0.08-40.096-18.095-40.096-40.597v-0.225c0-22.502 17.077-40.738 39.323-40.724l244.27 0.157c21.64 0.013 40.192 17.968 40.192 40.095v0.221z" fill="url(#SVGID_00000168795269315743307700000001302309326093628825_)"/>
				
					<linearGradient id="SVGID_00000073704330555671403220000005046956934875715984_" x1="1613.8" x2="1618" y1="2164" y2="2193.9" gradientUnits="userSpaceOnUse">
					<stop stop-color="#E38DDD" offset=".0036"/>
					<stop stop-color="#9571F6" offset="1"/>
				</linearGradient>
				<path d="m1673.9 2177.3c0 5.403-4.16 9.908-9.295 10.063l-97.222 2.935c-5.191 0.157-9.402-4.123-9.402-9.56 0-5.436 4.211-9.966 9.402-10.117l97.222-2.832c5.135-0.15 9.295 4.109 9.295 9.511z" fill="url(#SVGID_00000073704330555671403220000005046956934875715984_)"/>
				
					<linearGradient id="SVGID_00000142866760335144202450000004023731798898920601_" x1="1613.9" x2="1617.9" y1="2514.2" y2="2542.4" gradientUnits="userSpaceOnUse">
					<stop stop-color="#E38DDD" offset=".0036"/>
					<stop stop-color="#9571F6" offset="1"/>
				</linearGradient>
				<path d="m1673.9 2525.5c0 5.403-4.16 9.986-9.295 10.237l-97.222 4.76c-5.191 0.254-9.402-3.947-9.402-9.383s4.211-10.045 9.402-10.294l97.222-4.657c5.135-0.246 9.295 3.934 9.295 9.337z" fill="url(#SVGID_00000142866760335144202450000004023731798898920601_)"/>
				
					
						<linearGradient id="SVGID_00000158751354770724538960000005034608595654730400_" x1="2157.4" x2="2161.7" y1="1801.8" y2="1832.2" gradientUnits="userSpaceOnUse">
						<stop stop-color="#E38DDD" offset=".0036"/>
						<stop stop-color="#9571F6" offset="1"/>
					</linearGradient>
					<path d="m2173.8 1816.8c0 8.478-6.353 15.422-14.197 15.511-7.85 0.089-14.219-6.722-14.219-15.213s6.369-15.436 14.219-15.512c7.843-0.074 14.197 6.737 14.197 15.214z" fill="url(#SVGID_00000158751354770724538960000005034608595654730400_)"/>
					
						<linearGradient id="SVGID_00000020361363199326213260000011391225165001703594_" x1="2203.1" x2="2207.4" y1="1801.4" y2="1831.6" gradientUnits="userSpaceOnUse">
						<stop stop-color="#E38DDD" offset=".0036"/>
						<stop stop-color="#9571F6" offset="1"/>
					</linearGradient>
					<path d="m2219.4 1816.4c0 8.456-6.321 15.383-14.125 15.472-7.811 0.089-14.147-6.705-14.147-15.175 0-8.469 6.336-15.397 14.147-15.472 7.804-0.075 14.125 6.719 14.125 15.175z" fill="url(#SVGID_00000020361363199326213260000011391225165001703594_)"/>
					
						<linearGradient id="SVGID_00000103980492544147749220000016684343763034304902_" x1="2248.6" x2="2252.9" y1="1800.9" y2="1831.1" gradientUnits="userSpaceOnUse">
						<stop stop-color="#E38DDD" offset=".0036"/>
						<stop stop-color="#9571F6" offset="1"/>
					</linearGradient>
					<path d="m2264.8 1815.9c0 8.435-6.289 15.344-14.053 15.432-7.771 0.088-14.076-6.689-14.076-15.137s6.305-15.358 14.076-15.433c7.764-0.074 14.053 6.703 14.053 15.138z" fill="url(#SVGID_00000103980492544147749220000016684343763034304902_)"/>
				
				
					<linearGradient id="SVGID_00000054252334711999900660000013342618272165302662_" x1="4221.6" x2="3854.8" y1="-2722.5" y2="-1295.4" gradientTransform="rotate(90,533.5,-1695.5)" gradientUnits="userSpaceOnUse">
					<stop stop-color="#E38DDD" offset=".0036"/>
					<stop stop-color="#9571F6" offset="1"/>
				</linearGradient>
				<path d="m1177.4 1760.3c0-8.966-8.832-16.2-17.587-16.146l-282.67 1.733c-9.025 0.055-16.491 7.488-16.491 16.603v183.48c0 9.114 6.593 16.373 15.618 16.216l283.91-4.887c8.755-0.151 17.224-7.537 17.224-16.503z" fill="url(#SVGID_00000054252334711999900660000013342618272165302662_)"/>
				
					<linearGradient id="SVGID_00000183957422819608793920000006491524094748592020_" x1="1077.6" x2="923.06" y1="1905.9" y2="2507.1" gradientUnits="userSpaceOnUse">
					<stop stop-color="#E38DDD" offset=".0036"/>
					<stop stop-color="#9571F6" offset="1"/>
				</linearGradient>
				<path d="m1180.9 2129.8c0 22.127-19.047 40.558-40.688 41.175l-243 6.932c-22.246 0.634-40.096-17.092-40.096-39.594v-0.225c0-22.502 17.077-41.185 39.323-41.726l244.27-5.901c21.64-0.525 40.192 16.991 40.192 39.117v0.222z" fill="url(#SVGID_00000183957422819608793920000006491524094748592020_)"/>
				
					<linearGradient id="SVGID_00000107587780084849987510000001840850538406972314_" x1="4698.9" x2="4334.1" y1="-2719.6" y2="-1300.3" gradientTransform="rotate(90,533.5,-1695.5)" gradientUnits="userSpaceOnUse">
					<stop stop-color="#E38DDD" offset=".0036"/>
					<stop stop-color="#9571F6" offset="1"/>
				</linearGradient>
				<path d="m1177.4 2234.4c0-8.966-8.832-16.019-17.587-15.747l-282.67 8.766c-9.025 0.28-16.491 7.896-16.491 17.01v183.48c0 9.114 6.593 16.192 15.618 15.812l283.91-11.924c8.755-0.37 17.224-7.935 17.224-16.901z" fill="url(#SVGID_00000107587780084849987510000001840850538406972314_)"/>
			
		
		
			
				<linearGradient id="SVGID_00000054964678874883416330000003390612499766828727_" x1="2636.9" x2="2367.9" y1="1779" y2="3068.5" gradientTransform="matrix(-1 0 0 1 5316.6 0)" gradientUnits="userSpaceOnUse">
				<stop stop-color="#AA80F9" offset="0"/>
				<stop stop-color="#6165D7" offset=".9964"/>
			</linearGradient>
			<path d="m2619.7 2148.7c-23.399-24.983 41.378-118.84 76.049-159.96 30.289-35.928 61.421-72.857 99.65-68.182 33.565 4.105 66.225 39.502 68.182 73.427 5.263 91.264-210.62 190.24-243.88 154.72z" fill="url(#SVGID_00000054964678874883416330000003390612499766828727_)"/>
			
				<linearGradient id="SVGID_00000174576884299616538460000003571795967153642401_" x1="-193.26" x2="-112.71" y1="3167.7" y2="3167.7" gradientTransform="matrix(.9996 .0289 -.0289 .9996 3110.9 -31.239)" gradientUnits="userSpaceOnUse">
				<stop stop-color="#311944" offset="0"/>
				<stop stop-color="#893976" offset="1"/>
			</linearGradient>
			<path d="m2900.6 3113.2c4.405 3.58 5.215 12.521 5.743 18.366 0.238 2.611 0.355 3.917 0.064 4.838-2.128 6.726-15.173 7.434-35.629 9.524-32.327 3.303-41.947 5.847-44.477 1.037-2.371-4.508 3.367-11.89 4.013-12.704 3.473-4.375 7.737-5.967 15.979-8.68 15.251-5.02 25.556-7.769 28.677-8.601 19.482-5.201 22.737-6.131 25.63-3.78z" fill="url(#SVGID_00000174576884299616538460000003571795967153642401_)"/>
			
				<linearGradient id="SVGID_00000072271513874137226570000010838845926822992022_" x1="2878.2" x2="2907.1" y1="3104.2" y2="3104.2" gradientUnits="userSpaceOnUse">
				<stop stop-color="#FFC444" offset="0"/>
				<stop stop-color="#F36F56" offset=".9964"/>
			</linearGradient>
			<path d="m2881.4 3083.6-3.235 36.838c0.919 1.779 11.868 7.115 20.565 2.539l8.312-36.21z" fill="url(#SVGID_00000072271513874137226570000010838845926822992022_)"/>
			
				<linearGradient id="SVGID_00000101101746523515176690000003644744675862284196_" x1="366.7" x2="452.28" y1="3442.4" y2="3442.4" gradientTransform="matrix(.9642 .2651 -.2651 .9642 3123.8 -308.92)" gradientUnits="userSpaceOnUse">
				<stop stop-color="#311944" offset="0"/>
				<stop stop-color="#893976" offset="1"/>
			</linearGradient>
			<path d="m2644.3 3108.4c5.279 5.83 6.482 16.565 1.892 21.854-4.512 5.2-11.298 1.3-30.541 1.874-20.613 0.616-25.995 5.484-40.002 1.619-5.659-1.564-15.653-5.358-15.463-9.399 0.133-2.842 5.221-4.309 22.216-10.003 24.123-8.08 24.017-8.522 29.139-9.371 12.867-2.13 25.787-4.271 32.759 3.426z" fill="url(#SVGID_00000101101746523515176690000003644744675862284196_)"/>
			
				<linearGradient id="SVGID_00000038398356962862889810000009883675551317175435_" x1="2620.7" x2="2656.4" y1="3094.7" y2="3094.7" gradientUnits="userSpaceOnUse">
				<stop stop-color="#FFC444" offset="0"/>
				<stop stop-color="#F36F56" offset=".9964"/>
			</linearGradient>
			<path d="m2631.1 3074.8-10.338 34.39c0.781 1.845 11.291 7.998 20.311 4.1l15.354-33.378z" fill="url(#SVGID_00000038398356962862889810000009883675551317175435_)"/>
			
				<linearGradient id="SVGID_00000019675215919915542830000015127322875042422187_" x1="2723.7" x2="2495.5" y1="2968.2" y2="2453.6" gradientTransform="matrix(-1 0 0 1 5316.6 0)" gradientUnits="userSpaceOnUse">
				<stop stop-color="#311944" offset="0"/>
				<stop stop-color="#893976" offset="1"/>
			</linearGradient>
			<path d="m2722.9 2321.6c-1.481 115.58-9.368 245.53-28.292 386.71-18.703 139.54-44.913 265.62-73.504 376.49 13.191 3.549 26.381 7.098 39.571 10.646 33.465-31.204 75.68-80.324 96.05-149.74 12.642-43.083 8.429-65.222 16.448-118.21 12.769-84.374 38.633-128.58 65.365-196.62 24.022-61.14 52.417-150.87 67.641-270.81-61.093-12.821-122.19-25.644-183.28-38.465z" fill="url(#SVGID_00000019675215919915542830000015127322875042422187_)"/>
			
				<linearGradient id="SVGID_00000082370403826582762710000000055568088157309848_" x1="2156.2" x2="1928" y1="3172.3" y2="2657.8" gradientTransform="matrix(-.9925 -.1225 -.1225 .9925 5233.6 108.12)" gradientUnits="userSpaceOnUse">
				<stop stop-color="#311944" offset="0"/>
				<stop stop-color="#893976" offset="1"/>
			</linearGradient>
			<path d="m2842 2310.6c8.073 146.99 14.713 296.72 19.745 449.1 3.777 114.35 6.55 227.24 8.392 338.65 13.473 1.663 26.947 3.328 40.422 4.99 13.019-24.24 30.312-61.299 42.158-108.8 14.387-57.689 11.056-91.948 17.365-151.74 7.08-67.06 17.362-81.669 35.579-166.26 36.972-171.68 55.459-257.52 14.216-310.92-13.386-17.334-55.357-60.82-177.88-55.02z" fill="url(#SVGID_00000082370403826582762710000000055568088157309848_)"/>
			
				<linearGradient id="SVGID_00000119110906989486394860000017209810372308158638_" x1="2543.7" x2="2274.8" y1="1759.6" y2="3049.1" gradientTransform="matrix(-1 0 0 1 5316.6 0)" gradientUnits="userSpaceOnUse">
				<stop stop-color="#AA80F9" offset="0"/>
				<stop stop-color="#6165D7" offset=".9964"/>
			</linearGradient>
			<path d="m3038.4 1941.2c-31.554-8.873-77.799-19.25-134.44-22.451-80.778-4.566-121.17-6.849-149.79 12.387-66.104 44.429-14.926 146.97-41.985 401.16-3.864 36.3-4.731 72.859-7.529 109.26-4.634 60.265-5.689 63.536-1.496 69.644 26.295 38.294 124.4-19.466 268.19 3.366 80.455 12.775 116.94 42.208 138.99 20.979 25.705-24.756 3.656-91.343-15.324-148.66-21.787-65.796-35.246-66.643-47.613-116.2-12.926-51.793-5.108-78.46-3.095-160.13 0.963-39.08 0.758-97.239-5.914-169.35z" fill="url(#SVGID_00000119110906989486394860000017209810372308158638_)"/>
			
				
					<linearGradient id="SVGID_00000116924331881244556260000006325958430264089012_" x1="2312.4" x2="2414.5" y1="2862.4" y2="2377.6" gradientTransform="matrix(-1 0 0 1 5316.6 0)" gradientUnits="userSpaceOnUse">
					<stop stop-color="#AA80F9" offset="0"/>
					<stop stop-color="#6165D7" offset=".9964"/>
				</linearGradient>
				<path d="m2842.8 2418.4c37.583-2.941 61.964 18.307 94.406 1.748 44.486-22.706 58.779-93.354 55.944-143.36-4.307-75.971-47.688-95.997-40.21-145.1 4.044-26.557 23.005-61.816 91.082-97.838 0.908 30.318 0.735 56.16 0.229 76.69-2.013 81.674-9.832 108.34 3.095 160.13 12.367 49.552 25.826 50.399 47.613 116.2 18.98 57.321 41.03 123.91 15.324 148.66-22.042 21.229-58.531-8.204-138.99-20.979-123.9-19.674-213.83 20.438-253.18 7.429 47.545-78.569 90.67-100.92 124.68-103.58z" fill="url(#SVGID_00000116924331881244556260000006325958430264089012_)"/>
			
			
				<linearGradient id="SVGID_00000039115311305932870670000012363038748405972137_" x1="2359.5" x2="2090.6" y1="1721.2" y2="3010.7" gradientTransform="matrix(-1 0 0 1 5316.6 0)" gradientUnits="userSpaceOnUse">
				<stop stop-color="#AA80F9" offset="0"/>
				<stop stop-color="#6165D7" offset=".9964"/>
			</linearGradient>
			<path d="m2987.1 1946.4c26.841-22.055 80.812 2.911 95.239 9.584 80.454 37.214 152.69 137.5 134.79 243.48-2.684 15.895-15.131 90.237-78.082 126.26-56.801 32.502-133.5 24.143-194.95-21.891-8.397-7.453-16.797-14.903-25.196-22.355-8.261-8.93-16.526-17.861-24.787-26.792 12.988-10.803 35.055-26.388 66.047-36.388 40.861-13.185 70.608 10.474 89.567-7.513 13.084-12.413 13.113-34.338 9.883-47.626-6.512-26.781-30.12-34.313-49.825-53.322-46.294-44.662-54.824-137.02-22.686-163.43z" fill="url(#SVGID_00000039115311305932870670000012363038748405972137_)"/>
			
				
					<linearGradient id="SVGID_00000165221149668915493090000010837023085458270602_" x1="2588.8" x2="2545.3" y1="2441.1" y2="2317.8" gradientTransform="matrix(-1 0 0 1 5316.6 0)" gradientUnits="userSpaceOnUse">
					<stop stop-color="#444B8C" offset="0"/>
					<stop stop-color="#26264F" offset=".9964"/>
				</linearGradient>
				<polygon points="2865.5 2333.1 2600.4 2315.8 2601.4 2292.3 2961.1 2287" fill="url(#SVGID_00000165221149668915493090000010837023085458270602_)"/>
				
					<linearGradient id="SVGID_00000072962650831624747250000002243987620930396561_" x1="2398.7" x2="2414.6" y1="2262.4" y2="2372.7" gradientTransform="matrix(-1 0 0 1 5316.6 0)" gradientUnits="userSpaceOnUse">
					<stop stop-color="#444B8C" offset="0"/>
					<stop stop-color="#26264F" offset=".9964"/>
				</linearGradient>
				<path d="m2973.8 2296.5c0 6.733-4.213 12.747-10.541 15.048l-114.96 45.068-0.524-31.245 113.33-38.434c6.36-1.827 12.697 2.947 12.697 9.562z" fill="url(#SVGID_00000072962650831624747250000002243987620930396561_)"/>
			
			
				<linearGradient id="SVGID_00000127016136380709840230000017406999700739814300_" x1="2828.5" x2="2918.7" y1="2279.7" y2="2279.7" gradientUnits="userSpaceOnUse">
				<stop stop-color="#FFC444" offset="0"/>
				<stop stop-color="#F36F56" offset=".9964"/>
			</linearGradient>
			<path d="m2918.4 2275.2c2.208-0.493-10.757-26.326-20.936-23.345-10.176 2.982-59.956 31.831-64.481 43.71l-4.525 11.878s21.715 1.698 35.181-2.827c13.468-4.525 36.806-25.412 54.761-29.416z" fill="url(#SVGID_00000127016136380709840230000017406999700739814300_)"/>
			
				
					
						<linearGradient id="SVGID_00000093149566597733340010000009751183282590297511_" x1="2714.9" x2="2630" y1="2272.1" y2="2151.6" gradientTransform="matrix(-1 0 0 1 5316.6 0)" gradientUnits="userSpaceOnUse">
						<stop stop-color="#444B8C" offset="0"/>
						<stop stop-color="#26264F" offset=".9964"/>
					</linearGradient>
					<path d="m2838.3 2106.2 25.36 230.9c0.875 7.967-10.279 19.837-18.285 19.458l-372.03-22.839c-6.113-0.291-11.203-4.79-12.238-10.821l-46.694-223.01c-1.393-8.115 13.195-16.497 21.427-16.268l389.86 10.962c6.51 0.185 11.886 5.142 12.596 11.617z" fill="url(#SVGID_00000093149566597733340010000009751183282590297511_)"/>
					
						<linearGradient id="SVGID_00000155143764728898612500000017198873279067232698_" x1="2552.1" x2="2737.8" y1="2471.5" y2="2094.3" gradientTransform="matrix(-1 0 0 1 5316.6 0)" gradientUnits="userSpaceOnUse">
						<stop stop-color="#444B8C" offset="0"/>
						<stop stop-color="#26264F" offset=".9964"/>
					</linearGradient>
					<path d="m2829.8 2112.9 25.36 230.9c0.875 7.967-5.575 14.83-13.582 14.453l-376.73-17.835c-6.112-0.29-11.202-4.79-12.238-10.82l-38.489-224.03c-1.394-8.117 4.99-15.479 13.221-15.247l389.86 10.962c6.511 0.182 11.89 5.141 12.599 11.614z" fill="url(#SVGID_00000155143764728898612500000017198873279067232698_)"/>
				
				
					<linearGradient id="SVGID_00000108267305059209929780000013086542059062249882_" x1="2461.4" x2="2869.3" y1="2229.4" y2="2229.4" gradientTransform="matrix(-1 0 0 1 5316.6 0)" gradientUnits="userSpaceOnUse">
					<stop stop-color="#444B8C" offset="0"/>
					<stop stop-color="#26264F" offset=".9964"/>
				</linearGradient>
				<path d="m2608.5 2286.3c32.895-13.942 21.284-40.529 60.129-73.658 51.245-43.705 103.48-24.751 121.76-58.626 5.694-10.551 8.414-26.968-1.505-53.539l28.231 0.794c6.51 0.181 11.889 5.14 12.598 11.614l25.36 230.9c0.874 7.966-5.577 14.83-13.582 14.453l-376.73-17.835c-6.112-0.29-11.202-4.788-12.238-10.82l-5.311-30.914c11.43-6.361 25.09-12.145 41.027-15.378 55.271-11.212 82.388 19.056 120.26 3.005z" fill="url(#SVGID_00000108267305059209929780000013086542059062249882_)" opacity=".3"/>
			
			
				<linearGradient id="SVGID_00000017497961027787783300000004822441709705654207_" x1="2440.9" x2="2501.8" y1="2325.9" y2="2325.9" gradientUnits="userSpaceOnUse">
				<stop stop-color="#FFC444" offset="0"/>
				<stop stop-color="#F36F56" offset=".9964"/>
			</linearGradient>
			<path d="m2441.1 2308.1c-0.613-1.86 0.686-3.776 2.642-3.876 7.962-0.406 26.429-0.571 36.624 5.672 13.243 8.112 30.367 22.915 15.947 30.384l-13.465 6.976c-0.618 0.321-1.292 0.42-1.971 0.271-4.785-1.052-24.923-5.52-27.126-6.629-2.006-1.009-9.684-23.796-12.651-32.798z" fill="url(#SVGID_00000017497961027787783300000004822441709705654207_)"/>
			
				
					<linearGradient id="SVGID_00000018221820735631110150000012058605444223137931_" x1="2815.1" x2="2976.5" y1="1897.9" y2="1897.9" gradientUnits="userSpaceOnUse">
					<stop stop-color="#FFC444" offset="0"/>
					<stop stop-color="#F36F56" offset=".9964"/>
				</linearGradient>
				<path d="m2897.9 1830.4c-0.201 23.948 2.471 42.94 4.999 55.946 2.895 14.902 4.981 18.752 7.644 21.876 4.008 4.702 10.081 8.647 44.397 17.157 18.674 4.629 21.076 4.503 21.489 6.356 2.011 9.04-48.909 39.851-101.52 32.425-32.197-4.544-61.491-22.913-59.693-32.559 1.81-9.707 33.971-4.499 43.556-22.061 6.668-12.218-0.806-29.562-9.642-43.926 8.559-16.034 40.21-19.18 48.767-35.214z" fill="url(#SVGID_00000018221820735631110150000012058605444223137931_)"/>
				
					
						<linearGradient id="SVGID_00000033335471912083197130000011204836645907070608_" x1="3484.7" x2="3574.6" y1="1424.4" y2="1424.4" gradientTransform="matrix(.9816 .1911 -.1911 .9816 -313.78 -233.51)" gradientUnits="userSpaceOnUse">
						<stop stop-color="#26264F" offset=".0036"/>
						<stop stop-color="#444B8C" offset="1"/>
					</linearGradient>
					<path d="m2840.1 1832.6c-5.529-11.36-2.621-28.746 8.102-38.006 9.228-7.968 21.127-7.043 28.251-6.492 20.644 1.601 44.477 14.99 49.72 35.297 3.106 12.035-12.708 32.704-15.287 36.472-2.92 4.259-6.882 5.143-10.945 8.002-5.631 3.965-14.47 10.294-28.958 20.934-0.184-4.008-0.675-9.021-1.92-14.594-0.479-2.145-2.447-10.541-6.453-17.965-8.023-14.882-17.268-12.882-22.51-23.648z" fill="url(#SVGID_00000033335471912083197130000011204836645907070608_)"/>
					
						<linearGradient id="SVGID_00000113346942292779243580000008433844714947645063_" x1="3487" x2="3565" y1="1448.3" y2="1448.3" gradientTransform="matrix(.9816 .1911 -.1911 .9816 -313.78 -233.51)" gradientUnits="userSpaceOnUse">
						<stop stop-color="#FFC444" offset="0"/>
						<stop stop-color="#F36F56" offset=".9964"/>
					</linearGradient>
					<path d="m2890.2 1881.2s-17.513 19.19-43.605 12.325c-23.361-6.148-16.493-59.883 0.812-68.2 5.774-2.774 16.175-2.368 23.937 1.532 4.584 2.304 5.835 4.638 13.399 8.255 6.978 3.339 9.211 2.928 11.067 5.226 2.319 2.876 3.237 8.996-4.417 23.606 5.405-3.691 11.164-4.39 14.651-1.83 0.555 0.41 1.965 1.83 2.553 3.683 2.128 6.705-4.914 13.367-18.397 15.403z" fill="url(#SVGID_00000113346942292779243580000008433844714947645063_)"/>
					
						<linearGradient id="SVGID_00000049940146139345221790000010325741959449884346_" x1="3486.2" x2="3563.9" y1="1454.2" y2="1454.2" gradientTransform="matrix(.9816 .1911 -.1911 .9816 -313.78 -233.51)" gradientUnits="userSpaceOnUse">
						<stop stop-color="#26264F" offset=".0036"/>
						<stop stop-color="#444B8C" offset="1"/>
					</linearGradient>
					<path d="m2897.5 1837.3c-1.307 0.629 1.353 5.565 0.438 11.641-1.771 11.794-16.344 23.528-28.652 22.367-7.277-0.687-8.401-5.373-19.962-8.918-7.157-2.195-13.422-2.45-17.412-2.359-6.207 12.106-5.208 25.574 2.211 33.177 7.986 8.186 20.533 6.607 25.778 5.946 3.509-0.442 14.749-1.836 22.16-10.451 7.721-8.979 3.259-16.166 11.191-21.711 4.001-2.797 8.666-3.438 14.223-9.278 1.509-1.588 2.593-3.04 3.275-4.026-4.845-7.659-11.358-17.299-13.25-16.388z" fill="url(#SVGID_00000049940146139345221790000010325741959449884346_)"/>
					
						<linearGradient id="SVGID_00000076579081233992209930000003384624046045900458_" x1="3494.5" x2="3511.6" y1="1461.7" y2="1461.7" gradientTransform="matrix(.9816 .1911 -.1911 .9816 -313.78 -233.51)" gradientUnits="userSpaceOnUse">
						<stop stop-color="#FFC444" offset="0"/>
						<stop stop-color="#F36F56" offset=".9964"/>
					</linearGradient>
					<path d="m2839.6 1866.5s4.591 3.665 13.517 4.888c0.434 0.058 0.884 0.277 0.895 0.51 0.04 0.877-6.356 3.53-11.291 1.047-3.503-1.765-5.703-5.834-5.031-6.63 0.285-0.335 1.114-0.122 1.91 0.185z" fill="url(#SVGID_00000076579081233992209930000003384624046045900458_)"/>
				
			
		
		
			
				<linearGradient id="SVGID_00000152232757853024795630000009918102109349263273_" x1="1747.5" x2="1834.3" y1="2359.5" y2="2012.2" gradientTransform="matrix(-1 0 0 1 2497.4 0)" gradientUnits="userSpaceOnUse">
				<stop stop-color="#FF9085" offset="0"/>
				<stop stop-color="#FB6FBB" offset="1"/>
			</linearGradient>
			<path d="m694.62 2013.8c-6.589 2.49-107.08 42.454-127.74 147.34-1.668 8.473-17.813 98.584 43.297 162.24 68.525 71.382 200.47 69.613 252.85 9.938 12.214-13.916 18.657-29.34 22.266-42.299l-13.8-36.663c-16.838-20.328-39.765-25.145-52.009-28.163-30.185-7.439-52.975 6.006-70.262-8.551-9.565-8.052-11.466-19.644-13.164-29.999-5.781-35.268 14.124-56.977 15.573-78.726 1.083-16.259 6.774-51.883-14.447-75.114-13.436-14.71-32.049-18.715-42.568-20.003z" fill="url(#SVGID_00000152232757853024795630000009918102109349263273_)"/>
			
				<linearGradient id="SVGID_00000060745251759026351830000001902162046336708282_" x1="1500.2" x2="1541.3" y1="3198.4" y2="3235.1" gradientTransform="matrix(-.9902 -.14 -.14 .9902 2600.3 206.94)" gradientUnits="userSpaceOnUse">
				<stop stop-color="#444B8C" offset="0"/>
				<stop stop-color="#26264F" offset=".9964"/>
			</linearGradient>
			<path d="m655.46 3182.6c-1.172-6.457-22.024-12.301-32.348-3.653-5.127 4.293-8.657 12.999-5.691 16.93 1.079 1.43-3.341 3.946 0.894 3.995 14.047 0.164 38.311-10.856 37.145-17.272z" fill="url(#SVGID_00000060745251759026351830000001902162046336708282_)"/>
			
				<linearGradient id="SVGID_00000161613594720761527780000011267353777475434141_" x1="614.56" x2="614.56" y1="3235.1" y2="3163.4" gradientTransform="matrix(-.9902 -.14 -.14 .9902 1684.1 77.422)" gradientUnits="userSpaceOnUse">
				<stop stop-color="#FFC444" offset="0"/>
				<stop stop-color="#F36F56" offset=".9964"/>
			</linearGradient>
			<path d="m633.61 3185-21.444-3.031c9.935-11.962 8.095-50.054 8.095-50.054l22.806 5.09s-2.599 10.456-7.019 25.879c-1.514 5.279-2.189 13.542-2.438 22.116z" fill="url(#SVGID_00000161613594720761527780000011267353777475434141_)"/>
			
				<linearGradient id="SVGID_00000154417960930317471370000011664122603953104316_" x1="1504.3" x2="1545.5" y1="3193.8" y2="3230.4" gradientTransform="matrix(-.9902 -.14 -.14 .9902 2600.3 206.94)" gradientUnits="userSpaceOnUse">
				<stop stop-color="#444B8C" offset="0"/>
				<stop stop-color="#26264F" offset=".9964"/>
			</linearGradient>
			<path d="m635.51 3182.3s-25.819-5.948-28.611-0.827c-2.793 5.122-4.961 18.834 11.419 18.391 16.381-0.442 18.647-13.222 17.192-17.564z" fill="url(#SVGID_00000154417960930317471370000011664122603953104316_)"/>
			
				<linearGradient id="SVGID_00000057862420406268002790000015075806997664744068_" x1="1538.9" x2="1580.1" y1="3186.8" y2="3223.4" gradientTransform="matrix(-1 0 0 1 2497.4 0)" gradientUnits="userSpaceOnUse">
				<stop stop-color="#444B8C" offset="0"/>
				<stop stop-color="#26264F" offset=".9964"/>
			</linearGradient>
			<path d="m949.71 3206.9c-2.064-6.229-23.529-9.097-32.542 0.911-4.474 4.969-6.752 14.082-3.265 17.559 1.269 1.266-2.755 4.375 1.444 3.832 13.931-1.805 36.414-16.113 34.363-22.302z" fill="url(#SVGID_00000057862420406268002790000015075806997664744068_)"/>
			
				<linearGradient id="SVGID_00000159438416916006362570000003996669097132960411_" x1="653.23" x2="653.23" y1="3223.5" y2="3151.7" gradientTransform="matrix(-1 0 0 1 1572.1 0)" gradientUnits="userSpaceOnUse">
				<stop stop-color="#FFC444" offset="0"/>
				<stop stop-color="#F36F56" offset=".9964"/>
			</linearGradient>
			<path d="m928.4 3212.2h-21.657c8.163-13.235 1.01-50.695 1.01-50.695l23.294 1.848s-1.109 10.717-3.328 26.607c-0.759 5.44-0.272 13.716 0.681 22.24z" fill="url(#SVGID_00000159438416916006362570000003996669097132960411_)"/>
			
				<linearGradient id="SVGID_00000078733093366002400770000007998784903070902463_" x1="700.58" x2="432" y1="3256.4" y2="2172" gradientTransform="translate(221.69)" gradientUnits="userSpaceOnUse">
				<stop stop-color="#444B8C" offset="0"/>
				<stop stop-color="#26264F" offset=".9964"/>
			</linearGradient>
			<path d="m984.53 2393.2c10.032 33.131 24.36 86.604 33.583 153.69 26.307 191.36-29.607 197.46-19.165 409.52 3.333 67.688-58.64 223.77-64.103 227.22-2.644 0.256-5.511 0.428-8.571 0.336-5.39-0.163-12.99-0.989-21.828-3.639-9.817-1.691-45.212-97.56-37.008-154.56 5.806-40.343 4.122-83.637 0.757-170.23-0.545-14.03-36.443-272.97-36.443-272.97-10.92 95.846-23.477 177.28-34.365 240.42-34.978 202.86-148.71 325.64-154.64 327.61-1.172 0.471-11.844 4.347-20.568-1.403-3.884-2.56-5.205-5.862-5.205-5.862-3.042-2.383 0.897-202.53 35.586-353.16 50.351-218.64 28.426-269.8 44.378-367.45 13.802-84.5 287.59-29.517 287.59-29.517z" fill="url(#SVGID_00000078733093366002400770000007998784903070902463_)"/>
			
				<linearGradient id="SVGID_00000024698914139830786580000001883030111235278768_" x1="1140.3" x2="461.14" y1="2448" y2="1975.7" gradientUnits="userSpaceOnUse">
				<stop stop-color="#FF9085" offset="0"/>
				<stop stop-color="#FB6FBB" offset="1"/>
			</linearGradient>
			<path d="m998.01 2426.3c-30.236 15.517-108.11 43.324-200.92 29.511-41.149-6.127-74.285-19.577-98.032-31.904-0.724-0.363-1.45-0.725-2.139-1.087 24.109-72.908 5.221-111.92-3.698-147.88-12.724-51.264-12.907-47.385-23.385-88.135-17.256-67.216-20.085-135.88-8.23-149.91 31.978-37.886 89.622-39.263 119.53-40.17 33.426-0.979 110.29-12.762 152.6 25.306 0.726 0.652-7.94 5.293-3.661 10.296 3.951 4.641 17.547 20.919 29.873 42.889 8.918 15.916 17.003 34.478 25.125 62.104 14.321 48.762 18.453 90.31 19.83 108.4 0.436 5.982 0.836 11.783 1.197 17.366 5.621 89.839-1.522 133.2-8.084 163.22z" fill="url(#SVGID_00000024698914139830786580000001883030111235278768_)"/>
			
				<linearGradient id="SVGID_00000023264176412671385630000004365358249983485585_" x1="1543" x2="1584.2" y1="3182.1" y2="3218.8" gradientTransform="matrix(-1 0 0 1 2497.4 0)" gradientUnits="userSpaceOnUse">
				<stop stop-color="#444B8C" offset="0"/>
				<stop stop-color="#26264F" offset=".9964"/>
			</linearGradient>
			<path d="m929.91 3209.4s-26.397-2.276-28.445 3.186c-2.048 5.461-2.276 19.343 13.881 16.612 16.158-2.731 16.613-15.702 14.564-19.798z" fill="url(#SVGID_00000023264176412671385630000004365358249983485585_)"/>
			
				
					<linearGradient id="SVGID_00000095327777075083828000000006140185388850764190_" x1="1667.4" x2="1890.4" y1="1740.2" y2="2020.8" gradientTransform="matrix(-.9976 .0697 .0697 .9976 2456.7 20.519)" gradientUnits="userSpaceOnUse">
					<stop stop-color="#FFC444" offset="0"/>
					<stop stop-color="#F36F56" offset=".9964"/>
				</linearGradient>
				<path d="m877.35 1954c9.109-18.187 3.112-37.815 1.773-42.054-5.606-17.746-7.413-20.37-11.03-23.955l-5.087-4.677s-0.309-0.199-0.636-0.392c-3.451-2.035-16.009-4.858-18.673-4.805-8.511 0.167-23.646 31.789-30.253 79.351-0.685 1.729-1.362 3.475-2.03 5.239-4.159 10.976-7.633 21.728-10.531 32.177-56.981 8.853-64.466 16.134-64.45 20.035 0.034 8.213 33.354 15.377 58.167 17.257 54.115 4.099 108.19-13.878 107.24-23.849-0.413-4.341-11.456-9.264-57.282-12.036 0.537-7.588 1.074-15.177 1.61-22.766 3.632-1.078 24.472-6.126 31.181-19.525z" fill="url(#SVGID_00000095327777075083828000000006140185388850764190_)"/>
				<path d="m882.53 1873.2c-2.865 14.577-12.745 28.828-16.73 30.655-0.514 0.236-3.448 1.755-6.398 4.751-0.402 0.407-0.782 0.902-1.164 1.563-4.97 8.575 7.557 22.214 3.941 25.786-2.623 2.59-11.785-3.32-13.464-0.97-1.581 2.211 5.703 8.83 3.878 11.492-1.378 2.01-6.07-0.978-9.923 1.764-1.92 1.365-1.707 2.783-4.387 7.574-1.516 2.709-3.465 5.617-4.843 7.179-6.695 7.591-21.576 7.963-23.662 4.005-0.58-1.103 0.231-1.778 0.069-5.135 0 0-0.15-3.111-1.555-6.945-2.005-5.478-8.457-10.363-14.651-16.932-11.469-12.165-13.511-21.041-14.064-24.014-0.196-1.058-0.294-1.848-0.363-2.417-1.388-11.42 1.645-27.215 8.354-35.994 11.238-14.706 28.013-3.455 46.076-16.688 20.84-15.267 15.475-42.672 25.378-43.672 10.916-1.105 28.805 31.044 23.508 57.998z" fill="#26264f"/>
				
					<linearGradient id="SVGID_00000044179111344162260790000005114422234240684685_" x1="1676.8" x2="1899.8" y1="1732.7" y2="2013.3" gradientTransform="matrix(-.9976 .0697 .0697 .9976 2456.7 20.519)" gradientUnits="userSpaceOnUse">
					<stop stop-color="#FFC444" offset="0"/>
					<stop stop-color="#F36F56" offset=".9964"/>
				</linearGradient>
				<path d="m857.6 1931.5c-2.627-5.603-9.8-2.2-11.063 4.149-1.265 6.348 3.618 14.145 9.835 14.044 6.217-0.102 4.763-10.653 1.228-18.193z" fill="url(#SVGID_00000044179111344162260790000005114422234240684685_)"/>
			
			
				
					<linearGradient id="SVGID_00000018217531187167735970000014887525423449949591_" x1="669.63" x2="710.65" y1="2284.6" y2="2284.6" gradientUnits="userSpaceOnUse">
					<stop stop-color="#FF9085" offset="0"/>
					<stop stop-color="#FB6FBB" offset="1"/>
				</linearGradient>
				<path d="m707.58 2377.6c-0.068 0-0.144 0-0.213-0.011-1.071-0.118-1.838-1.083-1.717-2.15 3.927-35.374-3.411-61.105-9.882-83.809-1.588-5.56-3.13-10.957-4.444-16.285-7.201-29.035-10.353-40.258-13.695-52.142-2.195-7.797-4.436-15.788-7.938-29.221-0.266-1.041 0.357-2.1 1.39-2.37 1.048-0.296 2.112 0.357 2.378 1.39 3.486 13.399 5.727 21.371 7.915 29.149 3.35 11.914 6.51 23.164 13.718 52.259 1.314 5.287 2.841 10.638 4.413 16.153 6.57 23.05 14.022 49.172 10.004 85.309-0.106 0.991-0.949 1.728-1.929 1.728z" fill="url(#SVGID_00000018217531187167735970000014887525423449949591_)"/>
			
			
				<linearGradient id="SVGID_00000019671967178080810750000003341148185215919783_" x1="699.06" x2="1008.1" y1="2348.2" y2="2348.2" gradientUnits="userSpaceOnUse">
				<stop stop-color="#FF9085" offset="0"/>
				<stop stop-color="#FB6FBB" offset="1"/>
			</linearGradient>
			<path d="m998.01 2426.3c-30.236 15.517-108.11 43.324-200.92 29.511-41.149-6.127-74.285-19.577-98.032-31.904 10.768-8.375 24.038-22.406 45.971-46.261 26.575-28.859 57.717-18.091 76.025-7.215 13.197 7.795 29.549 8.012 42.927 0.616 13.413-7.432 21.898-21.39 22.296-36.69 0.218-7.033-0.11-15.045-0.979-24.109-6.272-65.657 84.69-71.24 84.69-71.24 12.834-6.671 25.017 4.097 36.109 24.073 5.621 89.84-1.522 133.2-8.084 163.22z" fill="url(#SVGID_00000019671967178080810750000003341148185215919783_)" opacity=".2"/>
			
				<linearGradient id="SVGID_00000013913671521565405260000016347623854541216643_" x1="1246.8" x2="1308.4" y1="2139.6" y2="2217.1" gradientUnits="userSpaceOnUse">
				<stop stop-color="#FFC444" offset="0"/>
				<stop stop-color="#F36F56" offset=".9964"/>
			</linearGradient>
			<path d="m1316 2133.8c-3.659 0.351-8.088 4.059-11.201 5.824-4.425 2.51-8.882 4.975-13.393 7.325-8.71 4.537-17.934 7.904-27.896 7.719 0.277-1.419 0.769-2.844 1.33-4.202 1.686-3.948 3.912-7.358 2.583-8.542-1.901-1.723-10.265 1.831-17.981 9.224-3.123 2.943-6.102 6.568-8.542 10.696-3.938 6.71-3.274 10.381-6.569 15.498-4.898 4.391-8.574 5.355-8.574 5.355v1.4l0.554 1.723c-4.38 3.338-9.325 5.312-13.2 6.604 6.819 1.831 13.48 3.697 20.264 5.563l4.713 7.861s25.704-5.384 41.211-14.788c7.25-4.415 9.746-9.87 10.356-14.393 0.431-3.015-0.01-5.599-0.402-7.25-0.323-1.184-0.614-1.902-0.614-1.902s21.174-8.793 29.537-27.817c1.266-2.872 1.388-6.24-2.176-5.898z" fill="url(#SVGID_00000013913671521565405260000016347623854541216643_)"/>
			
				<linearGradient id="SVGID_00000035511830402673814090000000679345090433001627_" x1="1931.7" x2="1282.6" y1="2485.6" y2="2034.2" gradientTransform="matrix(-1 0 0 1 2497.4 0)" gradientUnits="userSpaceOnUse">
				<stop stop-color="#FF9085" offset="0"/>
				<stop stop-color="#FB6FBB" offset="1"/>
			</linearGradient>
			<path d="m1226.3 2174.8c12.089 8.459 18.572 19.948 21.933 27.281-8.888 20.861-29.046 59.598-70.769 88.145-68.41 46.807-168.72 48.382-238.59-4.998-83.473-63.773-97.42-186.06-62.36-238.44 4.036-6.029 17.306-25.85 37.905-28.124 13.009-1.437 30.716 3.928 58.692 36.682 58.293 68.252 37.703 110.87 72.142 130.84 51.643 29.943 128.38-48.236 181.04-11.386z" fill="url(#SVGID_00000035511830402673814090000000679345090433001627_)"/>
		
	
</g></g>
</svg>
