<svg version="1.1" viewBox="0 0 800 450" xml:space="preserve" xmlns="http://www.w3.org/2000/svg">





<g transform="translate(-11.025 -2.5589)"><g id="Background_Simple" transform="matrix(.82368 0 0 .82368 74.605 25.358)" display="none">
	
		<path d="m735.73 201.03c3.286-84.433-54.05-158.64-135.54-175-48.716-9.784-108.5-17.375-160.27-11.055-109.76 13.399-44.781 17.865-34.245 18.758 10.537 0.893 52.684 11.612-0.878 15.185s-105.37-21.438-177.37-28.584-160.69 3.573-192.3 74.139-30.732 224.2-10.536 286.73 37.757-48.235 50.928-28.584 66.733 100.04 203.71 119.69 365.28-16.078 397.76-44.662c32.489-28.584 17.561-10.719 23.708 3.573 6.146 14.292 27.22-26.797 30.732-115.23 1.504-37.855 2.566-70.735 4.288-114.96z" fill="#92e3a9"/>
		<path d="m735.73 201.03c3.286-84.433-54.05-158.64-135.54-175-48.716-9.784-108.5-17.375-160.27-11.055-109.76 13.399-44.781 17.865-34.245 18.758 10.537 0.893 52.684 11.612-0.878 15.185s-105.37-21.438-177.37-28.584-160.69 3.573-192.3 74.139-30.732 224.2-10.536 286.73 37.757-48.235 50.928-28.584 66.733 100.04 203.71 119.69 365.28-16.078 397.76-44.662c32.489-28.584 17.561-10.719 23.708 3.573 6.146 14.292 27.22-26.797 30.732-115.23 1.504-37.855 2.566-70.735 4.288-114.96z" fill="#fff" opacity=".7"/>
	
</g><g id="Floor" transform="matrix(.82368 0 0 .82368 74.605 25.358)">
	
		<line x1="26.631" x2="731.4" y1="454.42" y2="454.42" fill="none" stroke="#263238" stroke-linecap="round" stroke-linejoin="round" stroke-miterlimit="10"/>
</g><g id="Graphics" transform="matrix(.82368 0 0 .82368 74.605 25.358)" display="none">
	<g fill="none" stroke="#9c9c9c" stroke-linecap="round" stroke-linejoin="round" stroke-miterlimit="10">
		
			<rect transform="matrix(.7071 -.7071 .7071 .7071 53.007 565.89)" x="702.11" y="211.48" width="14.951" height="14.951"/>
		
			<rect transform="matrix(.7071 -.7071 .7071 .7071 -44.803 65.46)" x="49.14" y="79.336" width="14.951" height="14.951"/>
		
			<rect transform="matrix(.7071 -.7071 .7071 .7071 -132.14 421.86)" x="437.42" y="364.71" width="11.465" height="11.465"/>
		
			<rect transform="matrix(.7071 -.7071 .7071 .7071 98.865 331.05)" x="443.31" y="40.451" width="11.465" height="11.465"/>
		
			<rect transform="matrix(.7071 -.7071 .7071 .7071 -181.29 100.81)" x="25.316" y="263.51" width="11.465" height="11.465"/>
		
			<rect transform="matrix(.7071 -.7071 .7071 .7071 -38.733 48.248)" x="33.142" y="65.147" width="11.465" height="11.465"/>
		
			<rect transform="matrix(.7071 -.7071 .7071 .7071 -210.24 358.93)" x="322.41" y="427.52" width="11.465" height="11.465"/>
		
			<rect transform="matrix(.7071 -.7071 .7071 .7071 67.114 568.08)" x="713.56" y="197.29" width="11.465" height="11.465"/>
		
			<rect transform="matrix(.7071 -.7071 .7071 .7071 -61.409 622.09)" x="714.49" y="379.44" width="11.465" height="11.465"/>
		
			
				<line x1="716.38" x2="716.38" y1="68.453" y2="85.021"/>
			
				<line x1="708.1" x2="724.67" y1="76.737" y2="76.737"/>
		
		
			
				<line x1="55.416" x2="55.416" y1="117.74" y2="134.31"/>
			
				<line x1="47.132" x2="63.7" y1="126.02" y2="126.02"/>
		
		
			
				<line x1="710.76" x2="710.76" y1="313.15" y2="338.92"/>
			
				<line x1="697.87" x2="723.65" y1="326.04" y2="326.04"/>
		
		
			
				<line x1="427.98" x2="446.21" y1="304.74" y2="322.96"/>
			
				<line x1="427.98" x2="446.21" y1="322.96" y2="304.74"/>
		
		
			
				<line x1="24.045" x2="37.14" y1="413.9" y2="426.99"/>
			
				<line x1="24.045" x2="37.14" y1="426.99" y2="413.9"/>
		
		
			
				<line x1="338.01" x2="351.11" y1="25.893" y2="38.989"/>
			
				<line x1="338.01" x2="351.11" y1="38.989" y2="25.893"/>
		
	</g>
</g><g id="Arrow" transform="matrix(.82368 0 0 .82368 74.605 25.358)">
	<polygon points="442.21 76.814 404.52 48.129 404.52 63.224 348.76 63.224 348.76 90.404 404.52 90.404 404.52 105.5" fill="none" stroke="#263238" stroke-linecap="round" stroke-linejoin="round" stroke-miterlimit="10"/>
</g><g transform="matrix(1.1182 0 0 1.1182 -.82999 -23.279)"><g stroke="#263238" stroke-miterlimit="10"><path d="m632.15 399.66h-158.39c-5.1282 0-9.2846-4.1571-9.2846-9.2846v-325.82c0-5.1283 4.1571-9.2846 9.2846-9.2846h158.39c5.1283 0 9.2846 4.1571 9.2846 9.2846v325.82c8.3e-4 5.1282-4.1563 9.2854-9.2846 9.2854z" fill="#fff" stroke-linecap="round" stroke-linejoin="round" stroke-width=".82368"/><path d="m464.48 370.4v19.973c0 5.1282 4.1571 9.2846 9.2846 9.2846h158.39c5.1282 0 9.2846-4.1571 9.2846-9.2846v-19.973z" fill="#92e3a9" stroke-width=".82368"/><g transform="matrix(.82368 0 0 .82368 74.605 25.358)">
			<path d="m566.3 206.07h32.439c3.366 0 6.095-2.729 6.095-6.095v-32.439c0-3.366-2.729-6.095-6.095-6.095h-32.439c-3.366 0-6.095 2.729-6.095 6.095v32.439c0 3.367 2.729 6.095 6.095 6.095z" fill="#263238"/>
			<polygon points="572.83 172.11 572.83 197.15 594.51 184.63" fill="#92e3a9"/>
		
			<path d="m658.68 78.135h-41.571c-8.86 0-16.042-7.182-16.042-16.042s7.182-16.042 16.042-16.042h41.571c8.86 0 16.042 7.182 16.042 16.042 0 8.859-7.182 16.042-16.042 16.042z" fill="#92e3a9"/>
			
				<circle cx="616.63" cy="62.093" r="14.259" fill="#fff" stroke-linecap="round" stroke-linejoin="round"/>
		</g><g transform="matrix(.82368 0 0 .82368 74.605 25.358)" fill="none" stroke-linecap="round" stroke-linejoin="round">
			
				<line x1="488.52" x2="516.36" y1="64.989" y2="64.989"/>
			
				<line x1="488.52" x2="516.36" y1="72.28" y2="72.28"/>
			
				<line x1="488.52" x2="516.36" y1="79.57" y2="79.57"/>
		</g><g transform="matrix(.82368 0 0 .82368 74.605 25.358)">
			<rect x="492.2" y="285.68" width="151.58" height="115.98" fill="#92e3a9"/>
			<polygon points="492.2 401.66 643.78 401.66 643.78 331.74 620.63 309.54 578.74 357.26 553.93 338.7" fill="#263238"/>
			<circle cx="526" cy="318.82" r="15.906" fill="#263238"/>
		</g><line x1="475.86" x2="628.8" y1="100.88" y2="100.88" fill="none" stroke-linecap="round" stroke-linejoin="round" stroke-width=".82368"/><g transform="matrix(.82368 0 0 .82368 74.605 25.358)" stroke-linecap="round" stroke-linejoin="round">
			
				<circle transform="matrix(.9735 -.2285 .2285 .9735 -50.67 159.99)" cx="665.59" cy="298.82" r="12.899" fill="#263238"/>
			<path d="m670.57 294.46c0-2.745-2.226-4.971-4.971-4.971s-4.971 2.226-4.971 4.971 2.226 4.971 4.971 4.971c2.746 0 4.971-2.226 4.971-4.971z" fill="#fff"/>
			<path d="m665.6 300.38c-4.536 0-8.212 3.677-8.212 8.212 0 0.063 8e-3 0.124 9e-3 0.186 2.229 1.839 5.087 2.944 8.203 2.944s5.974-1.105 8.203-2.944c1e-3 -0.063 0.01-0.123 0.01-0.186 0-4.535-3.677-8.212-8.213-8.212z" fill="#fff"/>
		
			
				<circle transform="matrix(.9735 -.2285 .2285 .9735 -60.356 161.11)" cx="665.59" cy="341.21" r="12.899" fill="#263238"/>
			<path d="m670.57 336.85c0-2.745-2.226-4.971-4.971-4.971s-4.971 2.226-4.971 4.971 2.226 4.971 4.971 4.971c2.746 0 4.971-2.225 4.971-4.971z" fill="#fff"/>
			<path d="m665.6 342.77c-4.536 0-8.212 3.677-8.212 8.212 0 0.063 8e-3 0.124 9e-3 0.186 2.229 1.839 5.087 2.944 8.203 2.944s5.974-1.105 8.203-2.944c1e-3 -0.063 0.01-0.123 0.01-0.186 0-4.535-3.677-8.212-8.213-8.212z" fill="#fff"/>
		</g><g transform="matrix(.82368 0 0 .82368 74.605 25.358)" stroke-linecap="round" stroke-linejoin="round">
			
				<circle transform="matrix(.9735 -.2285 .2285 .9735 -70.042 162.23)" cx="665.59" cy="383.6" r="12.899" fill="#263238"/>
			<path d="m670.57 379.24c0-2.745-2.226-4.971-4.971-4.971s-4.971 2.226-4.971 4.971 2.226 4.971 4.971 4.971c2.746 0 4.971-2.225 4.971-4.971z" fill="#fff"/>
			<path d="m665.6 385.16c-4.536 0-8.212 3.677-8.212 8.212 0 0.063 8e-3 0.124 9e-3 0.186 2.229 1.839 5.087 2.944 8.203 2.944s5.974-1.105 8.203-2.944c1e-3 -0.063 0.01-0.123 0.01-0.186 0-4.536-3.677-8.212-8.213-8.212z" fill="#fff"/>
		</g><path d="m614.06 142.8h-121.44c-8.1528 0-14.761-6.6092-14.761-14.761 0-8.1528 6.6092-14.761 14.761-14.761h121.44c8.1528 0 14.761 6.6092 14.761 14.761 8.3e-4 8.152-6.6076 14.761-14.76 14.761z" fill="#a3a3a3" stroke-width=".82368"/><path d="m546.76 142.8h-54.144c-8.1528 0-14.761-6.6092-14.761-14.761 0-8.1528 6.6092-14.761 14.761-14.761h54.144c8.1528 0 14.761 6.6092 14.761 14.761s-6.6084 14.761-14.761 14.761z" fill="#92e3a9" stroke-width=".82368"/><g transform="matrix(.82368 0 0 .82368 74.605 25.358)">
			<path d="m498.29 206.07h32.439c3.366 0 6.095-2.729 6.095-6.095v-32.439c0-3.366-2.729-6.095-6.095-6.095h-32.439c-3.366 0-6.095 2.729-6.095 6.095v32.439c0 3.367 2.729 6.095 6.095 6.095z" fill="#92e3a9"/>
			<path d="m532.95 187.59v-6.564l-5.584-0.295c-0.244-1.063-0.617-2.076-1.104-3.022l3.747-4.164-4.641-4.641-3.994 3.593c-0.956-0.572-1.993-1.023-3.088-1.336l-0.288-5.467h-6.564l-0.289 5.467c-1.052 0.3-2.049 0.73-2.974 1.27l-4.218-3.795-4.641 4.641 3.905 4.34c-0.448 0.852-0.804 1.76-1.055 2.711l-6.059 0.32v6.564l6.227 0.329c0.261 0.83 0.603 1.623 1.017 2.371l-4.302 4.781 4.641 4.641 4.786-4.307c0.708 0.389 1.457 0.713 2.238 0.966l0.346 6.55h6.564l0.334-6.324c0.838-0.215 1.644-0.512 2.408-0.882l4.739 4.264 4.641-4.641-4.007-4.453c0.507-0.812 0.925-1.683 1.244-2.602zm-18.235 3.168c-3.93 0-7.115-3.186-7.115-7.115s3.185-7.115 7.115-7.115c3.929 0 7.115 3.186 7.115 7.115 0 3.93-3.186 7.115-7.115 7.115z" fill="#263238"/>
		</g></g><g transform="matrix(.82368 0 0 .82368 74.605 25.358)" stroke="#263238" stroke-miterlimit="10">
			<path d="m634.32 206.07h32.439c3.366 0 6.095-2.729 6.095-6.095v-32.439c0-3.366-2.729-6.095-6.095-6.095h-32.439c-3.366 0-6.095 2.729-6.095 6.095v32.439c0 3.367 2.729 6.095 6.095 6.095z" fill="#92e3a9"/>
			
				
					<circle transform="matrix(.3791 -.9254 .9254 .3791 233.9 716.09)" cx="650.53" cy="183.76" r="15.646" fill="#263238"/>
				
					<rect x="642.59" y="175.82" width="15.888" height="15.888" fill="#fff" stroke-linecap="round" stroke-linejoin="round"/>
			
		</g><g transform="matrix(.82368 0 0 .82368 74.605 25.358)" stroke="#263238" stroke-linecap="round" stroke-linejoin="round" stroke-miterlimit="10">
			<path d="m566.3 264.92h32.439c3.366 0 6.095-2.729 6.095-6.095v-32.439c0-3.366-2.729-6.095-6.095-6.095h-32.439c-3.366 0-6.095 2.729-6.095 6.095v32.439c0 3.366 2.729 6.095 6.095 6.095z" fill="#fff"/>
			<g fill="#92e3a9">
				
					<rect x="567.63" y="232.43" width="30.14" height="21.051"/>
				<polygon points="582.7 242.96 597.77 232.43 567.63 232.43"/>
			</g>
		</g><path d="m485.04 243.57h26.719c2.7725 0 5.0204-2.2478 5.0204-5.0204v-26.719c0-2.7725-2.2478-5.0204-5.0204-5.0204h-26.719c-2.7725 0-5.0204 2.2478-5.0204 5.0204v26.719c0 2.7725 2.2478 5.0204 5.0204 5.0204z" fill="#92e3a9" stroke="#263238" stroke-miterlimit="10" stroke-width=".82368"/><path d="m507.07 219.89c-0.30477-1.084-0.71084-2.2025-1.084-2.812-0.54198-0.91512-0.88134-1.1523-2.7445-1.1523h-3.387v16.5c0 2.6424 0.27017 3.0155 3.4891 3.219v0.94888h-9.8595v-0.94888c3.1514-0.20345 3.4232-0.54281 3.4232-3.219v-16.5h-3.083c-1.8632 0-2.406 0.20345-2.9826 1.2199-0.40607 0.67789-0.67706 1.4909-1.1177 2.7445h-1.0156c0.20345-2.0666 0.40608-4.2016 0.50822-6.0986h0.7792c0.50821 0.81297 0.88134 0.7792 1.8294 0.7792h13.416c0.94888 0 1.2199-0.1359 1.7281-0.7792h0.8138c0 1.5922 0.13591 4.0319 0.30476 5.9972z" fill="#263238" stroke-width=".82368"/><g transform="matrix(.82368 0 0 .82368 74.605 25.358)" stroke-miterlimit="10">
			<path d="m634.32 264.92h32.439c3.366 0 6.095-2.729 6.095-6.095v-32.439c0-3.366-2.729-6.095-6.095-6.095h-32.439c-3.366 0-6.095 2.729-6.095 6.095v32.439c0 3.366 2.729 6.095 6.095 6.095z" fill="#263238" stroke="#263238"/>
			<g fill="none" stroke="#92e3a9">
				<circle cx="650.53" cy="242.6" r="15.63"/>
				<ellipse cx="650.53" cy="242.6" rx="6.924" ry="15.63"/>
				<line x1="640.43" x2="660.86" y1="230.74" y2="230.74"/>
				<line x1="635.74" x2="665.56" y1="236.83" y2="236.83"/>
				<line x1="640.43" x2="660.86" y1="254.59" y2="254.59"/>
				<line x1="635.74" x2="665.56" y1="248.5" y2="248.5"/>
				<line x1="635.23" x2="666.06" y1="242.68" y2="242.68"/>
			</g>
		</g></g><g transform="matrix(1.1182 0 0 1.1182 -83.564 -23.375)" stroke="#263238" stroke-miterlimit="10"><path d="m315.75 399.66h-158.39c-5.1282 0-9.2846-4.1571-9.2846-9.2846v-325.82c0-5.1283 4.1571-9.2846 9.2846-9.2846h158.39c5.1282 0 9.2846 4.1571 9.2846 9.2846v325.82c8.3e-4 5.1282-4.1563 9.2854-9.2846 9.2854z" fill="#fff" stroke-linecap="round" stroke-linejoin="round" stroke-width=".82368"/><path d="m148.08 370.4v19.973c0 5.1282 4.1571 9.2846 9.2846 9.2846h158.39c5.1283 0 9.2846-4.1571 9.2846-9.2846v-19.973z" fill="#92e3a9" stroke-width=".82368"/><g transform="matrix(.82368 0 0 .82368 74.605 25.358)" fill="#263238">
			<rect x="172.32" y="164.99" width="44.629" height="44.629"/>
			<rect x="59.067" y="164.99" width="44.629" height="44.629"/>
			<rect x="172.32" y="223.84" width="44.629" height="44.629"/>
			<rect x="234.17" y="223.84" width="44.629" height="44.629"/>
			<rect x="59.067" y="223.84" width="44.629" height="44.629"/>
		</g><g transform="matrix(.82368 0 0 .82368 74.605 25.358)">
			
				<rect x="174.35" y="161.45" width="44.629" height="44.629" fill="#fff" stroke-linecap="round" stroke-linejoin="round"/><g fill="#92e3a9">
			<rect x="61.092" y="161.45" width="44.629" height="44.629"/>
			<rect x="174.35" y="220.29" width="44.629" height="44.629"/>
			<rect x="236.19" y="220.29" width="44.629" height="44.629"/>
			
				</g><rect x="61.092" y="220.29" width="44.629" height="44.629" fill="#fff" stroke-linecap="round" stroke-linejoin="round"/>
		</g><path d="m334.58 66.346h-34.241c-7.2978 0-13.214 5.9157-13.214 13.214 0 7.2978 5.9157 13.214 13.214 13.214h34.241c7.2978 0 13.214-5.9157 13.214-13.214 0-7.2978-5.9157-13.214-13.214-13.214z" fill="#263238" stroke-width=".82368"/><g transform="matrix(.82368 0 0 .82368 74.605 25.358)">
			<path d="m318.62 78.135h-41.571c-8.86 0-16.042-7.182-16.042-16.042s7.182-16.042 16.042-16.042h41.571c8.86 0 16.042 7.182 16.042 16.042 0 8.859-7.182 16.042-16.042 16.042z" fill="#92e3a9"/>
			
				<circle cx="276.56" cy="62.093" r="14.259" fill="#fff" stroke-linecap="round" stroke-linejoin="round"/>
		</g><g transform="matrix(.82368 0 0 .82368 74.605 25.358)" fill="none" stroke-linecap="round" stroke-linejoin="round">
			
				<line x1="107.4" x2="135.24" y1="64.989" y2="64.989"/>
			
				<line x1="107.4" x2="135.24" y1="72.28" y2="72.28"/>
			
				<line x1="107.4" x2="135.24" y1="79.57" y2="79.57"/>
		</g><g transform="matrix(.82368 0 0 .82368 74.605 25.358)" fill="#fff" stroke-linecap="round" stroke-linejoin="round">
		
			<circle cx="276.4" cy="300.26" r="12.592"/>
		
			<circle transform="matrix(.1608 -.987 .987 .1608 -104.96 559.27)" cx="276.4" cy="341.35" r="12.592"/>
		
			<circle cx="276.4" cy="382.45" r="12.592"/>
		
			</g><g transform="matrix(.82368 0 0 .82368 74.605 25.358)"><line x1="106.09" x2="291.78" y1="91.686" y2="91.686" fill="none" stroke-linecap="round" stroke-linejoin="round"/><g fill="#263238"><rect x="49.692" y="290.75" width="151.58" height="115.98"/><line x1="49.692" x2="201.27" y1="406.73" y2="290.75"/><line x1="49.692" x2="201.27" y1="290.75" y2="406.73"/></g><g stroke-linecap="round" stroke-linejoin="round"><rect x="54.25" y="285.68" width="151.58" height="115.98" fill="#fff"/><line x1="54.25" x2="205.83" y1="401.66" y2="285.68" fill="none"/><line x1="54.25" x2="205.83" y1="285.68" y2="401.66" fill="none"/></g><path d="m325.93 145.12h-147.44c-9.898 0-17.921-8.024-17.921-17.921 0-9.898 8.024-17.921 17.921-17.921h147.44c9.898 0 17.921 8.024 17.921 17.921 1e-3 9.898-8.023 17.921-17.921 17.921z" fill="#263238"/><path d="m329.98 142.58h-147.44c-9.898 0-17.921-8.024-17.921-17.921v0c0-9.898 8.024-17.921 17.921-17.921h147.44c9.898 0 17.921 8.024 17.921 17.921v0c0 9.897-8.023 17.921-17.921 17.921z" fill="#fff" stroke-linecap="round" stroke-linejoin="round"/></g></g><g id="Character" transform="matrix(.82368 0 0 .82368 80.667 29.34)"><g stroke="#263238" stroke-miterlimit="10">
	
		<polyline points="234.48 162.26 234.48 208.04 276.49 208.04 276.49 164.26 234.48 162.26" fill="#263238"/>
		<polygon points="278.18 162.26 281.85 205.24 238.15 205.24 234.48 162.26" fill="#92e3a9"/>
		
			<path d="m314.84 234.79s-27.362-20.282-28.701-21.43-4.975-5.549-6.314-7.08-8.993-3.827-8.993-3.827-4.018-2.87-4.784-4.018c-0.765-1.148-3.061 0.574-1.722 2.87s4.592 4.21 4.592 4.21h-16.073s7.462 6.888 8.802 8.228c1.339 1.339 15.69 1.913 15.69 1.913s11.289 16.455 20.091 24.301c8.802 7.845 19.326 13.394 21.239 13.011s2.679-4.018 2.105-5.549-5.932-12.629-5.932-12.629z" fill="#fff"/>
			<path d="m258.4 206.47 5.932 3.253s7.845-3.444 9.95-2.87 4.209 3.253 4.209 3.253" fill="none"/>
		
		
			<path d="m343.97 307.11 3.929 68.63s-2.357 16.503-0.262 23.313c2.096 6.811 3.405 25.671 3.405 25.671s-2.095 3.143-1.572 4.191c0.524 1.048 2.357 7.858 2.357 7.858l0.786 3.667s4.977-2.357 6.811-2.357 5.763 2.881 5.763 2.881 4.191-7.073 3.929-9.168c-0.262-2.096-2.096-4.191-2.096-5.501s0.524-3.929 0.524-6.025-0.262-0.524-0.262-6.287 2.096-52.389 2.096-53.175 5.239-39.03 5.239-39.03l9.168 40.602s-1.572 22.527 0 36.935c1.572 14.407 1.31 27.766 1.31 27.766s-2.881 4.977-2.096 5.763c0.786 0.786 2.358 3.405 2.358 3.405s-0.786 2.881-0.262 4.453l0.524 1.572 15.193-5.501 3.667 1.048s0.786-2.358 0.262-4.453c-0.524-2.096-1.834-4.191-1.572-5.239s0.524-2.619 0.786-4.715-0.262-4.977-0.262-7.073 2.882-56.057 2.619-57.366c-0.262-1.31-2.881-52.127-2.881-52.127z" fill="#92e3a9"/><g fill="none">
			<line x1="376.33" x2="387.97" y1="317.42" y2="313.36"/>
			<path d="m386.78 433.95s15.884-4.935 13.725-5.397c-2.159-0.463-9.099 1.696-9.715 2.005"/>
			<path d="m353.93 436.73s12.8-5.243 12.954-4.472-2.93 2.467-2.93 2.467"/>
			<path d="m366.58 430.1s-13.262-2.622-14.188-3.547 2.467-1.388 2.467-1.388"/>
			</g>
				<path d="m352.61 440.44s-2.073 9.088-2.69 11.247-1.542 5.552-0.463 6.785c1.079 1.234 6.168 2.005 11.412 1.696 5.243-0.309 6.785-1.696 7.094-3.084 0.308-1.388-1.079-6.785-1.542-8.944s-1.237-7.176-1.237-7.176-3.819-2.453-5.763-2.881c-1.944-0.429-6.811 2.357-6.811 2.357z" fill="#fff"/>
				<path d="m348.99 456.11c-0.069 0.99 0.029 1.857 0.468 2.36 1.08 1.234 6.169 2.005 11.412 1.696s6.785-1.696 7.094-3.084c0.06-0.268 0.055-0.689 6e-3 -1.205-1.781 0.714-4.556 1.533-8.108 1.64-4.009 0.122-8.243-0.738-10.872-1.407z" fill="none"/>
			
			
				<path d="m385.62 442.28s-0.38 10.956 0.236 12.189c0.617 1.234 8.019 1.234 11.103 1.85 3.084 0.617 6.939 1.851 8.944 2.159s11.566 0.154 12.954-0.617 1.234-3.239-0.154-4.626c-1.388-1.388-3.701-1.542-6.323-3.547s-6.939-6.631-7.402-8.019-0.499-3.843-0.499-3.843l-3.667-1.048z" fill="#fff"/>
				<path d="m418.94 453.53c-1.162 0.999-3.295 2.414-6.542 3.015-5.273 0.977-10.937-1.758-15.625-2.344-3.823-0.478-9.333-1.994-11.235-2.538 0.047 1.383 0.141 2.461 0.311 2.801 0.617 1.234 8.019 1.234 11.103 1.85 3.084 0.617 6.939 1.851 8.944 2.159s11.566 0.154 12.954-0.617c1.297-0.718 1.233-2.908 0.09-4.326z" fill="none"/>
			
		
		<path d="m368.88 205.67s-21.239 3.253-23.918 4.401-8.036 8.419-8.036 8.419l-19.98 13.242-3.444 1.339s6.123 21.813 7.271 22.004 23.233-9.989 23.233-9.989l-1.148 42.287-1.913 22.961s6.314 1.148 24.683 1.722 40.756-2.296 41.33-2.296 0.957-44.2 0.957-44.2l0.383-8.993 14.351-10.141s-12.055-28.893-13.011-32.146c-0.957-3.253-2.105-4.784-5.166-6.314-3.061-1.531-15.499-3.827-15.499-3.827z" fill="#263238"/>
		<g fill="#fff" stroke-linecap="round" stroke-linejoin="round">
			<polygon points="368.79 218.24 361.89 208.69 366.94 205.47"/>
			<polygon points="361.89 208.69 360.05 217.42 365.72 214.35"/>
		</g>
		<g stroke-linecap="round" stroke-linejoin="round">
			<path d="m359.47 161.59s-5.109 9.767-4.658 11.269c0.451 1.503 0.601 2.855 0.601 2.855s-6.762 7.813-5.56 9.166c1.202 1.352 3.306 2.705 3.306 2.705s1.052 8.715 1.052 9.316-0.751 4.357 0.751 5.559c1.503 1.202 3.306 1.202 4.508 1.052s5.109-1.352 5.109-1.352 3.306 17.43 4.207 16.077c0.902-1.352 18.031-16.077 18.031-16.077l-0.601-8.264s8.865-13.223 9.166-16.077c0.301-2.855-4.057-15.326-5.56-17.279s-16.979-5.86-22.538-5.409c-5.56 0.449-9.467 3.454-7.814 6.459z" fill="#fff"/>
			<path d="m372.09 198.7c1.202-1.503 2.554-18.932 3.306-20.285 0.751-1.352 4.808-2.404 6.311-1.352s1.503 8.114 0 10.518-3.306 1.653-0.751 4.057c2.554 2.404 5.259 2.254 5.259 2.254s8.865-13.223 9.166-16.077c0.301-2.855-4.057-15.326-5.56-17.279s-16.979-5.86-22.538-5.409-9.466 3.456-7.813 6.461c0 0 3.155-0.601 6.611 0.301s4.057 2.705 3.456 3.155c-0.601 0.451-5.109 2.705-4.508 4.658s7.663 6.161 7.663 6.161-1.202 7.212-1.503 9.767c-0.301 2.554-3.456 5.559-3.456 5.559s-8.565-5.109-11.57-4.357c-3.005 0.751-3.005 0.751-3.005 0.751s1.052 8.715 1.052 9.316-0.751 4.357 0.751 5.559c1.503 1.202 3.306 1.202 4.508 1.052s5.109-1.352 5.109-1.352 6.31-1.955 7.512-3.458z" fill="#263238"/>
			<path d="m361.58 174.36c-1.953-2.705-4.207-1.503-4.207-1.503" fill="none"/>
			</g></g><path d="m356.17 191.34s2.554 0 5.409-1.352" fill="none" stroke="#fff" stroke-linecap="round" stroke-linejoin="round" stroke-miterlimit="10"/>
			<path d="m360.37 178.57c0 0.996-0.404 1.803-0.902 1.803s-0.902-0.807-0.902-1.803 0.404-1.803 0.902-1.803 0.902 0.807 0.902 1.803z" fill="#263238"/>
		<g stroke-miterlimit="10">
		<polygon points="370.46 211.84 368.79 218.24 373.22 214.81" fill="none" stroke="#263238" stroke-linecap="round" stroke-linejoin="round"/>
		<polygon points="386.66 198.95 370.46 211.84 374.64 221.07 390.49 203.13" fill="#fff" stroke="#263238" stroke-linecap="round" stroke-linejoin="round"/>
		<line x1="344" x2="340.75" y1="245.08" y2="223.08" fill="none" stroke="#fff"/>
		<line x1="394.52" x2="402.01" y1="228.24" y2="251.28" fill="none" stroke="#fff"/>
		</g><g stroke="#263238" stroke-miterlimit="10"><g fill="#fff">
			<path d="m404.34 253.31s3.216 14.719 3.365 16.505c0.149 1.785 5.802 8.183 9.522 8.183s9.82-5.356 10.415-7.29-2.827-7.885-6.844-9.076c-4.018-1.19-14.97-9.959-16.458-8.322z"/>
			<polygon points="409.79 269.15 428.01 266.14 431.72 272.15 418.33 268.59"/>
			
				<path d="m413.67 265.99s-4.702-1.333-3.94 0c0.762 1.334 6.512 8.668 7.941 9.24s5.525 0.381 7.049-0.19c1.524-0.572 7.928-1.479 9.167-1.955 1.238-0.476 4.573-0.953 4.477-1.905-0.095-0.953-3.144-1.238-5.049-0.857s-4.975-2.236-4.975-2.236z"/>
				</g><polygon points="452.5 269.96 393.95 269.96 365.24 264.98 430.3 265.56" fill="#a3a3a3"/>
				<polygon points="465.12 228.82 452.5 269.96 393.95 269.96 406.57 228.82" fill="#a3a3a3"/><g fill="#fff">
				<path d="m427.6 272.46s-0.346-8.289 0.26-8.788 1.953-0.601 2.275 0.775c0.322 1.375 0.459 6.034 0.67 7.426s-0.29 2.587-0.608 2.737-3.088-0.143-3.088-0.143"/>
				<path d="m423.58 272.94c-0.111-0.735 0.34-8.824 0.34-8.824s0.364-1.558 1.513-1.088c1.15 0.47 1.462 3.322 1.509 3.637 0.048 0.315 0.981 4.898 1.124 5.842 0.143 0.945-0.082 1.837-1.307 2.452s-4.036 0.363-4.036 0.363"/>
				<path d="m420.82 273.71c0.029-0.743 1.089-9.625 1.089-9.625s0.65-1.462 1.691-0.784 0.81 3.538 0.798 3.856c-0.013 0.318 0.041 4.995 4e-3 5.949-0.038 0.955-0.426 1.789-1.745 2.163-1.319 0.373-2.736 0.211-2.736 0.211"/>
				<path d="m418.25 272.37c0.023-0.586 0.86-7.598 0.86-7.598s0.513-1.154 1.335-0.618c0.822 0.535 0.64 2.793 0.63 3.044s0.033 3.943 3e-3 4.697-0.336 1.413-1.378 1.707c-1.042 0.295-2.16 0.167-2.16 0.167"/>
			</g>
		</g>
	
</g><g id="Speech_Bubble" transform="matrix(.82368 0 0 .82368 74.605 25.358)">
	
		<path d="m447.13 116.65c-18.118 0-32.806 14.688-32.806 32.806 0 7.257 2.361 13.961 6.351 19.394l-12.315 16.063 20.051-8.522c5.309 3.697 11.759 5.871 18.719 5.871 18.118 0 32.806-14.688 32.806-32.806s-14.687-32.806-32.806-32.806z" fill="#fff" stroke="#263238" stroke-linecap="round" stroke-linejoin="round" stroke-miterlimit="10"/>
		<g fill="#263238">
			<path d="m435.92 161.06-12.522-8.815v-5.025l12.522-8.815v5.52l-8.032 5.808 8.032 5.808z"/>
			<path d="m439.96 164.6 9.968-33.365h3.666l-10.009 33.365z"/>
			<path d="m457.51 161.06v-5.52l8.074-5.849-8.074-5.767v-5.52l12.564 8.815v5.025z"/>
		</g>
	
</g></g></svg>
