<svg version="1.1" viewBox="0 0 16 16" xml:space="preserve" xmlns="http://www.w3.org/2000/svg"><path id="a" d="m8-2.9651e-5c4.4184 0 8 3.672 8 8.2024 0 3.6232-2.2896 6.6968-5.4664 7.7824-0.4056 0.0808-0.5496-0.1752-0.5496-0.3936 0-0.2704 0.0096-1.1536 0.0096-2.2512 0-0.7648-0.256-1.264-0.5432-1.5184 1.7816-0.2032 3.6536-0.8968 3.6536-4.0472 0-0.896-0.3104-1.6272-0.824-2.2016 0.0832-0.2072 0.3576-1.0416-0.0784-2.1712 0 0-0.6704-0.22-2.1976 0.8408-0.6392-0.1816-1.324-0.2728-2.004-0.276-0.68 0-1.364 0.0944-2.0024 0.276-1.5288-1.0608-2.2008-0.8408-2.2008-0.8408-0.4344 1.1296-0.16 1.964-0.0776 2.1712-0.5112 0.5744-0.824 1.3056-0.824 2.2016 0 3.1424 1.868 3.8464 3.6448 4.0536-0.2288 0.2048-0.436 0.5664-0.508 1.0968-0.456 0.2096-1.6144 0.572-2.328-0.6816 0 0-0.4232-0.788-1.2264-0.8456 0 0-0.78-0.0104-0.0544 0.4984 0 0 0.524 0.252 0.888 1.2 0 0 0.4696 1.464 2.6952 0.968 4e-3 0.6856 0.0112 1.332 0.0112 1.5272 0 0.2168-0.1472 0.4704-0.5464 0.3944-3.1792-1.084-5.4712-4.1592-5.4712-7.7832 0-4.5304 3.5824-8.2024 8-8.2024" fill="#4b5563" stroke-width=".8"/></svg>
