<svg width="950" height="205" version="1.1" viewBox="0 0 251.35 54.24" xml:space="preserve" xmlns="http://www.w3.org/2000/svg"><g transform="matrix(.26398 0 0 .26398 24.941 -11.329)"><g transform="matrix(.76886 0 0 .76886 476.79 296.12)" stroke="#383838" stroke-linecap="round" stroke-linejoin="round" stroke-miterlimit="50" stroke-width=".18941"><path d="m430.52-261.37v137.03h31.32v-137.03z" fill="#808080"/><path d="m302.3-261.37v92.785c0 0.89717 0.02 1.7842 0.0587 2.6584s0.0967 1.7367 0.17423 2.588c0.0775 0.85129 0.1735 1.6911 0.28972 2.5194 0.11623 0.82835 0.25222 1.6455 0.40719 2.4509 0.15497 0.80541 0.32897 1.598 0.52268 2.3804 0.19371 0.78248 0.40768 1.5544 0.64013 2.3139 0.23246 0.75954 0.48444 1.5068 0.75564 2.2434 0.27119 0.7366 0.56119 1.4632 0.87113 2.1768 0.30994 0.71367 0.63991 1.4157 0.98859 2.1064 0.34868 0.69073 0.71667 1.3701 1.1041 2.0379s0.79342 1.3245 1.2196 1.9694c0.42616 0.64485 0.87214 1.277 1.337 1.8989 0.46491 0.62191 0.9489 1.2333 1.4525 1.8323 0.50365 0.59898 1.0256 1.1858 1.568 1.7618s1.1044 1.1402 1.6855 1.6933c0.58113 0.55311 1.1831 1.0946 1.803 1.6248 0.61988 0.53017 1.2498 1.0436 1.891 1.5406s1.293 0.97886 1.9556 1.4428c0.66269 0.4639 1.3361 0.9102 2.0202 1.341 0.68411 0.43076 1.3793 0.84546 2.0848 1.2431 0.70552 0.39763 1.4206 0.77875 2.1475 1.1432 0.72694 0.36449 1.4657 0.71205 2.214 1.0434 0.74835 0.33136 1.5069 0.64731 2.2767 0.94553 0.76975 0.29822 1.5501 0.57864 2.3413 0.84372 0.79117 0.26509 1.5933 0.5139 2.4059 0.74585 0.81257 0.23195 1.6365 0.4472 2.4705 0.64601s1.6777 0.3805 2.5331 0.54617c0.8554 0.16568 1.7209 0.31575 2.5977 0.44829 1.7536 0.26509 3.552 0.46453 5.3912 0.59707 1.8393 0.13254 3.7208 0.19772 5.6457 0.19772 1.9249 0 3.8065-0.0652 5.6457-0.19772 1.8393-0.13254 3.6357-0.33198 5.3893-0.59707 0.87681-0.13254 1.7423-0.28261 2.5977-0.44829 0.8554-0.16567 1.7011-0.34736 2.5351-0.54617 0.83399-0.19881 1.6579-0.41406 2.4705-0.64601s1.6128-0.48076 2.4039-0.74585c0.79116-0.26508 1.5715-0.5455 2.3413-0.84372 0.76976-0.29822 1.5303-0.61417 2.2786-0.94553 0.74835-0.33135 1.4852-0.67891 2.2121-1.0434s1.4439-0.74561 2.1494-1.1432c0.70552-0.39762 1.4007-0.81232 2.0848-1.2431 0.68411-0.43076 1.3556-0.87706 2.0183-1.341 0.6627-0.46389 1.3163-0.94572 1.9576-1.4428 0.64128-0.49703 1.2712-1.0105 1.891-1.5406 0.61988-0.53012 1.2199-1.0717 1.801-1.6248 0.58113-0.55306 1.1431-1.1173 1.6855-1.6933s1.0664-1.1629 1.57-1.7618c0.50365-0.59895 0.98764-1.2104 1.4526-1.8323 0.4649-0.6219 0.91088-1.254 1.337-1.8989s0.83217-1.3016 1.2196-1.9694 0.75541-1.3471 1.1041-2.0379c0.34867-0.69072 0.67865-1.3927 0.98859-2.1064 0.30993-0.71366 0.59993-1.4383 0.87113-2.1749 0.27119-0.7366 0.52318-1.4858 0.75563-2.2454 0.23246-0.75955 0.44447-1.5294 0.63818-2.3119 0.19371-0.78249 0.36967-1.577 0.52464-2.3824 0.15497-0.80544 0.289-1.6225 0.40523-2.4509 0.11622-0.82838 0.21419-1.6681 0.29168-2.5194 0.0775-0.85132 0.13548-1.7137 0.17423-2.588 0.0387-0.87427 0.0587-1.7612 0.0587-2.6584v-92.785h-31.322v90.044c0 0.79933-0.0281 1.5743-0.0842 2.3237-0.0561 0.74938-0.13842 1.4735-0.25057 2.1729-0.11215 0.69942-0.25266 1.3747-0.42089 2.0242-0.16822 0.64945-0.36493 1.2739-0.58923 1.8734-0.22431 0.5995-0.47722 1.1732-0.7576 1.7227-0.28037 0.54955-0.58753 1.0743-0.92399 1.5739-0.33645 0.49958-0.70177 0.97355-1.0943 1.4232-0.39252 0.44962-0.81209 0.87473-1.2607 1.2744-0.44861 0.39966-0.92633 0.77395-1.431 1.1237s-1.0366 0.67514-1.5974 0.97489c-0.56075 0.29975-1.1509 0.57436-1.7677 0.82415s-1.2612 0.47358-1.9341 0.67342c-0.6729 0.19983-1.3735 0.37476-2.1025 0.52463-0.72898 0.14988-1.4858 0.27595-2.2708 0.37586-0.78506 0.0999-1.598 0.17517-2.4392 0.22513-0.84113 0.05-1.7103 0.0744-2.6075 0.0744-0.8972 0-1.7664-0.0244-2.6075-0.0744-0.84114-0.05-1.6541-0.12521-2.4392-0.22513-0.78506-0.0999-1.5418-0.22598-2.2708-0.37586-0.72898-0.14987-1.4315-0.3248-2.1044-0.52463-0.67291-0.19984-1.3173-0.42363-1.9341-0.67342s-1.205-0.5244-1.7658-0.82415c-0.56075-0.29975-1.0947-0.62518-1.5994-0.97489s-0.98045-0.724-1.429-1.1237c-0.4486-0.39967-0.86817-0.82478-1.2607-1.2744-0.39252-0.44963-0.75784-0.9236-1.0943-1.4232-0.33645-0.49958-0.64557-1.0244-0.92594-1.5739-0.28038-0.54954-0.53134-1.1232-0.75564-1.7227s-0.42101-1.224-0.58924-1.8734c-0.16822-0.64946-0.30873-1.3248-0.42088-2.0242-0.11215-0.69941-0.19646-1.4236-0.25253-2.1729-0.0561-0.74937-0.0842-1.5243-0.0842-2.3237v-90.044z" fill="#808080"/><path d="m275.31-293.38v195.35h213.51v-195.35zm26.986 32.005h31.32v90.044c0 0.79933 0.0281 1.5743 0.0842 2.3237 0.0561 0.74938 0.14038 1.4735 0.25253 2.1729 0.11215 0.69942 0.25266 1.3747 0.42088 2.0242 0.16823 0.64945 0.36494 1.2739 0.58924 1.8734s0.47526 1.1732 0.75564 1.7227c0.28037 0.54955 0.58949 1.0743 0.92594 1.5739 0.33646 0.49958 0.70178 0.97355 1.0943 1.4232 0.39253 0.44962 0.8121 0.87473 1.2607 1.2744 0.4486 0.39966 0.92437 0.77395 1.429 1.1237s1.0386 0.67514 1.5994 0.97489c0.56076 0.29975 1.1489 0.57436 1.7658 0.82415s1.2612 0.47358 1.9341 0.67342c0.6729 0.19983 1.3754 0.37476 2.1044 0.52463 0.72898 0.14988 1.4858 0.27595 2.2708 0.37586 0.78506 0.0999 1.598 0.17517 2.4392 0.22513 0.84113 0.05 1.7103 0.0744 2.6075 0.0744 0.89721 0 1.7664-0.0244 2.6075-0.0744s1.6541-0.12521 2.4392-0.22513c0.78505-0.0999 1.5418-0.22598 2.2708-0.37586 0.72898-0.14987 1.4296-0.3248 2.1025-0.52463 0.67291-0.19984 1.3173-0.42363 1.9341-0.67342s1.207-0.5244 1.7677-0.82415c0.56076-0.29975 1.0927-0.62518 1.5974-0.97489s0.9824-0.724 1.431-1.1237c0.4486-0.39967 0.86817-0.82478 1.2607-1.2744 0.39253-0.44963 0.75785-0.9236 1.0943-1.4232 0.33646-0.49958 0.64362-1.0244 0.92399-1.5739 0.28038-0.54954 0.53329-1.1232 0.7576-1.7227 0.2243-0.5995 0.42101-1.224 0.58923-1.8734 0.16823-0.64946 0.30874-1.3248 0.42089-2.0242 0.11215-0.69941 0.1945-1.4236 0.25057-2.1729 0.0561-0.74937 0.0842-1.5243 0.0842-2.3237v-90.044h31.322v92.785c0 0.89721-0.02 1.7842-0.0587 2.6584-0.0387 0.87426-0.0968 1.7366-0.17423 2.588-0.0775 0.85132-0.17546 1.6911-0.29168 2.5194-0.11623 0.82838-0.25026 1.6455-0.40523 2.4509-0.15497 0.80543-0.33093 1.5999-0.52464 2.3824-0.19371 0.7825-0.40572 1.5524-0.63818 2.3119-0.23245 0.75955-0.48444 1.5088-0.75563 2.2454-0.2712 0.73661-0.5612 1.4612-0.87113 2.1749-0.30994 0.71367-0.63992 1.4157-0.98859 2.1064-0.34868 0.69073-0.71667 1.3701-1.1041 2.0379s-0.79343 1.3245-1.2196 1.9694-0.87214 1.277-1.337 1.8989c-0.46491 0.62189-0.9489 1.2334-1.4526 1.8323-0.50364 0.59896-1.0276 1.1858-1.57 1.7618s-1.1044 1.1403-1.6855 1.6933c-0.58113 0.55307-1.1811 1.0947-1.801 1.6248-0.61987 0.53017-1.2498 1.0436-1.891 1.5406-0.64129 0.49703-1.2949 0.97886-1.9576 1.4428-0.66269 0.4639-1.3342 0.9102-2.0183 1.341-0.6841 0.43076-1.3793 0.84546-2.0848 1.2431-0.70552 0.39763-1.4225 0.77875-2.1494 1.1432s-1.4638 0.71205-2.2121 1.0434c-0.74834 0.33136-1.5089 0.64731-2.2786 0.94553-0.76975 0.29822-1.5501 0.57864-2.3413 0.84372-0.79117 0.26509-1.5914 0.5139-2.4039 0.74585s-1.6365 0.4472-2.4705 0.64601c-0.83398 0.19881-1.6797 0.3805-2.5351 0.54617-0.8554 0.16568-1.7209 0.31575-2.5977 0.44829-1.7536 0.26509-3.55 0.46453-5.3893 0.59707s-3.7208 0.19772-5.6457 0.19772c-1.9249 0-3.8065-0.0652-5.6457-0.19772-1.8393-0.13254-3.6376-0.33198-5.3912-0.59707-0.87681-0.13254-1.7423-0.28261-2.5977-0.44829-0.8554-0.16567-1.6992-0.34736-2.5331-0.54617s-1.6579-0.41406-2.4705-0.64601c-0.81258-0.23195-1.6147-0.48076-2.4059-0.74585-0.79116-0.26508-1.5715-0.5455-2.3413-0.84372-0.76976-0.29822-1.5284-0.61417-2.2767-0.94553-0.74834-0.33135-1.4871-0.67891-2.214-1.0434-0.72693-0.36449-1.442-0.74561-2.1475-1.1432-0.70552-0.39762-1.4007-0.81232-2.0848-1.2431-0.6841-0.43076-1.3576-0.87706-2.0202-1.341-0.6627-0.46389-1.3144-0.94572-1.9556-1.4428s-1.2712-1.0105-1.891-1.5406c-0.61987-0.53016-1.2218-1.0717-1.803-1.6248-0.58113-0.5531-1.1431-1.1173-1.6855-1.6933s-1.0644-1.1629-1.568-1.7618c-0.50364-0.59898-0.98763-1.2104-1.4525-1.8323-0.4649-0.62192-0.91088-1.254-1.337-1.8989-0.42617-0.64485-0.83217-1.3016-1.2196-1.9694s-0.75541-1.3471-1.1041-2.0379c-0.34868-0.69072-0.67865-1.3927-0.98859-2.1064-0.30994-0.71366-0.59994-1.4402-0.87113-2.1768-0.2712-0.73661-0.52318-1.4839-0.75564-2.2434-0.23245-0.75954-0.44642-1.5314-0.64013-2.3139-0.19371-0.78247-0.36771-1.575-0.52268-2.3804-0.15497-0.80542-0.29096-1.6226-0.40719-2.4509-0.11622-0.82836-0.21224-1.6682-0.28972-2.5194-0.0775-0.85129-0.13549-1.7137-0.17423-2.588-0.0387-0.87423-0.0587-1.7613-0.0587-2.6584zm128.22 2e-3h31.32v137.03h-31.32z"/></g><g transform="translate(87.68 -47.256)" display="none" stroke="#383838" stroke-linecap="round" stroke-linejoin="round" stroke-miterlimit="50" stroke-width=".18941"><path d="m430.52-261.37v137.03h31.32v-137.03z"/><path d="m302.3-261.37v92.785c0 0.89717 0.02 1.7842 0.0587 2.6584s0.0967 1.7367 0.17423 2.588c0.0775 0.85129 0.1735 1.6911 0.28972 2.5194 0.11623 0.82835 0.25222 1.6455 0.40719 2.4509 0.15497 0.80541 0.32897 1.598 0.52268 2.3804 0.19371 0.78248 0.40768 1.5544 0.64013 2.3139 0.23246 0.75954 0.48444 1.5068 0.75564 2.2434 0.27119 0.7366 0.56119 1.4632 0.87113 2.1768 0.30994 0.71367 0.63991 1.4157 0.98859 2.1064 0.34868 0.69073 0.71667 1.3701 1.1041 2.0379s0.79342 1.3245 1.2196 1.9694c0.42616 0.64485 0.87214 1.277 1.337 1.8989 0.46491 0.62191 0.9489 1.2333 1.4525 1.8323 0.50365 0.59898 1.0256 1.1858 1.568 1.7618s1.1044 1.1402 1.6855 1.6933c0.58113 0.55311 1.1831 1.0946 1.803 1.6248 0.61988 0.53017 1.2498 1.0436 1.891 1.5406s1.293 0.97886 1.9556 1.4428c0.66269 0.4639 1.3361 0.9102 2.0202 1.341 0.68411 0.43076 1.3793 0.84546 2.0848 1.2431 0.70552 0.39763 1.4206 0.77875 2.1475 1.1432 0.72694 0.36449 1.4657 0.71205 2.214 1.0434 0.74835 0.33136 1.5069 0.64731 2.2767 0.94553 0.76975 0.29822 1.5501 0.57864 2.3413 0.84372 0.79117 0.26509 1.5933 0.5139 2.4059 0.74585 0.81257 0.23195 1.6365 0.4472 2.4705 0.64601s1.6777 0.3805 2.5331 0.54617c0.8554 0.16568 1.7209 0.31575 2.5977 0.44829 1.7536 0.26509 3.552 0.46453 5.3912 0.59707 1.8393 0.13254 3.7208 0.19772 5.6457 0.19772 1.9249 0 3.8065-0.0652 5.6457-0.19772 1.8393-0.13254 3.6357-0.33198 5.3893-0.59707 0.87681-0.13254 1.7423-0.28261 2.5977-0.44829 0.8554-0.16567 1.7011-0.34736 2.5351-0.54617 0.83399-0.19881 1.6579-0.41406 2.4705-0.64601s1.6128-0.48076 2.4039-0.74585c0.79116-0.26508 1.5715-0.5455 2.3413-0.84372 0.76976-0.29822 1.5303-0.61417 2.2786-0.94553 0.74835-0.33135 1.4852-0.67891 2.2121-1.0434s1.4439-0.74561 2.1494-1.1432c0.70552-0.39762 1.4007-0.81232 2.0848-1.2431 0.68411-0.43076 1.3556-0.87706 2.0183-1.341 0.6627-0.46389 1.3163-0.94572 1.9576-1.4428 0.64128-0.49703 1.2712-1.0105 1.891-1.5406 0.61988-0.53012 1.2199-1.0717 1.801-1.6248 0.58113-0.55306 1.1431-1.1173 1.6855-1.6933s1.0664-1.1629 1.57-1.7618c0.50365-0.59895 0.98764-1.2104 1.4526-1.8323 0.4649-0.6219 0.91088-1.254 1.337-1.8989s0.83217-1.3016 1.2196-1.9694 0.75541-1.3471 1.1041-2.0379c0.34867-0.69072 0.67865-1.3927 0.98859-2.1064 0.30993-0.71366 0.59993-1.4383 0.87113-2.1749 0.27119-0.7366 0.52318-1.4858 0.75563-2.2454 0.23246-0.75955 0.44447-1.5294 0.63818-2.3119 0.19371-0.78249 0.36967-1.577 0.52464-2.3824 0.15497-0.80544 0.289-1.6225 0.40523-2.4509 0.11622-0.82838 0.21419-1.6681 0.29168-2.5194 0.0775-0.85132 0.13548-1.7137 0.17423-2.588 0.0387-0.87427 0.0587-1.7612 0.0587-2.6584v-92.785h-31.322v90.044c0 0.79933-0.0281 1.5743-0.0842 2.3237-0.0561 0.74938-0.13842 1.4735-0.25057 2.1729-0.11215 0.69942-0.25266 1.3747-0.42089 2.0242-0.16822 0.64945-0.36493 1.2739-0.58923 1.8734-0.22431 0.5995-0.47722 1.1732-0.7576 1.7227-0.28037 0.54955-0.58753 1.0743-0.92399 1.5739-0.33645 0.49958-0.70177 0.97355-1.0943 1.4232-0.39252 0.44962-0.81209 0.87473-1.2607 1.2744-0.44861 0.39966-0.92633 0.77395-1.431 1.1237s-1.0366 0.67514-1.5974 0.97489c-0.56075 0.29975-1.1509 0.57436-1.7677 0.82415s-1.2612 0.47358-1.9341 0.67342c-0.6729 0.19983-1.3735 0.37476-2.1025 0.52463-0.72898 0.14988-1.4858 0.27595-2.2708 0.37586-0.78506 0.0999-1.598 0.17517-2.4392 0.22513-0.84113 0.05-1.7103 0.0744-2.6075 0.0744-0.8972 0-1.7664-0.0244-2.6075-0.0744-0.84114-0.05-1.6541-0.12521-2.4392-0.22513-0.78506-0.0999-1.5418-0.22598-2.2708-0.37586-0.72898-0.14987-1.4315-0.3248-2.1044-0.52463-0.67291-0.19984-1.3173-0.42363-1.9341-0.67342s-1.205-0.5244-1.7658-0.82415c-0.56075-0.29975-1.0947-0.62518-1.5994-0.97489s-0.98045-0.724-1.429-1.1237c-0.4486-0.39967-0.86817-0.82478-1.2607-1.2744-0.39252-0.44963-0.75784-0.9236-1.0943-1.4232-0.33645-0.49958-0.64557-1.0244-0.92594-1.5739-0.28038-0.54954-0.53134-1.1232-0.75564-1.7227s-0.42101-1.224-0.58924-1.8734c-0.16822-0.64946-0.30873-1.3248-0.42088-2.0242-0.11215-0.69941-0.19646-1.4236-0.25253-2.1729-0.0561-0.74937-0.0842-1.5243-0.0842-2.3237v-90.044z"/><path d="m275.31-293.38v195.35h213.51v-195.35zm26.986 32.005h31.32v90.044c0 0.79933 0.0281 1.5743 0.0842 2.3237 0.0561 0.74938 0.14038 1.4735 0.25253 2.1729 0.11215 0.69942 0.25266 1.3747 0.42088 2.0242 0.16823 0.64945 0.36494 1.2739 0.58924 1.8734s0.47526 1.1732 0.75564 1.7227c0.28037 0.54955 0.58949 1.0743 0.92594 1.5739 0.33646 0.49958 0.70178 0.97355 1.0943 1.4232 0.39253 0.44962 0.8121 0.87473 1.2607 1.2744 0.4486 0.39966 0.92437 0.77395 1.429 1.1237s1.0386 0.67514 1.5994 0.97489c0.56076 0.29975 1.1489 0.57436 1.7658 0.82415s1.2612 0.47358 1.9341 0.67342c0.6729 0.19983 1.3754 0.37476 2.1044 0.52463 0.72898 0.14988 1.4858 0.27595 2.2708 0.37586 0.78506 0.0999 1.598 0.17517 2.4392 0.22513 0.84113 0.05 1.7103 0.0744 2.6075 0.0744 0.89721 0 1.7664-0.0244 2.6075-0.0744s1.6541-0.12521 2.4392-0.22513c0.78505-0.0999 1.5418-0.22598 2.2708-0.37586 0.72898-0.14987 1.4296-0.3248 2.1025-0.52463 0.67291-0.19984 1.3173-0.42363 1.9341-0.67342s1.207-0.5244 1.7677-0.82415c0.56076-0.29975 1.0927-0.62518 1.5974-0.97489s0.9824-0.724 1.431-1.1237c0.4486-0.39967 0.86817-0.82478 1.2607-1.2744 0.39253-0.44963 0.75785-0.9236 1.0943-1.4232 0.33646-0.49958 0.64362-1.0244 0.92399-1.5739 0.28038-0.54954 0.53329-1.1232 0.7576-1.7227 0.2243-0.5995 0.42101-1.224 0.58923-1.8734 0.16823-0.64946 0.30874-1.3248 0.42089-2.0242 0.11215-0.69941 0.1945-1.4236 0.25057-2.1729 0.0561-0.74937 0.0842-1.5243 0.0842-2.3237v-90.044h31.322v92.785c0 0.89721-0.02 1.7842-0.0587 2.6584-0.0387 0.87426-0.0968 1.7366-0.17423 2.588-0.0775 0.85132-0.17546 1.6911-0.29168 2.5194-0.11623 0.82838-0.25026 1.6455-0.40523 2.4509-0.15497 0.80543-0.33093 1.5999-0.52464 2.3824-0.19371 0.7825-0.40572 1.5524-0.63818 2.3119-0.23245 0.75955-0.48444 1.5088-0.75563 2.2454-0.2712 0.73661-0.5612 1.4612-0.87113 2.1749-0.30994 0.71367-0.63992 1.4157-0.98859 2.1064-0.34868 0.69073-0.71667 1.3701-1.1041 2.0379s-0.79343 1.3245-1.2196 1.9694-0.87214 1.277-1.337 1.8989c-0.46491 0.62189-0.9489 1.2334-1.4526 1.8323-0.50364 0.59896-1.0276 1.1858-1.57 1.7618s-1.1044 1.1403-1.6855 1.6933c-0.58113 0.55307-1.1811 1.0947-1.801 1.6248-0.61987 0.53017-1.2498 1.0436-1.891 1.5406-0.64129 0.49703-1.2949 0.97886-1.9576 1.4428-0.66269 0.4639-1.3342 0.9102-2.0183 1.341-0.6841 0.43076-1.3793 0.84546-2.0848 1.2431-0.70552 0.39763-1.4225 0.77875-2.1494 1.1432s-1.4638 0.71205-2.2121 1.0434c-0.74834 0.33136-1.5089 0.64731-2.2786 0.94553-0.76975 0.29822-1.5501 0.57864-2.3413 0.84372-0.79117 0.26509-1.5914 0.5139-2.4039 0.74585s-1.6365 0.4472-2.4705 0.64601c-0.83398 0.19881-1.6797 0.3805-2.5351 0.54617-0.8554 0.16568-1.7209 0.31575-2.5977 0.44829-1.7536 0.26509-3.55 0.46453-5.3893 0.59707s-3.7208 0.19772-5.6457 0.19772c-1.9249 0-3.8065-0.0652-5.6457-0.19772-1.8393-0.13254-3.6376-0.33198-5.3912-0.59707-0.87681-0.13254-1.7423-0.28261-2.5977-0.44829-0.8554-0.16567-1.6992-0.34736-2.5331-0.54617s-1.6579-0.41406-2.4705-0.64601c-0.81258-0.23195-1.6147-0.48076-2.4059-0.74585-0.79116-0.26508-1.5715-0.5455-2.3413-0.84372-0.76976-0.29822-1.5284-0.61417-2.2767-0.94553-0.74834-0.33135-1.4871-0.67891-2.214-1.0434-0.72693-0.36449-1.442-0.74561-2.1475-1.1432-0.70552-0.39762-1.4007-0.81232-2.0848-1.2431-0.6841-0.43076-1.3576-0.87706-2.0202-1.341-0.6627-0.46389-1.3144-0.94572-1.9556-1.4428s-1.2712-1.0105-1.891-1.5406c-0.61987-0.53016-1.2218-1.0717-1.803-1.6248-0.58113-0.5531-1.1431-1.1173-1.6855-1.6933s-1.0644-1.1629-1.568-1.7618c-0.50364-0.59898-0.98763-1.2104-1.4525-1.8323-0.4649-0.62192-0.91088-1.254-1.337-1.8989-0.42617-0.64485-0.83217-1.3016-1.2196-1.9694s-0.75541-1.3471-1.1041-2.0379c-0.34868-0.69072-0.67865-1.3927-0.98859-2.1064-0.30994-0.71366-0.59994-1.4402-0.87113-2.1768-0.2712-0.73661-0.52318-1.4839-0.75564-2.2434-0.23245-0.75954-0.44642-1.5314-0.64013-2.3139-0.19371-0.78247-0.36771-1.575-0.52268-2.3804-0.15497-0.80542-0.29096-1.6226-0.40719-2.4509-0.11622-0.82836-0.21224-1.6682-0.28972-2.5194-0.0775-0.85129-0.13549-1.7137-0.17423-2.588-0.0387-0.87423-0.0587-1.7613-0.0587-2.6584zm128.22 2e-3h31.32v137.03h-31.32z" fill="#808080"/></g><g transform="matrix(.90115 0 0 .90115 78.5 -59.12)"><path d="m644.83 191.06h-32.808v63.5q0 8.2021 3.7042 11.906 3.7042 3.4396 10.848 3.9687 7.4083 0.26459 18.256-0.26458v25.665q-32.808 3.9688-47.096-5.5562-14.287-9.7896-14.287-35.719v-63.5h-24.342v-27.517h24.342v-28.575l28.575-8.4666v37.042h32.808zm-193.3 48.528q3.175 15.081 14.552 23.283 11.377 7.9375 27.781 7.9375 22.754 0 34.131-16.404l23.548 13.758q-19.579 28.84-57.944 28.84-32.279 0-52.123-19.579-19.844-19.844-19.844-50.006 0-29.633 19.579-49.477 19.579-20.108 50.271-20.108 29.104 0 47.625 20.373 18.785 20.373 18.785 49.477 0 4.4979-1.0583 11.906zm-0.26458-23.283h77.787q-2.9104-16.14-13.494-24.342-10.319-8.2021-24.342-8.2021-15.875 0-26.458 8.7312t-13.494 23.812zm-23.771 80.698h-34.131l-54.24-61.119v61.119h-28.575v-185.21h28.575v111.39l51.329-58.473h34.925l-58.208 64.823zm-183.85 0q-29.898 0-50.006-20.108-19.844-20.108-19.844-49.477 0-29.633 19.844-49.477 20.108-20.108 50.006-20.108 19.315 0 35.19 9.2604t23.812 24.871l-24.606 14.287q-4.4979-9.525-13.758-14.817-8.9958-5.5562-20.902-5.5562-17.462 0-29.369 11.906-11.642 11.906-11.642 29.633t11.642 29.633q11.906 11.906 29.369 11.906 11.642 0 20.902-5.5562 9.525-5.5562 14.287-14.817l24.606 14.023q-8.4666 15.875-24.342 25.135-15.875 9.2604-35.19 9.2604zm-107.12-132.29h28.575v132.29h-28.575v-19.05q-16.14 22.49-46.302 22.49-27.252 0-46.567-20.108-19.315-20.373-19.315-49.477 0-29.369 19.315-49.477t46.567-20.108q30.162 0 46.302 22.225zm-71.702 96.573q11.906 11.906 29.898 11.906t29.898-11.906q11.906-12.171 11.906-30.427t-11.906-30.162q-11.906-12.171-29.898-12.171t-29.898 12.171q-11.906 11.906-11.906 30.162t11.906 30.427zm-83.873-74.348q10.848-24.606 40.746-24.606v30.956q-16.404-1.0583-28.575 7.9375-12.171 8.7312-12.171 29.104v66.675h-28.575v-132.29h28.575z" stroke-miterlimit="50" stroke-width="0"/></g><g transform="translate(-92.146 -2.9013)" stroke-miterlimit="50"><path d="m0.042375 78.14v139.7l65.61-21.169-1.0061-96.701z" fill="#808080" stroke="#969696" stroke-linecap="round" stroke-linejoin="round" stroke-width=".05"/><path d="m0.042375 78.14 64.604 21.829 1.0061 96.701-65.61 21.169v30.121h3.4277l94.206-29.034 0.50023-136.58-98.134-33.201z" stroke-width="0"/></g></g></svg>
