<svg fill="none" version="1.1" viewBox="0 0 300 200" xmlns="http://www.w3.org/2000/svg"><g transform="matrix(.33333 0 0 .33333 1.5e-6 1e-6)"><path d="m0 0h900v600h-900z" fill="transparent"/><circle cx="495.27" cy="114.94" r="43.942" fill="#900c3e"/><g stroke="#e1e4e5" stroke-width="4"><g stroke-linecap="round" stroke-linejoin="round"><path d="m506.3 520.49v-167.21a12.864 12.864 0 0 0-17.378-12.005l-64.321 24.081a12.856 12.856 0 0 0-8.344 12.066v143.07"/><path d="m359.98 362.91h22.511c6.216 0 11.255 5.039 11.255 11.255v22.511h-45.021v-22.511c0-6.216 5.039-11.255 11.255-11.255z" clip-rule="evenodd"/><path d="m371.24 340.4v22.511m-45.021 157.58v-112.55c0-6.216 5.039-11.256 11.255-11.256h67.533c6.216 0 11.255 5.04 11.255 11.256v112.55m-61.9-56.278h33.767m-33.767 0h33.767m-33.767-33.765h33.767m58.147-29.445v79.468m30.015-79.468v79.468"/><path d="m156.17 360.41h20.01c5.525 0 10.005 4.479 10.005 10.005v20.009h-40.019v-20.009c0-5.526 4.479-10.005 10.004-10.005z" clip-rule="evenodd"/><path d="m166.17 340.4v20.009m-40.019 160.08v-120.06c0-5.526 4.48-10.005 10.005-10.005h60.029c5.525 0 10.005 4.479 10.005 10.005v30.014m30.014-1e-3v-70.034a10.006 10.006 0 0 1 13.517-9.365l50.023 18.759a10.007 10.007 0 0 1 6.494 9.375v141.31"/><path d="m176.18 520.49v-80.038c0-5.526 4.479-10.005 10.005-10.005h60.028c5.526 0 10.005 4.479 10.005 10.005v80.038m-55.026-33.013h30.014m-30.014-27.014h30.014m638.8 63.385h-841m617.23-71.96 60.029-51.455 60.028 51.455"/><path d="m757.72 520.49v-120.06h-25.733v22.011m-40.729 98.047v-42.88h30.014v42.88m-66.461-75.956v75.956m-73.646-30.013v30.014m250.31-30.014v30.014m-760.44-30.014v30.014"/><rect x="556.22" y="420.44" width="50.024" height="70.034" rx="20.483"/><rect x="806.53" y="420.44" width="50.024" height="70.034" rx="20.483"/><rect x="46.088" y="420.44" width="50.024" height="70.034" rx="20.483"/></g><path d="m355.55 135.95c11.707 0 6.23-18.564-8.602-14.13-0.822-25.778-42.838-44.638-60.212-9.871-4.912-3.887-15.942 3.455-13.5 9.871-5.456 0.465-9.749 1.096-13.089 1.932-7.711 1.93-6.185 12.111 1.764 12.04zm450.11 102.27c17.396 0 9.256-27.416-12.782-20.867-1.22-38.068-63.652-65.922-89.467-14.577-7.299-5.74-23.689 5.102-20.059 14.577-8.108 0.686-14.486 1.619-19.448 2.853-11.459 2.851-9.191 17.886 2.62 17.781zm-643.88-70.379h63.01c5.634 0 8.061-7.349 3.451-10.609-0.064-0.047-0.13-0.093-0.195-0.139-6.564-4.545-15.179-4.132-15.179-4.132s-1.229-24.595-24.406-24.595c-20.955 0-29.311 20.723-32.325 32.14-0.979 3.709 1.835 7.335 5.644 7.335zm462.61 0h63.01c5.634 0 8.061-7.349 3.451-10.609-0.064-0.047-0.13-0.093-0.195-0.139-6.564-4.545-15.178-4.132-15.178-4.132s-1.23-24.595-24.407-24.595c-20.954 0-29.31 20.723-32.325 32.14-0.979 3.709 1.835 7.335 5.644 7.335zm-187.6 14.231h-51.464c-4.602 0-6.584-5.908-2.819-8.529 0.053-0.037 0.106-0.075 0.16-0.111 5.361-3.654 12.397-3.322 12.397-3.322s1.004-19.773 19.934-19.773c17.115 0 23.94 16.66 26.402 25.838 0.799 2.982-1.499 5.897-4.61 5.897zm-300.26 58.732h-84.528c-6.843 0-9.795-8.662-4.192-12.506l0.237-0.162c7.975-5.358 18.44-4.872 18.44-4.872s1.496-28.986 29.656-28.986c13.922 0 25.173 23.263 25.173 23.263s18.939 0 22.073 14.616c0.948 4.428-2.229 8.647-6.859 8.647zm462.61 0h-84.528c-6.843 0-9.795-8.662-4.193-12.506l0.238-0.162c7.975-5.358 18.441-4.872 18.441-4.872s1.495-28.986 29.654-28.986c13.922 0 25.174 23.263 25.174 23.263s18.939 0 22.073 14.616c0.947 4.428-2.229 8.647-6.859 8.647zm-384.55 2.968h187.4c17.591 0 16.784-14.56 11.038-19.633-5.889-5.199-17.526-3.091-17.526-3.091s-3.464-9.793-14.867-14.56c-10.087-4.218-20.654-2.211-20.654-2.211s0-6.721-6.458-12.287c-6.459-5.567-15.07-5.026-15.07-5.026s-5.92-37.061-45.477-37.061c-39.558 0-44.133 34.896-44.133 34.896s-8.88 0-15.339 5.952c-6.458 5.952-7.266 12.714-7.266 12.714s-21.599-2.925-27.987 15.804c-3.806 11.163 4.015 24.503 16.341 24.503z" clip-rule="evenodd" fill="#fff" fill-rule="evenodd"/></g></g></svg>
