<svg version="1.1" viewBox="0 0 193 40" xmlns="http://www.w3.org/2000/svg"><defs><clipPath id="a"><rect x="-7.7209e-9" y="-7.7209e-9" width="10.583" height="10.583" ry="1.7961" stroke-dasharray="0.520015, 3.1201" stroke-linecap="round" stroke-linejoin="round" stroke-miterlimit="20" stroke-width=".52002" style="paint-order:markers fill stroke"/></clipPath></defs><g transform="matrix(3.7795 0 0 3.7795 153.52 -250.86)" stroke-miterlimit="20" stroke-width="0"><path transform="translate(-.14031 66.373)" d="m-2e-7 -1e-7v10.583h10.583v-10.583zm5.3537 1.3327 4.177 3.4039-0.92398 1.1338-4.177-3.4034zm-1.3627 1.6728 2.6758 2.1802c0.31815 0.25925 0.53134 0.55951 0.63975 0.90124 0.10816 0.33926 0.11522 0.6961 0.02119 1.0697-0.09539 0.37249-0.28843 0.73744-0.57981 1.095-0.29359 0.3603-0.61356 0.62459-0.95911 0.79323-0.34692 0.16753-0.6975 0.23276-1.0516 0.19534-0.35437-0.03989-0.69057-0.18982-1.0087-0.44907l-2.6758-2.1802 0.92397-1.1338 2.5781 2.1006c0.12916 0.10525 0.26801 0.1709 0.41651 0.19689 0.14714 0.02488 0.29034 0.01016 0.42943-0.04393 0.1402-0.05544 0.26268-0.14782 0.36794-0.27699 0.10636-0.13052 0.17201-0.26937 0.19689-0.41651 0.02488-0.14714 0.01016-0.29034-0.04393-0.42943-0.05544-0.1402-0.14782-0.26268-0.27699-0.36794l-2.5776-2.1006z" clip-path="url(#a)" style="paint-order:markers fill stroke"/><path d="m-5.913 69.418v-0.82682h5.7727v0.82682h-2.4203v6.8701h-0.93205v-6.8701zm-5.0374 6.8701v-7.6969h4.6452v0.82682h-3.7132v2.6007h3.4726v0.82682h-3.4726v2.6158h3.7733v0.82682zm-6.1004 0v-7.6969h0.93205v3.8184h0.0902l3.4576-3.8184h1.2177l-3.2321 3.4726 3.2321 4.2243h-1.1275l-2.6759-3.5779-0.96212 1.0824v2.4955zm-0.40289-5.3969h-0.93205q-0.08268-0.40214-0.28939-0.70656-0.20295-0.30442-0.49609-0.51112-0.28939-0.21046-0.64266-0.3157t-0.73662-0.10523q-0.69904 0-1.2665 0.35328-0.56374 0.35328-0.89823 1.041-0.33073 0.68776-0.33073 1.6875t0.33073 1.6875q0.33449 0.68776 0.89823 1.041 0.5675 0.35328 1.2665 0.35328 0.38334 0 0.73662-0.10523t0.64266-0.31194q0.29314-0.21046 0.49609-0.51488 0.2067-0.30818 0.28939-0.70656h0.93205q-0.10523 0.59005-0.38334 1.0561-0.27811 0.46603-0.69152 0.793-0.41341 0.32321-0.92829 0.49233-0.51112 0.16912-1.0937 0.16912-0.98467 0-1.7514-0.48106t-1.2064-1.368q-0.43972-0.88695-0.43972-2.1046t0.43972-2.1046q0.43972-0.88695 1.2064-1.368t1.7514-0.48106q0.58253 0 1.0937 0.16912 0.51488 0.16912 0.92829 0.49609 0.41341 0.32321 0.69152 0.78924 0.27811 0.46227 0.38334 1.0561zm-11.705 5.2916h-0.97715l2.8262-7.6969h0.96212l2.8262 7.6969h-0.97715l-2.3001-6.4793h-0.06013zm0.3608-3.0066h3.9387v0.82682h-3.9387zm-6.0674 3.0066v-7.6969h2.6007q0.90199 0 1.4808 0.30818 0.57878 0.30442 0.85689 0.8381t0.27811 1.2139q0 0.68025-0.27811 1.2064-0.27811 0.52616-0.85313 0.82682-0.57502 0.2969-1.4695 0.2969h-2.1046v-0.84185h2.0746q0.61636 0 0.99218-0.1804 0.37958-0.1804 0.54871-0.51113 0.17288-0.33449 0.17288-0.79675 0-0.46227-0.17288-0.80803-0.17288-0.34576-0.55247-0.53367-0.37958-0.19167-1.0035-0.19167h-1.6386v6.8701zm3.623-3.4576 1.8942 3.4576h-1.0824l-1.8641-3.4576zm-9.3776 3.4576v-7.6969h2.6909q0.80427 0 1.3267 0.27811 0.5224 0.27435 0.77796 0.74038 0.25556 0.46227 0.25556 1.026 0 0.49609-0.17664 0.8193-0.17288 0.32321-0.45851 0.51112-0.28187 0.18791-0.6126 0.27811v0.07516q0.35328 0.02255 0.71031 0.24805 0.35704 0.2255 0.59756 0.64642 0.24053 0.42093 0.24053 1.0298 0 0.57878-0.26308 1.041-0.26308 0.46227-0.83058 0.73286-0.5675 0.2706-1.477 0.2706zm0.93205-0.82682h1.8491q0.91326 0 1.2966-0.35328 0.3871-0.35704 0.3871-0.8644 0-0.39086-0.19919-0.72159-0.19919-0.33449-0.5675-0.53368-0.36831-0.20295-0.87192-0.20295h-1.8942zm0-3.4877h1.7288q0.42093 0 0.75917-0.16536 0.342-0.16536 0.54119-0.46603 0.20295-0.30066 0.20295-0.70656 0-0.50737-0.35328-0.86064-0.35328-0.35704-1.12-0.35704h-1.7589z" style="paint-order:markers fill stroke"/></g></svg>
