<svg version="1.1" viewBox="0 0 950 181" xmlns="http://www.w3.org/2000/svg"><defs><clipPath id="a"><rect x="-7.7209e-9" y="-7.7209e-9" width="10.583" height="10.583" ry="1.7961" stroke-dasharray="0.520015, 3.1201" stroke-linecap="round" stroke-linejoin="round" stroke-miterlimit="20" stroke-width=".52002" style="paint-order:markers fill stroke"/></clipPath></defs><g transform="matrix(.95408 0 0 .95408 398.77 -248.81)"><path transform="matrix(17.917 0 0 17.917 388.15 260.84)" d="m-2e-7 -1e-7v10.583h10.583v-10.583zm5.3537 1.3327 4.177 3.4039-0.92398 1.1338-4.177-3.4034zm-1.3627 1.6728 2.6758 2.1802c0.31815 0.25925 0.53134 0.55951 0.63975 0.90124 0.10816 0.33926 0.11522 0.6961 0.02119 1.0697-0.09539 0.37249-0.28843 0.73744-0.57981 1.095-0.29359 0.3603-0.61356 0.62459-0.95911 0.79323-0.34692 0.16753-0.6975 0.23276-1.0516 0.19534-0.35437-0.03989-0.69057-0.18982-1.0087-0.44907l-2.6758-2.1802 0.92397-1.1338 2.5781 2.1006c0.12916 0.10525 0.26801 0.1709 0.41651 0.19689 0.14714 0.02488 0.29034 0.01016 0.42943-0.04393 0.1402-0.05544 0.26268-0.14782 0.36794-0.27699 0.10636-0.13052 0.17201-0.26937 0.19689-0.41651s0.01016-0.29034-0.04393-0.42943c-0.05544-0.1402-0.14782-0.26268-0.27699-0.36794l-2.5776-2.1006z" clip-path="url(#a)" stroke-miterlimit="20" stroke-width="0" style="paint-order:markers fill stroke"/><g transform="matrix(1.0267 0 0 1.0267 -227.72 266.48)"><path d="m-141.73 100.08h-28.906l-0.19531-15.723h26.66q6.0547 0 10.645-2.6367 4.5898-2.7344 7.1289-7.7148 2.6367-4.9805 2.6367-11.914 0-7.7148-2.2461-12.5-2.2461-4.8828-6.8359-7.1289-4.4922-2.2461-11.523-2.2461h-21.777v125.88h-19.141v-142.19h40.918q9.375 0 16.699 2.2461 7.3242 2.1484 12.402 6.8359 5.1758 4.6875 7.8125 11.816 2.7344 7.1289 2.7344 17.09 0 8.7891-3.9062 15.918t-11.035 11.621q-7.0312 4.4922-16.504 5.7617zm-0.68359 66.016h-35.742l10.547-16.211h25.195q6.8359 0 11.523-3.0273 4.7852-3.125 7.2266-8.5938 2.5391-5.5664 2.5391-13.184 0-7.6172-2.0508-13.281-2.0508-5.6641-6.6406-8.6914-4.4922-3.0273-11.914-3.0273h-23.242l0.19531-15.723h31.055l4.2969 5.7617q9.082 0.68359 15.137 5.6641 6.1523 4.8828 9.1797 12.5 3.125 7.6172 3.125 16.699 0 13.379-4.9805 22.559-4.9805 9.082-14.062 13.867-9.082 4.6875-21.387 4.6875zm66.699-142.19h40.332q13.965 0 23.438 4.8828 9.4727 4.8828 14.355 14.453 4.8828 9.4727 4.8828 23.34 0 9.9609-3.2227 18.066-3.125 8.0078-9.2773 13.672-6.1523 5.5664-14.844 8.3984l-5.2734 2.3438h-35.645l-0.19531-16.211h25.586q7.9102 0 13.184-3.418 5.2734-3.5156 7.9102-9.375 2.7344-5.957 2.7344-13.184 0-8.0078-2.4414-14.062-2.3438-6.0547-7.5195-9.2773-5.0781-3.3203-13.672-3.3203h-21.191v125.88h-19.141zm67.871 142.19-28.125-64.355 19.922-0.0977 28.613 63.281v1.1719zm85.352-128.22-37.988 128.22h-19.629l45.605-142.19h12.305zm30.664 128.22-37.988-128.22-0.48828-13.965h12.402l45.703 142.19zm0.0977-52.637v16.309h-68.066v-16.309zm108 7.2266h19.141q-0.6836 14.746-6.0547 25.391-5.2734 10.645-15.332 16.309-9.9609 5.6641-24.805 5.6641-10.742 0-19.434-4.1992-8.6914-4.1992-14.844-12.012-6.0547-7.8125-9.375-18.848-3.2227-11.133-3.2227-25v-26.074q0-13.77 3.3203-24.805 3.3203-11.133 9.4727-18.945 6.25-7.9102 15.234-12.012 8.9844-4.1992 20.41-4.1992 13.965 0 23.633 5.5664 9.7656 5.5664 15.039 16.211 5.2734 10.645 5.957 26.074h-19.141q-0.58594-11.133-3.418-18.066-2.7344-6.9336-8.1055-10.156-5.3711-3.3203-13.965-3.3203-7.6172 0-13.184 3.0273-5.5664 3.0273-9.082 8.6914-3.5156 5.5664-5.2734 13.672-1.7578 8.0078-1.7578 18.066v26.27q0 9.4727 1.4648 17.48 1.4648 7.9102 4.6875 13.867 3.3203 5.957 8.5938 9.2773 5.3711 3.2227 12.988 3.2227 9.5703 0 15.137-3.125 5.6641-3.125 8.3984-9.9609 2.7344-6.9336 3.5156-18.066zm61.816-96.777v142.19h-19.141v-142.19zm71.387 0-48.633 66.797-28.613 34.57-3.418-21.094 20.703-27.832 37.012-52.441zm-19.531 142.19-40.723-68.945 11.719-15.332 51.66 84.277zm115.23-16.211v16.211h-61.719v-16.211zm-57.812-125.98v142.19h-19.141v-142.19zm49.512 60.742v16.211h-53.418v-16.211zm7.4219-60.742v16.309h-60.84v-16.309zm72.07 0v142.19h-18.945v-142.19zm37.207 0v16.309h-93.164v-16.309z" stroke-miterlimit="20" stroke-width="0" style="font-variation-settings:'wdth' 75, 'wght' 420;paint-order:markers fill stroke" aria-label="BRACKET"/></g></g></svg>
